%TF.GenerationSoftware,KiCad,Pcbnew,10.0.0-rc2-12-g45b5765af0*%
%TF.CreationDate,2026-03-14T12:57:48+02:00*%
%TF.ProjectId,RverMonitor,52766572-4d6f-46e6-9974-6f722e6b6963,1.0*%
%TF.SameCoordinates,Original*%
%TF.FileFunction,Legend,Top*%
%TF.FilePolarity,Positive*%
%FSLAX46Y46*%
G04 Gerber Fmt 4.6, Leading zero omitted, Abs format (unit mm)*
G04 Created by KiCad (PCBNEW 10.0.0-rc2-12-g45b5765af0) date 2026-03-14 12:57:48*
%MOMM*%
%LPD*%
G01*
G04 APERTURE LIST*
%ADD10C,0.160000*%
%ADD11C,0.254000*%
%ADD12C,0.200000*%
%ADD13C,0.150000*%
%ADD14C,0.120000*%
%ADD15C,0.100000*%
%ADD16C,0.000000*%
%ADD17C,0.127000*%
%TA.AperFunction,Profile*%
%ADD18C,0.200000*%
%TD*%
G04 APERTURE END LIST*
D10*
X174885714Y-101445584D02*
X174847618Y-101483680D01*
X174847618Y-101483680D02*
X174733333Y-101521775D01*
X174733333Y-101521775D02*
X174657142Y-101521775D01*
X174657142Y-101521775D02*
X174542856Y-101483680D01*
X174542856Y-101483680D02*
X174466666Y-101407489D01*
X174466666Y-101407489D02*
X174428571Y-101331299D01*
X174428571Y-101331299D02*
X174390475Y-101178918D01*
X174390475Y-101178918D02*
X174390475Y-101064632D01*
X174390475Y-101064632D02*
X174428571Y-100912251D01*
X174428571Y-100912251D02*
X174466666Y-100836060D01*
X174466666Y-100836060D02*
X174542856Y-100759870D01*
X174542856Y-100759870D02*
X174657142Y-100721775D01*
X174657142Y-100721775D02*
X174733333Y-100721775D01*
X174733333Y-100721775D02*
X174847618Y-100759870D01*
X174847618Y-100759870D02*
X174885714Y-100797965D01*
X175647618Y-101521775D02*
X175190475Y-101521775D01*
X175419047Y-101521775D02*
X175419047Y-100721775D01*
X175419047Y-100721775D02*
X175342856Y-100836060D01*
X175342856Y-100836060D02*
X175266666Y-100912251D01*
X175266666Y-100912251D02*
X175190475Y-100950346D01*
X176333333Y-100988441D02*
X176333333Y-101521775D01*
X176142857Y-100683680D02*
X175952380Y-101255108D01*
X175952380Y-101255108D02*
X176447619Y-101255108D01*
X123585714Y-139725584D02*
X123547618Y-139763680D01*
X123547618Y-139763680D02*
X123433333Y-139801775D01*
X123433333Y-139801775D02*
X123357142Y-139801775D01*
X123357142Y-139801775D02*
X123242856Y-139763680D01*
X123242856Y-139763680D02*
X123166666Y-139687489D01*
X123166666Y-139687489D02*
X123128571Y-139611299D01*
X123128571Y-139611299D02*
X123090475Y-139458918D01*
X123090475Y-139458918D02*
X123090475Y-139344632D01*
X123090475Y-139344632D02*
X123128571Y-139192251D01*
X123128571Y-139192251D02*
X123166666Y-139116060D01*
X123166666Y-139116060D02*
X123242856Y-139039870D01*
X123242856Y-139039870D02*
X123357142Y-139001775D01*
X123357142Y-139001775D02*
X123433333Y-139001775D01*
X123433333Y-139001775D02*
X123547618Y-139039870D01*
X123547618Y-139039870D02*
X123585714Y-139077965D01*
X123890475Y-139077965D02*
X123928571Y-139039870D01*
X123928571Y-139039870D02*
X124004761Y-139001775D01*
X124004761Y-139001775D02*
X124195237Y-139001775D01*
X124195237Y-139001775D02*
X124271428Y-139039870D01*
X124271428Y-139039870D02*
X124309523Y-139077965D01*
X124309523Y-139077965D02*
X124347618Y-139154156D01*
X124347618Y-139154156D02*
X124347618Y-139230346D01*
X124347618Y-139230346D02*
X124309523Y-139344632D01*
X124309523Y-139344632D02*
X123852380Y-139801775D01*
X123852380Y-139801775D02*
X124347618Y-139801775D01*
X125033333Y-139268441D02*
X125033333Y-139801775D01*
X124842857Y-138963680D02*
X124652380Y-139535108D01*
X124652380Y-139535108D02*
X125147619Y-139535108D01*
X204366667Y-100035584D02*
X204328571Y-100073680D01*
X204328571Y-100073680D02*
X204214286Y-100111775D01*
X204214286Y-100111775D02*
X204138095Y-100111775D01*
X204138095Y-100111775D02*
X204023809Y-100073680D01*
X204023809Y-100073680D02*
X203947619Y-99997489D01*
X203947619Y-99997489D02*
X203909524Y-99921299D01*
X203909524Y-99921299D02*
X203871428Y-99768918D01*
X203871428Y-99768918D02*
X203871428Y-99654632D01*
X203871428Y-99654632D02*
X203909524Y-99502251D01*
X203909524Y-99502251D02*
X203947619Y-99426060D01*
X203947619Y-99426060D02*
X204023809Y-99349870D01*
X204023809Y-99349870D02*
X204138095Y-99311775D01*
X204138095Y-99311775D02*
X204214286Y-99311775D01*
X204214286Y-99311775D02*
X204328571Y-99349870D01*
X204328571Y-99349870D02*
X204366667Y-99387965D01*
X205052381Y-99578441D02*
X205052381Y-100111775D01*
X204861905Y-99273680D02*
X204671428Y-99845108D01*
X204671428Y-99845108D02*
X205166667Y-99845108D01*
X109886667Y-102121775D02*
X109620000Y-101740822D01*
X109429524Y-102121775D02*
X109429524Y-101321775D01*
X109429524Y-101321775D02*
X109734286Y-101321775D01*
X109734286Y-101321775D02*
X109810476Y-101359870D01*
X109810476Y-101359870D02*
X109848571Y-101397965D01*
X109848571Y-101397965D02*
X109886667Y-101474156D01*
X109886667Y-101474156D02*
X109886667Y-101588441D01*
X109886667Y-101588441D02*
X109848571Y-101664632D01*
X109848571Y-101664632D02*
X109810476Y-101702727D01*
X109810476Y-101702727D02*
X109734286Y-101740822D01*
X109734286Y-101740822D02*
X109429524Y-101740822D01*
X110572381Y-101588441D02*
X110572381Y-102121775D01*
X110381905Y-101283680D02*
X110191428Y-101855108D01*
X110191428Y-101855108D02*
X110686667Y-101855108D01*
D11*
X189202618Y-85114318D02*
X189202618Y-83844318D01*
X189202618Y-83844318D02*
X189504999Y-83844318D01*
X189504999Y-83844318D02*
X189686428Y-83904794D01*
X189686428Y-83904794D02*
X189807380Y-84025746D01*
X189807380Y-84025746D02*
X189867857Y-84146699D01*
X189867857Y-84146699D02*
X189928333Y-84388603D01*
X189928333Y-84388603D02*
X189928333Y-84570032D01*
X189928333Y-84570032D02*
X189867857Y-84811937D01*
X189867857Y-84811937D02*
X189807380Y-84932889D01*
X189807380Y-84932889D02*
X189686428Y-85053842D01*
X189686428Y-85053842D02*
X189504999Y-85114318D01*
X189504999Y-85114318D02*
X189202618Y-85114318D01*
X190654047Y-84388603D02*
X190533095Y-84328127D01*
X190533095Y-84328127D02*
X190472618Y-84267651D01*
X190472618Y-84267651D02*
X190412142Y-84146699D01*
X190412142Y-84146699D02*
X190412142Y-84086222D01*
X190412142Y-84086222D02*
X190472618Y-83965270D01*
X190472618Y-83965270D02*
X190533095Y-83904794D01*
X190533095Y-83904794D02*
X190654047Y-83844318D01*
X190654047Y-83844318D02*
X190895952Y-83844318D01*
X190895952Y-83844318D02*
X191016904Y-83904794D01*
X191016904Y-83904794D02*
X191077380Y-83965270D01*
X191077380Y-83965270D02*
X191137857Y-84086222D01*
X191137857Y-84086222D02*
X191137857Y-84146699D01*
X191137857Y-84146699D02*
X191077380Y-84267651D01*
X191077380Y-84267651D02*
X191016904Y-84328127D01*
X191016904Y-84328127D02*
X190895952Y-84388603D01*
X190895952Y-84388603D02*
X190654047Y-84388603D01*
X190654047Y-84388603D02*
X190533095Y-84449080D01*
X190533095Y-84449080D02*
X190472618Y-84509556D01*
X190472618Y-84509556D02*
X190412142Y-84630508D01*
X190412142Y-84630508D02*
X190412142Y-84872413D01*
X190412142Y-84872413D02*
X190472618Y-84993365D01*
X190472618Y-84993365D02*
X190533095Y-85053842D01*
X190533095Y-85053842D02*
X190654047Y-85114318D01*
X190654047Y-85114318D02*
X190895952Y-85114318D01*
X190895952Y-85114318D02*
X191016904Y-85053842D01*
X191016904Y-85053842D02*
X191077380Y-84993365D01*
X191077380Y-84993365D02*
X191137857Y-84872413D01*
X191137857Y-84872413D02*
X191137857Y-84630508D01*
X191137857Y-84630508D02*
X191077380Y-84509556D01*
X191077380Y-84509556D02*
X191016904Y-84449080D01*
X191016904Y-84449080D02*
X190895952Y-84388603D01*
D12*
X188321905Y-104322219D02*
X188321905Y-103322219D01*
X188321905Y-103322219D02*
X188560000Y-103322219D01*
X188560000Y-103322219D02*
X188702857Y-103369838D01*
X188702857Y-103369838D02*
X188798095Y-103465076D01*
X188798095Y-103465076D02*
X188845714Y-103560314D01*
X188845714Y-103560314D02*
X188893333Y-103750790D01*
X188893333Y-103750790D02*
X188893333Y-103893647D01*
X188893333Y-103893647D02*
X188845714Y-104084123D01*
X188845714Y-104084123D02*
X188798095Y-104179361D01*
X188798095Y-104179361D02*
X188702857Y-104274600D01*
X188702857Y-104274600D02*
X188560000Y-104322219D01*
X188560000Y-104322219D02*
X188321905Y-104322219D01*
X189274286Y-103417457D02*
X189321905Y-103369838D01*
X189321905Y-103369838D02*
X189417143Y-103322219D01*
X189417143Y-103322219D02*
X189655238Y-103322219D01*
X189655238Y-103322219D02*
X189750476Y-103369838D01*
X189750476Y-103369838D02*
X189798095Y-103417457D01*
X189798095Y-103417457D02*
X189845714Y-103512695D01*
X189845714Y-103512695D02*
X189845714Y-103607933D01*
X189845714Y-103607933D02*
X189798095Y-103750790D01*
X189798095Y-103750790D02*
X189226667Y-104322219D01*
X189226667Y-104322219D02*
X189845714Y-104322219D01*
D13*
X195163333Y-101094819D02*
X194830000Y-100618628D01*
X194591905Y-101094819D02*
X194591905Y-100094819D01*
X194591905Y-100094819D02*
X194972857Y-100094819D01*
X194972857Y-100094819D02*
X195068095Y-100142438D01*
X195068095Y-100142438D02*
X195115714Y-100190057D01*
X195115714Y-100190057D02*
X195163333Y-100285295D01*
X195163333Y-100285295D02*
X195163333Y-100428152D01*
X195163333Y-100428152D02*
X195115714Y-100523390D01*
X195115714Y-100523390D02*
X195068095Y-100571009D01*
X195068095Y-100571009D02*
X194972857Y-100618628D01*
X194972857Y-100618628D02*
X194591905Y-100618628D01*
X196020476Y-100094819D02*
X195830000Y-100094819D01*
X195830000Y-100094819D02*
X195734762Y-100142438D01*
X195734762Y-100142438D02*
X195687143Y-100190057D01*
X195687143Y-100190057D02*
X195591905Y-100332914D01*
X195591905Y-100332914D02*
X195544286Y-100523390D01*
X195544286Y-100523390D02*
X195544286Y-100904342D01*
X195544286Y-100904342D02*
X195591905Y-100999580D01*
X195591905Y-100999580D02*
X195639524Y-101047200D01*
X195639524Y-101047200D02*
X195734762Y-101094819D01*
X195734762Y-101094819D02*
X195925238Y-101094819D01*
X195925238Y-101094819D02*
X196020476Y-101047200D01*
X196020476Y-101047200D02*
X196068095Y-100999580D01*
X196068095Y-100999580D02*
X196115714Y-100904342D01*
X196115714Y-100904342D02*
X196115714Y-100666247D01*
X196115714Y-100666247D02*
X196068095Y-100571009D01*
X196068095Y-100571009D02*
X196020476Y-100523390D01*
X196020476Y-100523390D02*
X195925238Y-100475771D01*
X195925238Y-100475771D02*
X195734762Y-100475771D01*
X195734762Y-100475771D02*
X195639524Y-100523390D01*
X195639524Y-100523390D02*
X195591905Y-100571009D01*
X195591905Y-100571009D02*
X195544286Y-100666247D01*
X156105714Y-125332295D02*
X155839047Y-124951342D01*
X155648571Y-125332295D02*
X155648571Y-124532295D01*
X155648571Y-124532295D02*
X155953333Y-124532295D01*
X155953333Y-124532295D02*
X156029523Y-124570390D01*
X156029523Y-124570390D02*
X156067618Y-124608485D01*
X156067618Y-124608485D02*
X156105714Y-124684676D01*
X156105714Y-124684676D02*
X156105714Y-124798961D01*
X156105714Y-124798961D02*
X156067618Y-124875152D01*
X156067618Y-124875152D02*
X156029523Y-124913247D01*
X156029523Y-124913247D02*
X155953333Y-124951342D01*
X155953333Y-124951342D02*
X155648571Y-124951342D01*
X156410475Y-124608485D02*
X156448571Y-124570390D01*
X156448571Y-124570390D02*
X156524761Y-124532295D01*
X156524761Y-124532295D02*
X156715237Y-124532295D01*
X156715237Y-124532295D02*
X156791428Y-124570390D01*
X156791428Y-124570390D02*
X156829523Y-124608485D01*
X156829523Y-124608485D02*
X156867618Y-124684676D01*
X156867618Y-124684676D02*
X156867618Y-124760866D01*
X156867618Y-124760866D02*
X156829523Y-124875152D01*
X156829523Y-124875152D02*
X156372380Y-125332295D01*
X156372380Y-125332295D02*
X156867618Y-125332295D01*
X157591428Y-124532295D02*
X157210476Y-124532295D01*
X157210476Y-124532295D02*
X157172380Y-124913247D01*
X157172380Y-124913247D02*
X157210476Y-124875152D01*
X157210476Y-124875152D02*
X157286666Y-124837057D01*
X157286666Y-124837057D02*
X157477142Y-124837057D01*
X157477142Y-124837057D02*
X157553333Y-124875152D01*
X157553333Y-124875152D02*
X157591428Y-124913247D01*
X157591428Y-124913247D02*
X157629523Y-124989438D01*
X157629523Y-124989438D02*
X157629523Y-125179914D01*
X157629523Y-125179914D02*
X157591428Y-125256104D01*
X157591428Y-125256104D02*
X157553333Y-125294200D01*
X157553333Y-125294200D02*
X157477142Y-125332295D01*
X157477142Y-125332295D02*
X157286666Y-125332295D01*
X157286666Y-125332295D02*
X157210476Y-125294200D01*
X157210476Y-125294200D02*
X157172380Y-125256104D01*
X112212142Y-110404819D02*
X111878809Y-109928628D01*
X111640714Y-110404819D02*
X111640714Y-109404819D01*
X111640714Y-109404819D02*
X112021666Y-109404819D01*
X112021666Y-109404819D02*
X112116904Y-109452438D01*
X112116904Y-109452438D02*
X112164523Y-109500057D01*
X112164523Y-109500057D02*
X112212142Y-109595295D01*
X112212142Y-109595295D02*
X112212142Y-109738152D01*
X112212142Y-109738152D02*
X112164523Y-109833390D01*
X112164523Y-109833390D02*
X112116904Y-109881009D01*
X112116904Y-109881009D02*
X112021666Y-109928628D01*
X112021666Y-109928628D02*
X111640714Y-109928628D01*
X112593095Y-109500057D02*
X112640714Y-109452438D01*
X112640714Y-109452438D02*
X112735952Y-109404819D01*
X112735952Y-109404819D02*
X112974047Y-109404819D01*
X112974047Y-109404819D02*
X113069285Y-109452438D01*
X113069285Y-109452438D02*
X113116904Y-109500057D01*
X113116904Y-109500057D02*
X113164523Y-109595295D01*
X113164523Y-109595295D02*
X113164523Y-109690533D01*
X113164523Y-109690533D02*
X113116904Y-109833390D01*
X113116904Y-109833390D02*
X112545476Y-110404819D01*
X112545476Y-110404819D02*
X113164523Y-110404819D01*
X113545476Y-109500057D02*
X113593095Y-109452438D01*
X113593095Y-109452438D02*
X113688333Y-109404819D01*
X113688333Y-109404819D02*
X113926428Y-109404819D01*
X113926428Y-109404819D02*
X114021666Y-109452438D01*
X114021666Y-109452438D02*
X114069285Y-109500057D01*
X114069285Y-109500057D02*
X114116904Y-109595295D01*
X114116904Y-109595295D02*
X114116904Y-109690533D01*
X114116904Y-109690533D02*
X114069285Y-109833390D01*
X114069285Y-109833390D02*
X113497857Y-110404819D01*
X113497857Y-110404819D02*
X114116904Y-110404819D01*
X195137142Y-111424819D02*
X194803809Y-110948628D01*
X194565714Y-111424819D02*
X194565714Y-110424819D01*
X194565714Y-110424819D02*
X194946666Y-110424819D01*
X194946666Y-110424819D02*
X195041904Y-110472438D01*
X195041904Y-110472438D02*
X195089523Y-110520057D01*
X195089523Y-110520057D02*
X195137142Y-110615295D01*
X195137142Y-110615295D02*
X195137142Y-110758152D01*
X195137142Y-110758152D02*
X195089523Y-110853390D01*
X195089523Y-110853390D02*
X195041904Y-110901009D01*
X195041904Y-110901009D02*
X194946666Y-110948628D01*
X194946666Y-110948628D02*
X194565714Y-110948628D01*
X195518095Y-110520057D02*
X195565714Y-110472438D01*
X195565714Y-110472438D02*
X195660952Y-110424819D01*
X195660952Y-110424819D02*
X195899047Y-110424819D01*
X195899047Y-110424819D02*
X195994285Y-110472438D01*
X195994285Y-110472438D02*
X196041904Y-110520057D01*
X196041904Y-110520057D02*
X196089523Y-110615295D01*
X196089523Y-110615295D02*
X196089523Y-110710533D01*
X196089523Y-110710533D02*
X196041904Y-110853390D01*
X196041904Y-110853390D02*
X195470476Y-111424819D01*
X195470476Y-111424819D02*
X196089523Y-111424819D01*
X196660952Y-110853390D02*
X196565714Y-110805771D01*
X196565714Y-110805771D02*
X196518095Y-110758152D01*
X196518095Y-110758152D02*
X196470476Y-110662914D01*
X196470476Y-110662914D02*
X196470476Y-110615295D01*
X196470476Y-110615295D02*
X196518095Y-110520057D01*
X196518095Y-110520057D02*
X196565714Y-110472438D01*
X196565714Y-110472438D02*
X196660952Y-110424819D01*
X196660952Y-110424819D02*
X196851428Y-110424819D01*
X196851428Y-110424819D02*
X196946666Y-110472438D01*
X196946666Y-110472438D02*
X196994285Y-110520057D01*
X196994285Y-110520057D02*
X197041904Y-110615295D01*
X197041904Y-110615295D02*
X197041904Y-110662914D01*
X197041904Y-110662914D02*
X196994285Y-110758152D01*
X196994285Y-110758152D02*
X196946666Y-110805771D01*
X196946666Y-110805771D02*
X196851428Y-110853390D01*
X196851428Y-110853390D02*
X196660952Y-110853390D01*
X196660952Y-110853390D02*
X196565714Y-110901009D01*
X196565714Y-110901009D02*
X196518095Y-110948628D01*
X196518095Y-110948628D02*
X196470476Y-111043866D01*
X196470476Y-111043866D02*
X196470476Y-111234342D01*
X196470476Y-111234342D02*
X196518095Y-111329580D01*
X196518095Y-111329580D02*
X196565714Y-111377200D01*
X196565714Y-111377200D02*
X196660952Y-111424819D01*
X196660952Y-111424819D02*
X196851428Y-111424819D01*
X196851428Y-111424819D02*
X196946666Y-111377200D01*
X196946666Y-111377200D02*
X196994285Y-111329580D01*
X196994285Y-111329580D02*
X197041904Y-111234342D01*
X197041904Y-111234342D02*
X197041904Y-111043866D01*
X197041904Y-111043866D02*
X196994285Y-110948628D01*
X196994285Y-110948628D02*
X196946666Y-110901009D01*
X196946666Y-110901009D02*
X196851428Y-110853390D01*
D12*
X132708095Y-137472219D02*
X132708095Y-138281742D01*
X132708095Y-138281742D02*
X132755714Y-138376980D01*
X132755714Y-138376980D02*
X132803333Y-138424600D01*
X132803333Y-138424600D02*
X132898571Y-138472219D01*
X132898571Y-138472219D02*
X133089047Y-138472219D01*
X133089047Y-138472219D02*
X133184285Y-138424600D01*
X133184285Y-138424600D02*
X133231904Y-138376980D01*
X133231904Y-138376980D02*
X133279523Y-138281742D01*
X133279523Y-138281742D02*
X133279523Y-137472219D01*
X134184285Y-137805552D02*
X134184285Y-138472219D01*
X133946190Y-137424600D02*
X133708095Y-138138885D01*
X133708095Y-138138885D02*
X134327142Y-138138885D01*
D10*
X185005714Y-84205584D02*
X184967618Y-84243680D01*
X184967618Y-84243680D02*
X184853333Y-84281775D01*
X184853333Y-84281775D02*
X184777142Y-84281775D01*
X184777142Y-84281775D02*
X184662856Y-84243680D01*
X184662856Y-84243680D02*
X184586666Y-84167489D01*
X184586666Y-84167489D02*
X184548571Y-84091299D01*
X184548571Y-84091299D02*
X184510475Y-83938918D01*
X184510475Y-83938918D02*
X184510475Y-83824632D01*
X184510475Y-83824632D02*
X184548571Y-83672251D01*
X184548571Y-83672251D02*
X184586666Y-83596060D01*
X184586666Y-83596060D02*
X184662856Y-83519870D01*
X184662856Y-83519870D02*
X184777142Y-83481775D01*
X184777142Y-83481775D02*
X184853333Y-83481775D01*
X184853333Y-83481775D02*
X184967618Y-83519870D01*
X184967618Y-83519870D02*
X185005714Y-83557965D01*
X185767618Y-84281775D02*
X185310475Y-84281775D01*
X185539047Y-84281775D02*
X185539047Y-83481775D01*
X185539047Y-83481775D02*
X185462856Y-83596060D01*
X185462856Y-83596060D02*
X185386666Y-83672251D01*
X185386666Y-83672251D02*
X185310475Y-83710346D01*
X186072380Y-83557965D02*
X186110476Y-83519870D01*
X186110476Y-83519870D02*
X186186666Y-83481775D01*
X186186666Y-83481775D02*
X186377142Y-83481775D01*
X186377142Y-83481775D02*
X186453333Y-83519870D01*
X186453333Y-83519870D02*
X186491428Y-83557965D01*
X186491428Y-83557965D02*
X186529523Y-83634156D01*
X186529523Y-83634156D02*
X186529523Y-83710346D01*
X186529523Y-83710346D02*
X186491428Y-83824632D01*
X186491428Y-83824632D02*
X186034285Y-84281775D01*
X186034285Y-84281775D02*
X186529523Y-84281775D01*
X158736667Y-133635584D02*
X158698571Y-133673680D01*
X158698571Y-133673680D02*
X158584286Y-133711775D01*
X158584286Y-133711775D02*
X158508095Y-133711775D01*
X158508095Y-133711775D02*
X158393809Y-133673680D01*
X158393809Y-133673680D02*
X158317619Y-133597489D01*
X158317619Y-133597489D02*
X158279524Y-133521299D01*
X158279524Y-133521299D02*
X158241428Y-133368918D01*
X158241428Y-133368918D02*
X158241428Y-133254632D01*
X158241428Y-133254632D02*
X158279524Y-133102251D01*
X158279524Y-133102251D02*
X158317619Y-133026060D01*
X158317619Y-133026060D02*
X158393809Y-132949870D01*
X158393809Y-132949870D02*
X158508095Y-132911775D01*
X158508095Y-132911775D02*
X158584286Y-132911775D01*
X158584286Y-132911775D02*
X158698571Y-132949870D01*
X158698571Y-132949870D02*
X158736667Y-132987965D01*
X159193809Y-133254632D02*
X159117619Y-133216537D01*
X159117619Y-133216537D02*
X159079524Y-133178441D01*
X159079524Y-133178441D02*
X159041428Y-133102251D01*
X159041428Y-133102251D02*
X159041428Y-133064156D01*
X159041428Y-133064156D02*
X159079524Y-132987965D01*
X159079524Y-132987965D02*
X159117619Y-132949870D01*
X159117619Y-132949870D02*
X159193809Y-132911775D01*
X159193809Y-132911775D02*
X159346190Y-132911775D01*
X159346190Y-132911775D02*
X159422381Y-132949870D01*
X159422381Y-132949870D02*
X159460476Y-132987965D01*
X159460476Y-132987965D02*
X159498571Y-133064156D01*
X159498571Y-133064156D02*
X159498571Y-133102251D01*
X159498571Y-133102251D02*
X159460476Y-133178441D01*
X159460476Y-133178441D02*
X159422381Y-133216537D01*
X159422381Y-133216537D02*
X159346190Y-133254632D01*
X159346190Y-133254632D02*
X159193809Y-133254632D01*
X159193809Y-133254632D02*
X159117619Y-133292727D01*
X159117619Y-133292727D02*
X159079524Y-133330822D01*
X159079524Y-133330822D02*
X159041428Y-133407013D01*
X159041428Y-133407013D02*
X159041428Y-133559394D01*
X159041428Y-133559394D02*
X159079524Y-133635584D01*
X159079524Y-133635584D02*
X159117619Y-133673680D01*
X159117619Y-133673680D02*
X159193809Y-133711775D01*
X159193809Y-133711775D02*
X159346190Y-133711775D01*
X159346190Y-133711775D02*
X159422381Y-133673680D01*
X159422381Y-133673680D02*
X159460476Y-133635584D01*
X159460476Y-133635584D02*
X159498571Y-133559394D01*
X159498571Y-133559394D02*
X159498571Y-133407013D01*
X159498571Y-133407013D02*
X159460476Y-133330822D01*
X159460476Y-133330822D02*
X159422381Y-133292727D01*
X159422381Y-133292727D02*
X159346190Y-133254632D01*
X150955714Y-94061775D02*
X150689047Y-93680822D01*
X150498571Y-94061775D02*
X150498571Y-93261775D01*
X150498571Y-93261775D02*
X150803333Y-93261775D01*
X150803333Y-93261775D02*
X150879523Y-93299870D01*
X150879523Y-93299870D02*
X150917618Y-93337965D01*
X150917618Y-93337965D02*
X150955714Y-93414156D01*
X150955714Y-93414156D02*
X150955714Y-93528441D01*
X150955714Y-93528441D02*
X150917618Y-93604632D01*
X150917618Y-93604632D02*
X150879523Y-93642727D01*
X150879523Y-93642727D02*
X150803333Y-93680822D01*
X150803333Y-93680822D02*
X150498571Y-93680822D01*
X151717618Y-94061775D02*
X151260475Y-94061775D01*
X151489047Y-94061775D02*
X151489047Y-93261775D01*
X151489047Y-93261775D02*
X151412856Y-93376060D01*
X151412856Y-93376060D02*
X151336666Y-93452251D01*
X151336666Y-93452251D02*
X151260475Y-93490346D01*
X152212857Y-93261775D02*
X152289047Y-93261775D01*
X152289047Y-93261775D02*
X152365238Y-93299870D01*
X152365238Y-93299870D02*
X152403333Y-93337965D01*
X152403333Y-93337965D02*
X152441428Y-93414156D01*
X152441428Y-93414156D02*
X152479523Y-93566537D01*
X152479523Y-93566537D02*
X152479523Y-93757013D01*
X152479523Y-93757013D02*
X152441428Y-93909394D01*
X152441428Y-93909394D02*
X152403333Y-93985584D01*
X152403333Y-93985584D02*
X152365238Y-94023680D01*
X152365238Y-94023680D02*
X152289047Y-94061775D01*
X152289047Y-94061775D02*
X152212857Y-94061775D01*
X152212857Y-94061775D02*
X152136666Y-94023680D01*
X152136666Y-94023680D02*
X152098571Y-93985584D01*
X152098571Y-93985584D02*
X152060476Y-93909394D01*
X152060476Y-93909394D02*
X152022380Y-93757013D01*
X152022380Y-93757013D02*
X152022380Y-93566537D01*
X152022380Y-93566537D02*
X152060476Y-93414156D01*
X152060476Y-93414156D02*
X152098571Y-93337965D01*
X152098571Y-93337965D02*
X152136666Y-93299870D01*
X152136666Y-93299870D02*
X152212857Y-93261775D01*
D11*
X173309047Y-85765270D02*
X173188095Y-85704794D01*
X173188095Y-85704794D02*
X173067142Y-85583842D01*
X173067142Y-85583842D02*
X172885714Y-85402413D01*
X172885714Y-85402413D02*
X172764761Y-85341937D01*
X172764761Y-85341937D02*
X172643809Y-85341937D01*
X172704285Y-85644318D02*
X172583333Y-85583842D01*
X172583333Y-85583842D02*
X172462380Y-85462889D01*
X172462380Y-85462889D02*
X172401904Y-85220984D01*
X172401904Y-85220984D02*
X172401904Y-84797651D01*
X172401904Y-84797651D02*
X172462380Y-84555746D01*
X172462380Y-84555746D02*
X172583333Y-84434794D01*
X172583333Y-84434794D02*
X172704285Y-84374318D01*
X172704285Y-84374318D02*
X172946190Y-84374318D01*
X172946190Y-84374318D02*
X173067142Y-84434794D01*
X173067142Y-84434794D02*
X173188095Y-84555746D01*
X173188095Y-84555746D02*
X173248571Y-84797651D01*
X173248571Y-84797651D02*
X173248571Y-85220984D01*
X173248571Y-85220984D02*
X173188095Y-85462889D01*
X173188095Y-85462889D02*
X173067142Y-85583842D01*
X173067142Y-85583842D02*
X172946190Y-85644318D01*
X172946190Y-85644318D02*
X172704285Y-85644318D01*
X174337142Y-84797651D02*
X174337142Y-85644318D01*
X174034761Y-84313842D02*
X173732380Y-85220984D01*
X173732380Y-85220984D02*
X174518571Y-85220984D01*
D10*
X171745714Y-105151775D02*
X171479047Y-104770822D01*
X171288571Y-105151775D02*
X171288571Y-104351775D01*
X171288571Y-104351775D02*
X171593333Y-104351775D01*
X171593333Y-104351775D02*
X171669523Y-104389870D01*
X171669523Y-104389870D02*
X171707618Y-104427965D01*
X171707618Y-104427965D02*
X171745714Y-104504156D01*
X171745714Y-104504156D02*
X171745714Y-104618441D01*
X171745714Y-104618441D02*
X171707618Y-104694632D01*
X171707618Y-104694632D02*
X171669523Y-104732727D01*
X171669523Y-104732727D02*
X171593333Y-104770822D01*
X171593333Y-104770822D02*
X171288571Y-104770822D01*
X172012380Y-104351775D02*
X172507618Y-104351775D01*
X172507618Y-104351775D02*
X172240952Y-104656537D01*
X172240952Y-104656537D02*
X172355237Y-104656537D01*
X172355237Y-104656537D02*
X172431428Y-104694632D01*
X172431428Y-104694632D02*
X172469523Y-104732727D01*
X172469523Y-104732727D02*
X172507618Y-104808918D01*
X172507618Y-104808918D02*
X172507618Y-104999394D01*
X172507618Y-104999394D02*
X172469523Y-105075584D01*
X172469523Y-105075584D02*
X172431428Y-105113680D01*
X172431428Y-105113680D02*
X172355237Y-105151775D01*
X172355237Y-105151775D02*
X172126666Y-105151775D01*
X172126666Y-105151775D02*
X172050475Y-105113680D01*
X172050475Y-105113680D02*
X172012380Y-105075584D01*
X172812380Y-104427965D02*
X172850476Y-104389870D01*
X172850476Y-104389870D02*
X172926666Y-104351775D01*
X172926666Y-104351775D02*
X173117142Y-104351775D01*
X173117142Y-104351775D02*
X173193333Y-104389870D01*
X173193333Y-104389870D02*
X173231428Y-104427965D01*
X173231428Y-104427965D02*
X173269523Y-104504156D01*
X173269523Y-104504156D02*
X173269523Y-104580346D01*
X173269523Y-104580346D02*
X173231428Y-104694632D01*
X173231428Y-104694632D02*
X172774285Y-105151775D01*
X172774285Y-105151775D02*
X173269523Y-105151775D01*
X129335714Y-143445584D02*
X129297618Y-143483680D01*
X129297618Y-143483680D02*
X129183333Y-143521775D01*
X129183333Y-143521775D02*
X129107142Y-143521775D01*
X129107142Y-143521775D02*
X128992856Y-143483680D01*
X128992856Y-143483680D02*
X128916666Y-143407489D01*
X128916666Y-143407489D02*
X128878571Y-143331299D01*
X128878571Y-143331299D02*
X128840475Y-143178918D01*
X128840475Y-143178918D02*
X128840475Y-143064632D01*
X128840475Y-143064632D02*
X128878571Y-142912251D01*
X128878571Y-142912251D02*
X128916666Y-142836060D01*
X128916666Y-142836060D02*
X128992856Y-142759870D01*
X128992856Y-142759870D02*
X129107142Y-142721775D01*
X129107142Y-142721775D02*
X129183333Y-142721775D01*
X129183333Y-142721775D02*
X129297618Y-142759870D01*
X129297618Y-142759870D02*
X129335714Y-142797965D01*
X129640475Y-142797965D02*
X129678571Y-142759870D01*
X129678571Y-142759870D02*
X129754761Y-142721775D01*
X129754761Y-142721775D02*
X129945237Y-142721775D01*
X129945237Y-142721775D02*
X130021428Y-142759870D01*
X130021428Y-142759870D02*
X130059523Y-142797965D01*
X130059523Y-142797965D02*
X130097618Y-142874156D01*
X130097618Y-142874156D02*
X130097618Y-142950346D01*
X130097618Y-142950346D02*
X130059523Y-143064632D01*
X130059523Y-143064632D02*
X129602380Y-143521775D01*
X129602380Y-143521775D02*
X130097618Y-143521775D01*
X130859523Y-143521775D02*
X130402380Y-143521775D01*
X130630952Y-143521775D02*
X130630952Y-142721775D01*
X130630952Y-142721775D02*
X130554761Y-142836060D01*
X130554761Y-142836060D02*
X130478571Y-142912251D01*
X130478571Y-142912251D02*
X130402380Y-142950346D01*
D11*
X137112380Y-94604318D02*
X137112380Y-95632413D01*
X137112380Y-95632413D02*
X137172857Y-95753365D01*
X137172857Y-95753365D02*
X137233333Y-95813842D01*
X137233333Y-95813842D02*
X137354285Y-95874318D01*
X137354285Y-95874318D02*
X137596190Y-95874318D01*
X137596190Y-95874318D02*
X137717142Y-95813842D01*
X137717142Y-95813842D02*
X137777619Y-95753365D01*
X137777619Y-95753365D02*
X137838095Y-95632413D01*
X137838095Y-95632413D02*
X137838095Y-94604318D01*
X139047618Y-94604318D02*
X138442856Y-94604318D01*
X138442856Y-94604318D02*
X138382380Y-95209080D01*
X138382380Y-95209080D02*
X138442856Y-95148603D01*
X138442856Y-95148603D02*
X138563809Y-95088127D01*
X138563809Y-95088127D02*
X138866190Y-95088127D01*
X138866190Y-95088127D02*
X138987142Y-95148603D01*
X138987142Y-95148603D02*
X139047618Y-95209080D01*
X139047618Y-95209080D02*
X139108095Y-95330032D01*
X139108095Y-95330032D02*
X139108095Y-95632413D01*
X139108095Y-95632413D02*
X139047618Y-95753365D01*
X139047618Y-95753365D02*
X138987142Y-95813842D01*
X138987142Y-95813842D02*
X138866190Y-95874318D01*
X138866190Y-95874318D02*
X138563809Y-95874318D01*
X138563809Y-95874318D02*
X138442856Y-95813842D01*
X138442856Y-95813842D02*
X138382380Y-95753365D01*
D10*
X125575714Y-98751775D02*
X125309047Y-98370822D01*
X125118571Y-98751775D02*
X125118571Y-97951775D01*
X125118571Y-97951775D02*
X125423333Y-97951775D01*
X125423333Y-97951775D02*
X125499523Y-97989870D01*
X125499523Y-97989870D02*
X125537618Y-98027965D01*
X125537618Y-98027965D02*
X125575714Y-98104156D01*
X125575714Y-98104156D02*
X125575714Y-98218441D01*
X125575714Y-98218441D02*
X125537618Y-98294632D01*
X125537618Y-98294632D02*
X125499523Y-98332727D01*
X125499523Y-98332727D02*
X125423333Y-98370822D01*
X125423333Y-98370822D02*
X125118571Y-98370822D01*
X125880475Y-98027965D02*
X125918571Y-97989870D01*
X125918571Y-97989870D02*
X125994761Y-97951775D01*
X125994761Y-97951775D02*
X126185237Y-97951775D01*
X126185237Y-97951775D02*
X126261428Y-97989870D01*
X126261428Y-97989870D02*
X126299523Y-98027965D01*
X126299523Y-98027965D02*
X126337618Y-98104156D01*
X126337618Y-98104156D02*
X126337618Y-98180346D01*
X126337618Y-98180346D02*
X126299523Y-98294632D01*
X126299523Y-98294632D02*
X125842380Y-98751775D01*
X125842380Y-98751775D02*
X126337618Y-98751775D01*
X126718571Y-98751775D02*
X126870952Y-98751775D01*
X126870952Y-98751775D02*
X126947142Y-98713680D01*
X126947142Y-98713680D02*
X126985238Y-98675584D01*
X126985238Y-98675584D02*
X127061428Y-98561299D01*
X127061428Y-98561299D02*
X127099523Y-98408918D01*
X127099523Y-98408918D02*
X127099523Y-98104156D01*
X127099523Y-98104156D02*
X127061428Y-98027965D01*
X127061428Y-98027965D02*
X127023333Y-97989870D01*
X127023333Y-97989870D02*
X126947142Y-97951775D01*
X126947142Y-97951775D02*
X126794761Y-97951775D01*
X126794761Y-97951775D02*
X126718571Y-97989870D01*
X126718571Y-97989870D02*
X126680476Y-98027965D01*
X126680476Y-98027965D02*
X126642380Y-98104156D01*
X126642380Y-98104156D02*
X126642380Y-98294632D01*
X126642380Y-98294632D02*
X126680476Y-98370822D01*
X126680476Y-98370822D02*
X126718571Y-98408918D01*
X126718571Y-98408918D02*
X126794761Y-98447013D01*
X126794761Y-98447013D02*
X126947142Y-98447013D01*
X126947142Y-98447013D02*
X127023333Y-98408918D01*
X127023333Y-98408918D02*
X127061428Y-98370822D01*
X127061428Y-98370822D02*
X127099523Y-98294632D01*
X186439524Y-94641775D02*
X186439524Y-93841775D01*
X186439524Y-93841775D02*
X186630000Y-93841775D01*
X186630000Y-93841775D02*
X186744286Y-93879870D01*
X186744286Y-93879870D02*
X186820476Y-93956060D01*
X186820476Y-93956060D02*
X186858571Y-94032251D01*
X186858571Y-94032251D02*
X186896667Y-94184632D01*
X186896667Y-94184632D02*
X186896667Y-94298918D01*
X186896667Y-94298918D02*
X186858571Y-94451299D01*
X186858571Y-94451299D02*
X186820476Y-94527489D01*
X186820476Y-94527489D02*
X186744286Y-94603680D01*
X186744286Y-94603680D02*
X186630000Y-94641775D01*
X186630000Y-94641775D02*
X186439524Y-94641775D01*
X187277619Y-94641775D02*
X187430000Y-94641775D01*
X187430000Y-94641775D02*
X187506190Y-94603680D01*
X187506190Y-94603680D02*
X187544286Y-94565584D01*
X187544286Y-94565584D02*
X187620476Y-94451299D01*
X187620476Y-94451299D02*
X187658571Y-94298918D01*
X187658571Y-94298918D02*
X187658571Y-93994156D01*
X187658571Y-93994156D02*
X187620476Y-93917965D01*
X187620476Y-93917965D02*
X187582381Y-93879870D01*
X187582381Y-93879870D02*
X187506190Y-93841775D01*
X187506190Y-93841775D02*
X187353809Y-93841775D01*
X187353809Y-93841775D02*
X187277619Y-93879870D01*
X187277619Y-93879870D02*
X187239524Y-93917965D01*
X187239524Y-93917965D02*
X187201428Y-93994156D01*
X187201428Y-93994156D02*
X187201428Y-94184632D01*
X187201428Y-94184632D02*
X187239524Y-94260822D01*
X187239524Y-94260822D02*
X187277619Y-94298918D01*
X187277619Y-94298918D02*
X187353809Y-94337013D01*
X187353809Y-94337013D02*
X187506190Y-94337013D01*
X187506190Y-94337013D02*
X187582381Y-94298918D01*
X187582381Y-94298918D02*
X187620476Y-94260822D01*
X187620476Y-94260822D02*
X187658571Y-94184632D01*
X176560714Y-95285584D02*
X176522618Y-95323680D01*
X176522618Y-95323680D02*
X176408333Y-95361775D01*
X176408333Y-95361775D02*
X176332142Y-95361775D01*
X176332142Y-95361775D02*
X176217856Y-95323680D01*
X176217856Y-95323680D02*
X176141666Y-95247489D01*
X176141666Y-95247489D02*
X176103571Y-95171299D01*
X176103571Y-95171299D02*
X176065475Y-95018918D01*
X176065475Y-95018918D02*
X176065475Y-94904632D01*
X176065475Y-94904632D02*
X176103571Y-94752251D01*
X176103571Y-94752251D02*
X176141666Y-94676060D01*
X176141666Y-94676060D02*
X176217856Y-94599870D01*
X176217856Y-94599870D02*
X176332142Y-94561775D01*
X176332142Y-94561775D02*
X176408333Y-94561775D01*
X176408333Y-94561775D02*
X176522618Y-94599870D01*
X176522618Y-94599870D02*
X176560714Y-94637965D01*
X177322618Y-95361775D02*
X176865475Y-95361775D01*
X177094047Y-95361775D02*
X177094047Y-94561775D01*
X177094047Y-94561775D02*
X177017856Y-94676060D01*
X177017856Y-94676060D02*
X176941666Y-94752251D01*
X176941666Y-94752251D02*
X176865475Y-94790346D01*
X178046428Y-94561775D02*
X177665476Y-94561775D01*
X177665476Y-94561775D02*
X177627380Y-94942727D01*
X177627380Y-94942727D02*
X177665476Y-94904632D01*
X177665476Y-94904632D02*
X177741666Y-94866537D01*
X177741666Y-94866537D02*
X177932142Y-94866537D01*
X177932142Y-94866537D02*
X178008333Y-94904632D01*
X178008333Y-94904632D02*
X178046428Y-94942727D01*
X178046428Y-94942727D02*
X178084523Y-95018918D01*
X178084523Y-95018918D02*
X178084523Y-95209394D01*
X178084523Y-95209394D02*
X178046428Y-95285584D01*
X178046428Y-95285584D02*
X178008333Y-95323680D01*
X178008333Y-95323680D02*
X177932142Y-95361775D01*
X177932142Y-95361775D02*
X177741666Y-95361775D01*
X177741666Y-95361775D02*
X177665476Y-95323680D01*
X177665476Y-95323680D02*
X177627380Y-95285584D01*
X176975714Y-84771775D02*
X176709047Y-84390822D01*
X176518571Y-84771775D02*
X176518571Y-83971775D01*
X176518571Y-83971775D02*
X176823333Y-83971775D01*
X176823333Y-83971775D02*
X176899523Y-84009870D01*
X176899523Y-84009870D02*
X176937618Y-84047965D01*
X176937618Y-84047965D02*
X176975714Y-84124156D01*
X176975714Y-84124156D02*
X176975714Y-84238441D01*
X176975714Y-84238441D02*
X176937618Y-84314632D01*
X176937618Y-84314632D02*
X176899523Y-84352727D01*
X176899523Y-84352727D02*
X176823333Y-84390822D01*
X176823333Y-84390822D02*
X176518571Y-84390822D01*
X177737618Y-84771775D02*
X177280475Y-84771775D01*
X177509047Y-84771775D02*
X177509047Y-83971775D01*
X177509047Y-83971775D02*
X177432856Y-84086060D01*
X177432856Y-84086060D02*
X177356666Y-84162251D01*
X177356666Y-84162251D02*
X177280475Y-84200346D01*
X178194761Y-84314632D02*
X178118571Y-84276537D01*
X178118571Y-84276537D02*
X178080476Y-84238441D01*
X178080476Y-84238441D02*
X178042380Y-84162251D01*
X178042380Y-84162251D02*
X178042380Y-84124156D01*
X178042380Y-84124156D02*
X178080476Y-84047965D01*
X178080476Y-84047965D02*
X178118571Y-84009870D01*
X178118571Y-84009870D02*
X178194761Y-83971775D01*
X178194761Y-83971775D02*
X178347142Y-83971775D01*
X178347142Y-83971775D02*
X178423333Y-84009870D01*
X178423333Y-84009870D02*
X178461428Y-84047965D01*
X178461428Y-84047965D02*
X178499523Y-84124156D01*
X178499523Y-84124156D02*
X178499523Y-84162251D01*
X178499523Y-84162251D02*
X178461428Y-84238441D01*
X178461428Y-84238441D02*
X178423333Y-84276537D01*
X178423333Y-84276537D02*
X178347142Y-84314632D01*
X178347142Y-84314632D02*
X178194761Y-84314632D01*
X178194761Y-84314632D02*
X178118571Y-84352727D01*
X178118571Y-84352727D02*
X178080476Y-84390822D01*
X178080476Y-84390822D02*
X178042380Y-84467013D01*
X178042380Y-84467013D02*
X178042380Y-84619394D01*
X178042380Y-84619394D02*
X178080476Y-84695584D01*
X178080476Y-84695584D02*
X178118571Y-84733680D01*
X178118571Y-84733680D02*
X178194761Y-84771775D01*
X178194761Y-84771775D02*
X178347142Y-84771775D01*
X178347142Y-84771775D02*
X178423333Y-84733680D01*
X178423333Y-84733680D02*
X178461428Y-84695584D01*
X178461428Y-84695584D02*
X178499523Y-84619394D01*
X178499523Y-84619394D02*
X178499523Y-84467013D01*
X178499523Y-84467013D02*
X178461428Y-84390822D01*
X178461428Y-84390822D02*
X178423333Y-84352727D01*
X178423333Y-84352727D02*
X178347142Y-84314632D01*
D11*
X155152618Y-104964318D02*
X155152618Y-103694318D01*
X155152618Y-103694318D02*
X155454999Y-103694318D01*
X155454999Y-103694318D02*
X155636428Y-103754794D01*
X155636428Y-103754794D02*
X155757380Y-103875746D01*
X155757380Y-103875746D02*
X155817857Y-103996699D01*
X155817857Y-103996699D02*
X155878333Y-104238603D01*
X155878333Y-104238603D02*
X155878333Y-104420032D01*
X155878333Y-104420032D02*
X155817857Y-104661937D01*
X155817857Y-104661937D02*
X155757380Y-104782889D01*
X155757380Y-104782889D02*
X155636428Y-104903842D01*
X155636428Y-104903842D02*
X155454999Y-104964318D01*
X155454999Y-104964318D02*
X155152618Y-104964318D01*
X156301666Y-103694318D02*
X157087857Y-103694318D01*
X157087857Y-103694318D02*
X156664523Y-104178127D01*
X156664523Y-104178127D02*
X156845952Y-104178127D01*
X156845952Y-104178127D02*
X156966904Y-104238603D01*
X156966904Y-104238603D02*
X157027380Y-104299080D01*
X157027380Y-104299080D02*
X157087857Y-104420032D01*
X157087857Y-104420032D02*
X157087857Y-104722413D01*
X157087857Y-104722413D02*
X157027380Y-104843365D01*
X157027380Y-104843365D02*
X156966904Y-104903842D01*
X156966904Y-104903842D02*
X156845952Y-104964318D01*
X156845952Y-104964318D02*
X156483095Y-104964318D01*
X156483095Y-104964318D02*
X156362142Y-104903842D01*
X156362142Y-104903842D02*
X156301666Y-104843365D01*
D13*
X171196667Y-93472295D02*
X170930000Y-93091342D01*
X170739524Y-93472295D02*
X170739524Y-92672295D01*
X170739524Y-92672295D02*
X171044286Y-92672295D01*
X171044286Y-92672295D02*
X171120476Y-92710390D01*
X171120476Y-92710390D02*
X171158571Y-92748485D01*
X171158571Y-92748485D02*
X171196667Y-92824676D01*
X171196667Y-92824676D02*
X171196667Y-92938961D01*
X171196667Y-92938961D02*
X171158571Y-93015152D01*
X171158571Y-93015152D02*
X171120476Y-93053247D01*
X171120476Y-93053247D02*
X171044286Y-93091342D01*
X171044286Y-93091342D02*
X170739524Y-93091342D01*
X171463333Y-92672295D02*
X171996667Y-92672295D01*
X171996667Y-92672295D02*
X171653809Y-93472295D01*
D10*
X109275714Y-118441775D02*
X109009047Y-118060822D01*
X108818571Y-118441775D02*
X108818571Y-117641775D01*
X108818571Y-117641775D02*
X109123333Y-117641775D01*
X109123333Y-117641775D02*
X109199523Y-117679870D01*
X109199523Y-117679870D02*
X109237618Y-117717965D01*
X109237618Y-117717965D02*
X109275714Y-117794156D01*
X109275714Y-117794156D02*
X109275714Y-117908441D01*
X109275714Y-117908441D02*
X109237618Y-117984632D01*
X109237618Y-117984632D02*
X109199523Y-118022727D01*
X109199523Y-118022727D02*
X109123333Y-118060822D01*
X109123333Y-118060822D02*
X108818571Y-118060822D01*
X109580475Y-117717965D02*
X109618571Y-117679870D01*
X109618571Y-117679870D02*
X109694761Y-117641775D01*
X109694761Y-117641775D02*
X109885237Y-117641775D01*
X109885237Y-117641775D02*
X109961428Y-117679870D01*
X109961428Y-117679870D02*
X109999523Y-117717965D01*
X109999523Y-117717965D02*
X110037618Y-117794156D01*
X110037618Y-117794156D02*
X110037618Y-117870346D01*
X110037618Y-117870346D02*
X109999523Y-117984632D01*
X109999523Y-117984632D02*
X109542380Y-118441775D01*
X109542380Y-118441775D02*
X110037618Y-118441775D01*
X110723333Y-117641775D02*
X110570952Y-117641775D01*
X110570952Y-117641775D02*
X110494761Y-117679870D01*
X110494761Y-117679870D02*
X110456666Y-117717965D01*
X110456666Y-117717965D02*
X110380476Y-117832251D01*
X110380476Y-117832251D02*
X110342380Y-117984632D01*
X110342380Y-117984632D02*
X110342380Y-118289394D01*
X110342380Y-118289394D02*
X110380476Y-118365584D01*
X110380476Y-118365584D02*
X110418571Y-118403680D01*
X110418571Y-118403680D02*
X110494761Y-118441775D01*
X110494761Y-118441775D02*
X110647142Y-118441775D01*
X110647142Y-118441775D02*
X110723333Y-118403680D01*
X110723333Y-118403680D02*
X110761428Y-118365584D01*
X110761428Y-118365584D02*
X110799523Y-118289394D01*
X110799523Y-118289394D02*
X110799523Y-118098918D01*
X110799523Y-118098918D02*
X110761428Y-118022727D01*
X110761428Y-118022727D02*
X110723333Y-117984632D01*
X110723333Y-117984632D02*
X110647142Y-117946537D01*
X110647142Y-117946537D02*
X110494761Y-117946537D01*
X110494761Y-117946537D02*
X110418571Y-117984632D01*
X110418571Y-117984632D02*
X110380476Y-118022727D01*
X110380476Y-118022727D02*
X110342380Y-118098918D01*
X172095714Y-82141775D02*
X171829047Y-81760822D01*
X171638571Y-82141775D02*
X171638571Y-81341775D01*
X171638571Y-81341775D02*
X171943333Y-81341775D01*
X171943333Y-81341775D02*
X172019523Y-81379870D01*
X172019523Y-81379870D02*
X172057618Y-81417965D01*
X172057618Y-81417965D02*
X172095714Y-81494156D01*
X172095714Y-81494156D02*
X172095714Y-81608441D01*
X172095714Y-81608441D02*
X172057618Y-81684632D01*
X172057618Y-81684632D02*
X172019523Y-81722727D01*
X172019523Y-81722727D02*
X171943333Y-81760822D01*
X171943333Y-81760822D02*
X171638571Y-81760822D01*
X172362380Y-81341775D02*
X172857618Y-81341775D01*
X172857618Y-81341775D02*
X172590952Y-81646537D01*
X172590952Y-81646537D02*
X172705237Y-81646537D01*
X172705237Y-81646537D02*
X172781428Y-81684632D01*
X172781428Y-81684632D02*
X172819523Y-81722727D01*
X172819523Y-81722727D02*
X172857618Y-81798918D01*
X172857618Y-81798918D02*
X172857618Y-81989394D01*
X172857618Y-81989394D02*
X172819523Y-82065584D01*
X172819523Y-82065584D02*
X172781428Y-82103680D01*
X172781428Y-82103680D02*
X172705237Y-82141775D01*
X172705237Y-82141775D02*
X172476666Y-82141775D01*
X172476666Y-82141775D02*
X172400475Y-82103680D01*
X172400475Y-82103680D02*
X172362380Y-82065584D01*
X173124285Y-81341775D02*
X173619523Y-81341775D01*
X173619523Y-81341775D02*
X173352857Y-81646537D01*
X173352857Y-81646537D02*
X173467142Y-81646537D01*
X173467142Y-81646537D02*
X173543333Y-81684632D01*
X173543333Y-81684632D02*
X173581428Y-81722727D01*
X173581428Y-81722727D02*
X173619523Y-81798918D01*
X173619523Y-81798918D02*
X173619523Y-81989394D01*
X173619523Y-81989394D02*
X173581428Y-82065584D01*
X173581428Y-82065584D02*
X173543333Y-82103680D01*
X173543333Y-82103680D02*
X173467142Y-82141775D01*
X173467142Y-82141775D02*
X173238571Y-82141775D01*
X173238571Y-82141775D02*
X173162380Y-82103680D01*
X173162380Y-82103680D02*
X173124285Y-82065584D01*
D11*
X189627047Y-95763270D02*
X189506095Y-95702794D01*
X189506095Y-95702794D02*
X189385142Y-95581842D01*
X189385142Y-95581842D02*
X189203714Y-95400413D01*
X189203714Y-95400413D02*
X189082761Y-95339937D01*
X189082761Y-95339937D02*
X188961809Y-95339937D01*
X189022285Y-95642318D02*
X188901333Y-95581842D01*
X188901333Y-95581842D02*
X188780380Y-95460889D01*
X188780380Y-95460889D02*
X188719904Y-95218984D01*
X188719904Y-95218984D02*
X188719904Y-94795651D01*
X188719904Y-94795651D02*
X188780380Y-94553746D01*
X188780380Y-94553746D02*
X188901333Y-94432794D01*
X188901333Y-94432794D02*
X189022285Y-94372318D01*
X189022285Y-94372318D02*
X189264190Y-94372318D01*
X189264190Y-94372318D02*
X189385142Y-94432794D01*
X189385142Y-94432794D02*
X189506095Y-94553746D01*
X189506095Y-94553746D02*
X189566571Y-94795651D01*
X189566571Y-94795651D02*
X189566571Y-95218984D01*
X189566571Y-95218984D02*
X189506095Y-95460889D01*
X189506095Y-95460889D02*
X189385142Y-95581842D01*
X189385142Y-95581842D02*
X189264190Y-95642318D01*
X189264190Y-95642318D02*
X189022285Y-95642318D01*
X189989904Y-94372318D02*
X190776095Y-94372318D01*
X190776095Y-94372318D02*
X190352761Y-94856127D01*
X190352761Y-94856127D02*
X190534190Y-94856127D01*
X190534190Y-94856127D02*
X190655142Y-94916603D01*
X190655142Y-94916603D02*
X190715618Y-94977080D01*
X190715618Y-94977080D02*
X190776095Y-95098032D01*
X190776095Y-95098032D02*
X190776095Y-95400413D01*
X190776095Y-95400413D02*
X190715618Y-95521365D01*
X190715618Y-95521365D02*
X190655142Y-95581842D01*
X190655142Y-95581842D02*
X190534190Y-95642318D01*
X190534190Y-95642318D02*
X190171333Y-95642318D01*
X190171333Y-95642318D02*
X190050380Y-95581842D01*
X190050380Y-95581842D02*
X189989904Y-95521365D01*
D10*
X119406667Y-86885584D02*
X119368571Y-86923680D01*
X119368571Y-86923680D02*
X119254286Y-86961775D01*
X119254286Y-86961775D02*
X119178095Y-86961775D01*
X119178095Y-86961775D02*
X119063809Y-86923680D01*
X119063809Y-86923680D02*
X118987619Y-86847489D01*
X118987619Y-86847489D02*
X118949524Y-86771299D01*
X118949524Y-86771299D02*
X118911428Y-86618918D01*
X118911428Y-86618918D02*
X118911428Y-86504632D01*
X118911428Y-86504632D02*
X118949524Y-86352251D01*
X118949524Y-86352251D02*
X118987619Y-86276060D01*
X118987619Y-86276060D02*
X119063809Y-86199870D01*
X119063809Y-86199870D02*
X119178095Y-86161775D01*
X119178095Y-86161775D02*
X119254286Y-86161775D01*
X119254286Y-86161775D02*
X119368571Y-86199870D01*
X119368571Y-86199870D02*
X119406667Y-86237965D01*
X119711428Y-86237965D02*
X119749524Y-86199870D01*
X119749524Y-86199870D02*
X119825714Y-86161775D01*
X119825714Y-86161775D02*
X120016190Y-86161775D01*
X120016190Y-86161775D02*
X120092381Y-86199870D01*
X120092381Y-86199870D02*
X120130476Y-86237965D01*
X120130476Y-86237965D02*
X120168571Y-86314156D01*
X120168571Y-86314156D02*
X120168571Y-86390346D01*
X120168571Y-86390346D02*
X120130476Y-86504632D01*
X120130476Y-86504632D02*
X119673333Y-86961775D01*
X119673333Y-86961775D02*
X120168571Y-86961775D01*
X117595714Y-119155584D02*
X117557618Y-119193680D01*
X117557618Y-119193680D02*
X117443333Y-119231775D01*
X117443333Y-119231775D02*
X117367142Y-119231775D01*
X117367142Y-119231775D02*
X117252856Y-119193680D01*
X117252856Y-119193680D02*
X117176666Y-119117489D01*
X117176666Y-119117489D02*
X117138571Y-119041299D01*
X117138571Y-119041299D02*
X117100475Y-118888918D01*
X117100475Y-118888918D02*
X117100475Y-118774632D01*
X117100475Y-118774632D02*
X117138571Y-118622251D01*
X117138571Y-118622251D02*
X117176666Y-118546060D01*
X117176666Y-118546060D02*
X117252856Y-118469870D01*
X117252856Y-118469870D02*
X117367142Y-118431775D01*
X117367142Y-118431775D02*
X117443333Y-118431775D01*
X117443333Y-118431775D02*
X117557618Y-118469870D01*
X117557618Y-118469870D02*
X117595714Y-118507965D01*
X118357618Y-119231775D02*
X117900475Y-119231775D01*
X118129047Y-119231775D02*
X118129047Y-118431775D01*
X118129047Y-118431775D02*
X118052856Y-118546060D01*
X118052856Y-118546060D02*
X117976666Y-118622251D01*
X117976666Y-118622251D02*
X117900475Y-118660346D01*
X119119523Y-119231775D02*
X118662380Y-119231775D01*
X118890952Y-119231775D02*
X118890952Y-118431775D01*
X118890952Y-118431775D02*
X118814761Y-118546060D01*
X118814761Y-118546060D02*
X118738571Y-118622251D01*
X118738571Y-118622251D02*
X118662380Y-118660346D01*
X201415714Y-118865584D02*
X201377618Y-118903680D01*
X201377618Y-118903680D02*
X201263333Y-118941775D01*
X201263333Y-118941775D02*
X201187142Y-118941775D01*
X201187142Y-118941775D02*
X201072856Y-118903680D01*
X201072856Y-118903680D02*
X200996666Y-118827489D01*
X200996666Y-118827489D02*
X200958571Y-118751299D01*
X200958571Y-118751299D02*
X200920475Y-118598918D01*
X200920475Y-118598918D02*
X200920475Y-118484632D01*
X200920475Y-118484632D02*
X200958571Y-118332251D01*
X200958571Y-118332251D02*
X200996666Y-118256060D01*
X200996666Y-118256060D02*
X201072856Y-118179870D01*
X201072856Y-118179870D02*
X201187142Y-118141775D01*
X201187142Y-118141775D02*
X201263333Y-118141775D01*
X201263333Y-118141775D02*
X201377618Y-118179870D01*
X201377618Y-118179870D02*
X201415714Y-118217965D01*
X202177618Y-118941775D02*
X201720475Y-118941775D01*
X201949047Y-118941775D02*
X201949047Y-118141775D01*
X201949047Y-118141775D02*
X201872856Y-118256060D01*
X201872856Y-118256060D02*
X201796666Y-118332251D01*
X201796666Y-118332251D02*
X201720475Y-118370346D01*
X202444285Y-118141775D02*
X202939523Y-118141775D01*
X202939523Y-118141775D02*
X202672857Y-118446537D01*
X202672857Y-118446537D02*
X202787142Y-118446537D01*
X202787142Y-118446537D02*
X202863333Y-118484632D01*
X202863333Y-118484632D02*
X202901428Y-118522727D01*
X202901428Y-118522727D02*
X202939523Y-118598918D01*
X202939523Y-118598918D02*
X202939523Y-118789394D01*
X202939523Y-118789394D02*
X202901428Y-118865584D01*
X202901428Y-118865584D02*
X202863333Y-118903680D01*
X202863333Y-118903680D02*
X202787142Y-118941775D01*
X202787142Y-118941775D02*
X202558571Y-118941775D01*
X202558571Y-118941775D02*
X202482380Y-118903680D01*
X202482380Y-118903680D02*
X202444285Y-118865584D01*
X181145714Y-82191775D02*
X180879047Y-81810822D01*
X180688571Y-82191775D02*
X180688571Y-81391775D01*
X180688571Y-81391775D02*
X180993333Y-81391775D01*
X180993333Y-81391775D02*
X181069523Y-81429870D01*
X181069523Y-81429870D02*
X181107618Y-81467965D01*
X181107618Y-81467965D02*
X181145714Y-81544156D01*
X181145714Y-81544156D02*
X181145714Y-81658441D01*
X181145714Y-81658441D02*
X181107618Y-81734632D01*
X181107618Y-81734632D02*
X181069523Y-81772727D01*
X181069523Y-81772727D02*
X180993333Y-81810822D01*
X180993333Y-81810822D02*
X180688571Y-81810822D01*
X181907618Y-82191775D02*
X181450475Y-82191775D01*
X181679047Y-82191775D02*
X181679047Y-81391775D01*
X181679047Y-81391775D02*
X181602856Y-81506060D01*
X181602856Y-81506060D02*
X181526666Y-81582251D01*
X181526666Y-81582251D02*
X181450475Y-81620346D01*
X182288571Y-82191775D02*
X182440952Y-82191775D01*
X182440952Y-82191775D02*
X182517142Y-82153680D01*
X182517142Y-82153680D02*
X182555238Y-82115584D01*
X182555238Y-82115584D02*
X182631428Y-82001299D01*
X182631428Y-82001299D02*
X182669523Y-81848918D01*
X182669523Y-81848918D02*
X182669523Y-81544156D01*
X182669523Y-81544156D02*
X182631428Y-81467965D01*
X182631428Y-81467965D02*
X182593333Y-81429870D01*
X182593333Y-81429870D02*
X182517142Y-81391775D01*
X182517142Y-81391775D02*
X182364761Y-81391775D01*
X182364761Y-81391775D02*
X182288571Y-81429870D01*
X182288571Y-81429870D02*
X182250476Y-81467965D01*
X182250476Y-81467965D02*
X182212380Y-81544156D01*
X182212380Y-81544156D02*
X182212380Y-81734632D01*
X182212380Y-81734632D02*
X182250476Y-81810822D01*
X182250476Y-81810822D02*
X182288571Y-81848918D01*
X182288571Y-81848918D02*
X182364761Y-81887013D01*
X182364761Y-81887013D02*
X182517142Y-81887013D01*
X182517142Y-81887013D02*
X182593333Y-81848918D01*
X182593333Y-81848918D02*
X182631428Y-81810822D01*
X182631428Y-81810822D02*
X182669523Y-81734632D01*
X148855714Y-97535584D02*
X148817618Y-97573680D01*
X148817618Y-97573680D02*
X148703333Y-97611775D01*
X148703333Y-97611775D02*
X148627142Y-97611775D01*
X148627142Y-97611775D02*
X148512856Y-97573680D01*
X148512856Y-97573680D02*
X148436666Y-97497489D01*
X148436666Y-97497489D02*
X148398571Y-97421299D01*
X148398571Y-97421299D02*
X148360475Y-97268918D01*
X148360475Y-97268918D02*
X148360475Y-97154632D01*
X148360475Y-97154632D02*
X148398571Y-97002251D01*
X148398571Y-97002251D02*
X148436666Y-96926060D01*
X148436666Y-96926060D02*
X148512856Y-96849870D01*
X148512856Y-96849870D02*
X148627142Y-96811775D01*
X148627142Y-96811775D02*
X148703333Y-96811775D01*
X148703333Y-96811775D02*
X148817618Y-96849870D01*
X148817618Y-96849870D02*
X148855714Y-96887965D01*
X149617618Y-97611775D02*
X149160475Y-97611775D01*
X149389047Y-97611775D02*
X149389047Y-96811775D01*
X149389047Y-96811775D02*
X149312856Y-96926060D01*
X149312856Y-96926060D02*
X149236666Y-97002251D01*
X149236666Y-97002251D02*
X149160475Y-97040346D01*
X149998571Y-97611775D02*
X150150952Y-97611775D01*
X150150952Y-97611775D02*
X150227142Y-97573680D01*
X150227142Y-97573680D02*
X150265238Y-97535584D01*
X150265238Y-97535584D02*
X150341428Y-97421299D01*
X150341428Y-97421299D02*
X150379523Y-97268918D01*
X150379523Y-97268918D02*
X150379523Y-96964156D01*
X150379523Y-96964156D02*
X150341428Y-96887965D01*
X150341428Y-96887965D02*
X150303333Y-96849870D01*
X150303333Y-96849870D02*
X150227142Y-96811775D01*
X150227142Y-96811775D02*
X150074761Y-96811775D01*
X150074761Y-96811775D02*
X149998571Y-96849870D01*
X149998571Y-96849870D02*
X149960476Y-96887965D01*
X149960476Y-96887965D02*
X149922380Y-96964156D01*
X149922380Y-96964156D02*
X149922380Y-97154632D01*
X149922380Y-97154632D02*
X149960476Y-97230822D01*
X149960476Y-97230822D02*
X149998571Y-97268918D01*
X149998571Y-97268918D02*
X150074761Y-97307013D01*
X150074761Y-97307013D02*
X150227142Y-97307013D01*
X150227142Y-97307013D02*
X150303333Y-97268918D01*
X150303333Y-97268918D02*
X150341428Y-97230822D01*
X150341428Y-97230822D02*
X150379523Y-97154632D01*
D13*
X124732142Y-128734819D02*
X124398809Y-128258628D01*
X124160714Y-128734819D02*
X124160714Y-127734819D01*
X124160714Y-127734819D02*
X124541666Y-127734819D01*
X124541666Y-127734819D02*
X124636904Y-127782438D01*
X124636904Y-127782438D02*
X124684523Y-127830057D01*
X124684523Y-127830057D02*
X124732142Y-127925295D01*
X124732142Y-127925295D02*
X124732142Y-128068152D01*
X124732142Y-128068152D02*
X124684523Y-128163390D01*
X124684523Y-128163390D02*
X124636904Y-128211009D01*
X124636904Y-128211009D02*
X124541666Y-128258628D01*
X124541666Y-128258628D02*
X124160714Y-128258628D01*
X125113095Y-127830057D02*
X125160714Y-127782438D01*
X125160714Y-127782438D02*
X125255952Y-127734819D01*
X125255952Y-127734819D02*
X125494047Y-127734819D01*
X125494047Y-127734819D02*
X125589285Y-127782438D01*
X125589285Y-127782438D02*
X125636904Y-127830057D01*
X125636904Y-127830057D02*
X125684523Y-127925295D01*
X125684523Y-127925295D02*
X125684523Y-128020533D01*
X125684523Y-128020533D02*
X125636904Y-128163390D01*
X125636904Y-128163390D02*
X125065476Y-128734819D01*
X125065476Y-128734819D02*
X125684523Y-128734819D01*
X126541666Y-128068152D02*
X126541666Y-128734819D01*
X126303571Y-127687200D02*
X126065476Y-128401485D01*
X126065476Y-128401485D02*
X126684523Y-128401485D01*
D10*
X166045714Y-115135584D02*
X166007618Y-115173680D01*
X166007618Y-115173680D02*
X165893333Y-115211775D01*
X165893333Y-115211775D02*
X165817142Y-115211775D01*
X165817142Y-115211775D02*
X165702856Y-115173680D01*
X165702856Y-115173680D02*
X165626666Y-115097489D01*
X165626666Y-115097489D02*
X165588571Y-115021299D01*
X165588571Y-115021299D02*
X165550475Y-114868918D01*
X165550475Y-114868918D02*
X165550475Y-114754632D01*
X165550475Y-114754632D02*
X165588571Y-114602251D01*
X165588571Y-114602251D02*
X165626666Y-114526060D01*
X165626666Y-114526060D02*
X165702856Y-114449870D01*
X165702856Y-114449870D02*
X165817142Y-114411775D01*
X165817142Y-114411775D02*
X165893333Y-114411775D01*
X165893333Y-114411775D02*
X166007618Y-114449870D01*
X166007618Y-114449870D02*
X166045714Y-114487965D01*
X166807618Y-115211775D02*
X166350475Y-115211775D01*
X166579047Y-115211775D02*
X166579047Y-114411775D01*
X166579047Y-114411775D02*
X166502856Y-114526060D01*
X166502856Y-114526060D02*
X166426666Y-114602251D01*
X166426666Y-114602251D02*
X166350475Y-114640346D01*
X167264761Y-114754632D02*
X167188571Y-114716537D01*
X167188571Y-114716537D02*
X167150476Y-114678441D01*
X167150476Y-114678441D02*
X167112380Y-114602251D01*
X167112380Y-114602251D02*
X167112380Y-114564156D01*
X167112380Y-114564156D02*
X167150476Y-114487965D01*
X167150476Y-114487965D02*
X167188571Y-114449870D01*
X167188571Y-114449870D02*
X167264761Y-114411775D01*
X167264761Y-114411775D02*
X167417142Y-114411775D01*
X167417142Y-114411775D02*
X167493333Y-114449870D01*
X167493333Y-114449870D02*
X167531428Y-114487965D01*
X167531428Y-114487965D02*
X167569523Y-114564156D01*
X167569523Y-114564156D02*
X167569523Y-114602251D01*
X167569523Y-114602251D02*
X167531428Y-114678441D01*
X167531428Y-114678441D02*
X167493333Y-114716537D01*
X167493333Y-114716537D02*
X167417142Y-114754632D01*
X167417142Y-114754632D02*
X167264761Y-114754632D01*
X167264761Y-114754632D02*
X167188571Y-114792727D01*
X167188571Y-114792727D02*
X167150476Y-114830822D01*
X167150476Y-114830822D02*
X167112380Y-114907013D01*
X167112380Y-114907013D02*
X167112380Y-115059394D01*
X167112380Y-115059394D02*
X167150476Y-115135584D01*
X167150476Y-115135584D02*
X167188571Y-115173680D01*
X167188571Y-115173680D02*
X167264761Y-115211775D01*
X167264761Y-115211775D02*
X167417142Y-115211775D01*
X167417142Y-115211775D02*
X167493333Y-115173680D01*
X167493333Y-115173680D02*
X167531428Y-115135584D01*
X167531428Y-115135584D02*
X167569523Y-115059394D01*
X167569523Y-115059394D02*
X167569523Y-114907013D01*
X167569523Y-114907013D02*
X167531428Y-114830822D01*
X167531428Y-114830822D02*
X167493333Y-114792727D01*
X167493333Y-114792727D02*
X167417142Y-114754632D01*
X142356667Y-92765584D02*
X142318571Y-92803680D01*
X142318571Y-92803680D02*
X142204286Y-92841775D01*
X142204286Y-92841775D02*
X142128095Y-92841775D01*
X142128095Y-92841775D02*
X142013809Y-92803680D01*
X142013809Y-92803680D02*
X141937619Y-92727489D01*
X141937619Y-92727489D02*
X141899524Y-92651299D01*
X141899524Y-92651299D02*
X141861428Y-92498918D01*
X141861428Y-92498918D02*
X141861428Y-92384632D01*
X141861428Y-92384632D02*
X141899524Y-92232251D01*
X141899524Y-92232251D02*
X141937619Y-92156060D01*
X141937619Y-92156060D02*
X142013809Y-92079870D01*
X142013809Y-92079870D02*
X142128095Y-92041775D01*
X142128095Y-92041775D02*
X142204286Y-92041775D01*
X142204286Y-92041775D02*
X142318571Y-92079870D01*
X142318571Y-92079870D02*
X142356667Y-92117965D01*
X143042381Y-92041775D02*
X142890000Y-92041775D01*
X142890000Y-92041775D02*
X142813809Y-92079870D01*
X142813809Y-92079870D02*
X142775714Y-92117965D01*
X142775714Y-92117965D02*
X142699524Y-92232251D01*
X142699524Y-92232251D02*
X142661428Y-92384632D01*
X142661428Y-92384632D02*
X142661428Y-92689394D01*
X142661428Y-92689394D02*
X142699524Y-92765584D01*
X142699524Y-92765584D02*
X142737619Y-92803680D01*
X142737619Y-92803680D02*
X142813809Y-92841775D01*
X142813809Y-92841775D02*
X142966190Y-92841775D01*
X142966190Y-92841775D02*
X143042381Y-92803680D01*
X143042381Y-92803680D02*
X143080476Y-92765584D01*
X143080476Y-92765584D02*
X143118571Y-92689394D01*
X143118571Y-92689394D02*
X143118571Y-92498918D01*
X143118571Y-92498918D02*
X143080476Y-92422727D01*
X143080476Y-92422727D02*
X143042381Y-92384632D01*
X143042381Y-92384632D02*
X142966190Y-92346537D01*
X142966190Y-92346537D02*
X142813809Y-92346537D01*
X142813809Y-92346537D02*
X142737619Y-92384632D01*
X142737619Y-92384632D02*
X142699524Y-92422727D01*
X142699524Y-92422727D02*
X142661428Y-92498918D01*
X126085714Y-143435584D02*
X126047618Y-143473680D01*
X126047618Y-143473680D02*
X125933333Y-143511775D01*
X125933333Y-143511775D02*
X125857142Y-143511775D01*
X125857142Y-143511775D02*
X125742856Y-143473680D01*
X125742856Y-143473680D02*
X125666666Y-143397489D01*
X125666666Y-143397489D02*
X125628571Y-143321299D01*
X125628571Y-143321299D02*
X125590475Y-143168918D01*
X125590475Y-143168918D02*
X125590475Y-143054632D01*
X125590475Y-143054632D02*
X125628571Y-142902251D01*
X125628571Y-142902251D02*
X125666666Y-142826060D01*
X125666666Y-142826060D02*
X125742856Y-142749870D01*
X125742856Y-142749870D02*
X125857142Y-142711775D01*
X125857142Y-142711775D02*
X125933333Y-142711775D01*
X125933333Y-142711775D02*
X126047618Y-142749870D01*
X126047618Y-142749870D02*
X126085714Y-142787965D01*
X126390475Y-142787965D02*
X126428571Y-142749870D01*
X126428571Y-142749870D02*
X126504761Y-142711775D01*
X126504761Y-142711775D02*
X126695237Y-142711775D01*
X126695237Y-142711775D02*
X126771428Y-142749870D01*
X126771428Y-142749870D02*
X126809523Y-142787965D01*
X126809523Y-142787965D02*
X126847618Y-142864156D01*
X126847618Y-142864156D02*
X126847618Y-142940346D01*
X126847618Y-142940346D02*
X126809523Y-143054632D01*
X126809523Y-143054632D02*
X126352380Y-143511775D01*
X126352380Y-143511775D02*
X126847618Y-143511775D01*
X127152380Y-142787965D02*
X127190476Y-142749870D01*
X127190476Y-142749870D02*
X127266666Y-142711775D01*
X127266666Y-142711775D02*
X127457142Y-142711775D01*
X127457142Y-142711775D02*
X127533333Y-142749870D01*
X127533333Y-142749870D02*
X127571428Y-142787965D01*
X127571428Y-142787965D02*
X127609523Y-142864156D01*
X127609523Y-142864156D02*
X127609523Y-142940346D01*
X127609523Y-142940346D02*
X127571428Y-143054632D01*
X127571428Y-143054632D02*
X127114285Y-143511775D01*
X127114285Y-143511775D02*
X127609523Y-143511775D01*
D11*
X198202618Y-83074318D02*
X198202618Y-81804318D01*
X198202618Y-81804318D02*
X198504999Y-81804318D01*
X198504999Y-81804318D02*
X198686428Y-81864794D01*
X198686428Y-81864794D02*
X198807380Y-81985746D01*
X198807380Y-81985746D02*
X198867857Y-82106699D01*
X198867857Y-82106699D02*
X198928333Y-82348603D01*
X198928333Y-82348603D02*
X198928333Y-82530032D01*
X198928333Y-82530032D02*
X198867857Y-82771937D01*
X198867857Y-82771937D02*
X198807380Y-82892889D01*
X198807380Y-82892889D02*
X198686428Y-83013842D01*
X198686428Y-83013842D02*
X198504999Y-83074318D01*
X198504999Y-83074318D02*
X198202618Y-83074318D01*
X199351666Y-81804318D02*
X200198333Y-81804318D01*
X200198333Y-81804318D02*
X199654047Y-83074318D01*
D10*
X167535714Y-117955584D02*
X167497618Y-117993680D01*
X167497618Y-117993680D02*
X167383333Y-118031775D01*
X167383333Y-118031775D02*
X167307142Y-118031775D01*
X167307142Y-118031775D02*
X167192856Y-117993680D01*
X167192856Y-117993680D02*
X167116666Y-117917489D01*
X167116666Y-117917489D02*
X167078571Y-117841299D01*
X167078571Y-117841299D02*
X167040475Y-117688918D01*
X167040475Y-117688918D02*
X167040475Y-117574632D01*
X167040475Y-117574632D02*
X167078571Y-117422251D01*
X167078571Y-117422251D02*
X167116666Y-117346060D01*
X167116666Y-117346060D02*
X167192856Y-117269870D01*
X167192856Y-117269870D02*
X167307142Y-117231775D01*
X167307142Y-117231775D02*
X167383333Y-117231775D01*
X167383333Y-117231775D02*
X167497618Y-117269870D01*
X167497618Y-117269870D02*
X167535714Y-117307965D01*
X168297618Y-118031775D02*
X167840475Y-118031775D01*
X168069047Y-118031775D02*
X168069047Y-117231775D01*
X168069047Y-117231775D02*
X167992856Y-117346060D01*
X167992856Y-117346060D02*
X167916666Y-117422251D01*
X167916666Y-117422251D02*
X167840475Y-117460346D01*
X168564285Y-117231775D02*
X169097619Y-117231775D01*
X169097619Y-117231775D02*
X168754761Y-118031775D01*
D13*
X150956667Y-90632295D02*
X150690000Y-90251342D01*
X150499524Y-90632295D02*
X150499524Y-89832295D01*
X150499524Y-89832295D02*
X150804286Y-89832295D01*
X150804286Y-89832295D02*
X150880476Y-89870390D01*
X150880476Y-89870390D02*
X150918571Y-89908485D01*
X150918571Y-89908485D02*
X150956667Y-89984676D01*
X150956667Y-89984676D02*
X150956667Y-90098961D01*
X150956667Y-90098961D02*
X150918571Y-90175152D01*
X150918571Y-90175152D02*
X150880476Y-90213247D01*
X150880476Y-90213247D02*
X150804286Y-90251342D01*
X150804286Y-90251342D02*
X150499524Y-90251342D01*
X151337619Y-90632295D02*
X151490000Y-90632295D01*
X151490000Y-90632295D02*
X151566190Y-90594200D01*
X151566190Y-90594200D02*
X151604286Y-90556104D01*
X151604286Y-90556104D02*
X151680476Y-90441819D01*
X151680476Y-90441819D02*
X151718571Y-90289438D01*
X151718571Y-90289438D02*
X151718571Y-89984676D01*
X151718571Y-89984676D02*
X151680476Y-89908485D01*
X151680476Y-89908485D02*
X151642381Y-89870390D01*
X151642381Y-89870390D02*
X151566190Y-89832295D01*
X151566190Y-89832295D02*
X151413809Y-89832295D01*
X151413809Y-89832295D02*
X151337619Y-89870390D01*
X151337619Y-89870390D02*
X151299524Y-89908485D01*
X151299524Y-89908485D02*
X151261428Y-89984676D01*
X151261428Y-89984676D02*
X151261428Y-90175152D01*
X151261428Y-90175152D02*
X151299524Y-90251342D01*
X151299524Y-90251342D02*
X151337619Y-90289438D01*
X151337619Y-90289438D02*
X151413809Y-90327533D01*
X151413809Y-90327533D02*
X151566190Y-90327533D01*
X151566190Y-90327533D02*
X151642381Y-90289438D01*
X151642381Y-90289438D02*
X151680476Y-90251342D01*
X151680476Y-90251342D02*
X151718571Y-90175152D01*
D10*
X122526667Y-99971775D02*
X122260000Y-99590822D01*
X122069524Y-99971775D02*
X122069524Y-99171775D01*
X122069524Y-99171775D02*
X122374286Y-99171775D01*
X122374286Y-99171775D02*
X122450476Y-99209870D01*
X122450476Y-99209870D02*
X122488571Y-99247965D01*
X122488571Y-99247965D02*
X122526667Y-99324156D01*
X122526667Y-99324156D02*
X122526667Y-99438441D01*
X122526667Y-99438441D02*
X122488571Y-99514632D01*
X122488571Y-99514632D02*
X122450476Y-99552727D01*
X122450476Y-99552727D02*
X122374286Y-99590822D01*
X122374286Y-99590822D02*
X122069524Y-99590822D01*
X122793333Y-99171775D02*
X123288571Y-99171775D01*
X123288571Y-99171775D02*
X123021905Y-99476537D01*
X123021905Y-99476537D02*
X123136190Y-99476537D01*
X123136190Y-99476537D02*
X123212381Y-99514632D01*
X123212381Y-99514632D02*
X123250476Y-99552727D01*
X123250476Y-99552727D02*
X123288571Y-99628918D01*
X123288571Y-99628918D02*
X123288571Y-99819394D01*
X123288571Y-99819394D02*
X123250476Y-99895584D01*
X123250476Y-99895584D02*
X123212381Y-99933680D01*
X123212381Y-99933680D02*
X123136190Y-99971775D01*
X123136190Y-99971775D02*
X122907619Y-99971775D01*
X122907619Y-99971775D02*
X122831428Y-99933680D01*
X122831428Y-99933680D02*
X122793333Y-99895584D01*
D13*
X177757142Y-115154819D02*
X177423809Y-114678628D01*
X177185714Y-115154819D02*
X177185714Y-114154819D01*
X177185714Y-114154819D02*
X177566666Y-114154819D01*
X177566666Y-114154819D02*
X177661904Y-114202438D01*
X177661904Y-114202438D02*
X177709523Y-114250057D01*
X177709523Y-114250057D02*
X177757142Y-114345295D01*
X177757142Y-114345295D02*
X177757142Y-114488152D01*
X177757142Y-114488152D02*
X177709523Y-114583390D01*
X177709523Y-114583390D02*
X177661904Y-114631009D01*
X177661904Y-114631009D02*
X177566666Y-114678628D01*
X177566666Y-114678628D02*
X177185714Y-114678628D01*
X178709523Y-115154819D02*
X178138095Y-115154819D01*
X178423809Y-115154819D02*
X178423809Y-114154819D01*
X178423809Y-114154819D02*
X178328571Y-114297676D01*
X178328571Y-114297676D02*
X178233333Y-114392914D01*
X178233333Y-114392914D02*
X178138095Y-114440533D01*
X179661904Y-115154819D02*
X179090476Y-115154819D01*
X179376190Y-115154819D02*
X179376190Y-114154819D01*
X179376190Y-114154819D02*
X179280952Y-114297676D01*
X179280952Y-114297676D02*
X179185714Y-114392914D01*
X179185714Y-114392914D02*
X179090476Y-114440533D01*
D10*
X156966667Y-133625584D02*
X156928571Y-133663680D01*
X156928571Y-133663680D02*
X156814286Y-133701775D01*
X156814286Y-133701775D02*
X156738095Y-133701775D01*
X156738095Y-133701775D02*
X156623809Y-133663680D01*
X156623809Y-133663680D02*
X156547619Y-133587489D01*
X156547619Y-133587489D02*
X156509524Y-133511299D01*
X156509524Y-133511299D02*
X156471428Y-133358918D01*
X156471428Y-133358918D02*
X156471428Y-133244632D01*
X156471428Y-133244632D02*
X156509524Y-133092251D01*
X156509524Y-133092251D02*
X156547619Y-133016060D01*
X156547619Y-133016060D02*
X156623809Y-132939870D01*
X156623809Y-132939870D02*
X156738095Y-132901775D01*
X156738095Y-132901775D02*
X156814286Y-132901775D01*
X156814286Y-132901775D02*
X156928571Y-132939870D01*
X156928571Y-132939870D02*
X156966667Y-132977965D01*
X157347619Y-133701775D02*
X157500000Y-133701775D01*
X157500000Y-133701775D02*
X157576190Y-133663680D01*
X157576190Y-133663680D02*
X157614286Y-133625584D01*
X157614286Y-133625584D02*
X157690476Y-133511299D01*
X157690476Y-133511299D02*
X157728571Y-133358918D01*
X157728571Y-133358918D02*
X157728571Y-133054156D01*
X157728571Y-133054156D02*
X157690476Y-132977965D01*
X157690476Y-132977965D02*
X157652381Y-132939870D01*
X157652381Y-132939870D02*
X157576190Y-132901775D01*
X157576190Y-132901775D02*
X157423809Y-132901775D01*
X157423809Y-132901775D02*
X157347619Y-132939870D01*
X157347619Y-132939870D02*
X157309524Y-132977965D01*
X157309524Y-132977965D02*
X157271428Y-133054156D01*
X157271428Y-133054156D02*
X157271428Y-133244632D01*
X157271428Y-133244632D02*
X157309524Y-133320822D01*
X157309524Y-133320822D02*
X157347619Y-133358918D01*
X157347619Y-133358918D02*
X157423809Y-133397013D01*
X157423809Y-133397013D02*
X157576190Y-133397013D01*
X157576190Y-133397013D02*
X157652381Y-133358918D01*
X157652381Y-133358918D02*
X157690476Y-133320822D01*
X157690476Y-133320822D02*
X157728571Y-133244632D01*
D11*
X128449047Y-129435270D02*
X128328095Y-129374794D01*
X128328095Y-129374794D02*
X128207142Y-129253842D01*
X128207142Y-129253842D02*
X128025714Y-129072413D01*
X128025714Y-129072413D02*
X127904761Y-129011937D01*
X127904761Y-129011937D02*
X127783809Y-129011937D01*
X127844285Y-129314318D02*
X127723333Y-129253842D01*
X127723333Y-129253842D02*
X127602380Y-129132889D01*
X127602380Y-129132889D02*
X127541904Y-128890984D01*
X127541904Y-128890984D02*
X127541904Y-128467651D01*
X127541904Y-128467651D02*
X127602380Y-128225746D01*
X127602380Y-128225746D02*
X127723333Y-128104794D01*
X127723333Y-128104794D02*
X127844285Y-128044318D01*
X127844285Y-128044318D02*
X128086190Y-128044318D01*
X128086190Y-128044318D02*
X128207142Y-128104794D01*
X128207142Y-128104794D02*
X128328095Y-128225746D01*
X128328095Y-128225746D02*
X128388571Y-128467651D01*
X128388571Y-128467651D02*
X128388571Y-128890984D01*
X128388571Y-128890984D02*
X128328095Y-129132889D01*
X128328095Y-129132889D02*
X128207142Y-129253842D01*
X128207142Y-129253842D02*
X128086190Y-129314318D01*
X128086190Y-129314318D02*
X127844285Y-129314318D01*
X128872380Y-128165270D02*
X128932856Y-128104794D01*
X128932856Y-128104794D02*
X129053809Y-128044318D01*
X129053809Y-128044318D02*
X129356190Y-128044318D01*
X129356190Y-128044318D02*
X129477142Y-128104794D01*
X129477142Y-128104794D02*
X129537618Y-128165270D01*
X129537618Y-128165270D02*
X129598095Y-128286222D01*
X129598095Y-128286222D02*
X129598095Y-128407175D01*
X129598095Y-128407175D02*
X129537618Y-128588603D01*
X129537618Y-128588603D02*
X128811904Y-129314318D01*
X128811904Y-129314318D02*
X129598095Y-129314318D01*
X175800237Y-82694318D02*
X175800237Y-81424318D01*
X177130714Y-82573365D02*
X177070238Y-82633842D01*
X177070238Y-82633842D02*
X176888809Y-82694318D01*
X176888809Y-82694318D02*
X176767857Y-82694318D01*
X176767857Y-82694318D02*
X176586428Y-82633842D01*
X176586428Y-82633842D02*
X176465476Y-82512889D01*
X176465476Y-82512889D02*
X176404999Y-82391937D01*
X176404999Y-82391937D02*
X176344523Y-82150032D01*
X176344523Y-82150032D02*
X176344523Y-81968603D01*
X176344523Y-81968603D02*
X176404999Y-81726699D01*
X176404999Y-81726699D02*
X176465476Y-81605746D01*
X176465476Y-81605746D02*
X176586428Y-81484794D01*
X176586428Y-81484794D02*
X176767857Y-81424318D01*
X176767857Y-81424318D02*
X176888809Y-81424318D01*
X176888809Y-81424318D02*
X177070238Y-81484794D01*
X177070238Y-81484794D02*
X177130714Y-81545270D01*
X177614523Y-81545270D02*
X177674999Y-81484794D01*
X177674999Y-81484794D02*
X177795952Y-81424318D01*
X177795952Y-81424318D02*
X178098333Y-81424318D01*
X178098333Y-81424318D02*
X178219285Y-81484794D01*
X178219285Y-81484794D02*
X178279761Y-81545270D01*
X178279761Y-81545270D02*
X178340238Y-81666222D01*
X178340238Y-81666222D02*
X178340238Y-81787175D01*
X178340238Y-81787175D02*
X178279761Y-81968603D01*
X178279761Y-81968603D02*
X177554047Y-82694318D01*
X177554047Y-82694318D02*
X178340238Y-82694318D01*
D10*
X111846667Y-99881775D02*
X111580000Y-99500822D01*
X111389524Y-99881775D02*
X111389524Y-99081775D01*
X111389524Y-99081775D02*
X111694286Y-99081775D01*
X111694286Y-99081775D02*
X111770476Y-99119870D01*
X111770476Y-99119870D02*
X111808571Y-99157965D01*
X111808571Y-99157965D02*
X111846667Y-99234156D01*
X111846667Y-99234156D02*
X111846667Y-99348441D01*
X111846667Y-99348441D02*
X111808571Y-99424632D01*
X111808571Y-99424632D02*
X111770476Y-99462727D01*
X111770476Y-99462727D02*
X111694286Y-99500822D01*
X111694286Y-99500822D02*
X111389524Y-99500822D01*
X112151428Y-99157965D02*
X112189524Y-99119870D01*
X112189524Y-99119870D02*
X112265714Y-99081775D01*
X112265714Y-99081775D02*
X112456190Y-99081775D01*
X112456190Y-99081775D02*
X112532381Y-99119870D01*
X112532381Y-99119870D02*
X112570476Y-99157965D01*
X112570476Y-99157965D02*
X112608571Y-99234156D01*
X112608571Y-99234156D02*
X112608571Y-99310346D01*
X112608571Y-99310346D02*
X112570476Y-99424632D01*
X112570476Y-99424632D02*
X112113333Y-99881775D01*
X112113333Y-99881775D02*
X112608571Y-99881775D01*
X122096667Y-86915584D02*
X122058571Y-86953680D01*
X122058571Y-86953680D02*
X121944286Y-86991775D01*
X121944286Y-86991775D02*
X121868095Y-86991775D01*
X121868095Y-86991775D02*
X121753809Y-86953680D01*
X121753809Y-86953680D02*
X121677619Y-86877489D01*
X121677619Y-86877489D02*
X121639524Y-86801299D01*
X121639524Y-86801299D02*
X121601428Y-86648918D01*
X121601428Y-86648918D02*
X121601428Y-86534632D01*
X121601428Y-86534632D02*
X121639524Y-86382251D01*
X121639524Y-86382251D02*
X121677619Y-86306060D01*
X121677619Y-86306060D02*
X121753809Y-86229870D01*
X121753809Y-86229870D02*
X121868095Y-86191775D01*
X121868095Y-86191775D02*
X121944286Y-86191775D01*
X121944286Y-86191775D02*
X122058571Y-86229870D01*
X122058571Y-86229870D02*
X122096667Y-86267965D01*
X122858571Y-86991775D02*
X122401428Y-86991775D01*
X122630000Y-86991775D02*
X122630000Y-86191775D01*
X122630000Y-86191775D02*
X122553809Y-86306060D01*
X122553809Y-86306060D02*
X122477619Y-86382251D01*
X122477619Y-86382251D02*
X122401428Y-86420346D01*
X112386667Y-94165584D02*
X112348571Y-94203680D01*
X112348571Y-94203680D02*
X112234286Y-94241775D01*
X112234286Y-94241775D02*
X112158095Y-94241775D01*
X112158095Y-94241775D02*
X112043809Y-94203680D01*
X112043809Y-94203680D02*
X111967619Y-94127489D01*
X111967619Y-94127489D02*
X111929524Y-94051299D01*
X111929524Y-94051299D02*
X111891428Y-93898918D01*
X111891428Y-93898918D02*
X111891428Y-93784632D01*
X111891428Y-93784632D02*
X111929524Y-93632251D01*
X111929524Y-93632251D02*
X111967619Y-93556060D01*
X111967619Y-93556060D02*
X112043809Y-93479870D01*
X112043809Y-93479870D02*
X112158095Y-93441775D01*
X112158095Y-93441775D02*
X112234286Y-93441775D01*
X112234286Y-93441775D02*
X112348571Y-93479870D01*
X112348571Y-93479870D02*
X112386667Y-93517965D01*
X112653333Y-93441775D02*
X113148571Y-93441775D01*
X113148571Y-93441775D02*
X112881905Y-93746537D01*
X112881905Y-93746537D02*
X112996190Y-93746537D01*
X112996190Y-93746537D02*
X113072381Y-93784632D01*
X113072381Y-93784632D02*
X113110476Y-93822727D01*
X113110476Y-93822727D02*
X113148571Y-93898918D01*
X113148571Y-93898918D02*
X113148571Y-94089394D01*
X113148571Y-94089394D02*
X113110476Y-94165584D01*
X113110476Y-94165584D02*
X113072381Y-94203680D01*
X113072381Y-94203680D02*
X112996190Y-94241775D01*
X112996190Y-94241775D02*
X112767619Y-94241775D01*
X112767619Y-94241775D02*
X112691428Y-94203680D01*
X112691428Y-94203680D02*
X112653333Y-94165584D01*
X141506667Y-90045584D02*
X141468571Y-90083680D01*
X141468571Y-90083680D02*
X141354286Y-90121775D01*
X141354286Y-90121775D02*
X141278095Y-90121775D01*
X141278095Y-90121775D02*
X141163809Y-90083680D01*
X141163809Y-90083680D02*
X141087619Y-90007489D01*
X141087619Y-90007489D02*
X141049524Y-89931299D01*
X141049524Y-89931299D02*
X141011428Y-89778918D01*
X141011428Y-89778918D02*
X141011428Y-89664632D01*
X141011428Y-89664632D02*
X141049524Y-89512251D01*
X141049524Y-89512251D02*
X141087619Y-89436060D01*
X141087619Y-89436060D02*
X141163809Y-89359870D01*
X141163809Y-89359870D02*
X141278095Y-89321775D01*
X141278095Y-89321775D02*
X141354286Y-89321775D01*
X141354286Y-89321775D02*
X141468571Y-89359870D01*
X141468571Y-89359870D02*
X141506667Y-89397965D01*
X142230476Y-89321775D02*
X141849524Y-89321775D01*
X141849524Y-89321775D02*
X141811428Y-89702727D01*
X141811428Y-89702727D02*
X141849524Y-89664632D01*
X141849524Y-89664632D02*
X141925714Y-89626537D01*
X141925714Y-89626537D02*
X142116190Y-89626537D01*
X142116190Y-89626537D02*
X142192381Y-89664632D01*
X142192381Y-89664632D02*
X142230476Y-89702727D01*
X142230476Y-89702727D02*
X142268571Y-89778918D01*
X142268571Y-89778918D02*
X142268571Y-89969394D01*
X142268571Y-89969394D02*
X142230476Y-90045584D01*
X142230476Y-90045584D02*
X142192381Y-90083680D01*
X142192381Y-90083680D02*
X142116190Y-90121775D01*
X142116190Y-90121775D02*
X141925714Y-90121775D01*
X141925714Y-90121775D02*
X141849524Y-90083680D01*
X141849524Y-90083680D02*
X141811428Y-90045584D01*
X202825714Y-125031775D02*
X202559047Y-124650822D01*
X202368571Y-125031775D02*
X202368571Y-124231775D01*
X202368571Y-124231775D02*
X202673333Y-124231775D01*
X202673333Y-124231775D02*
X202749523Y-124269870D01*
X202749523Y-124269870D02*
X202787618Y-124307965D01*
X202787618Y-124307965D02*
X202825714Y-124384156D01*
X202825714Y-124384156D02*
X202825714Y-124498441D01*
X202825714Y-124498441D02*
X202787618Y-124574632D01*
X202787618Y-124574632D02*
X202749523Y-124612727D01*
X202749523Y-124612727D02*
X202673333Y-124650822D01*
X202673333Y-124650822D02*
X202368571Y-124650822D01*
X203130475Y-124307965D02*
X203168571Y-124269870D01*
X203168571Y-124269870D02*
X203244761Y-124231775D01*
X203244761Y-124231775D02*
X203435237Y-124231775D01*
X203435237Y-124231775D02*
X203511428Y-124269870D01*
X203511428Y-124269870D02*
X203549523Y-124307965D01*
X203549523Y-124307965D02*
X203587618Y-124384156D01*
X203587618Y-124384156D02*
X203587618Y-124460346D01*
X203587618Y-124460346D02*
X203549523Y-124574632D01*
X203549523Y-124574632D02*
X203092380Y-125031775D01*
X203092380Y-125031775D02*
X203587618Y-125031775D01*
X204349523Y-125031775D02*
X203892380Y-125031775D01*
X204120952Y-125031775D02*
X204120952Y-124231775D01*
X204120952Y-124231775D02*
X204044761Y-124346060D01*
X204044761Y-124346060D02*
X203968571Y-124422251D01*
X203968571Y-124422251D02*
X203892380Y-124460346D01*
X118786667Y-100821775D02*
X118520000Y-100440822D01*
X118329524Y-100821775D02*
X118329524Y-100021775D01*
X118329524Y-100021775D02*
X118634286Y-100021775D01*
X118634286Y-100021775D02*
X118710476Y-100059870D01*
X118710476Y-100059870D02*
X118748571Y-100097965D01*
X118748571Y-100097965D02*
X118786667Y-100174156D01*
X118786667Y-100174156D02*
X118786667Y-100288441D01*
X118786667Y-100288441D02*
X118748571Y-100364632D01*
X118748571Y-100364632D02*
X118710476Y-100402727D01*
X118710476Y-100402727D02*
X118634286Y-100440822D01*
X118634286Y-100440822D02*
X118329524Y-100440822D01*
X119548571Y-100821775D02*
X119091428Y-100821775D01*
X119320000Y-100821775D02*
X119320000Y-100021775D01*
X119320000Y-100021775D02*
X119243809Y-100136060D01*
X119243809Y-100136060D02*
X119167619Y-100212251D01*
X119167619Y-100212251D02*
X119091428Y-100250346D01*
X114665714Y-124595584D02*
X114627618Y-124633680D01*
X114627618Y-124633680D02*
X114513333Y-124671775D01*
X114513333Y-124671775D02*
X114437142Y-124671775D01*
X114437142Y-124671775D02*
X114322856Y-124633680D01*
X114322856Y-124633680D02*
X114246666Y-124557489D01*
X114246666Y-124557489D02*
X114208571Y-124481299D01*
X114208571Y-124481299D02*
X114170475Y-124328918D01*
X114170475Y-124328918D02*
X114170475Y-124214632D01*
X114170475Y-124214632D02*
X114208571Y-124062251D01*
X114208571Y-124062251D02*
X114246666Y-123986060D01*
X114246666Y-123986060D02*
X114322856Y-123909870D01*
X114322856Y-123909870D02*
X114437142Y-123871775D01*
X114437142Y-123871775D02*
X114513333Y-123871775D01*
X114513333Y-123871775D02*
X114627618Y-123909870D01*
X114627618Y-123909870D02*
X114665714Y-123947965D01*
X114970475Y-123947965D02*
X115008571Y-123909870D01*
X115008571Y-123909870D02*
X115084761Y-123871775D01*
X115084761Y-123871775D02*
X115275237Y-123871775D01*
X115275237Y-123871775D02*
X115351428Y-123909870D01*
X115351428Y-123909870D02*
X115389523Y-123947965D01*
X115389523Y-123947965D02*
X115427618Y-124024156D01*
X115427618Y-124024156D02*
X115427618Y-124100346D01*
X115427618Y-124100346D02*
X115389523Y-124214632D01*
X115389523Y-124214632D02*
X114932380Y-124671775D01*
X114932380Y-124671775D02*
X115427618Y-124671775D01*
X115922857Y-123871775D02*
X115999047Y-123871775D01*
X115999047Y-123871775D02*
X116075238Y-123909870D01*
X116075238Y-123909870D02*
X116113333Y-123947965D01*
X116113333Y-123947965D02*
X116151428Y-124024156D01*
X116151428Y-124024156D02*
X116189523Y-124176537D01*
X116189523Y-124176537D02*
X116189523Y-124367013D01*
X116189523Y-124367013D02*
X116151428Y-124519394D01*
X116151428Y-124519394D02*
X116113333Y-124595584D01*
X116113333Y-124595584D02*
X116075238Y-124633680D01*
X116075238Y-124633680D02*
X115999047Y-124671775D01*
X115999047Y-124671775D02*
X115922857Y-124671775D01*
X115922857Y-124671775D02*
X115846666Y-124633680D01*
X115846666Y-124633680D02*
X115808571Y-124595584D01*
X115808571Y-124595584D02*
X115770476Y-124519394D01*
X115770476Y-124519394D02*
X115732380Y-124367013D01*
X115732380Y-124367013D02*
X115732380Y-124176537D01*
X115732380Y-124176537D02*
X115770476Y-124024156D01*
X115770476Y-124024156D02*
X115808571Y-123947965D01*
X115808571Y-123947965D02*
X115846666Y-123909870D01*
X115846666Y-123909870D02*
X115922857Y-123871775D01*
D13*
X122754819Y-105812857D02*
X122278628Y-106146190D01*
X122754819Y-106384285D02*
X121754819Y-106384285D01*
X121754819Y-106384285D02*
X121754819Y-106003333D01*
X121754819Y-106003333D02*
X121802438Y-105908095D01*
X121802438Y-105908095D02*
X121850057Y-105860476D01*
X121850057Y-105860476D02*
X121945295Y-105812857D01*
X121945295Y-105812857D02*
X122088152Y-105812857D01*
X122088152Y-105812857D02*
X122183390Y-105860476D01*
X122183390Y-105860476D02*
X122231009Y-105908095D01*
X122231009Y-105908095D02*
X122278628Y-106003333D01*
X122278628Y-106003333D02*
X122278628Y-106384285D01*
X121754819Y-105479523D02*
X121754819Y-104860476D01*
X121754819Y-104860476D02*
X122135771Y-105193809D01*
X122135771Y-105193809D02*
X122135771Y-105050952D01*
X122135771Y-105050952D02*
X122183390Y-104955714D01*
X122183390Y-104955714D02*
X122231009Y-104908095D01*
X122231009Y-104908095D02*
X122326247Y-104860476D01*
X122326247Y-104860476D02*
X122564342Y-104860476D01*
X122564342Y-104860476D02*
X122659580Y-104908095D01*
X122659580Y-104908095D02*
X122707200Y-104955714D01*
X122707200Y-104955714D02*
X122754819Y-105050952D01*
X122754819Y-105050952D02*
X122754819Y-105336666D01*
X122754819Y-105336666D02*
X122707200Y-105431904D01*
X122707200Y-105431904D02*
X122659580Y-105479523D01*
X122754819Y-103908095D02*
X122754819Y-104479523D01*
X122754819Y-104193809D02*
X121754819Y-104193809D01*
X121754819Y-104193809D02*
X121897676Y-104289047D01*
X121897676Y-104289047D02*
X121992914Y-104384285D01*
X121992914Y-104384285D02*
X122040533Y-104479523D01*
X197843333Y-99584819D02*
X197510000Y-99108628D01*
X197271905Y-99584819D02*
X197271905Y-98584819D01*
X197271905Y-98584819D02*
X197652857Y-98584819D01*
X197652857Y-98584819D02*
X197748095Y-98632438D01*
X197748095Y-98632438D02*
X197795714Y-98680057D01*
X197795714Y-98680057D02*
X197843333Y-98775295D01*
X197843333Y-98775295D02*
X197843333Y-98918152D01*
X197843333Y-98918152D02*
X197795714Y-99013390D01*
X197795714Y-99013390D02*
X197748095Y-99061009D01*
X197748095Y-99061009D02*
X197652857Y-99108628D01*
X197652857Y-99108628D02*
X197271905Y-99108628D01*
X198414762Y-99013390D02*
X198319524Y-98965771D01*
X198319524Y-98965771D02*
X198271905Y-98918152D01*
X198271905Y-98918152D02*
X198224286Y-98822914D01*
X198224286Y-98822914D02*
X198224286Y-98775295D01*
X198224286Y-98775295D02*
X198271905Y-98680057D01*
X198271905Y-98680057D02*
X198319524Y-98632438D01*
X198319524Y-98632438D02*
X198414762Y-98584819D01*
X198414762Y-98584819D02*
X198605238Y-98584819D01*
X198605238Y-98584819D02*
X198700476Y-98632438D01*
X198700476Y-98632438D02*
X198748095Y-98680057D01*
X198748095Y-98680057D02*
X198795714Y-98775295D01*
X198795714Y-98775295D02*
X198795714Y-98822914D01*
X198795714Y-98822914D02*
X198748095Y-98918152D01*
X198748095Y-98918152D02*
X198700476Y-98965771D01*
X198700476Y-98965771D02*
X198605238Y-99013390D01*
X198605238Y-99013390D02*
X198414762Y-99013390D01*
X198414762Y-99013390D02*
X198319524Y-99061009D01*
X198319524Y-99061009D02*
X198271905Y-99108628D01*
X198271905Y-99108628D02*
X198224286Y-99203866D01*
X198224286Y-99203866D02*
X198224286Y-99394342D01*
X198224286Y-99394342D02*
X198271905Y-99489580D01*
X198271905Y-99489580D02*
X198319524Y-99537200D01*
X198319524Y-99537200D02*
X198414762Y-99584819D01*
X198414762Y-99584819D02*
X198605238Y-99584819D01*
X198605238Y-99584819D02*
X198700476Y-99537200D01*
X198700476Y-99537200D02*
X198748095Y-99489580D01*
X198748095Y-99489580D02*
X198795714Y-99394342D01*
X198795714Y-99394342D02*
X198795714Y-99203866D01*
X198795714Y-99203866D02*
X198748095Y-99108628D01*
X198748095Y-99108628D02*
X198700476Y-99061009D01*
X198700476Y-99061009D02*
X198605238Y-99013390D01*
D10*
X117685714Y-117155584D02*
X117647618Y-117193680D01*
X117647618Y-117193680D02*
X117533333Y-117231775D01*
X117533333Y-117231775D02*
X117457142Y-117231775D01*
X117457142Y-117231775D02*
X117342856Y-117193680D01*
X117342856Y-117193680D02*
X117266666Y-117117489D01*
X117266666Y-117117489D02*
X117228571Y-117041299D01*
X117228571Y-117041299D02*
X117190475Y-116888918D01*
X117190475Y-116888918D02*
X117190475Y-116774632D01*
X117190475Y-116774632D02*
X117228571Y-116622251D01*
X117228571Y-116622251D02*
X117266666Y-116546060D01*
X117266666Y-116546060D02*
X117342856Y-116469870D01*
X117342856Y-116469870D02*
X117457142Y-116431775D01*
X117457142Y-116431775D02*
X117533333Y-116431775D01*
X117533333Y-116431775D02*
X117647618Y-116469870D01*
X117647618Y-116469870D02*
X117685714Y-116507965D01*
X117990475Y-116507965D02*
X118028571Y-116469870D01*
X118028571Y-116469870D02*
X118104761Y-116431775D01*
X118104761Y-116431775D02*
X118295237Y-116431775D01*
X118295237Y-116431775D02*
X118371428Y-116469870D01*
X118371428Y-116469870D02*
X118409523Y-116507965D01*
X118409523Y-116507965D02*
X118447618Y-116584156D01*
X118447618Y-116584156D02*
X118447618Y-116660346D01*
X118447618Y-116660346D02*
X118409523Y-116774632D01*
X118409523Y-116774632D02*
X117952380Y-117231775D01*
X117952380Y-117231775D02*
X118447618Y-117231775D01*
X118714285Y-116431775D02*
X119209523Y-116431775D01*
X119209523Y-116431775D02*
X118942857Y-116736537D01*
X118942857Y-116736537D02*
X119057142Y-116736537D01*
X119057142Y-116736537D02*
X119133333Y-116774632D01*
X119133333Y-116774632D02*
X119171428Y-116812727D01*
X119171428Y-116812727D02*
X119209523Y-116888918D01*
X119209523Y-116888918D02*
X119209523Y-117079394D01*
X119209523Y-117079394D02*
X119171428Y-117155584D01*
X119171428Y-117155584D02*
X119133333Y-117193680D01*
X119133333Y-117193680D02*
X119057142Y-117231775D01*
X119057142Y-117231775D02*
X118828571Y-117231775D01*
X118828571Y-117231775D02*
X118752380Y-117193680D01*
X118752380Y-117193680D02*
X118714285Y-117155584D01*
D13*
X136335714Y-103952295D02*
X136069047Y-103571342D01*
X135878571Y-103952295D02*
X135878571Y-103152295D01*
X135878571Y-103152295D02*
X136183333Y-103152295D01*
X136183333Y-103152295D02*
X136259523Y-103190390D01*
X136259523Y-103190390D02*
X136297618Y-103228485D01*
X136297618Y-103228485D02*
X136335714Y-103304676D01*
X136335714Y-103304676D02*
X136335714Y-103418961D01*
X136335714Y-103418961D02*
X136297618Y-103495152D01*
X136297618Y-103495152D02*
X136259523Y-103533247D01*
X136259523Y-103533247D02*
X136183333Y-103571342D01*
X136183333Y-103571342D02*
X135878571Y-103571342D01*
X136640475Y-103228485D02*
X136678571Y-103190390D01*
X136678571Y-103190390D02*
X136754761Y-103152295D01*
X136754761Y-103152295D02*
X136945237Y-103152295D01*
X136945237Y-103152295D02*
X137021428Y-103190390D01*
X137021428Y-103190390D02*
X137059523Y-103228485D01*
X137059523Y-103228485D02*
X137097618Y-103304676D01*
X137097618Y-103304676D02*
X137097618Y-103380866D01*
X137097618Y-103380866D02*
X137059523Y-103495152D01*
X137059523Y-103495152D02*
X136602380Y-103952295D01*
X136602380Y-103952295D02*
X137097618Y-103952295D01*
X137364285Y-103152295D02*
X137859523Y-103152295D01*
X137859523Y-103152295D02*
X137592857Y-103457057D01*
X137592857Y-103457057D02*
X137707142Y-103457057D01*
X137707142Y-103457057D02*
X137783333Y-103495152D01*
X137783333Y-103495152D02*
X137821428Y-103533247D01*
X137821428Y-103533247D02*
X137859523Y-103609438D01*
X137859523Y-103609438D02*
X137859523Y-103799914D01*
X137859523Y-103799914D02*
X137821428Y-103876104D01*
X137821428Y-103876104D02*
X137783333Y-103914200D01*
X137783333Y-103914200D02*
X137707142Y-103952295D01*
X137707142Y-103952295D02*
X137478571Y-103952295D01*
X137478571Y-103952295D02*
X137402380Y-103914200D01*
X137402380Y-103914200D02*
X137364285Y-103876104D01*
D12*
X155128095Y-140572219D02*
X155128095Y-141381742D01*
X155128095Y-141381742D02*
X155175714Y-141476980D01*
X155175714Y-141476980D02*
X155223333Y-141524600D01*
X155223333Y-141524600D02*
X155318571Y-141572219D01*
X155318571Y-141572219D02*
X155509047Y-141572219D01*
X155509047Y-141572219D02*
X155604285Y-141524600D01*
X155604285Y-141524600D02*
X155651904Y-141476980D01*
X155651904Y-141476980D02*
X155699523Y-141381742D01*
X155699523Y-141381742D02*
X155699523Y-140572219D01*
X156128095Y-140667457D02*
X156175714Y-140619838D01*
X156175714Y-140619838D02*
X156270952Y-140572219D01*
X156270952Y-140572219D02*
X156509047Y-140572219D01*
X156509047Y-140572219D02*
X156604285Y-140619838D01*
X156604285Y-140619838D02*
X156651904Y-140667457D01*
X156651904Y-140667457D02*
X156699523Y-140762695D01*
X156699523Y-140762695D02*
X156699523Y-140857933D01*
X156699523Y-140857933D02*
X156651904Y-141000790D01*
X156651904Y-141000790D02*
X156080476Y-141572219D01*
X156080476Y-141572219D02*
X156699523Y-141572219D01*
%TO.C,C14*%
D14*
X174870000Y-103250580D02*
X174870000Y-102969420D01*
X175890000Y-103250580D02*
X175890000Y-102969420D01*
%TO.C,C10*%
X194090000Y-88920580D02*
X194090000Y-88639420D01*
X195110000Y-88920580D02*
X195110000Y-88639420D01*
%TO.C,C24*%
X123590000Y-137089420D02*
X123590000Y-137370580D01*
X124610000Y-137089420D02*
X124610000Y-137370580D01*
%TO.C,C4*%
X204000000Y-101970580D02*
X204000000Y-101689420D01*
X205020000Y-101970580D02*
X205020000Y-101689420D01*
%TO.C,R4*%
X111037500Y-101957258D02*
X111037500Y-101482742D01*
X112082500Y-101957258D02*
X112082500Y-101482742D01*
%TO.C,D8*%
D15*
X193532000Y-83951000D02*
X193532000Y-80649000D01*
%TO.C,D2*%
D14*
X178610000Y-101730000D02*
X178610000Y-106030000D01*
X178610000Y-101730000D02*
X186020000Y-101730000D01*
X178610000Y-106030000D02*
X186020000Y-106030000D01*
%TO.C,R6*%
X195567258Y-98687500D02*
X195092742Y-98687500D01*
X195567258Y-99732500D02*
X195092742Y-99732500D01*
%TO.C,R12*%
X194027500Y-92012742D02*
X194027500Y-92487258D01*
X195072500Y-92012742D02*
X195072500Y-92487258D01*
%TO.C,R25*%
X155897500Y-127307258D02*
X155897500Y-126832742D01*
X156942500Y-127307258D02*
X156942500Y-126832742D01*
%TO.C,R22*%
X113092258Y-107997500D02*
X112617742Y-107997500D01*
X113092258Y-109042500D02*
X112617742Y-109042500D01*
%TO.C,R28*%
X195542742Y-111877500D02*
X196017258Y-111877500D01*
X195542742Y-112922500D02*
X196017258Y-112922500D01*
%TO.C,U4*%
D12*
X125660000Y-133660000D02*
X131860000Y-133660000D01*
X125660000Y-138260000D02*
X125660000Y-133660000D01*
X125910000Y-140410000D02*
X125910000Y-138610000D01*
X131860000Y-133660000D02*
X131860000Y-138260000D01*
X131860000Y-138260000D02*
X125660000Y-138260000D01*
%TO.C,C12*%
D14*
X181150000Y-83774420D02*
X181150000Y-84055580D01*
X182170000Y-83774420D02*
X182170000Y-84055580D01*
%TO.C,C8*%
X158370000Y-130944420D02*
X158370000Y-131225580D01*
X159390000Y-130944420D02*
X159390000Y-131225580D01*
%TO.C,R10*%
X148847500Y-93902258D02*
X148847500Y-93427742D01*
X149892500Y-93902258D02*
X149892500Y-93427742D01*
%TO.C,Q4*%
D12*
X173080000Y-86450000D02*
X173930000Y-86450000D01*
X173080000Y-87100000D02*
X173080000Y-86450000D01*
X173080000Y-89350000D02*
X173080000Y-88700000D01*
X173930000Y-89350000D02*
X173080000Y-89350000D01*
D15*
D16*
X175530000Y-88850000D02*
X175529999Y-88850000D01*
X175529999Y-88850000D01*
X175529999Y-88850000D01*
X175529999Y-88850000D01*
X175529999Y-88850000D01*
X175529999Y-88850000D01*
X175529999Y-88850000D01*
X175529999Y-88849999D01*
X175529999Y-88849999D01*
X175529999Y-88849999D01*
X175529999Y-88849999D01*
X175529999Y-88849999D01*
X175530000Y-88849999D01*
X175530000Y-88849999D01*
X175530000Y-88849999D01*
X175530000Y-88849999D01*
X175530000Y-88849999D01*
X175530000Y-88849999D01*
X175530000Y-88849999D01*
X175530000Y-88849999D01*
X175530000Y-88849999D01*
X175530000Y-88849999D01*
X175530000Y-88849999D01*
X175530000Y-88849999D01*
X175530001Y-88849999D01*
X175530001Y-88849999D01*
X175530001Y-88849999D01*
X175530001Y-88849999D01*
X175530001Y-88849999D01*
X175530001Y-88849999D01*
X175530001Y-88850000D01*
X175530001Y-88850000D01*
X175530001Y-88850000D01*
X175530001Y-88850000D01*
X175530001Y-88850000D01*
X175530001Y-88850000D01*
X175530001Y-88850000D01*
X175530000Y-88850000D01*
X175530000Y-88850000D02*
X175530001Y-88850000D01*
X175530001Y-88850000D01*
X175530001Y-88850000D01*
X175530001Y-88850000D01*
X175530001Y-88850000D01*
X175530001Y-88850000D01*
X175530001Y-88850001D01*
X175530001Y-88850001D01*
X175530001Y-88850001D01*
X175530001Y-88850001D01*
X175530001Y-88850001D01*
X175530001Y-88850001D01*
X175530001Y-88850001D01*
X175530000Y-88850001D01*
X175530000Y-88850001D01*
X175530000Y-88850001D01*
X175530000Y-88850001D01*
X175530000Y-88850001D01*
X175530000Y-88850001D01*
X175530000Y-88850001D01*
X175530000Y-88850001D01*
X175530000Y-88850001D01*
X175530000Y-88850001D01*
X175530000Y-88850001D01*
X175530000Y-88850001D01*
X175529999Y-88850001D01*
X175529999Y-88850001D01*
X175529999Y-88850001D01*
X175529999Y-88850001D01*
X175529999Y-88850001D01*
X175529999Y-88850001D01*
X175529999Y-88850000D01*
X175529999Y-88850000D01*
X175529999Y-88850000D01*
X175529999Y-88850000D01*
X175529999Y-88850000D01*
X175529999Y-88850000D01*
X175530000Y-88850000D01*
D15*
D16*
X175630000Y-88850000D02*
X175629999Y-88850000D01*
X175629999Y-88850000D01*
X175629999Y-88850000D01*
X175629999Y-88850000D01*
X175629999Y-88850000D01*
X175629999Y-88850000D01*
X175629999Y-88850000D01*
X175629999Y-88849999D01*
X175629999Y-88849999D01*
X175629999Y-88849999D01*
X175629999Y-88849999D01*
X175629999Y-88849999D01*
X175630000Y-88849999D01*
X175630000Y-88849999D01*
X175630000Y-88849999D01*
X175630000Y-88849999D01*
X175630000Y-88849999D01*
X175630000Y-88849999D01*
X175630000Y-88849999D01*
X175630000Y-88849999D01*
X175630000Y-88849999D01*
X175630000Y-88849999D01*
X175630000Y-88849999D01*
X175630000Y-88849999D01*
X175630001Y-88849999D01*
X175630001Y-88849999D01*
X175630001Y-88849999D01*
X175630001Y-88849999D01*
X175630001Y-88849999D01*
X175630001Y-88849999D01*
X175630001Y-88850000D01*
X175630001Y-88850000D01*
X175630001Y-88850000D01*
X175630001Y-88850000D01*
X175630001Y-88850000D01*
X175630001Y-88850000D01*
X175630001Y-88850000D01*
X175630000Y-88850000D01*
X175630000Y-88850000D02*
X175630001Y-88850000D01*
X175630001Y-88850000D01*
X175630001Y-88850000D01*
X175630001Y-88850000D01*
X175630001Y-88850000D01*
X175630001Y-88850000D01*
X175630001Y-88850001D01*
X175630001Y-88850001D01*
X175630001Y-88850001D01*
X175630001Y-88850001D01*
X175630001Y-88850001D01*
X175630001Y-88850001D01*
X175630001Y-88850001D01*
X175630000Y-88850001D01*
X175630000Y-88850001D01*
X175630000Y-88850001D01*
X175630000Y-88850001D01*
X175630000Y-88850001D01*
X175630000Y-88850001D01*
X175630000Y-88850001D01*
X175630000Y-88850001D01*
X175630000Y-88850001D01*
X175630000Y-88850001D01*
X175630000Y-88850001D01*
X175630000Y-88850001D01*
X175629999Y-88850001D01*
X175629999Y-88850001D01*
X175629999Y-88850001D01*
X175629999Y-88850001D01*
X175629999Y-88850001D01*
X175629999Y-88850001D01*
X175629999Y-88850000D01*
X175629999Y-88850000D01*
X175629999Y-88850000D01*
X175629999Y-88850000D01*
X175629999Y-88850000D01*
X175629999Y-88850000D01*
X175630000Y-88850000D01*
D15*
X175530000Y-88850000D02*
G75*
G02*
X175630000Y-88850000I50000J0D01*
G01*
X175630000Y-88850000D02*
G75*
G02*
X175530000Y-88850000I-50000J0D01*
G01*
%TO.C,R32*%
D14*
X171597500Y-101992742D02*
X171597500Y-102467258D01*
X172642500Y-101992742D02*
X172642500Y-102467258D01*
%TO.C,C21*%
X129699420Y-141240000D02*
X129980580Y-141240000D01*
X129699420Y-142260000D02*
X129980580Y-142260000D01*
%TO.C,U5*%
D12*
X135520000Y-96320000D02*
X137020000Y-96320000D01*
X137370000Y-96450000D02*
X140570000Y-96450000D01*
X137370000Y-101350000D02*
X137370000Y-96450000D01*
X140570000Y-96450000D02*
X140570000Y-101350000D01*
X140570000Y-101350000D02*
X137370000Y-101350000D01*
%TO.C,R29*%
D14*
X125587500Y-100902258D02*
X125587500Y-100427742D01*
X126632500Y-100902258D02*
X126632500Y-100427742D01*
%TO.C,D9*%
D15*
X185289000Y-93362000D02*
X188591000Y-93362000D01*
%TO.C,C15*%
D14*
X177215580Y-93060000D02*
X176934420Y-93060000D01*
X177215580Y-94080000D02*
X176934420Y-94080000D01*
%TO.C,R18*%
X179027500Y-83682742D02*
X179027500Y-84157258D01*
X180072500Y-83682742D02*
X180072500Y-84157258D01*
%TO.C,D3*%
D12*
X155090000Y-106890000D02*
X157090000Y-106890000D01*
X155090000Y-107090000D02*
X155090000Y-106890000D01*
X157090000Y-106890000D02*
X157090000Y-107090000D01*
X157090000Y-107090000D02*
X155090000Y-107090000D01*
X157290000Y-105540000D02*
X157290000Y-106540000D01*
%TO.C,R7*%
D14*
X169247500Y-92862742D02*
X169247500Y-93337258D01*
X170292500Y-92862742D02*
X170292500Y-93337258D01*
%TO.C,R26*%
X111507500Y-118967258D02*
X111507500Y-118492742D01*
X112552500Y-118967258D02*
X112552500Y-118492742D01*
%TO.C,R33*%
X170132258Y-81067500D02*
X169657742Y-81067500D01*
X170132258Y-82112500D02*
X169657742Y-82112500D01*
%TO.C,Q3*%
D12*
X189060000Y-97720000D02*
X189710000Y-97720000D01*
X189060000Y-98570000D02*
X189060000Y-97720000D01*
D15*
D16*
X189560000Y-100170000D02*
X189559999Y-100170000D01*
X189559999Y-100170000D01*
X189559999Y-100170000D01*
X189559999Y-100170000D01*
X189559999Y-100170000D01*
X189559999Y-100170000D01*
X189559999Y-100170000D01*
X189559999Y-100169999D01*
X189559999Y-100169999D01*
X189559999Y-100169999D01*
X189559999Y-100169999D01*
X189559999Y-100169999D01*
X189560000Y-100169999D01*
X189560000Y-100169999D01*
X189560000Y-100169999D01*
X189560000Y-100169999D01*
X189560000Y-100169999D01*
X189560000Y-100169999D01*
X189560000Y-100169999D01*
X189560000Y-100169999D01*
X189560000Y-100169999D01*
X189560000Y-100169999D01*
X189560000Y-100169999D01*
X189560000Y-100169999D01*
X189560001Y-100169999D01*
X189560001Y-100169999D01*
X189560001Y-100169999D01*
X189560001Y-100169999D01*
X189560001Y-100169999D01*
X189560001Y-100169999D01*
X189560001Y-100170000D01*
X189560001Y-100170000D01*
X189560001Y-100170000D01*
X189560001Y-100170000D01*
X189560001Y-100170000D01*
X189560001Y-100170000D01*
X189560001Y-100170000D01*
X189560000Y-100170000D01*
X189560000Y-100170000D02*
X189560001Y-100170000D01*
X189560001Y-100170000D01*
X189560001Y-100170000D01*
X189560001Y-100170000D01*
X189560001Y-100170000D01*
X189560001Y-100170000D01*
X189560001Y-100170001D01*
X189560001Y-100170001D01*
X189560001Y-100170001D01*
X189560001Y-100170001D01*
X189560001Y-100170001D01*
X189560001Y-100170001D01*
X189560001Y-100170001D01*
X189560000Y-100170001D01*
X189560000Y-100170001D01*
X189560000Y-100170001D01*
X189560000Y-100170001D01*
X189560000Y-100170001D01*
X189560000Y-100170001D01*
X189560000Y-100170001D01*
X189560000Y-100170001D01*
X189560000Y-100170001D01*
X189560000Y-100170001D01*
X189560000Y-100170001D01*
X189560000Y-100170001D01*
X189559999Y-100170001D01*
X189559999Y-100170001D01*
X189559999Y-100170001D01*
X189559999Y-100170001D01*
X189559999Y-100170001D01*
X189559999Y-100170001D01*
X189559999Y-100170000D01*
X189559999Y-100170000D01*
X189559999Y-100170000D01*
X189559999Y-100170000D01*
X189559999Y-100170000D01*
X189559999Y-100170000D01*
X189560000Y-100170000D01*
D15*
D16*
X189560000Y-100270000D02*
X189559999Y-100270000D01*
X189559999Y-100270000D01*
X189559999Y-100270000D01*
X189559999Y-100270000D01*
X189559999Y-100270000D01*
X189559999Y-100270000D01*
X189559999Y-100270000D01*
X189559999Y-100269999D01*
X189559999Y-100269999D01*
X189559999Y-100269999D01*
X189559999Y-100269999D01*
X189559999Y-100269999D01*
X189560000Y-100269999D01*
X189560000Y-100269999D01*
X189560000Y-100269999D01*
X189560000Y-100269999D01*
X189560000Y-100269999D01*
X189560000Y-100269999D01*
X189560000Y-100269999D01*
X189560000Y-100269999D01*
X189560000Y-100269999D01*
X189560000Y-100269999D01*
X189560000Y-100269999D01*
X189560000Y-100269999D01*
X189560001Y-100269999D01*
X189560001Y-100269999D01*
X189560001Y-100269999D01*
X189560001Y-100269999D01*
X189560001Y-100269999D01*
X189560001Y-100269999D01*
X189560001Y-100270000D01*
X189560001Y-100270000D01*
X189560001Y-100270000D01*
X189560001Y-100270000D01*
X189560001Y-100270000D01*
X189560001Y-100270000D01*
X189560001Y-100270000D01*
X189560000Y-100270000D01*
X189560000Y-100270000D02*
X189560001Y-100270000D01*
X189560001Y-100270000D01*
X189560001Y-100270000D01*
X189560001Y-100270000D01*
X189560001Y-100270000D01*
X189560001Y-100270000D01*
X189560001Y-100270001D01*
X189560001Y-100270001D01*
X189560001Y-100270001D01*
X189560001Y-100270001D01*
X189560001Y-100270001D01*
X189560001Y-100270001D01*
X189560001Y-100270001D01*
X189560000Y-100270001D01*
X189560000Y-100270001D01*
X189560000Y-100270001D01*
X189560000Y-100270001D01*
X189560000Y-100270001D01*
X189560000Y-100270001D01*
X189560000Y-100270001D01*
X189560000Y-100270001D01*
X189560000Y-100270001D01*
X189560000Y-100270001D01*
X189560000Y-100270001D01*
X189560000Y-100270001D01*
X189559999Y-100270001D01*
X189559999Y-100270001D01*
X189559999Y-100270001D01*
X189559999Y-100270001D01*
X189559999Y-100270001D01*
X189559999Y-100270001D01*
X189559999Y-100270000D01*
X189559999Y-100270000D01*
X189559999Y-100270000D01*
X189559999Y-100270000D01*
X189559999Y-100270000D01*
X189559999Y-100270000D01*
X189560000Y-100270000D01*
D12*
X191310000Y-97720000D02*
X191960000Y-97720000D01*
X191960000Y-97720000D02*
X191960000Y-98570000D01*
D15*
X189560000Y-100170000D02*
G75*
G02*
X189560000Y-100270000I0J-50000D01*
G01*
X189560000Y-100270000D02*
G75*
G02*
X189560000Y-100170000I0J50000D01*
G01*
%TO.C,C2*%
D14*
X118990000Y-88910580D02*
X118990000Y-88629420D01*
X120010000Y-88910580D02*
X120010000Y-88629420D01*
%TO.C,C11*%
X115220580Y-118430000D02*
X114939420Y-118430000D01*
X115220580Y-119450000D02*
X114939420Y-119450000D01*
%TO.C,C13*%
X201430000Y-120499420D02*
X201430000Y-120780580D01*
X202450000Y-120499420D02*
X202450000Y-120780580D01*
%TO.C,R19*%
X183127500Y-84172258D02*
X183127500Y-83697742D01*
X184172500Y-84172258D02*
X184172500Y-83697742D01*
%TO.C,C19*%
X146860000Y-97169420D02*
X146860000Y-97450580D01*
X147880000Y-97169420D02*
X147880000Y-97450580D01*
%TO.C,R24*%
X125612258Y-126327500D02*
X125137742Y-126327500D01*
X125612258Y-127372500D02*
X125137742Y-127372500D01*
%TO.C,C18*%
X163925580Y-114180000D02*
X163644420Y-114180000D01*
X163925580Y-115200000D02*
X163644420Y-115200000D01*
%TO.C,C6*%
X145050580Y-91990000D02*
X144769420Y-91990000D01*
X145050580Y-93010000D02*
X144769420Y-93010000D01*
%TO.C,C22*%
X126469420Y-141230000D02*
X126750580Y-141230000D01*
X126469420Y-142250000D02*
X126750580Y-142250000D01*
%TO.C,D7*%
D15*
X195728000Y-83539000D02*
X195728000Y-86841000D01*
%TO.C,C17*%
D14*
X165540580Y-116960000D02*
X165259420Y-116960000D01*
X165540580Y-117980000D02*
X165259420Y-117980000D01*
%TO.C,R9*%
X149017500Y-90447258D02*
X149017500Y-89972742D01*
X150062500Y-90447258D02*
X150062500Y-89972742D01*
%TO.C,R3*%
X122087500Y-102017258D02*
X122087500Y-101542742D01*
X123132500Y-102017258D02*
X123132500Y-101542742D01*
%TO.C,R11*%
X178162742Y-115607500D02*
X178637258Y-115607500D01*
X178162742Y-116652500D02*
X178637258Y-116652500D01*
%TO.C,C9*%
X156590000Y-130969420D02*
X156590000Y-131250580D01*
X157610000Y-130969420D02*
X157610000Y-131250580D01*
%TO.C,Q2*%
D12*
X127275000Y-127440000D02*
X127275000Y-126340000D01*
X127500000Y-125790000D02*
X129500000Y-125790000D01*
X127500000Y-125990000D02*
X127500000Y-125790000D01*
X129500000Y-125790000D02*
X129500000Y-125990000D01*
X129500000Y-125990000D02*
X127500000Y-125990000D01*
%TO.C,IC2*%
X182575000Y-91680000D02*
X183125000Y-91680000D01*
X182575000Y-94680000D02*
X182575000Y-91680000D01*
X183125000Y-91680000D02*
X183125000Y-94680000D01*
X183125000Y-94680000D02*
X182575000Y-94680000D01*
X184725000Y-94680000D02*
X183475000Y-94680000D01*
%TO.C,R5*%
D14*
X183372258Y-99537500D02*
X182897742Y-99537500D01*
X183372258Y-100582500D02*
X182897742Y-100582500D01*
%TO.C,R2*%
X109767500Y-98467742D02*
X109767500Y-98942258D01*
X110812500Y-98467742D02*
X110812500Y-98942258D01*
%TO.C,C1*%
X121660000Y-88920580D02*
X121660000Y-88639420D01*
X122680000Y-88920580D02*
X122680000Y-88639420D01*
%TO.C,C3*%
X112334420Y-94680000D02*
X112615580Y-94680000D01*
X112334420Y-95700000D02*
X112615580Y-95700000D01*
%TO.C,C5*%
X142780000Y-89789420D02*
X142780000Y-90070580D01*
X143800000Y-89789420D02*
X143800000Y-90070580D01*
%TO.C,R21*%
X202647500Y-126612742D02*
X202647500Y-127087258D01*
X203692500Y-126612742D02*
X203692500Y-127087258D01*
%TO.C,R1*%
X118377500Y-102912258D02*
X118377500Y-102437742D01*
X119422500Y-102912258D02*
X119422500Y-102437742D01*
%TO.C,C20*%
X114360000Y-122310580D02*
X114360000Y-122029420D01*
X115380000Y-122310580D02*
X115380000Y-122029420D01*
%TO.C,R31*%
X120347500Y-104932742D02*
X120347500Y-105407258D01*
X121392500Y-104932742D02*
X121392500Y-105407258D01*
%TO.C,R8*%
X197487500Y-96547742D02*
X197487500Y-97022258D01*
X198532500Y-96547742D02*
X198532500Y-97022258D01*
%TO.C,C23*%
X115220580Y-116300000D02*
X114939420Y-116300000D01*
X115220580Y-117320000D02*
X114939420Y-117320000D01*
%TO.C,R23*%
X136337500Y-105937258D02*
X136337500Y-105462742D01*
X137382500Y-105937258D02*
X137382500Y-105462742D01*
%TO.C,U2*%
D17*
X135880000Y-125010000D02*
X138010000Y-125010000D01*
X135880000Y-127840000D02*
X135880000Y-125010000D01*
X135880000Y-140710000D02*
X135880000Y-137880000D01*
X138010000Y-140710000D02*
X135880000Y-140710000D01*
X153480000Y-125010000D02*
X151350000Y-125010000D01*
X153480000Y-125010000D02*
X153480000Y-127840000D01*
X153480000Y-137880000D02*
X153480000Y-140710000D01*
X153480000Y-140710000D02*
X151350000Y-140710000D01*
D12*
X138730000Y-142510000D02*
G75*
G02*
X138530000Y-142510000I-100000J0D01*
G01*
X138530000Y-142510000D02*
G75*
G02*
X138730000Y-142510000I100000J0D01*
G01*
%TO.C,C7*%
D14*
X177959420Y-111930000D02*
X178240580Y-111930000D01*
X177959420Y-112950000D02*
X178240580Y-112950000D01*
%TD*%
D18*
X99810000Y-94239998D02*
X99810000Y-135746100D01*
X99810000Y-135746100D02*
G75*
G02*
X114056880Y-149993050I4000000J-10246900D01*
G01*
X111310000Y-114993050D02*
G75*
G02*
X108310000Y-114993050I-1500000J0D01*
G01*
X108310000Y-114993050D02*
G75*
G02*
X111310000Y-114993050I1500000J0D01*
G01*
X114056880Y-149993050D02*
X205563052Y-149993050D01*
X114056948Y-79993050D02*
G75*
G02*
X99810000Y-94239998I-10246948J-4000000D01*
G01*
X205563052Y-149993050D02*
G75*
G02*
X219810000Y-135746102I10246948J4000000D01*
G01*
X205563123Y-79993050D02*
X114056948Y-79993050D01*
X211310000Y-114993050D02*
G75*
G02*
X208310000Y-114993050I-1500000J0D01*
G01*
X208310000Y-114993050D02*
G75*
G02*
X211310000Y-114993050I1500000J0D01*
G01*
X219810000Y-94239998D02*
G75*
G02*
X205563122Y-79993049I-4000000J10246898D01*
G01*
X219810000Y-135746103D02*
X219810000Y-94239998D01*
M02*
