%TF.GenerationSoftware,KiCad,Pcbnew,9.0.7*%
%TF.CreationDate,2026-03-03T16:22:10+02:00*%
%TF.ProjectId,RverMonitor,52766572-4d6f-46e6-9974-6f722e6b6963,1.0*%
%TF.SameCoordinates,Original*%
%TF.FileFunction,Plated,1,2,PTH,Mixed*%
%TF.FilePolarity,Positive*%
%FSLAX46Y46*%
G04 Gerber Fmt 4.6, Leading zero omitted, Abs format (unit mm)*
G04 Created by KiCad (PCBNEW 9.0.7) date 2026-03-03 16:22:10*
%MOMM*%
%LPD*%
G01*
G04 APERTURE LIST*
%TA.AperFunction,ComponentDrill*%
%ADD10C,0.250000*%
%TD*%
%TA.AperFunction,ViaDrill*%
%ADD11C,0.300000*%
%TD*%
G04 aperture for slot hole*
%TA.AperFunction,ComponentDrill*%
%ADD12C,0.600000*%
%TD*%
%TA.AperFunction,ComponentDrill*%
%ADD13C,1.000000*%
%TD*%
G04 APERTURE END LIST*
D10*
%TO.C,U1*%
X125380000Y-95210000D03*
X125380000Y-96610000D03*
X126080000Y-94510000D03*
X126080000Y-95910000D03*
X126080000Y-97310000D03*
X126780000Y-95210000D03*
X126780000Y-96610000D03*
X127480000Y-94510000D03*
X127480000Y-95910000D03*
X127480000Y-97310000D03*
X128180000Y-95210000D03*
X128180000Y-96610000D03*
%TD*%
D11*
X101550000Y-106830000D03*
X101580000Y-115700000D03*
X106310000Y-101020000D03*
X109189000Y-102545000D03*
X109350000Y-99180000D03*
X109360000Y-100610000D03*
X109971000Y-107680000D03*
X111675000Y-96318900D03*
X112386000Y-107272000D03*
X112686000Y-100949000D03*
X113140000Y-125490000D03*
X113180000Y-119574000D03*
X114174000Y-104605000D03*
X114721000Y-105526000D03*
X114945000Y-96060500D03*
X114960000Y-94520000D03*
X115111500Y-98097500D03*
X116005000Y-122807000D03*
X117800000Y-88240000D03*
X118290000Y-104550000D03*
X118660000Y-98710000D03*
X118734000Y-119379000D03*
X119091900Y-94011100D03*
X119674000Y-123250000D03*
X119769400Y-91050600D03*
X120825000Y-112511000D03*
X120875000Y-125040000D03*
X120900000Y-103810000D03*
X120963000Y-89565000D03*
X121010000Y-97440000D03*
X121290000Y-92370000D03*
X122318000Y-113814000D03*
X122518000Y-125540000D03*
X122700000Y-99400000D03*
X123785200Y-115851500D03*
X123860000Y-97440000D03*
X124150000Y-122764000D03*
X124362000Y-113111000D03*
X124364000Y-101574000D03*
X124430000Y-104540000D03*
X125139000Y-108234000D03*
X125240000Y-100720000D03*
X125330000Y-129466000D03*
X125670000Y-130666000D03*
X126440000Y-128200000D03*
X126526000Y-114422000D03*
X126655000Y-113551000D03*
X126663528Y-91595000D03*
X127130000Y-130666000D03*
X128018000Y-108923000D03*
X128301000Y-134282000D03*
X128520000Y-119340000D03*
X128680000Y-98920000D03*
X128930265Y-100550000D03*
X129125000Y-104650000D03*
X129468000Y-122009000D03*
X129774000Y-110606000D03*
X129890000Y-101150000D03*
X130345000Y-136166000D03*
X130415735Y-128764265D03*
X130490000Y-99540000D03*
X130544000Y-102536000D03*
X130642000Y-137998000D03*
X131440000Y-89221500D03*
X131670000Y-100140000D03*
X131750000Y-119128994D03*
X132200000Y-93990000D03*
X132230000Y-97150000D03*
X132250000Y-104790000D03*
X132638000Y-102067000D03*
X132640000Y-95280000D03*
X132828000Y-88190000D03*
X133569000Y-123215000D03*
X133959000Y-110607000D03*
X134284000Y-128793000D03*
X135712000Y-138388000D03*
X135750000Y-89340000D03*
X136830000Y-107507000D03*
X136863900Y-103885200D03*
X138110000Y-96990000D03*
X138469024Y-91986019D03*
X138725000Y-139160000D03*
X138770000Y-89340000D03*
X139200000Y-93810000D03*
X139530000Y-96960000D03*
X139670000Y-120080000D03*
X139730000Y-123910000D03*
X139890000Y-138727000D03*
X140040000Y-88870000D03*
X140321300Y-97812200D03*
X141048000Y-103079000D03*
X141610000Y-90980000D03*
X141660000Y-95400000D03*
X142076083Y-88436077D03*
X142214000Y-87372900D03*
X142222000Y-104858000D03*
X142895000Y-100805000D03*
X143130000Y-102490000D03*
X143378000Y-112749000D03*
X143894000Y-123240000D03*
X144595500Y-104025500D03*
X145180000Y-95290000D03*
X146500000Y-97430000D03*
X146760000Y-106920000D03*
X146851928Y-91979501D03*
X147080000Y-119340000D03*
X147432000Y-88070400D03*
X147589776Y-89985000D03*
X148510000Y-90605500D03*
X149500000Y-118684200D03*
X150250000Y-95440000D03*
X150490000Y-106340000D03*
X150920000Y-91010000D03*
X150971000Y-84234800D03*
X151016000Y-134006000D03*
X151690300Y-139217400D03*
X152240000Y-95380000D03*
X152555000Y-103690000D03*
X153370000Y-89480000D03*
X153948000Y-113530000D03*
X154080000Y-84820000D03*
X154130000Y-81910000D03*
X154690000Y-118710000D03*
X154710000Y-122340000D03*
X154780000Y-95390000D03*
X154856000Y-131760000D03*
X154857000Y-134785000D03*
X155179000Y-110227000D03*
X155230000Y-113970000D03*
X155457000Y-133123000D03*
X156680000Y-109340000D03*
X157230000Y-94510000D03*
X157327000Y-92760600D03*
X157663000Y-108922000D03*
X159890000Y-130370000D03*
X160230000Y-87205500D03*
X160574000Y-125986000D03*
X162266000Y-116456000D03*
X162320735Y-118979265D03*
X163100850Y-93850000D03*
X163380000Y-81200000D03*
X163640000Y-99491400D03*
X163824800Y-100891500D03*
X164930000Y-95150000D03*
X164960000Y-118910000D03*
X165676000Y-106628000D03*
X165950000Y-114640000D03*
X166470000Y-88590000D03*
X167140000Y-95400000D03*
X167610000Y-117460000D03*
X167680000Y-109830000D03*
X168760000Y-94480000D03*
X169750000Y-91450000D03*
X170000000Y-118320000D03*
X170090000Y-95350000D03*
X171090000Y-100230000D03*
X171100000Y-87130000D03*
X171200000Y-90140000D03*
X171590000Y-109830000D03*
X173110000Y-99350000D03*
X173490000Y-89260000D03*
X175680000Y-86630000D03*
X176040000Y-91810000D03*
X177900000Y-92711500D03*
X179300000Y-91910000D03*
X179720000Y-99110000D03*
X179730000Y-101140000D03*
X179810000Y-95430000D03*
X180070000Y-122650000D03*
X180334000Y-110554000D03*
X182420000Y-117450000D03*
X182807000Y-110006000D03*
X185680000Y-80920000D03*
X186198000Y-113530000D03*
X186216000Y-110666000D03*
X186290000Y-118870000D03*
X190110000Y-82390000D03*
X190840000Y-120330000D03*
X190920000Y-108430000D03*
X191780000Y-112390000D03*
X192062000Y-92191500D03*
X192070000Y-130410000D03*
X194660000Y-85840000D03*
X196150000Y-98050000D03*
X199330000Y-108550000D03*
X199520000Y-95980000D03*
X199520000Y-120220000D03*
X199644000Y-105689000D03*
X200400000Y-103890000D03*
X200508000Y-100640000D03*
X200857000Y-113530000D03*
X204062000Y-110740000D03*
X204510000Y-103900000D03*
X204760000Y-96180000D03*
X205974000Y-124420000D03*
X210010000Y-96180000D03*
X214520000Y-111640000D03*
D12*
%TO.C,J5*%
X103690000Y-96040000D02*
X102490000Y-96040000D01*
X103690000Y-104680000D02*
X102490000Y-104680000D01*
X107490000Y-96040000D02*
X106690000Y-96040000D01*
X107490000Y-104680000D02*
X106690000Y-104680000D01*
D13*
%TO.C,J1*%
X105020000Y-126420000D03*
X107520000Y-126420000D03*
X110020000Y-126420000D03*
%TO.C,J9*%
X175980000Y-88890000D03*
X178480000Y-88890000D03*
X180980000Y-88890000D03*
X183480000Y-88890000D03*
%TO.C,J2*%
X197530000Y-88680000D03*
X200030000Y-88680000D03*
M02*
