%TF.GenerationSoftware,KiCad,Pcbnew,10.0.0-rc2-12-g45b5765af0*%
%TF.CreationDate,2026-03-14T14:06:02+02:00*%
%TF.ProjectId,RverMonitor,52766572-4d6f-46e6-9974-6f722e6b6963,1.0*%
%TF.SameCoordinates,Original*%
%TF.FileFunction,Paste,Bot*%
%TF.FilePolarity,Positive*%
%FSLAX46Y46*%
G04 Gerber Fmt 4.6, Leading zero omitted, Abs format (unit mm)*
G04 Created by KiCad (PCBNEW 10.0.0-rc2-12-g45b5765af0) date 2026-03-14 14:06:02*
%MOMM*%
%LPD*%
G01*
G04 APERTURE LIST*
G04 Aperture macros list*
%AMRoundRect*
0 Rectangle with rounded corners*
0 $1 Rounding radius*
0 $2 $3 $4 $5 $6 $7 $8 $9 X,Y pos of 4 corners*
0 Add a 4 corners polygon primitive as box body*
4,1,4,$2,$3,$4,$5,$6,$7,$8,$9,$2,$3,0*
0 Add four circle primitives for the rounded corners*
1,1,$1+$1,$2,$3*
1,1,$1+$1,$4,$5*
1,1,$1+$1,$6,$7*
1,1,$1+$1,$8,$9*
0 Add four rect primitives between the rounded corners*
20,1,$1+$1,$2,$3,$4,$5,0*
20,1,$1+$1,$4,$5,$6,$7,0*
20,1,$1+$1,$6,$7,$8,$9,0*
20,1,$1+$1,$8,$9,$2,$3,0*%
G04 Aperture macros list end*
%ADD10RoundRect,0.200000X0.275000X-0.200000X0.275000X0.200000X-0.275000X0.200000X-0.275000X-0.200000X0*%
%ADD11R,1.150000X0.500000*%
%ADD12R,1.150000X0.200000*%
%ADD13R,5.000000X0.760000*%
%ADD14R,4.500000X8.800000*%
%ADD15RoundRect,0.150000X0.200000X-0.150000X0.200000X0.150000X-0.200000X0.150000X-0.200000X-0.150000X0*%
%ADD16R,7.340000X6.350000*%
%ADD17R,1.000000X1.050000*%
%ADD18R,1.050000X2.200000*%
%ADD19RoundRect,0.200000X-0.275000X0.200000X-0.275000X-0.200000X0.275000X-0.200000X0.275000X0.200000X0*%
%ADD20R,0.600000X0.350000*%
%ADD21R,1.600000X0.700000*%
%ADD22R,1.600000X1.500000*%
%ADD23R,2.200000X1.200000*%
%ADD24R,1.800000X1.200000*%
%ADD25R,1.150000X0.600000*%
%ADD26R,0.900000X0.900000*%
%ADD27R,1.500000X0.900000*%
%ADD28R,0.900000X1.500000*%
%ADD29R,1.000000X4.600000*%
%ADD30R,1.600000X3.400000*%
%ADD31R,1.900000X5.100000*%
%ADD32R,1.400000X2.100000*%
%ADD33R,2.510000X1.000000*%
%ADD34R,0.800000X0.800000*%
%ADD35RoundRect,0.200000X0.200000X0.275000X-0.200000X0.275000X-0.200000X-0.275000X0.200000X-0.275000X0*%
%ADD36R,1.510000X2.080000*%
%ADD37R,1.200000X0.900000*%
%ADD38R,1.800000X1.300000*%
%TA.AperFunction,Profile*%
%ADD39C,0.200000*%
%TD*%
G04 APERTURE END LIST*
D10*
%TO.C,R30*%
X197130000Y-103325000D03*
X197130000Y-101675000D03*
%TD*%
D11*
%TO.C,J5*%
X107665000Y-103560000D03*
X107665000Y-102760000D03*
D12*
X107665000Y-101610000D03*
X107665000Y-100610000D03*
X107665000Y-100110000D03*
X107665000Y-99110000D03*
D11*
X107665000Y-97960000D03*
X107665000Y-97160000D03*
D12*
X107665000Y-98610000D03*
X107665000Y-99610000D03*
X107665000Y-101110000D03*
X107665000Y-102110000D03*
%TD*%
D13*
%TO.C,J9*%
X166710000Y-83300000D03*
X166710000Y-84570000D03*
X166710000Y-85840000D03*
X166710000Y-87110000D03*
X166710000Y-88380000D03*
X166710000Y-89650000D03*
X166710000Y-90920000D03*
X166710000Y-92190000D03*
D14*
X182760000Y-87745000D03*
%TD*%
D10*
%TO.C,R27*%
X114870000Y-112785000D03*
X114870000Y-111135000D03*
%TD*%
D15*
%TO.C,D1*%
X111650000Y-97272500D03*
X111650000Y-98672500D03*
%TD*%
D16*
%TO.C,BAT1*%
X117170000Y-134860000D03*
X203170000Y-134860000D03*
%TD*%
D17*
%TO.C,J10*%
X139650000Y-121720000D03*
D18*
X141125000Y-120195000D03*
X138175000Y-120195000D03*
%TD*%
D19*
%TO.C,R15*%
X117630000Y-128305000D03*
X117630000Y-129955000D03*
%TD*%
D20*
%TO.C,D10*%
X135600000Y-120810000D03*
X135600000Y-121460000D03*
%TD*%
D10*
%TO.C,R20*%
X201120000Y-127660000D03*
X201120000Y-126010000D03*
%TD*%
D21*
%TO.C,J6*%
X201760000Y-106140000D03*
X201760000Y-105040000D03*
X201760000Y-103940000D03*
X201760000Y-102840000D03*
X201760000Y-101740000D03*
X201760000Y-100640000D03*
X201760000Y-99540000D03*
X201760000Y-98440000D03*
X201760000Y-97340000D03*
D22*
X202810000Y-110740000D03*
D23*
X212360000Y-111640000D03*
X212360000Y-96140000D03*
D24*
X203060000Y-96140000D03*
%TD*%
D25*
%TO.C,Q1*%
X191900000Y-91170000D03*
X191900000Y-93090000D03*
X189700000Y-92130000D03*
%TD*%
D26*
%TO.C,U1*%
X128180000Y-97310000D03*
X128180000Y-95910000D03*
X128180000Y-94510000D03*
X126780000Y-97310000D03*
X126780000Y-95910000D03*
X126780000Y-94510000D03*
X125380000Y-97310000D03*
X125380000Y-95910000D03*
X125380000Y-94510000D03*
D27*
X134030000Y-88190000D03*
X134030000Y-89460000D03*
X134030000Y-90730000D03*
X134030000Y-92000000D03*
X134030000Y-93270000D03*
X134030000Y-94540000D03*
X134030000Y-95810000D03*
X134030000Y-97080000D03*
X134030000Y-98350000D03*
X134030000Y-99620000D03*
X134030000Y-100890000D03*
X134030000Y-102160000D03*
X134030000Y-103430000D03*
X134030000Y-104700000D03*
D28*
X132265000Y-105950000D03*
X130995000Y-105950000D03*
X129725000Y-105950000D03*
X128455000Y-105950000D03*
X127185000Y-105950000D03*
X125915000Y-105950000D03*
X124645000Y-105950000D03*
X123375000Y-105950000D03*
X122105000Y-105950000D03*
X120835000Y-105950000D03*
X119565000Y-105950000D03*
X118295000Y-105950000D03*
D27*
X116530000Y-104700000D03*
X116530000Y-103430000D03*
X116530000Y-102160000D03*
X116530000Y-100890000D03*
X116530000Y-99620000D03*
X116530000Y-98350000D03*
X116530000Y-97080000D03*
X116530000Y-95810000D03*
X116530000Y-94540000D03*
X116530000Y-93270000D03*
X116530000Y-92000000D03*
X116530000Y-90730000D03*
X116530000Y-89460000D03*
X116530000Y-88190000D03*
%TD*%
D29*
%TO.C,J3*%
X138610000Y-91020000D03*
X140610000Y-91020000D03*
D30*
X136210000Y-96220000D03*
X143010000Y-96220000D03*
%TD*%
D31*
%TO.C,L1*%
X192330000Y-85820000D03*
X188130000Y-85820000D03*
%TD*%
D32*
%TO.C,SW2*%
X106110000Y-117750000D03*
X106110000Y-108650000D03*
X101610000Y-117750000D03*
X101610000Y-108650000D03*
%TD*%
D33*
%TO.C,J7*%
X131775000Y-120570000D03*
X128465000Y-118030000D03*
X131775000Y-115490000D03*
X128465000Y-112950000D03*
X131775000Y-110410000D03*
%TD*%
D34*
%TO.C,LED1*%
X123920000Y-121350000D03*
X122420000Y-121350000D03*
%TD*%
D19*
%TO.C,R16*%
X119490000Y-128285000D03*
X119490000Y-129935000D03*
%TD*%
D32*
%TO.C,SW1*%
X153370000Y-82610000D03*
X153370000Y-91710000D03*
X157870000Y-82610000D03*
X157870000Y-91710000D03*
%TD*%
D35*
%TO.C,R17*%
X118715000Y-123090000D03*
X117065000Y-123090000D03*
%TD*%
D19*
%TO.C,R14*%
X115720000Y-128365000D03*
X115720000Y-130015000D03*
%TD*%
%TO.C,R13*%
X113840000Y-128365000D03*
X113840000Y-130015000D03*
%TD*%
D34*
%TO.C,LED2*%
X113580000Y-106010000D03*
X112080000Y-106010000D03*
%TD*%
D36*
%TO.C,U3*%
X149670000Y-97420000D03*
X152210000Y-97420000D03*
X154750000Y-97420000D03*
X162350000Y-97420000D03*
X164890000Y-97420000D03*
X167430000Y-97420000D03*
X169970000Y-97420000D03*
X172510000Y-97420000D03*
X175050000Y-97420000D03*
X177590000Y-97420000D03*
X180130000Y-97420000D03*
X180130000Y-120570000D03*
X177590000Y-120570000D03*
X175050000Y-120570000D03*
X172510000Y-120570000D03*
X169970000Y-120570000D03*
X167430000Y-120570000D03*
X164890000Y-120570000D03*
X162350000Y-120570000D03*
X154750000Y-120570000D03*
X152210000Y-120570000D03*
X149670000Y-120570000D03*
%TD*%
D34*
%TO.C,LED3*%
X138340000Y-109120000D03*
X136840000Y-109120000D03*
%TD*%
D37*
%TO.C,J11*%
X184890000Y-111080000D03*
X184890000Y-113620000D03*
X184890000Y-116170000D03*
X184890000Y-112350000D03*
X184890000Y-114900000D03*
X184890000Y-117440000D03*
D38*
X188990000Y-120110000D03*
X197790000Y-120110000D03*
X188990000Y-108410000D03*
X197790000Y-108410000D03*
%TD*%
D39*
X99810000Y-94239998D02*
X99810000Y-135746100D01*
X99810000Y-135746100D02*
G75*
G02*
X114056880Y-149993050I4000000J-10246900D01*
G01*
X111310000Y-114993050D02*
G75*
G02*
X108310000Y-114993050I-1500000J0D01*
G01*
X108310000Y-114993050D02*
G75*
G02*
X111310000Y-114993050I1500000J0D01*
G01*
X114056880Y-149993050D02*
X205563052Y-149993050D01*
X114056948Y-79993050D02*
G75*
G02*
X99810000Y-94239998I-10246948J-4000000D01*
G01*
X205563052Y-149993050D02*
G75*
G02*
X219810000Y-135746102I10246948J4000000D01*
G01*
X205563123Y-79993050D02*
X114056948Y-79993050D01*
X211310000Y-114993050D02*
G75*
G02*
X208310000Y-114993050I-1500000J0D01*
G01*
X208310000Y-114993050D02*
G75*
G02*
X211310000Y-114993050I1500000J0D01*
G01*
X219810000Y-94239998D02*
G75*
G02*
X205563122Y-79993049I-4000000J10246898D01*
G01*
X219810000Y-135746103D02*
X219810000Y-94239998D01*
M02*
