%TF.GenerationSoftware,KiCad,Pcbnew,9.0.7*%
%TF.CreationDate,2026-03-03T16:22:10+02:00*%
%TF.ProjectId,RverMonitor,52766572-4d6f-46e6-9974-6f722e6b6963,1.0*%
%TF.SameCoordinates,Original*%
%TF.FileFunction,Drillmap*%
%TF.FilePolarity,Positive*%
%FSLAX45Y45*%
G04 Gerber Fmt 4.5, Leading zero omitted, Abs format (unit mm)*
G04 Created by KiCad (PCBNEW 9.0.7) date 2026-03-03 16:22:10*
%MOMM*%
%LPD*%
G01*
G04 APERTURE LIST*
%ADD10C,0.200000*%
%ADD11C,0.100000*%
G04 APERTURE END LIST*
D10*
X11405695Y-7999305D02*
G75*
G02*
X9981000Y-9424000I-1024695J-400000D01*
G01*
X21981000Y-13574610D02*
X21981000Y-9424000D01*
X20556312Y-7999305D02*
X11405695Y-7999305D01*
X9981000Y-13574610D02*
G75*
G02*
X11405688Y-14999305I400000J-1024690D01*
G01*
X21131000Y-11499305D02*
G75*
G02*
X20831000Y-11499305I-150000J0D01*
G01*
X20831000Y-11499305D02*
G75*
G02*
X21131000Y-11499305I150000J0D01*
G01*
X9981000Y-9424000D02*
X9981000Y-13574610D01*
X20556305Y-14999305D02*
G75*
G02*
X21981000Y-13574610I1024695J400000D01*
G01*
X11131000Y-11499305D02*
G75*
G02*
X10831000Y-11499305I-150000J0D01*
G01*
X10831000Y-11499305D02*
G75*
G02*
X11131000Y-11499305I150000J0D01*
G01*
X21981000Y-9424000D02*
G75*
G02*
X20556312Y-7999305I-400000J1024690D01*
G01*
X11405688Y-14999305D02*
X20556305Y-14999305D01*
D11*
X12525500Y-9508500D02*
X12550500Y-9533500D01*
X12550500Y-9508500D02*
X12525500Y-9533500D01*
X12525500Y-9648500D02*
X12550500Y-9673500D01*
X12550500Y-9648500D02*
X12525500Y-9673500D01*
X12595500Y-9438500D02*
X12620500Y-9463500D01*
X12620500Y-9438500D02*
X12595500Y-9463500D01*
X12595500Y-9578500D02*
X12620500Y-9603500D01*
X12620500Y-9578500D02*
X12595500Y-9603500D01*
X12595500Y-9718500D02*
X12620500Y-9743500D01*
X12620500Y-9718500D02*
X12595500Y-9743500D01*
X12665500Y-9508500D02*
X12690500Y-9533500D01*
X12690500Y-9508500D02*
X12665500Y-9533500D01*
X12665500Y-9648500D02*
X12690500Y-9673500D01*
X12690500Y-9648500D02*
X12665500Y-9673500D01*
X12735500Y-9438500D02*
X12760500Y-9463500D01*
X12760500Y-9438500D02*
X12735500Y-9463500D01*
X12735500Y-9578500D02*
X12760500Y-9603500D01*
X12760500Y-9578500D02*
X12735500Y-9603500D01*
X12735500Y-9718500D02*
X12760500Y-9743500D01*
X12760500Y-9718500D02*
X12735500Y-9743500D01*
X12805500Y-9508500D02*
X12830500Y-9533500D01*
X12830500Y-9508500D02*
X12805500Y-9533500D01*
X12805500Y-9648500D02*
X12830500Y-9673500D01*
X12830500Y-9648500D02*
X12805500Y-9673500D01*
X10170000Y-10683000D02*
G75*
G02*
X10140000Y-10683000I-15000J0D01*
G01*
X10140000Y-10683000D02*
G75*
G02*
X10170000Y-10683000I15000J0D01*
G01*
X10173000Y-11570000D02*
G75*
G02*
X10143000Y-11570000I-15000J0D01*
G01*
X10143000Y-11570000D02*
G75*
G02*
X10173000Y-11570000I15000J0D01*
G01*
X10646000Y-10102000D02*
G75*
G02*
X10616000Y-10102000I-15000J0D01*
G01*
X10616000Y-10102000D02*
G75*
G02*
X10646000Y-10102000I15000J0D01*
G01*
X10933900Y-10254500D02*
G75*
G02*
X10903900Y-10254500I-15000J0D01*
G01*
X10903900Y-10254500D02*
G75*
G02*
X10933900Y-10254500I15000J0D01*
G01*
X10950000Y-9918000D02*
G75*
G02*
X10920000Y-9918000I-15000J0D01*
G01*
X10920000Y-9918000D02*
G75*
G02*
X10950000Y-9918000I15000J0D01*
G01*
X10951000Y-10061000D02*
G75*
G02*
X10921000Y-10061000I-15000J0D01*
G01*
X10921000Y-10061000D02*
G75*
G02*
X10951000Y-10061000I15000J0D01*
G01*
X11012100Y-10768000D02*
G75*
G02*
X10982100Y-10768000I-15000J0D01*
G01*
X10982100Y-10768000D02*
G75*
G02*
X11012100Y-10768000I15000J0D01*
G01*
X11182500Y-9631890D02*
G75*
G02*
X11152500Y-9631890I-15000J0D01*
G01*
X11152500Y-9631890D02*
G75*
G02*
X11182500Y-9631890I15000J0D01*
G01*
X11253600Y-10727200D02*
G75*
G02*
X11223600Y-10727200I-15000J0D01*
G01*
X11223600Y-10727200D02*
G75*
G02*
X11253600Y-10727200I15000J0D01*
G01*
X11283600Y-10094900D02*
G75*
G02*
X11253600Y-10094900I-15000J0D01*
G01*
X11253600Y-10094900D02*
G75*
G02*
X11283600Y-10094900I15000J0D01*
G01*
X11329000Y-12549000D02*
G75*
G02*
X11299000Y-12549000I-15000J0D01*
G01*
X11299000Y-12549000D02*
G75*
G02*
X11329000Y-12549000I15000J0D01*
G01*
X11333000Y-11957400D02*
G75*
G02*
X11303000Y-11957400I-15000J0D01*
G01*
X11303000Y-11957400D02*
G75*
G02*
X11333000Y-11957400I15000J0D01*
G01*
X11432400Y-10460500D02*
G75*
G02*
X11402400Y-10460500I-15000J0D01*
G01*
X11402400Y-10460500D02*
G75*
G02*
X11432400Y-10460500I15000J0D01*
G01*
X11487100Y-10552600D02*
G75*
G02*
X11457100Y-10552600I-15000J0D01*
G01*
X11457100Y-10552600D02*
G75*
G02*
X11487100Y-10552600I15000J0D01*
G01*
X11509500Y-9606050D02*
G75*
G02*
X11479500Y-9606050I-15000J0D01*
G01*
X11479500Y-9606050D02*
G75*
G02*
X11509500Y-9606050I15000J0D01*
G01*
X11511000Y-9452000D02*
G75*
G02*
X11481000Y-9452000I-15000J0D01*
G01*
X11481000Y-9452000D02*
G75*
G02*
X11511000Y-9452000I15000J0D01*
G01*
X11526150Y-9809750D02*
G75*
G02*
X11496150Y-9809750I-15000J0D01*
G01*
X11496150Y-9809750D02*
G75*
G02*
X11526150Y-9809750I15000J0D01*
G01*
X11615500Y-12280700D02*
G75*
G02*
X11585500Y-12280700I-15000J0D01*
G01*
X11585500Y-12280700D02*
G75*
G02*
X11615500Y-12280700I15000J0D01*
G01*
X11795000Y-8824000D02*
G75*
G02*
X11765000Y-8824000I-15000J0D01*
G01*
X11765000Y-8824000D02*
G75*
G02*
X11795000Y-8824000I15000J0D01*
G01*
X11844000Y-10455000D02*
G75*
G02*
X11814000Y-10455000I-15000J0D01*
G01*
X11814000Y-10455000D02*
G75*
G02*
X11844000Y-10455000I15000J0D01*
G01*
X11881000Y-9871000D02*
G75*
G02*
X11851000Y-9871000I-15000J0D01*
G01*
X11851000Y-9871000D02*
G75*
G02*
X11881000Y-9871000I15000J0D01*
G01*
X11888400Y-11937900D02*
G75*
G02*
X11858400Y-11937900I-15000J0D01*
G01*
X11858400Y-11937900D02*
G75*
G02*
X11888400Y-11937900I15000J0D01*
G01*
X11924190Y-9401110D02*
G75*
G02*
X11894190Y-9401110I-15000J0D01*
G01*
X11894190Y-9401110D02*
G75*
G02*
X11924190Y-9401110I15000J0D01*
G01*
X11982400Y-12325000D02*
G75*
G02*
X11952400Y-12325000I-15000J0D01*
G01*
X11952400Y-12325000D02*
G75*
G02*
X11982400Y-12325000I15000J0D01*
G01*
X11991940Y-9105060D02*
G75*
G02*
X11961940Y-9105060I-15000J0D01*
G01*
X11961940Y-9105060D02*
G75*
G02*
X11991940Y-9105060I15000J0D01*
G01*
X12097500Y-11251100D02*
G75*
G02*
X12067500Y-11251100I-15000J0D01*
G01*
X12067500Y-11251100D02*
G75*
G02*
X12097500Y-11251100I15000J0D01*
G01*
X12102500Y-12504000D02*
G75*
G02*
X12072500Y-12504000I-15000J0D01*
G01*
X12072500Y-12504000D02*
G75*
G02*
X12102500Y-12504000I15000J0D01*
G01*
X12105000Y-10381000D02*
G75*
G02*
X12075000Y-10381000I-15000J0D01*
G01*
X12075000Y-10381000D02*
G75*
G02*
X12105000Y-10381000I15000J0D01*
G01*
X12111300Y-8956500D02*
G75*
G02*
X12081300Y-8956500I-15000J0D01*
G01*
X12081300Y-8956500D02*
G75*
G02*
X12111300Y-8956500I15000J0D01*
G01*
X12116000Y-9744000D02*
G75*
G02*
X12086000Y-9744000I-15000J0D01*
G01*
X12086000Y-9744000D02*
G75*
G02*
X12116000Y-9744000I15000J0D01*
G01*
X12144000Y-9237000D02*
G75*
G02*
X12114000Y-9237000I-15000J0D01*
G01*
X12114000Y-9237000D02*
G75*
G02*
X12144000Y-9237000I15000J0D01*
G01*
X12246800Y-11381400D02*
G75*
G02*
X12216800Y-11381400I-15000J0D01*
G01*
X12216800Y-11381400D02*
G75*
G02*
X12246800Y-11381400I15000J0D01*
G01*
X12266800Y-12554000D02*
G75*
G02*
X12236800Y-12554000I-15000J0D01*
G01*
X12236800Y-12554000D02*
G75*
G02*
X12266800Y-12554000I15000J0D01*
G01*
X12285000Y-9940000D02*
G75*
G02*
X12255000Y-9940000I-15000J0D01*
G01*
X12255000Y-9940000D02*
G75*
G02*
X12285000Y-9940000I15000J0D01*
G01*
X12393520Y-11585150D02*
G75*
G02*
X12363520Y-11585150I-15000J0D01*
G01*
X12363520Y-11585150D02*
G75*
G02*
X12393520Y-11585150I15000J0D01*
G01*
X12401000Y-9744000D02*
G75*
G02*
X12371000Y-9744000I-15000J0D01*
G01*
X12371000Y-9744000D02*
G75*
G02*
X12401000Y-9744000I15000J0D01*
G01*
X12430000Y-12276400D02*
G75*
G02*
X12400000Y-12276400I-15000J0D01*
G01*
X12400000Y-12276400D02*
G75*
G02*
X12430000Y-12276400I15000J0D01*
G01*
X12451200Y-11311100D02*
G75*
G02*
X12421200Y-11311100I-15000J0D01*
G01*
X12421200Y-11311100D02*
G75*
G02*
X12451200Y-11311100I15000J0D01*
G01*
X12451400Y-10157400D02*
G75*
G02*
X12421400Y-10157400I-15000J0D01*
G01*
X12421400Y-10157400D02*
G75*
G02*
X12451400Y-10157400I15000J0D01*
G01*
X12458000Y-10454000D02*
G75*
G02*
X12428000Y-10454000I-15000J0D01*
G01*
X12428000Y-10454000D02*
G75*
G02*
X12458000Y-10454000I15000J0D01*
G01*
X12528900Y-10823400D02*
G75*
G02*
X12498900Y-10823400I-15000J0D01*
G01*
X12498900Y-10823400D02*
G75*
G02*
X12528900Y-10823400I15000J0D01*
G01*
X12539000Y-10072000D02*
G75*
G02*
X12509000Y-10072000I-15000J0D01*
G01*
X12509000Y-10072000D02*
G75*
G02*
X12539000Y-10072000I15000J0D01*
G01*
X12548000Y-12946600D02*
G75*
G02*
X12518000Y-12946600I-15000J0D01*
G01*
X12518000Y-12946600D02*
G75*
G02*
X12548000Y-12946600I15000J0D01*
G01*
X12582000Y-13066600D02*
G75*
G02*
X12552000Y-13066600I-15000J0D01*
G01*
X12552000Y-13066600D02*
G75*
G02*
X12582000Y-13066600I15000J0D01*
G01*
X12659000Y-12820000D02*
G75*
G02*
X12629000Y-12820000I-15000J0D01*
G01*
X12629000Y-12820000D02*
G75*
G02*
X12659000Y-12820000I15000J0D01*
G01*
X12667600Y-11442200D02*
G75*
G02*
X12637600Y-11442200I-15000J0D01*
G01*
X12637600Y-11442200D02*
G75*
G02*
X12667600Y-11442200I15000J0D01*
G01*
X12680500Y-11355100D02*
G75*
G02*
X12650500Y-11355100I-15000J0D01*
G01*
X12650500Y-11355100D02*
G75*
G02*
X12680500Y-11355100I15000J0D01*
G01*
X12681353Y-9159500D02*
G75*
G02*
X12651353Y-9159500I-15000J0D01*
G01*
X12651353Y-9159500D02*
G75*
G02*
X12681353Y-9159500I15000J0D01*
G01*
X12728000Y-13066600D02*
G75*
G02*
X12698000Y-13066600I-15000J0D01*
G01*
X12698000Y-13066600D02*
G75*
G02*
X12728000Y-13066600I15000J0D01*
G01*
X12816800Y-10892300D02*
G75*
G02*
X12786800Y-10892300I-15000J0D01*
G01*
X12786800Y-10892300D02*
G75*
G02*
X12816800Y-10892300I15000J0D01*
G01*
X12845100Y-13428200D02*
G75*
G02*
X12815100Y-13428200I-15000J0D01*
G01*
X12815100Y-13428200D02*
G75*
G02*
X12845100Y-13428200I15000J0D01*
G01*
X12867000Y-11934000D02*
G75*
G02*
X12837000Y-11934000I-15000J0D01*
G01*
X12837000Y-11934000D02*
G75*
G02*
X12867000Y-11934000I15000J0D01*
G01*
X12883000Y-9892000D02*
G75*
G02*
X12853000Y-9892000I-15000J0D01*
G01*
X12853000Y-9892000D02*
G75*
G02*
X12883000Y-9892000I15000J0D01*
G01*
X12908026Y-10055000D02*
G75*
G02*
X12878026Y-10055000I-15000J0D01*
G01*
X12878026Y-10055000D02*
G75*
G02*
X12908026Y-10055000I15000J0D01*
G01*
X12927500Y-10465000D02*
G75*
G02*
X12897500Y-10465000I-15000J0D01*
G01*
X12897500Y-10465000D02*
G75*
G02*
X12927500Y-10465000I15000J0D01*
G01*
X12961800Y-12200900D02*
G75*
G02*
X12931800Y-12200900I-15000J0D01*
G01*
X12931800Y-12200900D02*
G75*
G02*
X12961800Y-12200900I15000J0D01*
G01*
X12992400Y-11060600D02*
G75*
G02*
X12962400Y-11060600I-15000J0D01*
G01*
X12962400Y-11060600D02*
G75*
G02*
X12992400Y-11060600I15000J0D01*
G01*
X13004000Y-10115000D02*
G75*
G02*
X12974000Y-10115000I-15000J0D01*
G01*
X12974000Y-10115000D02*
G75*
G02*
X13004000Y-10115000I15000J0D01*
G01*
X13049500Y-13616600D02*
G75*
G02*
X13019500Y-13616600I-15000J0D01*
G01*
X13019500Y-13616600D02*
G75*
G02*
X13049500Y-13616600I15000J0D01*
G01*
X13056573Y-12876426D02*
G75*
G02*
X13026573Y-12876426I-15000J0D01*
G01*
X13026573Y-12876426D02*
G75*
G02*
X13056573Y-12876426I15000J0D01*
G01*
X13064000Y-9954000D02*
G75*
G02*
X13034000Y-9954000I-15000J0D01*
G01*
X13034000Y-9954000D02*
G75*
G02*
X13064000Y-9954000I15000J0D01*
G01*
X13069400Y-10253600D02*
G75*
G02*
X13039400Y-10253600I-15000J0D01*
G01*
X13039400Y-10253600D02*
G75*
G02*
X13069400Y-10253600I15000J0D01*
G01*
X13079200Y-13799800D02*
G75*
G02*
X13049200Y-13799800I-15000J0D01*
G01*
X13049200Y-13799800D02*
G75*
G02*
X13079200Y-13799800I15000J0D01*
G01*
X13159000Y-8922150D02*
G75*
G02*
X13129000Y-8922150I-15000J0D01*
G01*
X13129000Y-8922150D02*
G75*
G02*
X13159000Y-8922150I15000J0D01*
G01*
X13182000Y-10014000D02*
G75*
G02*
X13152000Y-10014000I-15000J0D01*
G01*
X13152000Y-10014000D02*
G75*
G02*
X13182000Y-10014000I15000J0D01*
G01*
X13190000Y-11912899D02*
G75*
G02*
X13160000Y-11912899I-15000J0D01*
G01*
X13160000Y-11912899D02*
G75*
G02*
X13190000Y-11912899I15000J0D01*
G01*
X13235000Y-9399000D02*
G75*
G02*
X13205000Y-9399000I-15000J0D01*
G01*
X13205000Y-9399000D02*
G75*
G02*
X13235000Y-9399000I15000J0D01*
G01*
X13238000Y-9715000D02*
G75*
G02*
X13208000Y-9715000I-15000J0D01*
G01*
X13208000Y-9715000D02*
G75*
G02*
X13238000Y-9715000I15000J0D01*
G01*
X13240000Y-10479000D02*
G75*
G02*
X13210000Y-10479000I-15000J0D01*
G01*
X13210000Y-10479000D02*
G75*
G02*
X13240000Y-10479000I15000J0D01*
G01*
X13278800Y-10206700D02*
G75*
G02*
X13248800Y-10206700I-15000J0D01*
G01*
X13248800Y-10206700D02*
G75*
G02*
X13278800Y-10206700I15000J0D01*
G01*
X13279000Y-9528000D02*
G75*
G02*
X13249000Y-9528000I-15000J0D01*
G01*
X13249000Y-9528000D02*
G75*
G02*
X13279000Y-9528000I15000J0D01*
G01*
X13297800Y-8819000D02*
G75*
G02*
X13267800Y-8819000I-15000J0D01*
G01*
X13267800Y-8819000D02*
G75*
G02*
X13297800Y-8819000I15000J0D01*
G01*
X13371900Y-12321500D02*
G75*
G02*
X13341900Y-12321500I-15000J0D01*
G01*
X13341900Y-12321500D02*
G75*
G02*
X13371900Y-12321500I15000J0D01*
G01*
X13410900Y-11060700D02*
G75*
G02*
X13380900Y-11060700I-15000J0D01*
G01*
X13380900Y-11060700D02*
G75*
G02*
X13410900Y-11060700I15000J0D01*
G01*
X13443400Y-12879300D02*
G75*
G02*
X13413400Y-12879300I-15000J0D01*
G01*
X13413400Y-12879300D02*
G75*
G02*
X13443400Y-12879300I15000J0D01*
G01*
X13586200Y-13838800D02*
G75*
G02*
X13556200Y-13838800I-15000J0D01*
G01*
X13556200Y-13838800D02*
G75*
G02*
X13586200Y-13838800I15000J0D01*
G01*
X13590000Y-8934000D02*
G75*
G02*
X13560000Y-8934000I-15000J0D01*
G01*
X13560000Y-8934000D02*
G75*
G02*
X13590000Y-8934000I15000J0D01*
G01*
X13698000Y-10750700D02*
G75*
G02*
X13668000Y-10750700I-15000J0D01*
G01*
X13668000Y-10750700D02*
G75*
G02*
X13698000Y-10750700I15000J0D01*
G01*
X13701390Y-10388520D02*
G75*
G02*
X13671390Y-10388520I-15000J0D01*
G01*
X13671390Y-10388520D02*
G75*
G02*
X13701390Y-10388520I15000J0D01*
G01*
X13826000Y-9699000D02*
G75*
G02*
X13796000Y-9699000I-15000J0D01*
G01*
X13796000Y-9699000D02*
G75*
G02*
X13826000Y-9699000I15000J0D01*
G01*
X13861902Y-9198602D02*
G75*
G02*
X13831902Y-9198602I-15000J0D01*
G01*
X13831902Y-9198602D02*
G75*
G02*
X13861902Y-9198602I15000J0D01*
G01*
X13887500Y-13916000D02*
G75*
G02*
X13857500Y-13916000I-15000J0D01*
G01*
X13857500Y-13916000D02*
G75*
G02*
X13887500Y-13916000I15000J0D01*
G01*
X13892000Y-8934000D02*
G75*
G02*
X13862000Y-8934000I-15000J0D01*
G01*
X13862000Y-8934000D02*
G75*
G02*
X13892000Y-8934000I15000J0D01*
G01*
X13935000Y-9381000D02*
G75*
G02*
X13905000Y-9381000I-15000J0D01*
G01*
X13905000Y-9381000D02*
G75*
G02*
X13935000Y-9381000I15000J0D01*
G01*
X13968000Y-9696000D02*
G75*
G02*
X13938000Y-9696000I-15000J0D01*
G01*
X13938000Y-9696000D02*
G75*
G02*
X13968000Y-9696000I15000J0D01*
G01*
X13982000Y-12008000D02*
G75*
G02*
X13952000Y-12008000I-15000J0D01*
G01*
X13952000Y-12008000D02*
G75*
G02*
X13982000Y-12008000I15000J0D01*
G01*
X13988000Y-12391000D02*
G75*
G02*
X13958000Y-12391000I-15000J0D01*
G01*
X13958000Y-12391000D02*
G75*
G02*
X13988000Y-12391000I15000J0D01*
G01*
X14004000Y-13872700D02*
G75*
G02*
X13974000Y-13872700I-15000J0D01*
G01*
X13974000Y-13872700D02*
G75*
G02*
X14004000Y-13872700I15000J0D01*
G01*
X14019000Y-8887000D02*
G75*
G02*
X13989000Y-8887000I-15000J0D01*
G01*
X13989000Y-8887000D02*
G75*
G02*
X14019000Y-8887000I15000J0D01*
G01*
X14047130Y-9781220D02*
G75*
G02*
X14017130Y-9781220I-15000J0D01*
G01*
X14017130Y-9781220D02*
G75*
G02*
X14047130Y-9781220I15000J0D01*
G01*
X14119800Y-10307900D02*
G75*
G02*
X14089800Y-10307900I-15000J0D01*
G01*
X14089800Y-10307900D02*
G75*
G02*
X14119800Y-10307900I15000J0D01*
G01*
X14176000Y-9098000D02*
G75*
G02*
X14146000Y-9098000I-15000J0D01*
G01*
X14146000Y-9098000D02*
G75*
G02*
X14176000Y-9098000I15000J0D01*
G01*
X14181000Y-9540000D02*
G75*
G02*
X14151000Y-9540000I-15000J0D01*
G01*
X14151000Y-9540000D02*
G75*
G02*
X14181000Y-9540000I15000J0D01*
G01*
X14222608Y-8843608D02*
G75*
G02*
X14192608Y-8843608I-15000J0D01*
G01*
X14192608Y-8843608D02*
G75*
G02*
X14222608Y-8843608I15000J0D01*
G01*
X14236400Y-8737290D02*
G75*
G02*
X14206400Y-8737290I-15000J0D01*
G01*
X14206400Y-8737290D02*
G75*
G02*
X14236400Y-8737290I15000J0D01*
G01*
X14237200Y-10485800D02*
G75*
G02*
X14207200Y-10485800I-15000J0D01*
G01*
X14207200Y-10485800D02*
G75*
G02*
X14237200Y-10485800I15000J0D01*
G01*
X14304500Y-10080500D02*
G75*
G02*
X14274500Y-10080500I-15000J0D01*
G01*
X14274500Y-10080500D02*
G75*
G02*
X14304500Y-10080500I15000J0D01*
G01*
X14328000Y-10249000D02*
G75*
G02*
X14298000Y-10249000I-15000J0D01*
G01*
X14298000Y-10249000D02*
G75*
G02*
X14328000Y-10249000I15000J0D01*
G01*
X14352800Y-11274900D02*
G75*
G02*
X14322800Y-11274900I-15000J0D01*
G01*
X14322800Y-11274900D02*
G75*
G02*
X14352800Y-11274900I15000J0D01*
G01*
X14404400Y-12324000D02*
G75*
G02*
X14374400Y-12324000I-15000J0D01*
G01*
X14374400Y-12324000D02*
G75*
G02*
X14404400Y-12324000I15000J0D01*
G01*
X14474550Y-10402550D02*
G75*
G02*
X14444550Y-10402550I-15000J0D01*
G01*
X14444550Y-10402550D02*
G75*
G02*
X14474550Y-10402550I15000J0D01*
G01*
X14533000Y-9529000D02*
G75*
G02*
X14503000Y-9529000I-15000J0D01*
G01*
X14503000Y-9529000D02*
G75*
G02*
X14533000Y-9529000I15000J0D01*
G01*
X14665000Y-9743000D02*
G75*
G02*
X14635000Y-9743000I-15000J0D01*
G01*
X14635000Y-9743000D02*
G75*
G02*
X14665000Y-9743000I15000J0D01*
G01*
X14691000Y-10692000D02*
G75*
G02*
X14661000Y-10692000I-15000J0D01*
G01*
X14661000Y-10692000D02*
G75*
G02*
X14691000Y-10692000I15000J0D01*
G01*
X14700193Y-9197950D02*
G75*
G02*
X14670193Y-9197950I-15000J0D01*
G01*
X14670193Y-9197950D02*
G75*
G02*
X14700193Y-9197950I15000J0D01*
G01*
X14723000Y-11934000D02*
G75*
G02*
X14693000Y-11934000I-15000J0D01*
G01*
X14693000Y-11934000D02*
G75*
G02*
X14723000Y-11934000I15000J0D01*
G01*
X14758200Y-8807040D02*
G75*
G02*
X14728200Y-8807040I-15000J0D01*
G01*
X14728200Y-8807040D02*
G75*
G02*
X14758200Y-8807040I15000J0D01*
G01*
X14773978Y-8998500D02*
G75*
G02*
X14743978Y-8998500I-15000J0D01*
G01*
X14743978Y-8998500D02*
G75*
G02*
X14773978Y-8998500I15000J0D01*
G01*
X14866000Y-9060550D02*
G75*
G02*
X14836000Y-9060550I-15000J0D01*
G01*
X14836000Y-9060550D02*
G75*
G02*
X14866000Y-9060550I15000J0D01*
G01*
X14965000Y-11868420D02*
G75*
G02*
X14935000Y-11868420I-15000J0D01*
G01*
X14935000Y-11868420D02*
G75*
G02*
X14965000Y-11868420I15000J0D01*
G01*
X15040000Y-9544000D02*
G75*
G02*
X15010000Y-9544000I-15000J0D01*
G01*
X15010000Y-9544000D02*
G75*
G02*
X15040000Y-9544000I15000J0D01*
G01*
X15064000Y-10634000D02*
G75*
G02*
X15034000Y-10634000I-15000J0D01*
G01*
X15034000Y-10634000D02*
G75*
G02*
X15064000Y-10634000I15000J0D01*
G01*
X15107000Y-9101000D02*
G75*
G02*
X15077000Y-9101000I-15000J0D01*
G01*
X15077000Y-9101000D02*
G75*
G02*
X15107000Y-9101000I15000J0D01*
G01*
X15112100Y-8423480D02*
G75*
G02*
X15082100Y-8423480I-15000J0D01*
G01*
X15082100Y-8423480D02*
G75*
G02*
X15112100Y-8423480I15000J0D01*
G01*
X15116600Y-13400600D02*
G75*
G02*
X15086600Y-13400600I-15000J0D01*
G01*
X15086600Y-13400600D02*
G75*
G02*
X15116600Y-13400600I15000J0D01*
G01*
X15184030Y-13921740D02*
G75*
G02*
X15154030Y-13921740I-15000J0D01*
G01*
X15154030Y-13921740D02*
G75*
G02*
X15184030Y-13921740I15000J0D01*
G01*
X15239000Y-9538000D02*
G75*
G02*
X15209000Y-9538000I-15000J0D01*
G01*
X15209000Y-9538000D02*
G75*
G02*
X15239000Y-9538000I15000J0D01*
G01*
X15270500Y-10369000D02*
G75*
G02*
X15240500Y-10369000I-15000J0D01*
G01*
X15240500Y-10369000D02*
G75*
G02*
X15270500Y-10369000I15000J0D01*
G01*
X15352000Y-8948000D02*
G75*
G02*
X15322000Y-8948000I-15000J0D01*
G01*
X15322000Y-8948000D02*
G75*
G02*
X15352000Y-8948000I15000J0D01*
G01*
X15409800Y-11353000D02*
G75*
G02*
X15379800Y-11353000I-15000J0D01*
G01*
X15379800Y-11353000D02*
G75*
G02*
X15409800Y-11353000I15000J0D01*
G01*
X15423000Y-8482000D02*
G75*
G02*
X15393000Y-8482000I-15000J0D01*
G01*
X15393000Y-8482000D02*
G75*
G02*
X15423000Y-8482000I15000J0D01*
G01*
X15428000Y-8191000D02*
G75*
G02*
X15398000Y-8191000I-15000J0D01*
G01*
X15398000Y-8191000D02*
G75*
G02*
X15428000Y-8191000I15000J0D01*
G01*
X15484000Y-11871000D02*
G75*
G02*
X15454000Y-11871000I-15000J0D01*
G01*
X15454000Y-11871000D02*
G75*
G02*
X15484000Y-11871000I15000J0D01*
G01*
X15486000Y-12234000D02*
G75*
G02*
X15456000Y-12234000I-15000J0D01*
G01*
X15456000Y-12234000D02*
G75*
G02*
X15486000Y-12234000I15000J0D01*
G01*
X15493000Y-9539000D02*
G75*
G02*
X15463000Y-9539000I-15000J0D01*
G01*
X15463000Y-9539000D02*
G75*
G02*
X15493000Y-9539000I15000J0D01*
G01*
X15500600Y-13176000D02*
G75*
G02*
X15470600Y-13176000I-15000J0D01*
G01*
X15470600Y-13176000D02*
G75*
G02*
X15500600Y-13176000I15000J0D01*
G01*
X15500700Y-13478500D02*
G75*
G02*
X15470700Y-13478500I-15000J0D01*
G01*
X15470700Y-13478500D02*
G75*
G02*
X15500700Y-13478500I15000J0D01*
G01*
X15532900Y-11022700D02*
G75*
G02*
X15502900Y-11022700I-15000J0D01*
G01*
X15502900Y-11022700D02*
G75*
G02*
X15532900Y-11022700I15000J0D01*
G01*
X15538000Y-11397000D02*
G75*
G02*
X15508000Y-11397000I-15000J0D01*
G01*
X15508000Y-11397000D02*
G75*
G02*
X15538000Y-11397000I15000J0D01*
G01*
X15560700Y-13312300D02*
G75*
G02*
X15530700Y-13312300I-15000J0D01*
G01*
X15530700Y-13312300D02*
G75*
G02*
X15560700Y-13312300I15000J0D01*
G01*
X15683000Y-10934000D02*
G75*
G02*
X15653000Y-10934000I-15000J0D01*
G01*
X15653000Y-10934000D02*
G75*
G02*
X15683000Y-10934000I15000J0D01*
G01*
X15738000Y-9451000D02*
G75*
G02*
X15708000Y-9451000I-15000J0D01*
G01*
X15708000Y-9451000D02*
G75*
G02*
X15738000Y-9451000I15000J0D01*
G01*
X15747700Y-9276060D02*
G75*
G02*
X15717700Y-9276060I-15000J0D01*
G01*
X15717700Y-9276060D02*
G75*
G02*
X15747700Y-9276060I15000J0D01*
G01*
X15781300Y-10892200D02*
G75*
G02*
X15751300Y-10892200I-15000J0D01*
G01*
X15751300Y-10892200D02*
G75*
G02*
X15781300Y-10892200I15000J0D01*
G01*
X16004000Y-13037000D02*
G75*
G02*
X15974000Y-13037000I-15000J0D01*
G01*
X15974000Y-13037000D02*
G75*
G02*
X16004000Y-13037000I15000J0D01*
G01*
X16038000Y-8720550D02*
G75*
G02*
X16008000Y-8720550I-15000J0D01*
G01*
X16008000Y-8720550D02*
G75*
G02*
X16038000Y-8720550I15000J0D01*
G01*
X16072400Y-12598600D02*
G75*
G02*
X16042400Y-12598600I-15000J0D01*
G01*
X16042400Y-12598600D02*
G75*
G02*
X16072400Y-12598600I15000J0D01*
G01*
X16241600Y-11645600D02*
G75*
G02*
X16211600Y-11645600I-15000J0D01*
G01*
X16211600Y-11645600D02*
G75*
G02*
X16241600Y-11645600I15000J0D01*
G01*
X16247073Y-11897926D02*
G75*
G02*
X16217073Y-11897926I-15000J0D01*
G01*
X16217073Y-11897926D02*
G75*
G02*
X16247073Y-11897926I15000J0D01*
G01*
X16325085Y-9385000D02*
G75*
G02*
X16295085Y-9385000I-15000J0D01*
G01*
X16295085Y-9385000D02*
G75*
G02*
X16325085Y-9385000I15000J0D01*
G01*
X16353000Y-8120000D02*
G75*
G02*
X16323000Y-8120000I-15000J0D01*
G01*
X16323000Y-8120000D02*
G75*
G02*
X16353000Y-8120000I15000J0D01*
G01*
X16379000Y-9949140D02*
G75*
G02*
X16349000Y-9949140I-15000J0D01*
G01*
X16349000Y-9949140D02*
G75*
G02*
X16379000Y-9949140I15000J0D01*
G01*
X16397480Y-10089150D02*
G75*
G02*
X16367480Y-10089150I-15000J0D01*
G01*
X16367480Y-10089150D02*
G75*
G02*
X16397480Y-10089150I15000J0D01*
G01*
X16508000Y-9515000D02*
G75*
G02*
X16478000Y-9515000I-15000J0D01*
G01*
X16478000Y-9515000D02*
G75*
G02*
X16508000Y-9515000I15000J0D01*
G01*
X16511000Y-11891000D02*
G75*
G02*
X16481000Y-11891000I-15000J0D01*
G01*
X16481000Y-11891000D02*
G75*
G02*
X16511000Y-11891000I15000J0D01*
G01*
X16582600Y-10662800D02*
G75*
G02*
X16552600Y-10662800I-15000J0D01*
G01*
X16552600Y-10662800D02*
G75*
G02*
X16582600Y-10662800I15000J0D01*
G01*
X16610000Y-11464000D02*
G75*
G02*
X16580000Y-11464000I-15000J0D01*
G01*
X16580000Y-11464000D02*
G75*
G02*
X16610000Y-11464000I15000J0D01*
G01*
X16662000Y-8859000D02*
G75*
G02*
X16632000Y-8859000I-15000J0D01*
G01*
X16632000Y-8859000D02*
G75*
G02*
X16662000Y-8859000I15000J0D01*
G01*
X16729000Y-9540000D02*
G75*
G02*
X16699000Y-9540000I-15000J0D01*
G01*
X16699000Y-9540000D02*
G75*
G02*
X16729000Y-9540000I15000J0D01*
G01*
X16776000Y-11746000D02*
G75*
G02*
X16746000Y-11746000I-15000J0D01*
G01*
X16746000Y-11746000D02*
G75*
G02*
X16776000Y-11746000I15000J0D01*
G01*
X16783000Y-10983000D02*
G75*
G02*
X16753000Y-10983000I-15000J0D01*
G01*
X16753000Y-10983000D02*
G75*
G02*
X16783000Y-10983000I15000J0D01*
G01*
X16891000Y-9448000D02*
G75*
G02*
X16861000Y-9448000I-15000J0D01*
G01*
X16861000Y-9448000D02*
G75*
G02*
X16891000Y-9448000I15000J0D01*
G01*
X16990000Y-9145000D02*
G75*
G02*
X16960000Y-9145000I-15000J0D01*
G01*
X16960000Y-9145000D02*
G75*
G02*
X16990000Y-9145000I15000J0D01*
G01*
X17015000Y-11832000D02*
G75*
G02*
X16985000Y-11832000I-15000J0D01*
G01*
X16985000Y-11832000D02*
G75*
G02*
X17015000Y-11832000I15000J0D01*
G01*
X17024000Y-9535000D02*
G75*
G02*
X16994000Y-9535000I-15000J0D01*
G01*
X16994000Y-9535000D02*
G75*
G02*
X17024000Y-9535000I15000J0D01*
G01*
X17124000Y-10023000D02*
G75*
G02*
X17094000Y-10023000I-15000J0D01*
G01*
X17094000Y-10023000D02*
G75*
G02*
X17124000Y-10023000I15000J0D01*
G01*
X17125000Y-8713000D02*
G75*
G02*
X17095000Y-8713000I-15000J0D01*
G01*
X17095000Y-8713000D02*
G75*
G02*
X17125000Y-8713000I15000J0D01*
G01*
X17135000Y-9014000D02*
G75*
G02*
X17105000Y-9014000I-15000J0D01*
G01*
X17105000Y-9014000D02*
G75*
G02*
X17135000Y-9014000I15000J0D01*
G01*
X17174000Y-10983000D02*
G75*
G02*
X17144000Y-10983000I-15000J0D01*
G01*
X17144000Y-10983000D02*
G75*
G02*
X17174000Y-10983000I15000J0D01*
G01*
X17326000Y-9935000D02*
G75*
G02*
X17296000Y-9935000I-15000J0D01*
G01*
X17296000Y-9935000D02*
G75*
G02*
X17326000Y-9935000I15000J0D01*
G01*
X17364000Y-8926000D02*
G75*
G02*
X17334000Y-8926000I-15000J0D01*
G01*
X17334000Y-8926000D02*
G75*
G02*
X17364000Y-8926000I15000J0D01*
G01*
X17583000Y-8663000D02*
G75*
G02*
X17553000Y-8663000I-15000J0D01*
G01*
X17553000Y-8663000D02*
G75*
G02*
X17583000Y-8663000I15000J0D01*
G01*
X17619000Y-9181000D02*
G75*
G02*
X17589000Y-9181000I-15000J0D01*
G01*
X17589000Y-9181000D02*
G75*
G02*
X17619000Y-9181000I15000J0D01*
G01*
X17805000Y-9271150D02*
G75*
G02*
X17775000Y-9271150I-15000J0D01*
G01*
X17775000Y-9271150D02*
G75*
G02*
X17805000Y-9271150I15000J0D01*
G01*
X17945000Y-9191000D02*
G75*
G02*
X17915000Y-9191000I-15000J0D01*
G01*
X17915000Y-9191000D02*
G75*
G02*
X17945000Y-9191000I15000J0D01*
G01*
X17987000Y-9911000D02*
G75*
G02*
X17957000Y-9911000I-15000J0D01*
G01*
X17957000Y-9911000D02*
G75*
G02*
X17987000Y-9911000I15000J0D01*
G01*
X17988000Y-10114000D02*
G75*
G02*
X17958000Y-10114000I-15000J0D01*
G01*
X17958000Y-10114000D02*
G75*
G02*
X17988000Y-10114000I15000J0D01*
G01*
X17996000Y-9543000D02*
G75*
G02*
X17966000Y-9543000I-15000J0D01*
G01*
X17966000Y-9543000D02*
G75*
G02*
X17996000Y-9543000I15000J0D01*
G01*
X18022000Y-12265000D02*
G75*
G02*
X17992000Y-12265000I-15000J0D01*
G01*
X17992000Y-12265000D02*
G75*
G02*
X18022000Y-12265000I15000J0D01*
G01*
X18048400Y-11055400D02*
G75*
G02*
X18018400Y-11055400I-15000J0D01*
G01*
X18018400Y-11055400D02*
G75*
G02*
X18048400Y-11055400I15000J0D01*
G01*
X18257000Y-11745000D02*
G75*
G02*
X18227000Y-11745000I-15000J0D01*
G01*
X18227000Y-11745000D02*
G75*
G02*
X18257000Y-11745000I15000J0D01*
G01*
X18295700Y-11000600D02*
G75*
G02*
X18265700Y-11000600I-15000J0D01*
G01*
X18265700Y-11000600D02*
G75*
G02*
X18295700Y-11000600I15000J0D01*
G01*
X18583000Y-8092000D02*
G75*
G02*
X18553000Y-8092000I-15000J0D01*
G01*
X18553000Y-8092000D02*
G75*
G02*
X18583000Y-8092000I15000J0D01*
G01*
X18634800Y-11353000D02*
G75*
G02*
X18604800Y-11353000I-15000J0D01*
G01*
X18604800Y-11353000D02*
G75*
G02*
X18634800Y-11353000I15000J0D01*
G01*
X18636600Y-11066600D02*
G75*
G02*
X18606600Y-11066600I-15000J0D01*
G01*
X18606600Y-11066600D02*
G75*
G02*
X18636600Y-11066600I15000J0D01*
G01*
X18644000Y-11887000D02*
G75*
G02*
X18614000Y-11887000I-15000J0D01*
G01*
X18614000Y-11887000D02*
G75*
G02*
X18644000Y-11887000I15000J0D01*
G01*
X19026000Y-8239000D02*
G75*
G02*
X18996000Y-8239000I-15000J0D01*
G01*
X18996000Y-8239000D02*
G75*
G02*
X19026000Y-8239000I15000J0D01*
G01*
X19099000Y-12033000D02*
G75*
G02*
X19069000Y-12033000I-15000J0D01*
G01*
X19069000Y-12033000D02*
G75*
G02*
X19099000Y-12033000I15000J0D01*
G01*
X19107000Y-10843000D02*
G75*
G02*
X19077000Y-10843000I-15000J0D01*
G01*
X19077000Y-10843000D02*
G75*
G02*
X19107000Y-10843000I15000J0D01*
G01*
X19193000Y-11239000D02*
G75*
G02*
X19163000Y-11239000I-15000J0D01*
G01*
X19163000Y-11239000D02*
G75*
G02*
X19193000Y-11239000I15000J0D01*
G01*
X19221200Y-9219150D02*
G75*
G02*
X19191200Y-9219150I-15000J0D01*
G01*
X19191200Y-9219150D02*
G75*
G02*
X19221200Y-9219150I15000J0D01*
G01*
X19222000Y-13041000D02*
G75*
G02*
X19192000Y-13041000I-15000J0D01*
G01*
X19192000Y-13041000D02*
G75*
G02*
X19222000Y-13041000I15000J0D01*
G01*
X19481000Y-8584000D02*
G75*
G02*
X19451000Y-8584000I-15000J0D01*
G01*
X19451000Y-8584000D02*
G75*
G02*
X19481000Y-8584000I15000J0D01*
G01*
X19630000Y-9805000D02*
G75*
G02*
X19600000Y-9805000I-15000J0D01*
G01*
X19600000Y-9805000D02*
G75*
G02*
X19630000Y-9805000I15000J0D01*
G01*
X19948000Y-10855000D02*
G75*
G02*
X19918000Y-10855000I-15000J0D01*
G01*
X19918000Y-10855000D02*
G75*
G02*
X19948000Y-10855000I15000J0D01*
G01*
X19967000Y-9598000D02*
G75*
G02*
X19937000Y-9598000I-15000J0D01*
G01*
X19937000Y-9598000D02*
G75*
G02*
X19967000Y-9598000I15000J0D01*
G01*
X19967000Y-12022000D02*
G75*
G02*
X19937000Y-12022000I-15000J0D01*
G01*
X19937000Y-12022000D02*
G75*
G02*
X19967000Y-12022000I15000J0D01*
G01*
X19979400Y-10568900D02*
G75*
G02*
X19949400Y-10568900I-15000J0D01*
G01*
X19949400Y-10568900D02*
G75*
G02*
X19979400Y-10568900I15000J0D01*
G01*
X20055000Y-10389000D02*
G75*
G02*
X20025000Y-10389000I-15000J0D01*
G01*
X20025000Y-10389000D02*
G75*
G02*
X20055000Y-10389000I15000J0D01*
G01*
X20065800Y-10064000D02*
G75*
G02*
X20035800Y-10064000I-15000J0D01*
G01*
X20035800Y-10064000D02*
G75*
G02*
X20065800Y-10064000I15000J0D01*
G01*
X20100700Y-11353000D02*
G75*
G02*
X20070700Y-11353000I-15000J0D01*
G01*
X20070700Y-11353000D02*
G75*
G02*
X20100700Y-11353000I15000J0D01*
G01*
X20421200Y-11074000D02*
G75*
G02*
X20391200Y-11074000I-15000J0D01*
G01*
X20391200Y-11074000D02*
G75*
G02*
X20421200Y-11074000I15000J0D01*
G01*
X20466000Y-10390000D02*
G75*
G02*
X20436000Y-10390000I-15000J0D01*
G01*
X20436000Y-10390000D02*
G75*
G02*
X20466000Y-10390000I15000J0D01*
G01*
X20491000Y-9618000D02*
G75*
G02*
X20461000Y-9618000I-15000J0D01*
G01*
X20461000Y-9618000D02*
G75*
G02*
X20491000Y-9618000I15000J0D01*
G01*
X20612400Y-12442000D02*
G75*
G02*
X20582400Y-12442000I-15000J0D01*
G01*
X20582400Y-12442000D02*
G75*
G02*
X20612400Y-12442000I15000J0D01*
G01*
X21016000Y-9618000D02*
G75*
G02*
X20986000Y-9618000I-15000J0D01*
G01*
X20986000Y-9618000D02*
G75*
G02*
X21016000Y-9618000I15000J0D01*
G01*
X21467000Y-11164000D02*
G75*
G02*
X21437000Y-11164000I-15000J0D01*
G01*
X21437000Y-11164000D02*
G75*
G02*
X21467000Y-11164000I15000J0D01*
G01*
X10309000Y-9574000D02*
X10309000Y-9634000D01*
X10279000Y-9604000D02*
X10339000Y-9604000D01*
X10249000Y-9634000D02*
X10369000Y-9634000D01*
X10369000Y-9574000D02*
G75*
G02*
X10369000Y-9634000I0J-30000D01*
G01*
X10369000Y-9574000D02*
X10249000Y-9574000D01*
X10249000Y-9574000D02*
G75*
G03*
X10249000Y-9634000I0J-30000D01*
G01*
X10309000Y-10438000D02*
X10309000Y-10498000D01*
X10279000Y-10468000D02*
X10339000Y-10468000D01*
X10249000Y-10498000D02*
X10369000Y-10498000D01*
X10369000Y-10438000D02*
G75*
G02*
X10369000Y-10498000I0J-30000D01*
G01*
X10369000Y-10438000D02*
X10249000Y-10438000D01*
X10249000Y-10438000D02*
G75*
G03*
X10249000Y-10498000I0J-30000D01*
G01*
X10709000Y-9574000D02*
X10709000Y-9634000D01*
X10679000Y-9604000D02*
X10739000Y-9604000D01*
X10669000Y-9634000D02*
X10749000Y-9634000D01*
X10749000Y-9574000D02*
G75*
G02*
X10749000Y-9634000I0J-30000D01*
G01*
X10749000Y-9574000D02*
X10669000Y-9574000D01*
X10669000Y-9574000D02*
G75*
G03*
X10669000Y-9634000I0J-30000D01*
G01*
X10709000Y-10438000D02*
X10709000Y-10498000D01*
X10679000Y-10468000D02*
X10739000Y-10468000D01*
X10669000Y-10498000D02*
X10749000Y-10498000D01*
X10749000Y-10438000D02*
G75*
G02*
X10749000Y-10498000I0J-30000D01*
G01*
X10749000Y-10438000D02*
X10669000Y-10438000D01*
X10669000Y-10438000D02*
G75*
G03*
X10669000Y-10498000I0J-30000D01*
G01*
X10537356Y-12677356D02*
X10537356Y-12606644D01*
X10466644Y-12606644D01*
X10466644Y-12677356D01*
X10537356Y-12677356D01*
X10787356Y-12677356D02*
X10787356Y-12606644D01*
X10716644Y-12606644D01*
X10716644Y-12677356D01*
X10787356Y-12677356D01*
X11037356Y-12677356D02*
X11037356Y-12606644D01*
X10966644Y-12606644D01*
X10966644Y-12677356D01*
X11037356Y-12677356D01*
X17633356Y-8924356D02*
X17633356Y-8853644D01*
X17562644Y-8853644D01*
X17562644Y-8924356D01*
X17633356Y-8924356D01*
X17883356Y-8924356D02*
X17883356Y-8853644D01*
X17812644Y-8853644D01*
X17812644Y-8924356D01*
X17883356Y-8924356D01*
X18133356Y-8924356D02*
X18133356Y-8853644D01*
X18062644Y-8853644D01*
X18062644Y-8924356D01*
X18133356Y-8924356D01*
X18383356Y-8924356D02*
X18383356Y-8853644D01*
X18312644Y-8853644D01*
X18312644Y-8924356D01*
X18383356Y-8924356D01*
X19788356Y-8903356D02*
X19788356Y-8832644D01*
X19717644Y-8832644D01*
X19717644Y-8903356D01*
X19788356Y-8903356D01*
X20038356Y-8903356D02*
X20038356Y-8832644D01*
X19967644Y-8832644D01*
X19967644Y-8903356D01*
X20038356Y-8903356D01*
D10*
X10231777Y-15320789D02*
X10231777Y-15120789D01*
X10231777Y-15120789D02*
X10279396Y-15120789D01*
X10279396Y-15120789D02*
X10307967Y-15130313D01*
X10307967Y-15130313D02*
X10327015Y-15149360D01*
X10327015Y-15149360D02*
X10336539Y-15168408D01*
X10336539Y-15168408D02*
X10346063Y-15206503D01*
X10346063Y-15206503D02*
X10346063Y-15235074D01*
X10346063Y-15235074D02*
X10336539Y-15273170D01*
X10336539Y-15273170D02*
X10327015Y-15292217D01*
X10327015Y-15292217D02*
X10307967Y-15311265D01*
X10307967Y-15311265D02*
X10279396Y-15320789D01*
X10279396Y-15320789D02*
X10231777Y-15320789D01*
X10431777Y-15320789D02*
X10431777Y-15187455D01*
X10431777Y-15225551D02*
X10441301Y-15206503D01*
X10441301Y-15206503D02*
X10450824Y-15196979D01*
X10450824Y-15196979D02*
X10469872Y-15187455D01*
X10469872Y-15187455D02*
X10488920Y-15187455D01*
X10555586Y-15320789D02*
X10555586Y-15187455D01*
X10555586Y-15120789D02*
X10546063Y-15130313D01*
X10546063Y-15130313D02*
X10555586Y-15139836D01*
X10555586Y-15139836D02*
X10565110Y-15130313D01*
X10565110Y-15130313D02*
X10555586Y-15120789D01*
X10555586Y-15120789D02*
X10555586Y-15139836D01*
X10679396Y-15320789D02*
X10660348Y-15311265D01*
X10660348Y-15311265D02*
X10650824Y-15292217D01*
X10650824Y-15292217D02*
X10650824Y-15120789D01*
X10784158Y-15320789D02*
X10765110Y-15311265D01*
X10765110Y-15311265D02*
X10755586Y-15292217D01*
X10755586Y-15292217D02*
X10755586Y-15120789D01*
X11012729Y-15320789D02*
X11012729Y-15120789D01*
X11012729Y-15120789D02*
X11079396Y-15263646D01*
X11079396Y-15263646D02*
X11146063Y-15120789D01*
X11146063Y-15120789D02*
X11146063Y-15320789D01*
X11327015Y-15320789D02*
X11327015Y-15216027D01*
X11327015Y-15216027D02*
X11317491Y-15196979D01*
X11317491Y-15196979D02*
X11298443Y-15187455D01*
X11298443Y-15187455D02*
X11260348Y-15187455D01*
X11260348Y-15187455D02*
X11241301Y-15196979D01*
X11327015Y-15311265D02*
X11307967Y-15320789D01*
X11307967Y-15320789D02*
X11260348Y-15320789D01*
X11260348Y-15320789D02*
X11241301Y-15311265D01*
X11241301Y-15311265D02*
X11231777Y-15292217D01*
X11231777Y-15292217D02*
X11231777Y-15273170D01*
X11231777Y-15273170D02*
X11241301Y-15254122D01*
X11241301Y-15254122D02*
X11260348Y-15244598D01*
X11260348Y-15244598D02*
X11307967Y-15244598D01*
X11307967Y-15244598D02*
X11327015Y-15235074D01*
X11422253Y-15187455D02*
X11422253Y-15387455D01*
X11422253Y-15196979D02*
X11441301Y-15187455D01*
X11441301Y-15187455D02*
X11479396Y-15187455D01*
X11479396Y-15187455D02*
X11498443Y-15196979D01*
X11498443Y-15196979D02*
X11507967Y-15206503D01*
X11507967Y-15206503D02*
X11517491Y-15225551D01*
X11517491Y-15225551D02*
X11517491Y-15282693D01*
X11517491Y-15282693D02*
X11507967Y-15301741D01*
X11507967Y-15301741D02*
X11498443Y-15311265D01*
X11498443Y-15311265D02*
X11479396Y-15320789D01*
X11479396Y-15320789D02*
X11441301Y-15320789D01*
X11441301Y-15320789D02*
X11422253Y-15311265D01*
X11603205Y-15301741D02*
X11612729Y-15311265D01*
X11612729Y-15311265D02*
X11603205Y-15320789D01*
X11603205Y-15320789D02*
X11593682Y-15311265D01*
X11593682Y-15311265D02*
X11603205Y-15301741D01*
X11603205Y-15301741D02*
X11603205Y-15320789D01*
X11603205Y-15196979D02*
X11612729Y-15206503D01*
X11612729Y-15206503D02*
X11603205Y-15216027D01*
X11603205Y-15216027D02*
X11593682Y-15206503D01*
X11593682Y-15206503D02*
X11603205Y-15196979D01*
X11603205Y-15196979D02*
X11603205Y-15216027D01*
D11*
X9946000Y-15636805D02*
X9971000Y-15661805D01*
X9971000Y-15636805D02*
X9946000Y-15661805D01*
D10*
X10269872Y-15540789D02*
X10288920Y-15540789D01*
X10288920Y-15540789D02*
X10307967Y-15550313D01*
X10307967Y-15550313D02*
X10317491Y-15559836D01*
X10317491Y-15559836D02*
X10327015Y-15578884D01*
X10327015Y-15578884D02*
X10336539Y-15616979D01*
X10336539Y-15616979D02*
X10336539Y-15664598D01*
X10336539Y-15664598D02*
X10327015Y-15702693D01*
X10327015Y-15702693D02*
X10317491Y-15721741D01*
X10317491Y-15721741D02*
X10307967Y-15731265D01*
X10307967Y-15731265D02*
X10288920Y-15740789D01*
X10288920Y-15740789D02*
X10269872Y-15740789D01*
X10269872Y-15740789D02*
X10250824Y-15731265D01*
X10250824Y-15731265D02*
X10241301Y-15721741D01*
X10241301Y-15721741D02*
X10231777Y-15702693D01*
X10231777Y-15702693D02*
X10222253Y-15664598D01*
X10222253Y-15664598D02*
X10222253Y-15616979D01*
X10222253Y-15616979D02*
X10231777Y-15578884D01*
X10231777Y-15578884D02*
X10241301Y-15559836D01*
X10241301Y-15559836D02*
X10250824Y-15550313D01*
X10250824Y-15550313D02*
X10269872Y-15540789D01*
X10422253Y-15721741D02*
X10431777Y-15731265D01*
X10431777Y-15731265D02*
X10422253Y-15740789D01*
X10422253Y-15740789D02*
X10412729Y-15731265D01*
X10412729Y-15731265D02*
X10422253Y-15721741D01*
X10422253Y-15721741D02*
X10422253Y-15740789D01*
X10507967Y-15559836D02*
X10517491Y-15550313D01*
X10517491Y-15550313D02*
X10536539Y-15540789D01*
X10536539Y-15540789D02*
X10584158Y-15540789D01*
X10584158Y-15540789D02*
X10603205Y-15550313D01*
X10603205Y-15550313D02*
X10612729Y-15559836D01*
X10612729Y-15559836D02*
X10622253Y-15578884D01*
X10622253Y-15578884D02*
X10622253Y-15597932D01*
X10622253Y-15597932D02*
X10612729Y-15626503D01*
X10612729Y-15626503D02*
X10498444Y-15740789D01*
X10498444Y-15740789D02*
X10622253Y-15740789D01*
X10803205Y-15540789D02*
X10707967Y-15540789D01*
X10707967Y-15540789D02*
X10698444Y-15636027D01*
X10698444Y-15636027D02*
X10707967Y-15626503D01*
X10707967Y-15626503D02*
X10727015Y-15616979D01*
X10727015Y-15616979D02*
X10774634Y-15616979D01*
X10774634Y-15616979D02*
X10793682Y-15626503D01*
X10793682Y-15626503D02*
X10803205Y-15636027D01*
X10803205Y-15636027D02*
X10812729Y-15655074D01*
X10812729Y-15655074D02*
X10812729Y-15702693D01*
X10812729Y-15702693D02*
X10803205Y-15721741D01*
X10803205Y-15721741D02*
X10793682Y-15731265D01*
X10793682Y-15731265D02*
X10774634Y-15740789D01*
X10774634Y-15740789D02*
X10727015Y-15740789D01*
X10727015Y-15740789D02*
X10707967Y-15731265D01*
X10707967Y-15731265D02*
X10698444Y-15721741D01*
X10936539Y-15540789D02*
X10955586Y-15540789D01*
X10955586Y-15540789D02*
X10974634Y-15550313D01*
X10974634Y-15550313D02*
X10984158Y-15559836D01*
X10984158Y-15559836D02*
X10993682Y-15578884D01*
X10993682Y-15578884D02*
X11003205Y-15616979D01*
X11003205Y-15616979D02*
X11003205Y-15664598D01*
X11003205Y-15664598D02*
X10993682Y-15702693D01*
X10993682Y-15702693D02*
X10984158Y-15721741D01*
X10984158Y-15721741D02*
X10974634Y-15731265D01*
X10974634Y-15731265D02*
X10955586Y-15740789D01*
X10955586Y-15740789D02*
X10936539Y-15740789D01*
X10936539Y-15740789D02*
X10917491Y-15731265D01*
X10917491Y-15731265D02*
X10907967Y-15721741D01*
X10907967Y-15721741D02*
X10898444Y-15702693D01*
X10898444Y-15702693D02*
X10888920Y-15664598D01*
X10888920Y-15664598D02*
X10888920Y-15616979D01*
X10888920Y-15616979D02*
X10898444Y-15578884D01*
X10898444Y-15578884D02*
X10907967Y-15559836D01*
X10907967Y-15559836D02*
X10917491Y-15550313D01*
X10917491Y-15550313D02*
X10936539Y-15540789D01*
X11088920Y-15740789D02*
X11088920Y-15607455D01*
X11088920Y-15626503D02*
X11098444Y-15616979D01*
X11098444Y-15616979D02*
X11117491Y-15607455D01*
X11117491Y-15607455D02*
X11146063Y-15607455D01*
X11146063Y-15607455D02*
X11165110Y-15616979D01*
X11165110Y-15616979D02*
X11174634Y-15636027D01*
X11174634Y-15636027D02*
X11174634Y-15740789D01*
X11174634Y-15636027D02*
X11184158Y-15616979D01*
X11184158Y-15616979D02*
X11203205Y-15607455D01*
X11203205Y-15607455D02*
X11231777Y-15607455D01*
X11231777Y-15607455D02*
X11250824Y-15616979D01*
X11250824Y-15616979D02*
X11260348Y-15636027D01*
X11260348Y-15636027D02*
X11260348Y-15740789D01*
X11355586Y-15740789D02*
X11355586Y-15607455D01*
X11355586Y-15626503D02*
X11365110Y-15616979D01*
X11365110Y-15616979D02*
X11384158Y-15607455D01*
X11384158Y-15607455D02*
X11412729Y-15607455D01*
X11412729Y-15607455D02*
X11431777Y-15616979D01*
X11431777Y-15616979D02*
X11441301Y-15636027D01*
X11441301Y-15636027D02*
X11441301Y-15740789D01*
X11441301Y-15636027D02*
X11450824Y-15616979D01*
X11450824Y-15616979D02*
X11469872Y-15607455D01*
X11469872Y-15607455D02*
X11498443Y-15607455D01*
X11498443Y-15607455D02*
X11517491Y-15616979D01*
X11517491Y-15616979D02*
X11527015Y-15636027D01*
X11527015Y-15636027D02*
X11527015Y-15740789D01*
X11917491Y-15531265D02*
X11746063Y-15788408D01*
X12174634Y-15540789D02*
X12193682Y-15540789D01*
X12193682Y-15540789D02*
X12212729Y-15550313D01*
X12212729Y-15550313D02*
X12222253Y-15559836D01*
X12222253Y-15559836D02*
X12231777Y-15578884D01*
X12231777Y-15578884D02*
X12241301Y-15616979D01*
X12241301Y-15616979D02*
X12241301Y-15664598D01*
X12241301Y-15664598D02*
X12231777Y-15702693D01*
X12231777Y-15702693D02*
X12222253Y-15721741D01*
X12222253Y-15721741D02*
X12212729Y-15731265D01*
X12212729Y-15731265D02*
X12193682Y-15740789D01*
X12193682Y-15740789D02*
X12174634Y-15740789D01*
X12174634Y-15740789D02*
X12155586Y-15731265D01*
X12155586Y-15731265D02*
X12146063Y-15721741D01*
X12146063Y-15721741D02*
X12136539Y-15702693D01*
X12136539Y-15702693D02*
X12127015Y-15664598D01*
X12127015Y-15664598D02*
X12127015Y-15616979D01*
X12127015Y-15616979D02*
X12136539Y-15578884D01*
X12136539Y-15578884D02*
X12146063Y-15559836D01*
X12146063Y-15559836D02*
X12155586Y-15550313D01*
X12155586Y-15550313D02*
X12174634Y-15540789D01*
X12327015Y-15721741D02*
X12336539Y-15731265D01*
X12336539Y-15731265D02*
X12327015Y-15740789D01*
X12327015Y-15740789D02*
X12317491Y-15731265D01*
X12317491Y-15731265D02*
X12327015Y-15721741D01*
X12327015Y-15721741D02*
X12327015Y-15740789D01*
X12460348Y-15540789D02*
X12479396Y-15540789D01*
X12479396Y-15540789D02*
X12498444Y-15550313D01*
X12498444Y-15550313D02*
X12507967Y-15559836D01*
X12507967Y-15559836D02*
X12517491Y-15578884D01*
X12517491Y-15578884D02*
X12527015Y-15616979D01*
X12527015Y-15616979D02*
X12527015Y-15664598D01*
X12527015Y-15664598D02*
X12517491Y-15702693D01*
X12517491Y-15702693D02*
X12507967Y-15721741D01*
X12507967Y-15721741D02*
X12498444Y-15731265D01*
X12498444Y-15731265D02*
X12479396Y-15740789D01*
X12479396Y-15740789D02*
X12460348Y-15740789D01*
X12460348Y-15740789D02*
X12441301Y-15731265D01*
X12441301Y-15731265D02*
X12431777Y-15721741D01*
X12431777Y-15721741D02*
X12422253Y-15702693D01*
X12422253Y-15702693D02*
X12412729Y-15664598D01*
X12412729Y-15664598D02*
X12412729Y-15616979D01*
X12412729Y-15616979D02*
X12422253Y-15578884D01*
X12422253Y-15578884D02*
X12431777Y-15559836D01*
X12431777Y-15559836D02*
X12441301Y-15550313D01*
X12441301Y-15550313D02*
X12460348Y-15540789D01*
X12650825Y-15540789D02*
X12669872Y-15540789D01*
X12669872Y-15540789D02*
X12688920Y-15550313D01*
X12688920Y-15550313D02*
X12698444Y-15559836D01*
X12698444Y-15559836D02*
X12707967Y-15578884D01*
X12707967Y-15578884D02*
X12717491Y-15616979D01*
X12717491Y-15616979D02*
X12717491Y-15664598D01*
X12717491Y-15664598D02*
X12707967Y-15702693D01*
X12707967Y-15702693D02*
X12698444Y-15721741D01*
X12698444Y-15721741D02*
X12688920Y-15731265D01*
X12688920Y-15731265D02*
X12669872Y-15740789D01*
X12669872Y-15740789D02*
X12650825Y-15740789D01*
X12650825Y-15740789D02*
X12631777Y-15731265D01*
X12631777Y-15731265D02*
X12622253Y-15721741D01*
X12622253Y-15721741D02*
X12612729Y-15702693D01*
X12612729Y-15702693D02*
X12603206Y-15664598D01*
X12603206Y-15664598D02*
X12603206Y-15616979D01*
X12603206Y-15616979D02*
X12612729Y-15578884D01*
X12612729Y-15578884D02*
X12622253Y-15559836D01*
X12622253Y-15559836D02*
X12631777Y-15550313D01*
X12631777Y-15550313D02*
X12650825Y-15540789D01*
X12812729Y-15740789D02*
X12850825Y-15740789D01*
X12850825Y-15740789D02*
X12869872Y-15731265D01*
X12869872Y-15731265D02*
X12879396Y-15721741D01*
X12879396Y-15721741D02*
X12898444Y-15693170D01*
X12898444Y-15693170D02*
X12907967Y-15655074D01*
X12907967Y-15655074D02*
X12907967Y-15578884D01*
X12907967Y-15578884D02*
X12898444Y-15559836D01*
X12898444Y-15559836D02*
X12888920Y-15550313D01*
X12888920Y-15550313D02*
X12869872Y-15540789D01*
X12869872Y-15540789D02*
X12831777Y-15540789D01*
X12831777Y-15540789D02*
X12812729Y-15550313D01*
X12812729Y-15550313D02*
X12803206Y-15559836D01*
X12803206Y-15559836D02*
X12793682Y-15578884D01*
X12793682Y-15578884D02*
X12793682Y-15626503D01*
X12793682Y-15626503D02*
X12803206Y-15645551D01*
X12803206Y-15645551D02*
X12812729Y-15655074D01*
X12812729Y-15655074D02*
X12831777Y-15664598D01*
X12831777Y-15664598D02*
X12869872Y-15664598D01*
X12869872Y-15664598D02*
X12888920Y-15655074D01*
X12888920Y-15655074D02*
X12898444Y-15645551D01*
X12898444Y-15645551D02*
X12907967Y-15626503D01*
X13022253Y-15626503D02*
X13003206Y-15616979D01*
X13003206Y-15616979D02*
X12993682Y-15607455D01*
X12993682Y-15607455D02*
X12984158Y-15588408D01*
X12984158Y-15588408D02*
X12984158Y-15578884D01*
X12984158Y-15578884D02*
X12993682Y-15559836D01*
X12993682Y-15559836D02*
X13003206Y-15550313D01*
X13003206Y-15550313D02*
X13022253Y-15540789D01*
X13022253Y-15540789D02*
X13060348Y-15540789D01*
X13060348Y-15540789D02*
X13079396Y-15550313D01*
X13079396Y-15550313D02*
X13088920Y-15559836D01*
X13088920Y-15559836D02*
X13098444Y-15578884D01*
X13098444Y-15578884D02*
X13098444Y-15588408D01*
X13098444Y-15588408D02*
X13088920Y-15607455D01*
X13088920Y-15607455D02*
X13079396Y-15616979D01*
X13079396Y-15616979D02*
X13060348Y-15626503D01*
X13060348Y-15626503D02*
X13022253Y-15626503D01*
X13022253Y-15626503D02*
X13003206Y-15636027D01*
X13003206Y-15636027D02*
X12993682Y-15645551D01*
X12993682Y-15645551D02*
X12984158Y-15664598D01*
X12984158Y-15664598D02*
X12984158Y-15702693D01*
X12984158Y-15702693D02*
X12993682Y-15721741D01*
X12993682Y-15721741D02*
X13003206Y-15731265D01*
X13003206Y-15731265D02*
X13022253Y-15740789D01*
X13022253Y-15740789D02*
X13060348Y-15740789D01*
X13060348Y-15740789D02*
X13079396Y-15731265D01*
X13079396Y-15731265D02*
X13088920Y-15721741D01*
X13088920Y-15721741D02*
X13098444Y-15702693D01*
X13098444Y-15702693D02*
X13098444Y-15664598D01*
X13098444Y-15664598D02*
X13088920Y-15645551D01*
X13088920Y-15645551D02*
X13079396Y-15636027D01*
X13079396Y-15636027D02*
X13060348Y-15626503D01*
X13174634Y-15540789D02*
X13174634Y-15578884D01*
X13250825Y-15540789D02*
X13250825Y-15578884D01*
X13546063Y-15816979D02*
X13536539Y-15807455D01*
X13536539Y-15807455D02*
X13517491Y-15778884D01*
X13517491Y-15778884D02*
X13507968Y-15759836D01*
X13507968Y-15759836D02*
X13498444Y-15731265D01*
X13498444Y-15731265D02*
X13488920Y-15683646D01*
X13488920Y-15683646D02*
X13488920Y-15645551D01*
X13488920Y-15645551D02*
X13498444Y-15597932D01*
X13498444Y-15597932D02*
X13507968Y-15569360D01*
X13507968Y-15569360D02*
X13517491Y-15550313D01*
X13517491Y-15550313D02*
X13536539Y-15521741D01*
X13536539Y-15521741D02*
X13546063Y-15512217D01*
X13727015Y-15740789D02*
X13612729Y-15740789D01*
X13669872Y-15740789D02*
X13669872Y-15540789D01*
X13669872Y-15540789D02*
X13650825Y-15569360D01*
X13650825Y-15569360D02*
X13631777Y-15588408D01*
X13631777Y-15588408D02*
X13612729Y-15597932D01*
X13803206Y-15559836D02*
X13812729Y-15550313D01*
X13812729Y-15550313D02*
X13831777Y-15540789D01*
X13831777Y-15540789D02*
X13879396Y-15540789D01*
X13879396Y-15540789D02*
X13898444Y-15550313D01*
X13898444Y-15550313D02*
X13907968Y-15559836D01*
X13907968Y-15559836D02*
X13917491Y-15578884D01*
X13917491Y-15578884D02*
X13917491Y-15597932D01*
X13917491Y-15597932D02*
X13907968Y-15626503D01*
X13907968Y-15626503D02*
X13793682Y-15740789D01*
X13793682Y-15740789D02*
X13917491Y-15740789D01*
X14155587Y-15740789D02*
X14155587Y-15540789D01*
X14241301Y-15740789D02*
X14241301Y-15636027D01*
X14241301Y-15636027D02*
X14231777Y-15616979D01*
X14231777Y-15616979D02*
X14212730Y-15607455D01*
X14212730Y-15607455D02*
X14184158Y-15607455D01*
X14184158Y-15607455D02*
X14165110Y-15616979D01*
X14165110Y-15616979D02*
X14155587Y-15626503D01*
X14365110Y-15740789D02*
X14346063Y-15731265D01*
X14346063Y-15731265D02*
X14336539Y-15721741D01*
X14336539Y-15721741D02*
X14327015Y-15702693D01*
X14327015Y-15702693D02*
X14327015Y-15645551D01*
X14327015Y-15645551D02*
X14336539Y-15626503D01*
X14336539Y-15626503D02*
X14346063Y-15616979D01*
X14346063Y-15616979D02*
X14365110Y-15607455D01*
X14365110Y-15607455D02*
X14393682Y-15607455D01*
X14393682Y-15607455D02*
X14412730Y-15616979D01*
X14412730Y-15616979D02*
X14422253Y-15626503D01*
X14422253Y-15626503D02*
X14431777Y-15645551D01*
X14431777Y-15645551D02*
X14431777Y-15702693D01*
X14431777Y-15702693D02*
X14422253Y-15721741D01*
X14422253Y-15721741D02*
X14412730Y-15731265D01*
X14412730Y-15731265D02*
X14393682Y-15740789D01*
X14393682Y-15740789D02*
X14365110Y-15740789D01*
X14546063Y-15740789D02*
X14527015Y-15731265D01*
X14527015Y-15731265D02*
X14517491Y-15712217D01*
X14517491Y-15712217D02*
X14517491Y-15540789D01*
X14698444Y-15731265D02*
X14679396Y-15740789D01*
X14679396Y-15740789D02*
X14641301Y-15740789D01*
X14641301Y-15740789D02*
X14622253Y-15731265D01*
X14622253Y-15731265D02*
X14612730Y-15712217D01*
X14612730Y-15712217D02*
X14612730Y-15636027D01*
X14612730Y-15636027D02*
X14622253Y-15616979D01*
X14622253Y-15616979D02*
X14641301Y-15607455D01*
X14641301Y-15607455D02*
X14679396Y-15607455D01*
X14679396Y-15607455D02*
X14698444Y-15616979D01*
X14698444Y-15616979D02*
X14707968Y-15636027D01*
X14707968Y-15636027D02*
X14707968Y-15655074D01*
X14707968Y-15655074D02*
X14612730Y-15674122D01*
X14784158Y-15731265D02*
X14803206Y-15740789D01*
X14803206Y-15740789D02*
X14841301Y-15740789D01*
X14841301Y-15740789D02*
X14860349Y-15731265D01*
X14860349Y-15731265D02*
X14869872Y-15712217D01*
X14869872Y-15712217D02*
X14869872Y-15702693D01*
X14869872Y-15702693D02*
X14860349Y-15683646D01*
X14860349Y-15683646D02*
X14841301Y-15674122D01*
X14841301Y-15674122D02*
X14812730Y-15674122D01*
X14812730Y-15674122D02*
X14793682Y-15664598D01*
X14793682Y-15664598D02*
X14784158Y-15645551D01*
X14784158Y-15645551D02*
X14784158Y-15636027D01*
X14784158Y-15636027D02*
X14793682Y-15616979D01*
X14793682Y-15616979D02*
X14812730Y-15607455D01*
X14812730Y-15607455D02*
X14841301Y-15607455D01*
X14841301Y-15607455D02*
X14860349Y-15616979D01*
X14936539Y-15816979D02*
X14946063Y-15807455D01*
X14946063Y-15807455D02*
X14965111Y-15778884D01*
X14965111Y-15778884D02*
X14974634Y-15759836D01*
X14974634Y-15759836D02*
X14984158Y-15731265D01*
X14984158Y-15731265D02*
X14993682Y-15683646D01*
X14993682Y-15683646D02*
X14993682Y-15645551D01*
X14993682Y-15645551D02*
X14984158Y-15597932D01*
X14984158Y-15597932D02*
X14974634Y-15569360D01*
X14974634Y-15569360D02*
X14965111Y-15550313D01*
X14965111Y-15550313D02*
X14946063Y-15521741D01*
X14946063Y-15521741D02*
X14936539Y-15512217D01*
D11*
X9971000Y-15913305D02*
G75*
G02*
X9941000Y-15913305I-15000J0D01*
G01*
X9941000Y-15913305D02*
G75*
G02*
X9971000Y-15913305I15000J0D01*
G01*
D10*
X10269872Y-15804789D02*
X10288920Y-15804789D01*
X10288920Y-15804789D02*
X10307967Y-15814313D01*
X10307967Y-15814313D02*
X10317491Y-15823836D01*
X10317491Y-15823836D02*
X10327015Y-15842884D01*
X10327015Y-15842884D02*
X10336539Y-15880979D01*
X10336539Y-15880979D02*
X10336539Y-15928598D01*
X10336539Y-15928598D02*
X10327015Y-15966693D01*
X10327015Y-15966693D02*
X10317491Y-15985741D01*
X10317491Y-15985741D02*
X10307967Y-15995265D01*
X10307967Y-15995265D02*
X10288920Y-16004789D01*
X10288920Y-16004789D02*
X10269872Y-16004789D01*
X10269872Y-16004789D02*
X10250824Y-15995265D01*
X10250824Y-15995265D02*
X10241301Y-15985741D01*
X10241301Y-15985741D02*
X10231777Y-15966693D01*
X10231777Y-15966693D02*
X10222253Y-15928598D01*
X10222253Y-15928598D02*
X10222253Y-15880979D01*
X10222253Y-15880979D02*
X10231777Y-15842884D01*
X10231777Y-15842884D02*
X10241301Y-15823836D01*
X10241301Y-15823836D02*
X10250824Y-15814313D01*
X10250824Y-15814313D02*
X10269872Y-15804789D01*
X10422253Y-15985741D02*
X10431777Y-15995265D01*
X10431777Y-15995265D02*
X10422253Y-16004789D01*
X10422253Y-16004789D02*
X10412729Y-15995265D01*
X10412729Y-15995265D02*
X10422253Y-15985741D01*
X10422253Y-15985741D02*
X10422253Y-16004789D01*
X10498444Y-15804789D02*
X10622253Y-15804789D01*
X10622253Y-15804789D02*
X10555586Y-15880979D01*
X10555586Y-15880979D02*
X10584158Y-15880979D01*
X10584158Y-15880979D02*
X10603205Y-15890503D01*
X10603205Y-15890503D02*
X10612729Y-15900027D01*
X10612729Y-15900027D02*
X10622253Y-15919074D01*
X10622253Y-15919074D02*
X10622253Y-15966693D01*
X10622253Y-15966693D02*
X10612729Y-15985741D01*
X10612729Y-15985741D02*
X10603205Y-15995265D01*
X10603205Y-15995265D02*
X10584158Y-16004789D01*
X10584158Y-16004789D02*
X10527015Y-16004789D01*
X10527015Y-16004789D02*
X10507967Y-15995265D01*
X10507967Y-15995265D02*
X10498444Y-15985741D01*
X10746063Y-15804789D02*
X10765110Y-15804789D01*
X10765110Y-15804789D02*
X10784158Y-15814313D01*
X10784158Y-15814313D02*
X10793682Y-15823836D01*
X10793682Y-15823836D02*
X10803205Y-15842884D01*
X10803205Y-15842884D02*
X10812729Y-15880979D01*
X10812729Y-15880979D02*
X10812729Y-15928598D01*
X10812729Y-15928598D02*
X10803205Y-15966693D01*
X10803205Y-15966693D02*
X10793682Y-15985741D01*
X10793682Y-15985741D02*
X10784158Y-15995265D01*
X10784158Y-15995265D02*
X10765110Y-16004789D01*
X10765110Y-16004789D02*
X10746063Y-16004789D01*
X10746063Y-16004789D02*
X10727015Y-15995265D01*
X10727015Y-15995265D02*
X10717491Y-15985741D01*
X10717491Y-15985741D02*
X10707967Y-15966693D01*
X10707967Y-15966693D02*
X10698444Y-15928598D01*
X10698444Y-15928598D02*
X10698444Y-15880979D01*
X10698444Y-15880979D02*
X10707967Y-15842884D01*
X10707967Y-15842884D02*
X10717491Y-15823836D01*
X10717491Y-15823836D02*
X10727015Y-15814313D01*
X10727015Y-15814313D02*
X10746063Y-15804789D01*
X10936539Y-15804789D02*
X10955586Y-15804789D01*
X10955586Y-15804789D02*
X10974634Y-15814313D01*
X10974634Y-15814313D02*
X10984158Y-15823836D01*
X10984158Y-15823836D02*
X10993682Y-15842884D01*
X10993682Y-15842884D02*
X11003205Y-15880979D01*
X11003205Y-15880979D02*
X11003205Y-15928598D01*
X11003205Y-15928598D02*
X10993682Y-15966693D01*
X10993682Y-15966693D02*
X10984158Y-15985741D01*
X10984158Y-15985741D02*
X10974634Y-15995265D01*
X10974634Y-15995265D02*
X10955586Y-16004789D01*
X10955586Y-16004789D02*
X10936539Y-16004789D01*
X10936539Y-16004789D02*
X10917491Y-15995265D01*
X10917491Y-15995265D02*
X10907967Y-15985741D01*
X10907967Y-15985741D02*
X10898444Y-15966693D01*
X10898444Y-15966693D02*
X10888920Y-15928598D01*
X10888920Y-15928598D02*
X10888920Y-15880979D01*
X10888920Y-15880979D02*
X10898444Y-15842884D01*
X10898444Y-15842884D02*
X10907967Y-15823836D01*
X10907967Y-15823836D02*
X10917491Y-15814313D01*
X10917491Y-15814313D02*
X10936539Y-15804789D01*
X11088920Y-16004789D02*
X11088920Y-15871455D01*
X11088920Y-15890503D02*
X11098444Y-15880979D01*
X11098444Y-15880979D02*
X11117491Y-15871455D01*
X11117491Y-15871455D02*
X11146063Y-15871455D01*
X11146063Y-15871455D02*
X11165110Y-15880979D01*
X11165110Y-15880979D02*
X11174634Y-15900027D01*
X11174634Y-15900027D02*
X11174634Y-16004789D01*
X11174634Y-15900027D02*
X11184158Y-15880979D01*
X11184158Y-15880979D02*
X11203205Y-15871455D01*
X11203205Y-15871455D02*
X11231777Y-15871455D01*
X11231777Y-15871455D02*
X11250824Y-15880979D01*
X11250824Y-15880979D02*
X11260348Y-15900027D01*
X11260348Y-15900027D02*
X11260348Y-16004789D01*
X11355586Y-16004789D02*
X11355586Y-15871455D01*
X11355586Y-15890503D02*
X11365110Y-15880979D01*
X11365110Y-15880979D02*
X11384158Y-15871455D01*
X11384158Y-15871455D02*
X11412729Y-15871455D01*
X11412729Y-15871455D02*
X11431777Y-15880979D01*
X11431777Y-15880979D02*
X11441301Y-15900027D01*
X11441301Y-15900027D02*
X11441301Y-16004789D01*
X11441301Y-15900027D02*
X11450824Y-15880979D01*
X11450824Y-15880979D02*
X11469872Y-15871455D01*
X11469872Y-15871455D02*
X11498443Y-15871455D01*
X11498443Y-15871455D02*
X11517491Y-15880979D01*
X11517491Y-15880979D02*
X11527015Y-15900027D01*
X11527015Y-15900027D02*
X11527015Y-16004789D01*
X11917491Y-15795265D02*
X11746063Y-16052408D01*
X12174634Y-15804789D02*
X12193682Y-15804789D01*
X12193682Y-15804789D02*
X12212729Y-15814313D01*
X12212729Y-15814313D02*
X12222253Y-15823836D01*
X12222253Y-15823836D02*
X12231777Y-15842884D01*
X12231777Y-15842884D02*
X12241301Y-15880979D01*
X12241301Y-15880979D02*
X12241301Y-15928598D01*
X12241301Y-15928598D02*
X12231777Y-15966693D01*
X12231777Y-15966693D02*
X12222253Y-15985741D01*
X12222253Y-15985741D02*
X12212729Y-15995265D01*
X12212729Y-15995265D02*
X12193682Y-16004789D01*
X12193682Y-16004789D02*
X12174634Y-16004789D01*
X12174634Y-16004789D02*
X12155586Y-15995265D01*
X12155586Y-15995265D02*
X12146063Y-15985741D01*
X12146063Y-15985741D02*
X12136539Y-15966693D01*
X12136539Y-15966693D02*
X12127015Y-15928598D01*
X12127015Y-15928598D02*
X12127015Y-15880979D01*
X12127015Y-15880979D02*
X12136539Y-15842884D01*
X12136539Y-15842884D02*
X12146063Y-15823836D01*
X12146063Y-15823836D02*
X12155586Y-15814313D01*
X12155586Y-15814313D02*
X12174634Y-15804789D01*
X12327015Y-15985741D02*
X12336539Y-15995265D01*
X12336539Y-15995265D02*
X12327015Y-16004789D01*
X12327015Y-16004789D02*
X12317491Y-15995265D01*
X12317491Y-15995265D02*
X12327015Y-15985741D01*
X12327015Y-15985741D02*
X12327015Y-16004789D01*
X12460348Y-15804789D02*
X12479396Y-15804789D01*
X12479396Y-15804789D02*
X12498444Y-15814313D01*
X12498444Y-15814313D02*
X12507967Y-15823836D01*
X12507967Y-15823836D02*
X12517491Y-15842884D01*
X12517491Y-15842884D02*
X12527015Y-15880979D01*
X12527015Y-15880979D02*
X12527015Y-15928598D01*
X12527015Y-15928598D02*
X12517491Y-15966693D01*
X12517491Y-15966693D02*
X12507967Y-15985741D01*
X12507967Y-15985741D02*
X12498444Y-15995265D01*
X12498444Y-15995265D02*
X12479396Y-16004789D01*
X12479396Y-16004789D02*
X12460348Y-16004789D01*
X12460348Y-16004789D02*
X12441301Y-15995265D01*
X12441301Y-15995265D02*
X12431777Y-15985741D01*
X12431777Y-15985741D02*
X12422253Y-15966693D01*
X12422253Y-15966693D02*
X12412729Y-15928598D01*
X12412729Y-15928598D02*
X12412729Y-15880979D01*
X12412729Y-15880979D02*
X12422253Y-15842884D01*
X12422253Y-15842884D02*
X12431777Y-15823836D01*
X12431777Y-15823836D02*
X12441301Y-15814313D01*
X12441301Y-15814313D02*
X12460348Y-15804789D01*
X12717491Y-16004789D02*
X12603206Y-16004789D01*
X12660348Y-16004789D02*
X12660348Y-15804789D01*
X12660348Y-15804789D02*
X12641301Y-15833360D01*
X12641301Y-15833360D02*
X12622253Y-15852408D01*
X12622253Y-15852408D02*
X12603206Y-15861932D01*
X12907967Y-16004789D02*
X12793682Y-16004789D01*
X12850825Y-16004789D02*
X12850825Y-15804789D01*
X12850825Y-15804789D02*
X12831777Y-15833360D01*
X12831777Y-15833360D02*
X12812729Y-15852408D01*
X12812729Y-15852408D02*
X12793682Y-15861932D01*
X13022253Y-15890503D02*
X13003206Y-15880979D01*
X13003206Y-15880979D02*
X12993682Y-15871455D01*
X12993682Y-15871455D02*
X12984158Y-15852408D01*
X12984158Y-15852408D02*
X12984158Y-15842884D01*
X12984158Y-15842884D02*
X12993682Y-15823836D01*
X12993682Y-15823836D02*
X13003206Y-15814313D01*
X13003206Y-15814313D02*
X13022253Y-15804789D01*
X13022253Y-15804789D02*
X13060348Y-15804789D01*
X13060348Y-15804789D02*
X13079396Y-15814313D01*
X13079396Y-15814313D02*
X13088920Y-15823836D01*
X13088920Y-15823836D02*
X13098444Y-15842884D01*
X13098444Y-15842884D02*
X13098444Y-15852408D01*
X13098444Y-15852408D02*
X13088920Y-15871455D01*
X13088920Y-15871455D02*
X13079396Y-15880979D01*
X13079396Y-15880979D02*
X13060348Y-15890503D01*
X13060348Y-15890503D02*
X13022253Y-15890503D01*
X13022253Y-15890503D02*
X13003206Y-15900027D01*
X13003206Y-15900027D02*
X12993682Y-15909551D01*
X12993682Y-15909551D02*
X12984158Y-15928598D01*
X12984158Y-15928598D02*
X12984158Y-15966693D01*
X12984158Y-15966693D02*
X12993682Y-15985741D01*
X12993682Y-15985741D02*
X13003206Y-15995265D01*
X13003206Y-15995265D02*
X13022253Y-16004789D01*
X13022253Y-16004789D02*
X13060348Y-16004789D01*
X13060348Y-16004789D02*
X13079396Y-15995265D01*
X13079396Y-15995265D02*
X13088920Y-15985741D01*
X13088920Y-15985741D02*
X13098444Y-15966693D01*
X13098444Y-15966693D02*
X13098444Y-15928598D01*
X13098444Y-15928598D02*
X13088920Y-15909551D01*
X13088920Y-15909551D02*
X13079396Y-15900027D01*
X13079396Y-15900027D02*
X13060348Y-15890503D01*
X13174634Y-15804789D02*
X13174634Y-15842884D01*
X13250825Y-15804789D02*
X13250825Y-15842884D01*
X13546063Y-16080979D02*
X13536539Y-16071455D01*
X13536539Y-16071455D02*
X13517491Y-16042884D01*
X13517491Y-16042884D02*
X13507968Y-16023836D01*
X13507968Y-16023836D02*
X13498444Y-15995265D01*
X13498444Y-15995265D02*
X13488920Y-15947646D01*
X13488920Y-15947646D02*
X13488920Y-15909551D01*
X13488920Y-15909551D02*
X13498444Y-15861932D01*
X13498444Y-15861932D02*
X13507968Y-15833360D01*
X13507968Y-15833360D02*
X13517491Y-15814313D01*
X13517491Y-15814313D02*
X13536539Y-15785741D01*
X13536539Y-15785741D02*
X13546063Y-15776217D01*
X13727015Y-16004789D02*
X13612729Y-16004789D01*
X13669872Y-16004789D02*
X13669872Y-15804789D01*
X13669872Y-15804789D02*
X13650825Y-15833360D01*
X13650825Y-15833360D02*
X13631777Y-15852408D01*
X13631777Y-15852408D02*
X13612729Y-15861932D01*
X13822253Y-16004789D02*
X13860348Y-16004789D01*
X13860348Y-16004789D02*
X13879396Y-15995265D01*
X13879396Y-15995265D02*
X13888920Y-15985741D01*
X13888920Y-15985741D02*
X13907968Y-15957170D01*
X13907968Y-15957170D02*
X13917491Y-15919074D01*
X13917491Y-15919074D02*
X13917491Y-15842884D01*
X13917491Y-15842884D02*
X13907968Y-15823836D01*
X13907968Y-15823836D02*
X13898444Y-15814313D01*
X13898444Y-15814313D02*
X13879396Y-15804789D01*
X13879396Y-15804789D02*
X13841301Y-15804789D01*
X13841301Y-15804789D02*
X13822253Y-15814313D01*
X13822253Y-15814313D02*
X13812729Y-15823836D01*
X13812729Y-15823836D02*
X13803206Y-15842884D01*
X13803206Y-15842884D02*
X13803206Y-15890503D01*
X13803206Y-15890503D02*
X13812729Y-15909551D01*
X13812729Y-15909551D02*
X13822253Y-15919074D01*
X13822253Y-15919074D02*
X13841301Y-15928598D01*
X13841301Y-15928598D02*
X13879396Y-15928598D01*
X13879396Y-15928598D02*
X13898444Y-15919074D01*
X13898444Y-15919074D02*
X13907968Y-15909551D01*
X13907968Y-15909551D02*
X13917491Y-15890503D01*
X13984158Y-15804789D02*
X14117491Y-15804789D01*
X14117491Y-15804789D02*
X14031777Y-16004789D01*
X14346063Y-16004789D02*
X14346063Y-15804789D01*
X14431777Y-16004789D02*
X14431777Y-15900027D01*
X14431777Y-15900027D02*
X14422253Y-15880979D01*
X14422253Y-15880979D02*
X14403206Y-15871455D01*
X14403206Y-15871455D02*
X14374634Y-15871455D01*
X14374634Y-15871455D02*
X14355587Y-15880979D01*
X14355587Y-15880979D02*
X14346063Y-15890503D01*
X14555587Y-16004789D02*
X14536539Y-15995265D01*
X14536539Y-15995265D02*
X14527015Y-15985741D01*
X14527015Y-15985741D02*
X14517491Y-15966693D01*
X14517491Y-15966693D02*
X14517491Y-15909551D01*
X14517491Y-15909551D02*
X14527015Y-15890503D01*
X14527015Y-15890503D02*
X14536539Y-15880979D01*
X14536539Y-15880979D02*
X14555587Y-15871455D01*
X14555587Y-15871455D02*
X14584158Y-15871455D01*
X14584158Y-15871455D02*
X14603206Y-15880979D01*
X14603206Y-15880979D02*
X14612730Y-15890503D01*
X14612730Y-15890503D02*
X14622253Y-15909551D01*
X14622253Y-15909551D02*
X14622253Y-15966693D01*
X14622253Y-15966693D02*
X14612730Y-15985741D01*
X14612730Y-15985741D02*
X14603206Y-15995265D01*
X14603206Y-15995265D02*
X14584158Y-16004789D01*
X14584158Y-16004789D02*
X14555587Y-16004789D01*
X14736539Y-16004789D02*
X14717491Y-15995265D01*
X14717491Y-15995265D02*
X14707968Y-15976217D01*
X14707968Y-15976217D02*
X14707968Y-15804789D01*
X14888920Y-15995265D02*
X14869872Y-16004789D01*
X14869872Y-16004789D02*
X14831777Y-16004789D01*
X14831777Y-16004789D02*
X14812730Y-15995265D01*
X14812730Y-15995265D02*
X14803206Y-15976217D01*
X14803206Y-15976217D02*
X14803206Y-15900027D01*
X14803206Y-15900027D02*
X14812730Y-15880979D01*
X14812730Y-15880979D02*
X14831777Y-15871455D01*
X14831777Y-15871455D02*
X14869872Y-15871455D01*
X14869872Y-15871455D02*
X14888920Y-15880979D01*
X14888920Y-15880979D02*
X14898444Y-15900027D01*
X14898444Y-15900027D02*
X14898444Y-15919074D01*
X14898444Y-15919074D02*
X14803206Y-15938122D01*
X14974634Y-15995265D02*
X14993682Y-16004789D01*
X14993682Y-16004789D02*
X15031777Y-16004789D01*
X15031777Y-16004789D02*
X15050825Y-15995265D01*
X15050825Y-15995265D02*
X15060349Y-15976217D01*
X15060349Y-15976217D02*
X15060349Y-15966693D01*
X15060349Y-15966693D02*
X15050825Y-15947646D01*
X15050825Y-15947646D02*
X15031777Y-15938122D01*
X15031777Y-15938122D02*
X15003206Y-15938122D01*
X15003206Y-15938122D02*
X14984158Y-15928598D01*
X14984158Y-15928598D02*
X14974634Y-15909551D01*
X14974634Y-15909551D02*
X14974634Y-15900027D01*
X14974634Y-15900027D02*
X14984158Y-15880979D01*
X14984158Y-15880979D02*
X15003206Y-15871455D01*
X15003206Y-15871455D02*
X15031777Y-15871455D01*
X15031777Y-15871455D02*
X15050825Y-15880979D01*
X15127015Y-16080979D02*
X15136539Y-16071455D01*
X15136539Y-16071455D02*
X15155587Y-16042884D01*
X15155587Y-16042884D02*
X15165111Y-16023836D01*
X15165111Y-16023836D02*
X15174634Y-15995265D01*
X15174634Y-15995265D02*
X15184158Y-15947646D01*
X15184158Y-15947646D02*
X15184158Y-15909551D01*
X15184158Y-15909551D02*
X15174634Y-15861932D01*
X15174634Y-15861932D02*
X15165111Y-15833360D01*
X15165111Y-15833360D02*
X15155587Y-15814313D01*
X15155587Y-15814313D02*
X15136539Y-15785741D01*
X15136539Y-15785741D02*
X15127015Y-15776217D01*
D11*
X9941000Y-16147305D02*
X9941000Y-16207305D01*
X9911000Y-16177305D02*
X9971000Y-16177305D01*
D10*
X10269872Y-16068789D02*
X10288920Y-16068789D01*
X10288920Y-16068789D02*
X10307967Y-16078313D01*
X10307967Y-16078313D02*
X10317491Y-16087836D01*
X10317491Y-16087836D02*
X10327015Y-16106884D01*
X10327015Y-16106884D02*
X10336539Y-16144979D01*
X10336539Y-16144979D02*
X10336539Y-16192598D01*
X10336539Y-16192598D02*
X10327015Y-16230693D01*
X10327015Y-16230693D02*
X10317491Y-16249741D01*
X10317491Y-16249741D02*
X10307967Y-16259265D01*
X10307967Y-16259265D02*
X10288920Y-16268789D01*
X10288920Y-16268789D02*
X10269872Y-16268789D01*
X10269872Y-16268789D02*
X10250824Y-16259265D01*
X10250824Y-16259265D02*
X10241301Y-16249741D01*
X10241301Y-16249741D02*
X10231777Y-16230693D01*
X10231777Y-16230693D02*
X10222253Y-16192598D01*
X10222253Y-16192598D02*
X10222253Y-16144979D01*
X10222253Y-16144979D02*
X10231777Y-16106884D01*
X10231777Y-16106884D02*
X10241301Y-16087836D01*
X10241301Y-16087836D02*
X10250824Y-16078313D01*
X10250824Y-16078313D02*
X10269872Y-16068789D01*
X10422253Y-16249741D02*
X10431777Y-16259265D01*
X10431777Y-16259265D02*
X10422253Y-16268789D01*
X10422253Y-16268789D02*
X10412729Y-16259265D01*
X10412729Y-16259265D02*
X10422253Y-16249741D01*
X10422253Y-16249741D02*
X10422253Y-16268789D01*
X10603205Y-16068789D02*
X10565110Y-16068789D01*
X10565110Y-16068789D02*
X10546063Y-16078313D01*
X10546063Y-16078313D02*
X10536539Y-16087836D01*
X10536539Y-16087836D02*
X10517491Y-16116408D01*
X10517491Y-16116408D02*
X10507967Y-16154503D01*
X10507967Y-16154503D02*
X10507967Y-16230693D01*
X10507967Y-16230693D02*
X10517491Y-16249741D01*
X10517491Y-16249741D02*
X10527015Y-16259265D01*
X10527015Y-16259265D02*
X10546063Y-16268789D01*
X10546063Y-16268789D02*
X10584158Y-16268789D01*
X10584158Y-16268789D02*
X10603205Y-16259265D01*
X10603205Y-16259265D02*
X10612729Y-16249741D01*
X10612729Y-16249741D02*
X10622253Y-16230693D01*
X10622253Y-16230693D02*
X10622253Y-16183074D01*
X10622253Y-16183074D02*
X10612729Y-16164027D01*
X10612729Y-16164027D02*
X10603205Y-16154503D01*
X10603205Y-16154503D02*
X10584158Y-16144979D01*
X10584158Y-16144979D02*
X10546063Y-16144979D01*
X10546063Y-16144979D02*
X10527015Y-16154503D01*
X10527015Y-16154503D02*
X10517491Y-16164027D01*
X10517491Y-16164027D02*
X10507967Y-16183074D01*
X10746063Y-16068789D02*
X10765110Y-16068789D01*
X10765110Y-16068789D02*
X10784158Y-16078313D01*
X10784158Y-16078313D02*
X10793682Y-16087836D01*
X10793682Y-16087836D02*
X10803205Y-16106884D01*
X10803205Y-16106884D02*
X10812729Y-16144979D01*
X10812729Y-16144979D02*
X10812729Y-16192598D01*
X10812729Y-16192598D02*
X10803205Y-16230693D01*
X10803205Y-16230693D02*
X10793682Y-16249741D01*
X10793682Y-16249741D02*
X10784158Y-16259265D01*
X10784158Y-16259265D02*
X10765110Y-16268789D01*
X10765110Y-16268789D02*
X10746063Y-16268789D01*
X10746063Y-16268789D02*
X10727015Y-16259265D01*
X10727015Y-16259265D02*
X10717491Y-16249741D01*
X10717491Y-16249741D02*
X10707967Y-16230693D01*
X10707967Y-16230693D02*
X10698444Y-16192598D01*
X10698444Y-16192598D02*
X10698444Y-16144979D01*
X10698444Y-16144979D02*
X10707967Y-16106884D01*
X10707967Y-16106884D02*
X10717491Y-16087836D01*
X10717491Y-16087836D02*
X10727015Y-16078313D01*
X10727015Y-16078313D02*
X10746063Y-16068789D01*
X10936539Y-16068789D02*
X10955586Y-16068789D01*
X10955586Y-16068789D02*
X10974634Y-16078313D01*
X10974634Y-16078313D02*
X10984158Y-16087836D01*
X10984158Y-16087836D02*
X10993682Y-16106884D01*
X10993682Y-16106884D02*
X11003205Y-16144979D01*
X11003205Y-16144979D02*
X11003205Y-16192598D01*
X11003205Y-16192598D02*
X10993682Y-16230693D01*
X10993682Y-16230693D02*
X10984158Y-16249741D01*
X10984158Y-16249741D02*
X10974634Y-16259265D01*
X10974634Y-16259265D02*
X10955586Y-16268789D01*
X10955586Y-16268789D02*
X10936539Y-16268789D01*
X10936539Y-16268789D02*
X10917491Y-16259265D01*
X10917491Y-16259265D02*
X10907967Y-16249741D01*
X10907967Y-16249741D02*
X10898444Y-16230693D01*
X10898444Y-16230693D02*
X10888920Y-16192598D01*
X10888920Y-16192598D02*
X10888920Y-16144979D01*
X10888920Y-16144979D02*
X10898444Y-16106884D01*
X10898444Y-16106884D02*
X10907967Y-16087836D01*
X10907967Y-16087836D02*
X10917491Y-16078313D01*
X10917491Y-16078313D02*
X10936539Y-16068789D01*
X11088920Y-16268789D02*
X11088920Y-16135455D01*
X11088920Y-16154503D02*
X11098444Y-16144979D01*
X11098444Y-16144979D02*
X11117491Y-16135455D01*
X11117491Y-16135455D02*
X11146063Y-16135455D01*
X11146063Y-16135455D02*
X11165110Y-16144979D01*
X11165110Y-16144979D02*
X11174634Y-16164027D01*
X11174634Y-16164027D02*
X11174634Y-16268789D01*
X11174634Y-16164027D02*
X11184158Y-16144979D01*
X11184158Y-16144979D02*
X11203205Y-16135455D01*
X11203205Y-16135455D02*
X11231777Y-16135455D01*
X11231777Y-16135455D02*
X11250824Y-16144979D01*
X11250824Y-16144979D02*
X11260348Y-16164027D01*
X11260348Y-16164027D02*
X11260348Y-16268789D01*
X11355586Y-16268789D02*
X11355586Y-16135455D01*
X11355586Y-16154503D02*
X11365110Y-16144979D01*
X11365110Y-16144979D02*
X11384158Y-16135455D01*
X11384158Y-16135455D02*
X11412729Y-16135455D01*
X11412729Y-16135455D02*
X11431777Y-16144979D01*
X11431777Y-16144979D02*
X11441301Y-16164027D01*
X11441301Y-16164027D02*
X11441301Y-16268789D01*
X11441301Y-16164027D02*
X11450824Y-16144979D01*
X11450824Y-16144979D02*
X11469872Y-16135455D01*
X11469872Y-16135455D02*
X11498443Y-16135455D01*
X11498443Y-16135455D02*
X11517491Y-16144979D01*
X11517491Y-16144979D02*
X11527015Y-16164027D01*
X11527015Y-16164027D02*
X11527015Y-16268789D01*
X11917491Y-16059265D02*
X11746063Y-16316408D01*
X12174634Y-16068789D02*
X12193682Y-16068789D01*
X12193682Y-16068789D02*
X12212729Y-16078313D01*
X12212729Y-16078313D02*
X12222253Y-16087836D01*
X12222253Y-16087836D02*
X12231777Y-16106884D01*
X12231777Y-16106884D02*
X12241301Y-16144979D01*
X12241301Y-16144979D02*
X12241301Y-16192598D01*
X12241301Y-16192598D02*
X12231777Y-16230693D01*
X12231777Y-16230693D02*
X12222253Y-16249741D01*
X12222253Y-16249741D02*
X12212729Y-16259265D01*
X12212729Y-16259265D02*
X12193682Y-16268789D01*
X12193682Y-16268789D02*
X12174634Y-16268789D01*
X12174634Y-16268789D02*
X12155586Y-16259265D01*
X12155586Y-16259265D02*
X12146063Y-16249741D01*
X12146063Y-16249741D02*
X12136539Y-16230693D01*
X12136539Y-16230693D02*
X12127015Y-16192598D01*
X12127015Y-16192598D02*
X12127015Y-16144979D01*
X12127015Y-16144979D02*
X12136539Y-16106884D01*
X12136539Y-16106884D02*
X12146063Y-16087836D01*
X12146063Y-16087836D02*
X12155586Y-16078313D01*
X12155586Y-16078313D02*
X12174634Y-16068789D01*
X12327015Y-16249741D02*
X12336539Y-16259265D01*
X12336539Y-16259265D02*
X12327015Y-16268789D01*
X12327015Y-16268789D02*
X12317491Y-16259265D01*
X12317491Y-16259265D02*
X12327015Y-16249741D01*
X12327015Y-16249741D02*
X12327015Y-16268789D01*
X12460348Y-16068789D02*
X12479396Y-16068789D01*
X12479396Y-16068789D02*
X12498444Y-16078313D01*
X12498444Y-16078313D02*
X12507967Y-16087836D01*
X12507967Y-16087836D02*
X12517491Y-16106884D01*
X12517491Y-16106884D02*
X12527015Y-16144979D01*
X12527015Y-16144979D02*
X12527015Y-16192598D01*
X12527015Y-16192598D02*
X12517491Y-16230693D01*
X12517491Y-16230693D02*
X12507967Y-16249741D01*
X12507967Y-16249741D02*
X12498444Y-16259265D01*
X12498444Y-16259265D02*
X12479396Y-16268789D01*
X12479396Y-16268789D02*
X12460348Y-16268789D01*
X12460348Y-16268789D02*
X12441301Y-16259265D01*
X12441301Y-16259265D02*
X12431777Y-16249741D01*
X12431777Y-16249741D02*
X12422253Y-16230693D01*
X12422253Y-16230693D02*
X12412729Y-16192598D01*
X12412729Y-16192598D02*
X12412729Y-16144979D01*
X12412729Y-16144979D02*
X12422253Y-16106884D01*
X12422253Y-16106884D02*
X12431777Y-16087836D01*
X12431777Y-16087836D02*
X12441301Y-16078313D01*
X12441301Y-16078313D02*
X12460348Y-16068789D01*
X12603206Y-16087836D02*
X12612729Y-16078313D01*
X12612729Y-16078313D02*
X12631777Y-16068789D01*
X12631777Y-16068789D02*
X12679396Y-16068789D01*
X12679396Y-16068789D02*
X12698444Y-16078313D01*
X12698444Y-16078313D02*
X12707967Y-16087836D01*
X12707967Y-16087836D02*
X12717491Y-16106884D01*
X12717491Y-16106884D02*
X12717491Y-16125932D01*
X12717491Y-16125932D02*
X12707967Y-16154503D01*
X12707967Y-16154503D02*
X12593682Y-16268789D01*
X12593682Y-16268789D02*
X12717491Y-16268789D01*
X12784158Y-16068789D02*
X12907967Y-16068789D01*
X12907967Y-16068789D02*
X12841301Y-16144979D01*
X12841301Y-16144979D02*
X12869872Y-16144979D01*
X12869872Y-16144979D02*
X12888920Y-16154503D01*
X12888920Y-16154503D02*
X12898444Y-16164027D01*
X12898444Y-16164027D02*
X12907967Y-16183074D01*
X12907967Y-16183074D02*
X12907967Y-16230693D01*
X12907967Y-16230693D02*
X12898444Y-16249741D01*
X12898444Y-16249741D02*
X12888920Y-16259265D01*
X12888920Y-16259265D02*
X12869872Y-16268789D01*
X12869872Y-16268789D02*
X12812729Y-16268789D01*
X12812729Y-16268789D02*
X12793682Y-16259265D01*
X12793682Y-16259265D02*
X12784158Y-16249741D01*
X13079396Y-16068789D02*
X13041301Y-16068789D01*
X13041301Y-16068789D02*
X13022253Y-16078313D01*
X13022253Y-16078313D02*
X13012729Y-16087836D01*
X13012729Y-16087836D02*
X12993682Y-16116408D01*
X12993682Y-16116408D02*
X12984158Y-16154503D01*
X12984158Y-16154503D02*
X12984158Y-16230693D01*
X12984158Y-16230693D02*
X12993682Y-16249741D01*
X12993682Y-16249741D02*
X13003206Y-16259265D01*
X13003206Y-16259265D02*
X13022253Y-16268789D01*
X13022253Y-16268789D02*
X13060348Y-16268789D01*
X13060348Y-16268789D02*
X13079396Y-16259265D01*
X13079396Y-16259265D02*
X13088920Y-16249741D01*
X13088920Y-16249741D02*
X13098444Y-16230693D01*
X13098444Y-16230693D02*
X13098444Y-16183074D01*
X13098444Y-16183074D02*
X13088920Y-16164027D01*
X13088920Y-16164027D02*
X13079396Y-16154503D01*
X13079396Y-16154503D02*
X13060348Y-16144979D01*
X13060348Y-16144979D02*
X13022253Y-16144979D01*
X13022253Y-16144979D02*
X13003206Y-16154503D01*
X13003206Y-16154503D02*
X12993682Y-16164027D01*
X12993682Y-16164027D02*
X12984158Y-16183074D01*
X13174634Y-16068789D02*
X13174634Y-16106884D01*
X13250825Y-16068789D02*
X13250825Y-16106884D01*
X13546063Y-16344979D02*
X13536539Y-16335455D01*
X13536539Y-16335455D02*
X13517491Y-16306884D01*
X13517491Y-16306884D02*
X13507968Y-16287836D01*
X13507968Y-16287836D02*
X13498444Y-16259265D01*
X13498444Y-16259265D02*
X13488920Y-16211646D01*
X13488920Y-16211646D02*
X13488920Y-16173551D01*
X13488920Y-16173551D02*
X13498444Y-16125932D01*
X13498444Y-16125932D02*
X13507968Y-16097360D01*
X13507968Y-16097360D02*
X13517491Y-16078313D01*
X13517491Y-16078313D02*
X13536539Y-16049741D01*
X13536539Y-16049741D02*
X13546063Y-16040217D01*
X13660348Y-16068789D02*
X13679396Y-16068789D01*
X13679396Y-16068789D02*
X13698444Y-16078313D01*
X13698444Y-16078313D02*
X13707968Y-16087836D01*
X13707968Y-16087836D02*
X13717491Y-16106884D01*
X13717491Y-16106884D02*
X13727015Y-16144979D01*
X13727015Y-16144979D02*
X13727015Y-16192598D01*
X13727015Y-16192598D02*
X13717491Y-16230693D01*
X13717491Y-16230693D02*
X13707968Y-16249741D01*
X13707968Y-16249741D02*
X13698444Y-16259265D01*
X13698444Y-16259265D02*
X13679396Y-16268789D01*
X13679396Y-16268789D02*
X13660348Y-16268789D01*
X13660348Y-16268789D02*
X13641301Y-16259265D01*
X13641301Y-16259265D02*
X13631777Y-16249741D01*
X13631777Y-16249741D02*
X13622253Y-16230693D01*
X13622253Y-16230693D02*
X13612729Y-16192598D01*
X13612729Y-16192598D02*
X13612729Y-16144979D01*
X13612729Y-16144979D02*
X13622253Y-16106884D01*
X13622253Y-16106884D02*
X13631777Y-16087836D01*
X13631777Y-16087836D02*
X13641301Y-16078313D01*
X13641301Y-16078313D02*
X13660348Y-16068789D01*
X13965110Y-16268789D02*
X13965110Y-16068789D01*
X14050825Y-16268789D02*
X14050825Y-16164027D01*
X14050825Y-16164027D02*
X14041301Y-16144979D01*
X14041301Y-16144979D02*
X14022253Y-16135455D01*
X14022253Y-16135455D02*
X13993682Y-16135455D01*
X13993682Y-16135455D02*
X13974634Y-16144979D01*
X13974634Y-16144979D02*
X13965110Y-16154503D01*
X14174634Y-16268789D02*
X14155587Y-16259265D01*
X14155587Y-16259265D02*
X14146063Y-16249741D01*
X14146063Y-16249741D02*
X14136539Y-16230693D01*
X14136539Y-16230693D02*
X14136539Y-16173551D01*
X14136539Y-16173551D02*
X14146063Y-16154503D01*
X14146063Y-16154503D02*
X14155587Y-16144979D01*
X14155587Y-16144979D02*
X14174634Y-16135455D01*
X14174634Y-16135455D02*
X14203206Y-16135455D01*
X14203206Y-16135455D02*
X14222253Y-16144979D01*
X14222253Y-16144979D02*
X14231777Y-16154503D01*
X14231777Y-16154503D02*
X14241301Y-16173551D01*
X14241301Y-16173551D02*
X14241301Y-16230693D01*
X14241301Y-16230693D02*
X14231777Y-16249741D01*
X14231777Y-16249741D02*
X14222253Y-16259265D01*
X14222253Y-16259265D02*
X14203206Y-16268789D01*
X14203206Y-16268789D02*
X14174634Y-16268789D01*
X14355587Y-16268789D02*
X14336539Y-16259265D01*
X14336539Y-16259265D02*
X14327015Y-16240217D01*
X14327015Y-16240217D02*
X14327015Y-16068789D01*
X14507968Y-16259265D02*
X14488920Y-16268789D01*
X14488920Y-16268789D02*
X14450825Y-16268789D01*
X14450825Y-16268789D02*
X14431777Y-16259265D01*
X14431777Y-16259265D02*
X14422253Y-16240217D01*
X14422253Y-16240217D02*
X14422253Y-16164027D01*
X14422253Y-16164027D02*
X14431777Y-16144979D01*
X14431777Y-16144979D02*
X14450825Y-16135455D01*
X14450825Y-16135455D02*
X14488920Y-16135455D01*
X14488920Y-16135455D02*
X14507968Y-16144979D01*
X14507968Y-16144979D02*
X14517491Y-16164027D01*
X14517491Y-16164027D02*
X14517491Y-16183074D01*
X14517491Y-16183074D02*
X14422253Y-16202122D01*
X14593682Y-16259265D02*
X14612730Y-16268789D01*
X14612730Y-16268789D02*
X14650825Y-16268789D01*
X14650825Y-16268789D02*
X14669872Y-16259265D01*
X14669872Y-16259265D02*
X14679396Y-16240217D01*
X14679396Y-16240217D02*
X14679396Y-16230693D01*
X14679396Y-16230693D02*
X14669872Y-16211646D01*
X14669872Y-16211646D02*
X14650825Y-16202122D01*
X14650825Y-16202122D02*
X14622253Y-16202122D01*
X14622253Y-16202122D02*
X14603206Y-16192598D01*
X14603206Y-16192598D02*
X14593682Y-16173551D01*
X14593682Y-16173551D02*
X14593682Y-16164027D01*
X14593682Y-16164027D02*
X14603206Y-16144979D01*
X14603206Y-16144979D02*
X14622253Y-16135455D01*
X14622253Y-16135455D02*
X14650825Y-16135455D01*
X14650825Y-16135455D02*
X14669872Y-16144979D01*
X14917492Y-16192598D02*
X15069873Y-16192598D01*
X14993682Y-16268789D02*
X14993682Y-16116408D01*
X15403206Y-16135455D02*
X15403206Y-16268789D01*
X15355587Y-16059265D02*
X15307968Y-16202122D01*
X15307968Y-16202122D02*
X15431777Y-16202122D01*
X15650825Y-16259265D02*
X15669873Y-16268789D01*
X15669873Y-16268789D02*
X15707968Y-16268789D01*
X15707968Y-16268789D02*
X15727015Y-16259265D01*
X15727015Y-16259265D02*
X15736539Y-16240217D01*
X15736539Y-16240217D02*
X15736539Y-16230693D01*
X15736539Y-16230693D02*
X15727015Y-16211646D01*
X15727015Y-16211646D02*
X15707968Y-16202122D01*
X15707968Y-16202122D02*
X15679396Y-16202122D01*
X15679396Y-16202122D02*
X15660349Y-16192598D01*
X15660349Y-16192598D02*
X15650825Y-16173551D01*
X15650825Y-16173551D02*
X15650825Y-16164027D01*
X15650825Y-16164027D02*
X15660349Y-16144979D01*
X15660349Y-16144979D02*
X15679396Y-16135455D01*
X15679396Y-16135455D02*
X15707968Y-16135455D01*
X15707968Y-16135455D02*
X15727015Y-16144979D01*
X15850825Y-16268789D02*
X15831777Y-16259265D01*
X15831777Y-16259265D02*
X15822254Y-16240217D01*
X15822254Y-16240217D02*
X15822254Y-16068789D01*
X15955587Y-16268789D02*
X15936539Y-16259265D01*
X15936539Y-16259265D02*
X15927015Y-16249741D01*
X15927015Y-16249741D02*
X15917492Y-16230693D01*
X15917492Y-16230693D02*
X15917492Y-16173551D01*
X15917492Y-16173551D02*
X15927015Y-16154503D01*
X15927015Y-16154503D02*
X15936539Y-16144979D01*
X15936539Y-16144979D02*
X15955587Y-16135455D01*
X15955587Y-16135455D02*
X15984158Y-16135455D01*
X15984158Y-16135455D02*
X16003206Y-16144979D01*
X16003206Y-16144979D02*
X16012730Y-16154503D01*
X16012730Y-16154503D02*
X16022254Y-16173551D01*
X16022254Y-16173551D02*
X16022254Y-16230693D01*
X16022254Y-16230693D02*
X16012730Y-16249741D01*
X16012730Y-16249741D02*
X16003206Y-16259265D01*
X16003206Y-16259265D02*
X15984158Y-16268789D01*
X15984158Y-16268789D02*
X15955587Y-16268789D01*
X16079396Y-16135455D02*
X16155587Y-16135455D01*
X16107968Y-16068789D02*
X16107968Y-16240217D01*
X16107968Y-16240217D02*
X16117492Y-16259265D01*
X16117492Y-16259265D02*
X16136539Y-16268789D01*
X16136539Y-16268789D02*
X16155587Y-16268789D01*
X16212730Y-16259265D02*
X16231777Y-16268789D01*
X16231777Y-16268789D02*
X16269873Y-16268789D01*
X16269873Y-16268789D02*
X16288920Y-16259265D01*
X16288920Y-16259265D02*
X16298444Y-16240217D01*
X16298444Y-16240217D02*
X16298444Y-16230693D01*
X16298444Y-16230693D02*
X16288920Y-16211646D01*
X16288920Y-16211646D02*
X16269873Y-16202122D01*
X16269873Y-16202122D02*
X16241301Y-16202122D01*
X16241301Y-16202122D02*
X16222254Y-16192598D01*
X16222254Y-16192598D02*
X16212730Y-16173551D01*
X16212730Y-16173551D02*
X16212730Y-16164027D01*
X16212730Y-16164027D02*
X16222254Y-16144979D01*
X16222254Y-16144979D02*
X16241301Y-16135455D01*
X16241301Y-16135455D02*
X16269873Y-16135455D01*
X16269873Y-16135455D02*
X16288920Y-16144979D01*
X16365111Y-16344979D02*
X16374635Y-16335455D01*
X16374635Y-16335455D02*
X16393682Y-16306884D01*
X16393682Y-16306884D02*
X16403206Y-16287836D01*
X16403206Y-16287836D02*
X16412730Y-16259265D01*
X16412730Y-16259265D02*
X16422254Y-16211646D01*
X16422254Y-16211646D02*
X16422254Y-16173551D01*
X16422254Y-16173551D02*
X16412730Y-16125932D01*
X16412730Y-16125932D02*
X16403206Y-16097360D01*
X16403206Y-16097360D02*
X16393682Y-16078313D01*
X16393682Y-16078313D02*
X16374635Y-16049741D01*
X16374635Y-16049741D02*
X16365111Y-16040217D01*
D11*
X9956356Y-16476661D02*
X9956356Y-16405949D01*
X9885644Y-16405949D01*
X9885644Y-16476661D01*
X9956356Y-16476661D01*
D10*
X10336539Y-16532789D02*
X10222253Y-16532789D01*
X10279396Y-16532789D02*
X10279396Y-16332789D01*
X10279396Y-16332789D02*
X10260348Y-16361360D01*
X10260348Y-16361360D02*
X10241301Y-16380408D01*
X10241301Y-16380408D02*
X10222253Y-16389932D01*
X10422253Y-16513741D02*
X10431777Y-16523265D01*
X10431777Y-16523265D02*
X10422253Y-16532789D01*
X10422253Y-16532789D02*
X10412729Y-16523265D01*
X10412729Y-16523265D02*
X10422253Y-16513741D01*
X10422253Y-16513741D02*
X10422253Y-16532789D01*
X10555586Y-16332789D02*
X10574634Y-16332789D01*
X10574634Y-16332789D02*
X10593682Y-16342313D01*
X10593682Y-16342313D02*
X10603205Y-16351836D01*
X10603205Y-16351836D02*
X10612729Y-16370884D01*
X10612729Y-16370884D02*
X10622253Y-16408979D01*
X10622253Y-16408979D02*
X10622253Y-16456598D01*
X10622253Y-16456598D02*
X10612729Y-16494693D01*
X10612729Y-16494693D02*
X10603205Y-16513741D01*
X10603205Y-16513741D02*
X10593682Y-16523265D01*
X10593682Y-16523265D02*
X10574634Y-16532789D01*
X10574634Y-16532789D02*
X10555586Y-16532789D01*
X10555586Y-16532789D02*
X10536539Y-16523265D01*
X10536539Y-16523265D02*
X10527015Y-16513741D01*
X10527015Y-16513741D02*
X10517491Y-16494693D01*
X10517491Y-16494693D02*
X10507967Y-16456598D01*
X10507967Y-16456598D02*
X10507967Y-16408979D01*
X10507967Y-16408979D02*
X10517491Y-16370884D01*
X10517491Y-16370884D02*
X10527015Y-16351836D01*
X10527015Y-16351836D02*
X10536539Y-16342313D01*
X10536539Y-16342313D02*
X10555586Y-16332789D01*
X10746063Y-16332789D02*
X10765110Y-16332789D01*
X10765110Y-16332789D02*
X10784158Y-16342313D01*
X10784158Y-16342313D02*
X10793682Y-16351836D01*
X10793682Y-16351836D02*
X10803205Y-16370884D01*
X10803205Y-16370884D02*
X10812729Y-16408979D01*
X10812729Y-16408979D02*
X10812729Y-16456598D01*
X10812729Y-16456598D02*
X10803205Y-16494693D01*
X10803205Y-16494693D02*
X10793682Y-16513741D01*
X10793682Y-16513741D02*
X10784158Y-16523265D01*
X10784158Y-16523265D02*
X10765110Y-16532789D01*
X10765110Y-16532789D02*
X10746063Y-16532789D01*
X10746063Y-16532789D02*
X10727015Y-16523265D01*
X10727015Y-16523265D02*
X10717491Y-16513741D01*
X10717491Y-16513741D02*
X10707967Y-16494693D01*
X10707967Y-16494693D02*
X10698444Y-16456598D01*
X10698444Y-16456598D02*
X10698444Y-16408979D01*
X10698444Y-16408979D02*
X10707967Y-16370884D01*
X10707967Y-16370884D02*
X10717491Y-16351836D01*
X10717491Y-16351836D02*
X10727015Y-16342313D01*
X10727015Y-16342313D02*
X10746063Y-16332789D01*
X10936539Y-16332789D02*
X10955586Y-16332789D01*
X10955586Y-16332789D02*
X10974634Y-16342313D01*
X10974634Y-16342313D02*
X10984158Y-16351836D01*
X10984158Y-16351836D02*
X10993682Y-16370884D01*
X10993682Y-16370884D02*
X11003205Y-16408979D01*
X11003205Y-16408979D02*
X11003205Y-16456598D01*
X11003205Y-16456598D02*
X10993682Y-16494693D01*
X10993682Y-16494693D02*
X10984158Y-16513741D01*
X10984158Y-16513741D02*
X10974634Y-16523265D01*
X10974634Y-16523265D02*
X10955586Y-16532789D01*
X10955586Y-16532789D02*
X10936539Y-16532789D01*
X10936539Y-16532789D02*
X10917491Y-16523265D01*
X10917491Y-16523265D02*
X10907967Y-16513741D01*
X10907967Y-16513741D02*
X10898444Y-16494693D01*
X10898444Y-16494693D02*
X10888920Y-16456598D01*
X10888920Y-16456598D02*
X10888920Y-16408979D01*
X10888920Y-16408979D02*
X10898444Y-16370884D01*
X10898444Y-16370884D02*
X10907967Y-16351836D01*
X10907967Y-16351836D02*
X10917491Y-16342313D01*
X10917491Y-16342313D02*
X10936539Y-16332789D01*
X11088920Y-16532789D02*
X11088920Y-16399455D01*
X11088920Y-16418503D02*
X11098444Y-16408979D01*
X11098444Y-16408979D02*
X11117491Y-16399455D01*
X11117491Y-16399455D02*
X11146063Y-16399455D01*
X11146063Y-16399455D02*
X11165110Y-16408979D01*
X11165110Y-16408979D02*
X11174634Y-16428027D01*
X11174634Y-16428027D02*
X11174634Y-16532789D01*
X11174634Y-16428027D02*
X11184158Y-16408979D01*
X11184158Y-16408979D02*
X11203205Y-16399455D01*
X11203205Y-16399455D02*
X11231777Y-16399455D01*
X11231777Y-16399455D02*
X11250824Y-16408979D01*
X11250824Y-16408979D02*
X11260348Y-16428027D01*
X11260348Y-16428027D02*
X11260348Y-16532789D01*
X11355586Y-16532789D02*
X11355586Y-16399455D01*
X11355586Y-16418503D02*
X11365110Y-16408979D01*
X11365110Y-16408979D02*
X11384158Y-16399455D01*
X11384158Y-16399455D02*
X11412729Y-16399455D01*
X11412729Y-16399455D02*
X11431777Y-16408979D01*
X11431777Y-16408979D02*
X11441301Y-16428027D01*
X11441301Y-16428027D02*
X11441301Y-16532789D01*
X11441301Y-16428027D02*
X11450824Y-16408979D01*
X11450824Y-16408979D02*
X11469872Y-16399455D01*
X11469872Y-16399455D02*
X11498443Y-16399455D01*
X11498443Y-16399455D02*
X11517491Y-16408979D01*
X11517491Y-16408979D02*
X11527015Y-16428027D01*
X11527015Y-16428027D02*
X11527015Y-16532789D01*
X11917491Y-16323265D02*
X11746063Y-16580408D01*
X12174634Y-16332789D02*
X12193682Y-16332789D01*
X12193682Y-16332789D02*
X12212729Y-16342313D01*
X12212729Y-16342313D02*
X12222253Y-16351836D01*
X12222253Y-16351836D02*
X12231777Y-16370884D01*
X12231777Y-16370884D02*
X12241301Y-16408979D01*
X12241301Y-16408979D02*
X12241301Y-16456598D01*
X12241301Y-16456598D02*
X12231777Y-16494693D01*
X12231777Y-16494693D02*
X12222253Y-16513741D01*
X12222253Y-16513741D02*
X12212729Y-16523265D01*
X12212729Y-16523265D02*
X12193682Y-16532789D01*
X12193682Y-16532789D02*
X12174634Y-16532789D01*
X12174634Y-16532789D02*
X12155586Y-16523265D01*
X12155586Y-16523265D02*
X12146063Y-16513741D01*
X12146063Y-16513741D02*
X12136539Y-16494693D01*
X12136539Y-16494693D02*
X12127015Y-16456598D01*
X12127015Y-16456598D02*
X12127015Y-16408979D01*
X12127015Y-16408979D02*
X12136539Y-16370884D01*
X12136539Y-16370884D02*
X12146063Y-16351836D01*
X12146063Y-16351836D02*
X12155586Y-16342313D01*
X12155586Y-16342313D02*
X12174634Y-16332789D01*
X12327015Y-16513741D02*
X12336539Y-16523265D01*
X12336539Y-16523265D02*
X12327015Y-16532789D01*
X12327015Y-16532789D02*
X12317491Y-16523265D01*
X12317491Y-16523265D02*
X12327015Y-16513741D01*
X12327015Y-16513741D02*
X12327015Y-16532789D01*
X12460348Y-16332789D02*
X12479396Y-16332789D01*
X12479396Y-16332789D02*
X12498444Y-16342313D01*
X12498444Y-16342313D02*
X12507967Y-16351836D01*
X12507967Y-16351836D02*
X12517491Y-16370884D01*
X12517491Y-16370884D02*
X12527015Y-16408979D01*
X12527015Y-16408979D02*
X12527015Y-16456598D01*
X12527015Y-16456598D02*
X12517491Y-16494693D01*
X12517491Y-16494693D02*
X12507967Y-16513741D01*
X12507967Y-16513741D02*
X12498444Y-16523265D01*
X12498444Y-16523265D02*
X12479396Y-16532789D01*
X12479396Y-16532789D02*
X12460348Y-16532789D01*
X12460348Y-16532789D02*
X12441301Y-16523265D01*
X12441301Y-16523265D02*
X12431777Y-16513741D01*
X12431777Y-16513741D02*
X12422253Y-16494693D01*
X12422253Y-16494693D02*
X12412729Y-16456598D01*
X12412729Y-16456598D02*
X12412729Y-16408979D01*
X12412729Y-16408979D02*
X12422253Y-16370884D01*
X12422253Y-16370884D02*
X12431777Y-16351836D01*
X12431777Y-16351836D02*
X12441301Y-16342313D01*
X12441301Y-16342313D02*
X12460348Y-16332789D01*
X12593682Y-16332789D02*
X12717491Y-16332789D01*
X12717491Y-16332789D02*
X12650825Y-16408979D01*
X12650825Y-16408979D02*
X12679396Y-16408979D01*
X12679396Y-16408979D02*
X12698444Y-16418503D01*
X12698444Y-16418503D02*
X12707967Y-16428027D01*
X12707967Y-16428027D02*
X12717491Y-16447074D01*
X12717491Y-16447074D02*
X12717491Y-16494693D01*
X12717491Y-16494693D02*
X12707967Y-16513741D01*
X12707967Y-16513741D02*
X12698444Y-16523265D01*
X12698444Y-16523265D02*
X12679396Y-16532789D01*
X12679396Y-16532789D02*
X12622253Y-16532789D01*
X12622253Y-16532789D02*
X12603206Y-16523265D01*
X12603206Y-16523265D02*
X12593682Y-16513741D01*
X12812729Y-16532789D02*
X12850825Y-16532789D01*
X12850825Y-16532789D02*
X12869872Y-16523265D01*
X12869872Y-16523265D02*
X12879396Y-16513741D01*
X12879396Y-16513741D02*
X12898444Y-16485170D01*
X12898444Y-16485170D02*
X12907967Y-16447074D01*
X12907967Y-16447074D02*
X12907967Y-16370884D01*
X12907967Y-16370884D02*
X12898444Y-16351836D01*
X12898444Y-16351836D02*
X12888920Y-16342313D01*
X12888920Y-16342313D02*
X12869872Y-16332789D01*
X12869872Y-16332789D02*
X12831777Y-16332789D01*
X12831777Y-16332789D02*
X12812729Y-16342313D01*
X12812729Y-16342313D02*
X12803206Y-16351836D01*
X12803206Y-16351836D02*
X12793682Y-16370884D01*
X12793682Y-16370884D02*
X12793682Y-16418503D01*
X12793682Y-16418503D02*
X12803206Y-16437551D01*
X12803206Y-16437551D02*
X12812729Y-16447074D01*
X12812729Y-16447074D02*
X12831777Y-16456598D01*
X12831777Y-16456598D02*
X12869872Y-16456598D01*
X12869872Y-16456598D02*
X12888920Y-16447074D01*
X12888920Y-16447074D02*
X12898444Y-16437551D01*
X12898444Y-16437551D02*
X12907967Y-16418503D01*
X13079396Y-16399455D02*
X13079396Y-16532789D01*
X13031777Y-16323265D02*
X12984158Y-16466122D01*
X12984158Y-16466122D02*
X13107967Y-16466122D01*
X13174634Y-16332789D02*
X13174634Y-16370884D01*
X13250825Y-16332789D02*
X13250825Y-16370884D01*
X13546063Y-16608979D02*
X13536539Y-16599455D01*
X13536539Y-16599455D02*
X13517491Y-16570884D01*
X13517491Y-16570884D02*
X13507968Y-16551836D01*
X13507968Y-16551836D02*
X13498444Y-16523265D01*
X13498444Y-16523265D02*
X13488920Y-16475646D01*
X13488920Y-16475646D02*
X13488920Y-16437551D01*
X13488920Y-16437551D02*
X13498444Y-16389932D01*
X13498444Y-16389932D02*
X13507968Y-16361360D01*
X13507968Y-16361360D02*
X13517491Y-16342313D01*
X13517491Y-16342313D02*
X13536539Y-16313741D01*
X13536539Y-16313741D02*
X13546063Y-16304217D01*
X13631777Y-16532789D02*
X13669872Y-16532789D01*
X13669872Y-16532789D02*
X13688920Y-16523265D01*
X13688920Y-16523265D02*
X13698444Y-16513741D01*
X13698444Y-16513741D02*
X13717491Y-16485170D01*
X13717491Y-16485170D02*
X13727015Y-16447074D01*
X13727015Y-16447074D02*
X13727015Y-16370884D01*
X13727015Y-16370884D02*
X13717491Y-16351836D01*
X13717491Y-16351836D02*
X13707968Y-16342313D01*
X13707968Y-16342313D02*
X13688920Y-16332789D01*
X13688920Y-16332789D02*
X13650825Y-16332789D01*
X13650825Y-16332789D02*
X13631777Y-16342313D01*
X13631777Y-16342313D02*
X13622253Y-16351836D01*
X13622253Y-16351836D02*
X13612729Y-16370884D01*
X13612729Y-16370884D02*
X13612729Y-16418503D01*
X13612729Y-16418503D02*
X13622253Y-16437551D01*
X13622253Y-16437551D02*
X13631777Y-16447074D01*
X13631777Y-16447074D02*
X13650825Y-16456598D01*
X13650825Y-16456598D02*
X13688920Y-16456598D01*
X13688920Y-16456598D02*
X13707968Y-16447074D01*
X13707968Y-16447074D02*
X13717491Y-16437551D01*
X13717491Y-16437551D02*
X13727015Y-16418503D01*
X13965110Y-16532789D02*
X13965110Y-16332789D01*
X14050825Y-16532789D02*
X14050825Y-16428027D01*
X14050825Y-16428027D02*
X14041301Y-16408979D01*
X14041301Y-16408979D02*
X14022253Y-16399455D01*
X14022253Y-16399455D02*
X13993682Y-16399455D01*
X13993682Y-16399455D02*
X13974634Y-16408979D01*
X13974634Y-16408979D02*
X13965110Y-16418503D01*
X14174634Y-16532789D02*
X14155587Y-16523265D01*
X14155587Y-16523265D02*
X14146063Y-16513741D01*
X14146063Y-16513741D02*
X14136539Y-16494693D01*
X14136539Y-16494693D02*
X14136539Y-16437551D01*
X14136539Y-16437551D02*
X14146063Y-16418503D01*
X14146063Y-16418503D02*
X14155587Y-16408979D01*
X14155587Y-16408979D02*
X14174634Y-16399455D01*
X14174634Y-16399455D02*
X14203206Y-16399455D01*
X14203206Y-16399455D02*
X14222253Y-16408979D01*
X14222253Y-16408979D02*
X14231777Y-16418503D01*
X14231777Y-16418503D02*
X14241301Y-16437551D01*
X14241301Y-16437551D02*
X14241301Y-16494693D01*
X14241301Y-16494693D02*
X14231777Y-16513741D01*
X14231777Y-16513741D02*
X14222253Y-16523265D01*
X14222253Y-16523265D02*
X14203206Y-16532789D01*
X14203206Y-16532789D02*
X14174634Y-16532789D01*
X14355587Y-16532789D02*
X14336539Y-16523265D01*
X14336539Y-16523265D02*
X14327015Y-16504217D01*
X14327015Y-16504217D02*
X14327015Y-16332789D01*
X14507968Y-16523265D02*
X14488920Y-16532789D01*
X14488920Y-16532789D02*
X14450825Y-16532789D01*
X14450825Y-16532789D02*
X14431777Y-16523265D01*
X14431777Y-16523265D02*
X14422253Y-16504217D01*
X14422253Y-16504217D02*
X14422253Y-16428027D01*
X14422253Y-16428027D02*
X14431777Y-16408979D01*
X14431777Y-16408979D02*
X14450825Y-16399455D01*
X14450825Y-16399455D02*
X14488920Y-16399455D01*
X14488920Y-16399455D02*
X14507968Y-16408979D01*
X14507968Y-16408979D02*
X14517491Y-16428027D01*
X14517491Y-16428027D02*
X14517491Y-16447074D01*
X14517491Y-16447074D02*
X14422253Y-16466122D01*
X14593682Y-16523265D02*
X14612730Y-16532789D01*
X14612730Y-16532789D02*
X14650825Y-16532789D01*
X14650825Y-16532789D02*
X14669872Y-16523265D01*
X14669872Y-16523265D02*
X14679396Y-16504217D01*
X14679396Y-16504217D02*
X14679396Y-16494693D01*
X14679396Y-16494693D02*
X14669872Y-16475646D01*
X14669872Y-16475646D02*
X14650825Y-16466122D01*
X14650825Y-16466122D02*
X14622253Y-16466122D01*
X14622253Y-16466122D02*
X14603206Y-16456598D01*
X14603206Y-16456598D02*
X14593682Y-16437551D01*
X14593682Y-16437551D02*
X14593682Y-16428027D01*
X14593682Y-16428027D02*
X14603206Y-16408979D01*
X14603206Y-16408979D02*
X14622253Y-16399455D01*
X14622253Y-16399455D02*
X14650825Y-16399455D01*
X14650825Y-16399455D02*
X14669872Y-16408979D01*
X14746063Y-16608979D02*
X14755587Y-16599455D01*
X14755587Y-16599455D02*
X14774634Y-16570884D01*
X14774634Y-16570884D02*
X14784158Y-16551836D01*
X14784158Y-16551836D02*
X14793682Y-16523265D01*
X14793682Y-16523265D02*
X14803206Y-16475646D01*
X14803206Y-16475646D02*
X14803206Y-16437551D01*
X14803206Y-16437551D02*
X14793682Y-16389932D01*
X14793682Y-16389932D02*
X14784158Y-16361360D01*
X14784158Y-16361360D02*
X14774634Y-16342313D01*
X14774634Y-16342313D02*
X14755587Y-16313741D01*
X14755587Y-16313741D02*
X14746063Y-16304217D01*
M02*
