%TF.GenerationSoftware,KiCad,Pcbnew,10.0.0-rc2-12-g45b5765af0*%
%TF.CreationDate,2026-03-14T14:06:02+02:00*%
%TF.ProjectId,RverMonitor,52766572-4d6f-46e6-9974-6f722e6b6963,1.0*%
%TF.SameCoordinates,Original*%
%TF.FileFunction,Legend,Bot*%
%TF.FilePolarity,Positive*%
%FSLAX46Y46*%
G04 Gerber Fmt 4.6, Leading zero omitted, Abs format (unit mm)*
G04 Created by KiCad (PCBNEW 10.0.0-rc2-12-g45b5765af0) date 2026-03-14 14:06:02*
%MOMM*%
%LPD*%
G01*
G04 APERTURE LIST*
%ADD10C,0.200000*%
%ADD11C,0.250000*%
%ADD12C,0.300000*%
%ADD13C,0.150000*%
%ADD14C,0.254000*%
%ADD15C,0.160000*%
%ADD16C,0.120000*%
%ADD17C,0.127000*%
%ADD18C,0.500000*%
%ADD19C,0.000000*%
%ADD20C,0.100000*%
%ADD21C,0.203200*%
%TA.AperFunction,Profile*%
%ADD22C,0.200000*%
%TD*%
G04 APERTURE END LIST*
D10*
X105613183Y-120417219D02*
X105041755Y-120417219D01*
X105327469Y-121417219D02*
X105327469Y-120417219D01*
X104803659Y-120417219D02*
X104136993Y-121417219D01*
X104136993Y-120417219D02*
X104803659Y-121417219D01*
X107328898Y-121387219D02*
X107662231Y-120911028D01*
X107900326Y-121387219D02*
X107900326Y-120387219D01*
X107900326Y-120387219D02*
X107519374Y-120387219D01*
X107519374Y-120387219D02*
X107424136Y-120434838D01*
X107424136Y-120434838D02*
X107376517Y-120482457D01*
X107376517Y-120482457D02*
X107328898Y-120577695D01*
X107328898Y-120577695D02*
X107328898Y-120720552D01*
X107328898Y-120720552D02*
X107376517Y-120815790D01*
X107376517Y-120815790D02*
X107424136Y-120863409D01*
X107424136Y-120863409D02*
X107519374Y-120911028D01*
X107519374Y-120911028D02*
X107900326Y-120911028D01*
X106995564Y-120387219D02*
X106328898Y-121387219D01*
X106328898Y-120387219D02*
X106995564Y-121387219D01*
X110636517Y-120374838D02*
X110731755Y-120327219D01*
X110731755Y-120327219D02*
X110874612Y-120327219D01*
X110874612Y-120327219D02*
X111017469Y-120374838D01*
X111017469Y-120374838D02*
X111112707Y-120470076D01*
X111112707Y-120470076D02*
X111160326Y-120565314D01*
X111160326Y-120565314D02*
X111207945Y-120755790D01*
X111207945Y-120755790D02*
X111207945Y-120898647D01*
X111207945Y-120898647D02*
X111160326Y-121089123D01*
X111160326Y-121089123D02*
X111112707Y-121184361D01*
X111112707Y-121184361D02*
X111017469Y-121279600D01*
X111017469Y-121279600D02*
X110874612Y-121327219D01*
X110874612Y-121327219D02*
X110779374Y-121327219D01*
X110779374Y-121327219D02*
X110636517Y-121279600D01*
X110636517Y-121279600D02*
X110588898Y-121231980D01*
X110588898Y-121231980D02*
X110588898Y-120898647D01*
X110588898Y-120898647D02*
X110779374Y-120898647D01*
X110160326Y-121327219D02*
X110160326Y-120327219D01*
X110160326Y-120327219D02*
X109588898Y-121327219D01*
X109588898Y-121327219D02*
X109588898Y-120327219D01*
X109112707Y-121327219D02*
X109112707Y-120327219D01*
X109112707Y-120327219D02*
X108874612Y-120327219D01*
X108874612Y-120327219D02*
X108731755Y-120374838D01*
X108731755Y-120374838D02*
X108636517Y-120470076D01*
X108636517Y-120470076D02*
X108588898Y-120565314D01*
X108588898Y-120565314D02*
X108541279Y-120755790D01*
X108541279Y-120755790D02*
X108541279Y-120898647D01*
X108541279Y-120898647D02*
X108588898Y-121089123D01*
X108588898Y-121089123D02*
X108636517Y-121184361D01*
X108636517Y-121184361D02*
X108731755Y-121279600D01*
X108731755Y-121279600D02*
X108874612Y-121327219D01*
X108874612Y-121327219D02*
X109112707Y-121327219D01*
X114618898Y-124547219D02*
X114952231Y-124071028D01*
X115190326Y-124547219D02*
X115190326Y-123547219D01*
X115190326Y-123547219D02*
X114809374Y-123547219D01*
X114809374Y-123547219D02*
X114714136Y-123594838D01*
X114714136Y-123594838D02*
X114666517Y-123642457D01*
X114666517Y-123642457D02*
X114618898Y-123737695D01*
X114618898Y-123737695D02*
X114618898Y-123880552D01*
X114618898Y-123880552D02*
X114666517Y-123975790D01*
X114666517Y-123975790D02*
X114714136Y-124023409D01*
X114714136Y-124023409D02*
X114809374Y-124071028D01*
X114809374Y-124071028D02*
X115190326Y-124071028D01*
X114237945Y-123642457D02*
X114190326Y-123594838D01*
X114190326Y-123594838D02*
X114095088Y-123547219D01*
X114095088Y-123547219D02*
X113856993Y-123547219D01*
X113856993Y-123547219D02*
X113761755Y-123594838D01*
X113761755Y-123594838D02*
X113714136Y-123642457D01*
X113714136Y-123642457D02*
X113666517Y-123737695D01*
X113666517Y-123737695D02*
X113666517Y-123832933D01*
X113666517Y-123832933D02*
X113714136Y-123975790D01*
X113714136Y-123975790D02*
X114285564Y-124547219D01*
X114285564Y-124547219D02*
X113666517Y-124547219D01*
X113333183Y-123547219D02*
X112714136Y-123547219D01*
X112714136Y-123547219D02*
X113047469Y-123928171D01*
X113047469Y-123928171D02*
X112904612Y-123928171D01*
X112904612Y-123928171D02*
X112809374Y-123975790D01*
X112809374Y-123975790D02*
X112761755Y-124023409D01*
X112761755Y-124023409D02*
X112714136Y-124118647D01*
X112714136Y-124118647D02*
X112714136Y-124356742D01*
X112714136Y-124356742D02*
X112761755Y-124451980D01*
X112761755Y-124451980D02*
X112809374Y-124499600D01*
X112809374Y-124499600D02*
X112904612Y-124547219D01*
X112904612Y-124547219D02*
X113190326Y-124547219D01*
X113190326Y-124547219D02*
X113285564Y-124499600D01*
X113285564Y-124499600D02*
X113333183Y-124451980D01*
X112333183Y-123642457D02*
X112285564Y-123594838D01*
X112285564Y-123594838D02*
X112190326Y-123547219D01*
X112190326Y-123547219D02*
X111952231Y-123547219D01*
X111952231Y-123547219D02*
X111856993Y-123594838D01*
X111856993Y-123594838D02*
X111809374Y-123642457D01*
X111809374Y-123642457D02*
X111761755Y-123737695D01*
X111761755Y-123737695D02*
X111761755Y-123832933D01*
X111761755Y-123832933D02*
X111809374Y-123975790D01*
X111809374Y-123975790D02*
X112380802Y-124547219D01*
X112380802Y-124547219D02*
X111761755Y-124547219D01*
X173688898Y-91317219D02*
X174022231Y-90841028D01*
X174260326Y-91317219D02*
X174260326Y-90317219D01*
X174260326Y-90317219D02*
X173879374Y-90317219D01*
X173879374Y-90317219D02*
X173784136Y-90364838D01*
X173784136Y-90364838D02*
X173736517Y-90412457D01*
X173736517Y-90412457D02*
X173688898Y-90507695D01*
X173688898Y-90507695D02*
X173688898Y-90650552D01*
X173688898Y-90650552D02*
X173736517Y-90745790D01*
X173736517Y-90745790D02*
X173784136Y-90793409D01*
X173784136Y-90793409D02*
X173879374Y-90841028D01*
X173879374Y-90841028D02*
X174260326Y-90841028D01*
X173307945Y-91269600D02*
X173165088Y-91317219D01*
X173165088Y-91317219D02*
X172926993Y-91317219D01*
X172926993Y-91317219D02*
X172831755Y-91269600D01*
X172831755Y-91269600D02*
X172784136Y-91221980D01*
X172784136Y-91221980D02*
X172736517Y-91126742D01*
X172736517Y-91126742D02*
X172736517Y-91031504D01*
X172736517Y-91031504D02*
X172784136Y-90936266D01*
X172784136Y-90936266D02*
X172831755Y-90888647D01*
X172831755Y-90888647D02*
X172926993Y-90841028D01*
X172926993Y-90841028D02*
X173117469Y-90793409D01*
X173117469Y-90793409D02*
X173212707Y-90745790D01*
X173212707Y-90745790D02*
X173260326Y-90698171D01*
X173260326Y-90698171D02*
X173307945Y-90602933D01*
X173307945Y-90602933D02*
X173307945Y-90507695D01*
X173307945Y-90507695D02*
X173260326Y-90412457D01*
X173260326Y-90412457D02*
X173212707Y-90364838D01*
X173212707Y-90364838D02*
X173117469Y-90317219D01*
X173117469Y-90317219D02*
X172879374Y-90317219D01*
X172879374Y-90317219D02*
X172736517Y-90364838D01*
X171879374Y-90650552D02*
X171879374Y-91317219D01*
X172117469Y-90269600D02*
X172355564Y-90983885D01*
X172355564Y-90983885D02*
X171736517Y-90983885D01*
X171212707Y-90745790D02*
X171307945Y-90698171D01*
X171307945Y-90698171D02*
X171355564Y-90650552D01*
X171355564Y-90650552D02*
X171403183Y-90555314D01*
X171403183Y-90555314D02*
X171403183Y-90507695D01*
X171403183Y-90507695D02*
X171355564Y-90412457D01*
X171355564Y-90412457D02*
X171307945Y-90364838D01*
X171307945Y-90364838D02*
X171212707Y-90317219D01*
X171212707Y-90317219D02*
X171022231Y-90317219D01*
X171022231Y-90317219D02*
X170926993Y-90364838D01*
X170926993Y-90364838D02*
X170879374Y-90412457D01*
X170879374Y-90412457D02*
X170831755Y-90507695D01*
X170831755Y-90507695D02*
X170831755Y-90555314D01*
X170831755Y-90555314D02*
X170879374Y-90650552D01*
X170879374Y-90650552D02*
X170926993Y-90698171D01*
X170926993Y-90698171D02*
X171022231Y-90745790D01*
X171022231Y-90745790D02*
X171212707Y-90745790D01*
X171212707Y-90745790D02*
X171307945Y-90793409D01*
X171307945Y-90793409D02*
X171355564Y-90841028D01*
X171355564Y-90841028D02*
X171403183Y-90936266D01*
X171403183Y-90936266D02*
X171403183Y-91126742D01*
X171403183Y-91126742D02*
X171355564Y-91221980D01*
X171355564Y-91221980D02*
X171307945Y-91269600D01*
X171307945Y-91269600D02*
X171212707Y-91317219D01*
X171212707Y-91317219D02*
X171022231Y-91317219D01*
X171022231Y-91317219D02*
X170926993Y-91269600D01*
X170926993Y-91269600D02*
X170879374Y-91221980D01*
X170879374Y-91221980D02*
X170831755Y-91126742D01*
X170831755Y-91126742D02*
X170831755Y-90936266D01*
X170831755Y-90936266D02*
X170879374Y-90841028D01*
X170879374Y-90841028D02*
X170926993Y-90793409D01*
X170926993Y-90793409D02*
X171022231Y-90745790D01*
X169926993Y-90317219D02*
X170403183Y-90317219D01*
X170403183Y-90317219D02*
X170450802Y-90793409D01*
X170450802Y-90793409D02*
X170403183Y-90745790D01*
X170403183Y-90745790D02*
X170307945Y-90698171D01*
X170307945Y-90698171D02*
X170069850Y-90698171D01*
X170069850Y-90698171D02*
X169974612Y-90745790D01*
X169974612Y-90745790D02*
X169926993Y-90793409D01*
X169926993Y-90793409D02*
X169879374Y-90888647D01*
X169879374Y-90888647D02*
X169879374Y-91126742D01*
X169879374Y-91126742D02*
X169926993Y-91221980D01*
X169926993Y-91221980D02*
X169974612Y-91269600D01*
X169974612Y-91269600D02*
X170069850Y-91317219D01*
X170069850Y-91317219D02*
X170307945Y-91317219D01*
X170307945Y-91317219D02*
X170403183Y-91269600D01*
X170403183Y-91269600D02*
X170450802Y-91221980D01*
X207262857Y-92539656D02*
X207120000Y-92587275D01*
X207120000Y-92587275D02*
X206881905Y-92587275D01*
X206881905Y-92587275D02*
X206786667Y-92539656D01*
X206786667Y-92539656D02*
X206739048Y-92492036D01*
X206739048Y-92492036D02*
X206691429Y-92396798D01*
X206691429Y-92396798D02*
X206691429Y-92301560D01*
X206691429Y-92301560D02*
X206739048Y-92206322D01*
X206739048Y-92206322D02*
X206786667Y-92158703D01*
X206786667Y-92158703D02*
X206881905Y-92111084D01*
X206881905Y-92111084D02*
X207072381Y-92063465D01*
X207072381Y-92063465D02*
X207167619Y-92015846D01*
X207167619Y-92015846D02*
X207215238Y-91968227D01*
X207215238Y-91968227D02*
X207262857Y-91872989D01*
X207262857Y-91872989D02*
X207262857Y-91777751D01*
X207262857Y-91777751D02*
X207215238Y-91682513D01*
X207215238Y-91682513D02*
X207167619Y-91634894D01*
X207167619Y-91634894D02*
X207072381Y-91587275D01*
X207072381Y-91587275D02*
X206834286Y-91587275D01*
X206834286Y-91587275D02*
X206691429Y-91634894D01*
X206120000Y-92587275D02*
X206215238Y-92539656D01*
X206215238Y-92539656D02*
X206262857Y-92492036D01*
X206262857Y-92492036D02*
X206310476Y-92396798D01*
X206310476Y-92396798D02*
X206310476Y-92111084D01*
X206310476Y-92111084D02*
X206262857Y-92015846D01*
X206262857Y-92015846D02*
X206215238Y-91968227D01*
X206215238Y-91968227D02*
X206120000Y-91920608D01*
X206120000Y-91920608D02*
X205977143Y-91920608D01*
X205977143Y-91920608D02*
X205881905Y-91968227D01*
X205881905Y-91968227D02*
X205834286Y-92015846D01*
X205834286Y-92015846D02*
X205786667Y-92111084D01*
X205786667Y-92111084D02*
X205786667Y-92396798D01*
X205786667Y-92396798D02*
X205834286Y-92492036D01*
X205834286Y-92492036D02*
X205881905Y-92539656D01*
X205881905Y-92539656D02*
X205977143Y-92587275D01*
X205977143Y-92587275D02*
X206120000Y-92587275D01*
X205215238Y-92587275D02*
X205310476Y-92539656D01*
X205310476Y-92539656D02*
X205358095Y-92444417D01*
X205358095Y-92444417D02*
X205358095Y-91587275D01*
X204405714Y-92587275D02*
X204405714Y-92063465D01*
X204405714Y-92063465D02*
X204453333Y-91968227D01*
X204453333Y-91968227D02*
X204548571Y-91920608D01*
X204548571Y-91920608D02*
X204739047Y-91920608D01*
X204739047Y-91920608D02*
X204834285Y-91968227D01*
X204405714Y-92539656D02*
X204500952Y-92587275D01*
X204500952Y-92587275D02*
X204739047Y-92587275D01*
X204739047Y-92587275D02*
X204834285Y-92539656D01*
X204834285Y-92539656D02*
X204881904Y-92444417D01*
X204881904Y-92444417D02*
X204881904Y-92349179D01*
X204881904Y-92349179D02*
X204834285Y-92253941D01*
X204834285Y-92253941D02*
X204739047Y-92206322D01*
X204739047Y-92206322D02*
X204500952Y-92206322D01*
X204500952Y-92206322D02*
X204405714Y-92158703D01*
X203929523Y-92587275D02*
X203929523Y-91920608D01*
X203929523Y-92111084D02*
X203881904Y-92015846D01*
X203881904Y-92015846D02*
X203834285Y-91968227D01*
X203834285Y-91968227D02*
X203739047Y-91920608D01*
X203739047Y-91920608D02*
X203643809Y-91920608D01*
X206977142Y-94197219D02*
X206977142Y-93197219D01*
X206977142Y-93197219D02*
X206596190Y-93197219D01*
X206596190Y-93197219D02*
X206500952Y-93244838D01*
X206500952Y-93244838D02*
X206453333Y-93292457D01*
X206453333Y-93292457D02*
X206405714Y-93387695D01*
X206405714Y-93387695D02*
X206405714Y-93530552D01*
X206405714Y-93530552D02*
X206453333Y-93625790D01*
X206453333Y-93625790D02*
X206500952Y-93673409D01*
X206500952Y-93673409D02*
X206596190Y-93721028D01*
X206596190Y-93721028D02*
X206977142Y-93721028D01*
X205548571Y-94197219D02*
X205548571Y-93673409D01*
X205548571Y-93673409D02*
X205596190Y-93578171D01*
X205596190Y-93578171D02*
X205691428Y-93530552D01*
X205691428Y-93530552D02*
X205881904Y-93530552D01*
X205881904Y-93530552D02*
X205977142Y-93578171D01*
X205548571Y-94149600D02*
X205643809Y-94197219D01*
X205643809Y-94197219D02*
X205881904Y-94197219D01*
X205881904Y-94197219D02*
X205977142Y-94149600D01*
X205977142Y-94149600D02*
X206024761Y-94054361D01*
X206024761Y-94054361D02*
X206024761Y-93959123D01*
X206024761Y-93959123D02*
X205977142Y-93863885D01*
X205977142Y-93863885D02*
X205881904Y-93816266D01*
X205881904Y-93816266D02*
X205643809Y-93816266D01*
X205643809Y-93816266D02*
X205548571Y-93768647D01*
X205072380Y-93530552D02*
X205072380Y-94197219D01*
X205072380Y-93625790D02*
X205024761Y-93578171D01*
X205024761Y-93578171D02*
X204929523Y-93530552D01*
X204929523Y-93530552D02*
X204786666Y-93530552D01*
X204786666Y-93530552D02*
X204691428Y-93578171D01*
X204691428Y-93578171D02*
X204643809Y-93673409D01*
X204643809Y-93673409D02*
X204643809Y-94197219D01*
X203786666Y-94149600D02*
X203881904Y-94197219D01*
X203881904Y-94197219D02*
X204072380Y-94197219D01*
X204072380Y-94197219D02*
X204167618Y-94149600D01*
X204167618Y-94149600D02*
X204215237Y-94054361D01*
X204215237Y-94054361D02*
X204215237Y-93673409D01*
X204215237Y-93673409D02*
X204167618Y-93578171D01*
X204167618Y-93578171D02*
X204072380Y-93530552D01*
X204072380Y-93530552D02*
X203881904Y-93530552D01*
X203881904Y-93530552D02*
X203786666Y-93578171D01*
X203786666Y-93578171D02*
X203739047Y-93673409D01*
X203739047Y-93673409D02*
X203739047Y-93768647D01*
X203739047Y-93768647D02*
X204215237Y-93863885D01*
X203167618Y-94197219D02*
X203262856Y-94149600D01*
X203262856Y-94149600D02*
X203310475Y-94054361D01*
X203310475Y-94054361D02*
X203310475Y-93197219D01*
D11*
X217526003Y-125534787D02*
X217859336Y-125058596D01*
X218097431Y-125534787D02*
X218097431Y-124534787D01*
X218097431Y-124534787D02*
X217716479Y-124534787D01*
X217716479Y-124534787D02*
X217621241Y-124582406D01*
X217621241Y-124582406D02*
X217573622Y-124630025D01*
X217573622Y-124630025D02*
X217526003Y-124725263D01*
X217526003Y-124725263D02*
X217526003Y-124868120D01*
X217526003Y-124868120D02*
X217573622Y-124963358D01*
X217573622Y-124963358D02*
X217621241Y-125010977D01*
X217621241Y-125010977D02*
X217716479Y-125058596D01*
X217716479Y-125058596D02*
X218097431Y-125058596D01*
X217097431Y-125534787D02*
X217097431Y-124868120D01*
X217097431Y-124534787D02*
X217145050Y-124582406D01*
X217145050Y-124582406D02*
X217097431Y-124630025D01*
X217097431Y-124630025D02*
X217049812Y-124582406D01*
X217049812Y-124582406D02*
X217097431Y-124534787D01*
X217097431Y-124534787D02*
X217097431Y-124630025D01*
X216716479Y-124868120D02*
X216478384Y-125534787D01*
X216478384Y-125534787D02*
X216240289Y-124868120D01*
X215478384Y-125487168D02*
X215573622Y-125534787D01*
X215573622Y-125534787D02*
X215764098Y-125534787D01*
X215764098Y-125534787D02*
X215859336Y-125487168D01*
X215859336Y-125487168D02*
X215906955Y-125391929D01*
X215906955Y-125391929D02*
X215906955Y-125010977D01*
X215906955Y-125010977D02*
X215859336Y-124915739D01*
X215859336Y-124915739D02*
X215764098Y-124868120D01*
X215764098Y-124868120D02*
X215573622Y-124868120D01*
X215573622Y-124868120D02*
X215478384Y-124915739D01*
X215478384Y-124915739D02*
X215430765Y-125010977D01*
X215430765Y-125010977D02*
X215430765Y-125106215D01*
X215430765Y-125106215D02*
X215906955Y-125201453D01*
X215002193Y-125534787D02*
X215002193Y-124868120D01*
X215002193Y-125058596D02*
X214954574Y-124963358D01*
X214954574Y-124963358D02*
X214906955Y-124915739D01*
X214906955Y-124915739D02*
X214811717Y-124868120D01*
X214811717Y-124868120D02*
X214716479Y-124868120D01*
X213621240Y-125534787D02*
X213621240Y-124534787D01*
X213621240Y-124534787D02*
X213287907Y-125249072D01*
X213287907Y-125249072D02*
X212954574Y-124534787D01*
X212954574Y-124534787D02*
X212954574Y-125534787D01*
X212335526Y-125534787D02*
X212430764Y-125487168D01*
X212430764Y-125487168D02*
X212478383Y-125439548D01*
X212478383Y-125439548D02*
X212526002Y-125344310D01*
X212526002Y-125344310D02*
X212526002Y-125058596D01*
X212526002Y-125058596D02*
X212478383Y-124963358D01*
X212478383Y-124963358D02*
X212430764Y-124915739D01*
X212430764Y-124915739D02*
X212335526Y-124868120D01*
X212335526Y-124868120D02*
X212192669Y-124868120D01*
X212192669Y-124868120D02*
X212097431Y-124915739D01*
X212097431Y-124915739D02*
X212049812Y-124963358D01*
X212049812Y-124963358D02*
X212002193Y-125058596D01*
X212002193Y-125058596D02*
X212002193Y-125344310D01*
X212002193Y-125344310D02*
X212049812Y-125439548D01*
X212049812Y-125439548D02*
X212097431Y-125487168D01*
X212097431Y-125487168D02*
X212192669Y-125534787D01*
X212192669Y-125534787D02*
X212335526Y-125534787D01*
X211573621Y-124868120D02*
X211573621Y-125534787D01*
X211573621Y-124963358D02*
X211526002Y-124915739D01*
X211526002Y-124915739D02*
X211430764Y-124868120D01*
X211430764Y-124868120D02*
X211287907Y-124868120D01*
X211287907Y-124868120D02*
X211192669Y-124915739D01*
X211192669Y-124915739D02*
X211145050Y-125010977D01*
X211145050Y-125010977D02*
X211145050Y-125534787D01*
X210668859Y-125534787D02*
X210668859Y-124868120D01*
X210668859Y-124534787D02*
X210716478Y-124582406D01*
X210716478Y-124582406D02*
X210668859Y-124630025D01*
X210668859Y-124630025D02*
X210621240Y-124582406D01*
X210621240Y-124582406D02*
X210668859Y-124534787D01*
X210668859Y-124534787D02*
X210668859Y-124630025D01*
X210335526Y-124868120D02*
X209954574Y-124868120D01*
X210192669Y-124534787D02*
X210192669Y-125391929D01*
X210192669Y-125391929D02*
X210145050Y-125487168D01*
X210145050Y-125487168D02*
X210049812Y-125534787D01*
X210049812Y-125534787D02*
X209954574Y-125534787D01*
X209478383Y-125534787D02*
X209573621Y-125487168D01*
X209573621Y-125487168D02*
X209621240Y-125439548D01*
X209621240Y-125439548D02*
X209668859Y-125344310D01*
X209668859Y-125344310D02*
X209668859Y-125058596D01*
X209668859Y-125058596D02*
X209621240Y-124963358D01*
X209621240Y-124963358D02*
X209573621Y-124915739D01*
X209573621Y-124915739D02*
X209478383Y-124868120D01*
X209478383Y-124868120D02*
X209335526Y-124868120D01*
X209335526Y-124868120D02*
X209240288Y-124915739D01*
X209240288Y-124915739D02*
X209192669Y-124963358D01*
X209192669Y-124963358D02*
X209145050Y-125058596D01*
X209145050Y-125058596D02*
X209145050Y-125344310D01*
X209145050Y-125344310D02*
X209192669Y-125439548D01*
X209192669Y-125439548D02*
X209240288Y-125487168D01*
X209240288Y-125487168D02*
X209335526Y-125534787D01*
X209335526Y-125534787D02*
X209478383Y-125534787D01*
X208716478Y-125534787D02*
X208716478Y-124868120D01*
X208716478Y-125058596D02*
X208668859Y-124963358D01*
X208668859Y-124963358D02*
X208621240Y-124915739D01*
X208621240Y-124915739D02*
X208526002Y-124868120D01*
X208526002Y-124868120D02*
X208430764Y-124868120D01*
X208097430Y-125534787D02*
X208097430Y-124868120D01*
X208097430Y-124534787D02*
X208145049Y-124582406D01*
X208145049Y-124582406D02*
X208097430Y-124630025D01*
X208097430Y-124630025D02*
X208049811Y-124582406D01*
X208049811Y-124582406D02*
X208097430Y-124534787D01*
X208097430Y-124534787D02*
X208097430Y-124630025D01*
X207621240Y-124868120D02*
X207621240Y-125534787D01*
X207621240Y-124963358D02*
X207573621Y-124915739D01*
X207573621Y-124915739D02*
X207478383Y-124868120D01*
X207478383Y-124868120D02*
X207335526Y-124868120D01*
X207335526Y-124868120D02*
X207240288Y-124915739D01*
X207240288Y-124915739D02*
X207192669Y-125010977D01*
X207192669Y-125010977D02*
X207192669Y-125534787D01*
X206287907Y-124868120D02*
X206287907Y-125677644D01*
X206287907Y-125677644D02*
X206335526Y-125772882D01*
X206335526Y-125772882D02*
X206383145Y-125820501D01*
X206383145Y-125820501D02*
X206478383Y-125868120D01*
X206478383Y-125868120D02*
X206621240Y-125868120D01*
X206621240Y-125868120D02*
X206716478Y-125820501D01*
X206287907Y-125487168D02*
X206383145Y-125534787D01*
X206383145Y-125534787D02*
X206573621Y-125534787D01*
X206573621Y-125534787D02*
X206668859Y-125487168D01*
X206668859Y-125487168D02*
X206716478Y-125439548D01*
X206716478Y-125439548D02*
X206764097Y-125344310D01*
X206764097Y-125344310D02*
X206764097Y-125058596D01*
X206764097Y-125058596D02*
X206716478Y-124963358D01*
X206716478Y-124963358D02*
X206668859Y-124915739D01*
X206668859Y-124915739D02*
X206573621Y-124868120D01*
X206573621Y-124868120D02*
X206383145Y-124868120D01*
X206383145Y-124868120D02*
X206287907Y-124915739D01*
X218097431Y-127144731D02*
X218097431Y-126144731D01*
X218097431Y-126144731D02*
X217764098Y-126859016D01*
X217764098Y-126859016D02*
X217430765Y-126144731D01*
X217430765Y-126144731D02*
X217430765Y-127144731D01*
X216526003Y-127144731D02*
X216526003Y-126620921D01*
X216526003Y-126620921D02*
X216573622Y-126525683D01*
X216573622Y-126525683D02*
X216668860Y-126478064D01*
X216668860Y-126478064D02*
X216859336Y-126478064D01*
X216859336Y-126478064D02*
X216954574Y-126525683D01*
X216526003Y-127097112D02*
X216621241Y-127144731D01*
X216621241Y-127144731D02*
X216859336Y-127144731D01*
X216859336Y-127144731D02*
X216954574Y-127097112D01*
X216954574Y-127097112D02*
X217002193Y-127001873D01*
X217002193Y-127001873D02*
X217002193Y-126906635D01*
X217002193Y-126906635D02*
X216954574Y-126811397D01*
X216954574Y-126811397D02*
X216859336Y-126763778D01*
X216859336Y-126763778D02*
X216621241Y-126763778D01*
X216621241Y-126763778D02*
X216526003Y-126716159D01*
X216049812Y-127144731D02*
X216049812Y-126478064D01*
X216049812Y-126144731D02*
X216097431Y-126192350D01*
X216097431Y-126192350D02*
X216049812Y-126239969D01*
X216049812Y-126239969D02*
X216002193Y-126192350D01*
X216002193Y-126192350D02*
X216049812Y-126144731D01*
X216049812Y-126144731D02*
X216049812Y-126239969D01*
X215573622Y-126478064D02*
X215573622Y-127144731D01*
X215573622Y-126573302D02*
X215526003Y-126525683D01*
X215526003Y-126525683D02*
X215430765Y-126478064D01*
X215430765Y-126478064D02*
X215287908Y-126478064D01*
X215287908Y-126478064D02*
X215192670Y-126525683D01*
X215192670Y-126525683D02*
X215145051Y-126620921D01*
X215145051Y-126620921D02*
X215145051Y-127144731D01*
X213906955Y-127144731D02*
X213906955Y-126144731D01*
X213906955Y-126144731D02*
X213526003Y-126144731D01*
X213526003Y-126144731D02*
X213430765Y-126192350D01*
X213430765Y-126192350D02*
X213383146Y-126239969D01*
X213383146Y-126239969D02*
X213335527Y-126335207D01*
X213335527Y-126335207D02*
X213335527Y-126478064D01*
X213335527Y-126478064D02*
X213383146Y-126573302D01*
X213383146Y-126573302D02*
X213430765Y-126620921D01*
X213430765Y-126620921D02*
X213526003Y-126668540D01*
X213526003Y-126668540D02*
X213906955Y-126668540D01*
X212335527Y-127049492D02*
X212383146Y-127097112D01*
X212383146Y-127097112D02*
X212526003Y-127144731D01*
X212526003Y-127144731D02*
X212621241Y-127144731D01*
X212621241Y-127144731D02*
X212764098Y-127097112D01*
X212764098Y-127097112D02*
X212859336Y-127001873D01*
X212859336Y-127001873D02*
X212906955Y-126906635D01*
X212906955Y-126906635D02*
X212954574Y-126716159D01*
X212954574Y-126716159D02*
X212954574Y-126573302D01*
X212954574Y-126573302D02*
X212906955Y-126382826D01*
X212906955Y-126382826D02*
X212859336Y-126287588D01*
X212859336Y-126287588D02*
X212764098Y-126192350D01*
X212764098Y-126192350D02*
X212621241Y-126144731D01*
X212621241Y-126144731D02*
X212526003Y-126144731D01*
X212526003Y-126144731D02*
X212383146Y-126192350D01*
X212383146Y-126192350D02*
X212335527Y-126239969D01*
X211573622Y-126620921D02*
X211430765Y-126668540D01*
X211430765Y-126668540D02*
X211383146Y-126716159D01*
X211383146Y-126716159D02*
X211335527Y-126811397D01*
X211335527Y-126811397D02*
X211335527Y-126954254D01*
X211335527Y-126954254D02*
X211383146Y-127049492D01*
X211383146Y-127049492D02*
X211430765Y-127097112D01*
X211430765Y-127097112D02*
X211526003Y-127144731D01*
X211526003Y-127144731D02*
X211906955Y-127144731D01*
X211906955Y-127144731D02*
X211906955Y-126144731D01*
X211906955Y-126144731D02*
X211573622Y-126144731D01*
X211573622Y-126144731D02*
X211478384Y-126192350D01*
X211478384Y-126192350D02*
X211430765Y-126239969D01*
X211430765Y-126239969D02*
X211383146Y-126335207D01*
X211383146Y-126335207D02*
X211383146Y-126430445D01*
X211383146Y-126430445D02*
X211430765Y-126525683D01*
X211430765Y-126525683D02*
X211478384Y-126573302D01*
X211478384Y-126573302D02*
X211573622Y-126620921D01*
X211573622Y-126620921D02*
X211906955Y-126620921D01*
X217526003Y-128754675D02*
X217859336Y-128278484D01*
X218097431Y-128754675D02*
X218097431Y-127754675D01*
X218097431Y-127754675D02*
X217716479Y-127754675D01*
X217716479Y-127754675D02*
X217621241Y-127802294D01*
X217621241Y-127802294D02*
X217573622Y-127849913D01*
X217573622Y-127849913D02*
X217526003Y-127945151D01*
X217526003Y-127945151D02*
X217526003Y-128088008D01*
X217526003Y-128088008D02*
X217573622Y-128183246D01*
X217573622Y-128183246D02*
X217621241Y-128230865D01*
X217621241Y-128230865D02*
X217716479Y-128278484D01*
X217716479Y-128278484D02*
X218097431Y-128278484D01*
X216716479Y-128707056D02*
X216811717Y-128754675D01*
X216811717Y-128754675D02*
X217002193Y-128754675D01*
X217002193Y-128754675D02*
X217097431Y-128707056D01*
X217097431Y-128707056D02*
X217145050Y-128611817D01*
X217145050Y-128611817D02*
X217145050Y-128230865D01*
X217145050Y-128230865D02*
X217097431Y-128135627D01*
X217097431Y-128135627D02*
X217002193Y-128088008D01*
X217002193Y-128088008D02*
X216811717Y-128088008D01*
X216811717Y-128088008D02*
X216716479Y-128135627D01*
X216716479Y-128135627D02*
X216668860Y-128230865D01*
X216668860Y-128230865D02*
X216668860Y-128326103D01*
X216668860Y-128326103D02*
X217145050Y-128421341D01*
X216335526Y-128088008D02*
X216097431Y-128754675D01*
X216097431Y-128754675D02*
X215859336Y-128088008D01*
X214192669Y-128754675D02*
X214764097Y-128754675D01*
X214478383Y-128754675D02*
X214478383Y-127754675D01*
X214478383Y-127754675D02*
X214573621Y-127897532D01*
X214573621Y-127897532D02*
X214668859Y-127992770D01*
X214668859Y-127992770D02*
X214764097Y-128040389D01*
X213764097Y-128659436D02*
X213716478Y-128707056D01*
X213716478Y-128707056D02*
X213764097Y-128754675D01*
X213764097Y-128754675D02*
X213811716Y-128707056D01*
X213811716Y-128707056D02*
X213764097Y-128659436D01*
X213764097Y-128659436D02*
X213764097Y-128754675D01*
X212764098Y-128754675D02*
X213335526Y-128754675D01*
X213049812Y-128754675D02*
X213049812Y-127754675D01*
X213049812Y-127754675D02*
X213145050Y-127897532D01*
X213145050Y-127897532D02*
X213240288Y-127992770D01*
X213240288Y-127992770D02*
X213335526Y-128040389D01*
X217573622Y-130364619D02*
X218145050Y-130364619D01*
X217859336Y-130364619D02*
X217859336Y-129364619D01*
X217859336Y-129364619D02*
X217954574Y-129507476D01*
X217954574Y-129507476D02*
X218049812Y-129602714D01*
X218049812Y-129602714D02*
X218145050Y-129650333D01*
X216716479Y-129697952D02*
X216716479Y-130364619D01*
X216954574Y-129317000D02*
X217192669Y-130031285D01*
X217192669Y-130031285D02*
X216573622Y-130031285D01*
X216192669Y-129983666D02*
X215430765Y-129983666D01*
X214954574Y-130364619D02*
X214954574Y-129364619D01*
X214954574Y-129364619D02*
X214621241Y-130078904D01*
X214621241Y-130078904D02*
X214287908Y-129364619D01*
X214287908Y-129364619D02*
X214287908Y-130364619D01*
X213383146Y-130364619D02*
X213383146Y-129840809D01*
X213383146Y-129840809D02*
X213430765Y-129745571D01*
X213430765Y-129745571D02*
X213526003Y-129697952D01*
X213526003Y-129697952D02*
X213716479Y-129697952D01*
X213716479Y-129697952D02*
X213811717Y-129745571D01*
X213383146Y-130317000D02*
X213478384Y-130364619D01*
X213478384Y-130364619D02*
X213716479Y-130364619D01*
X213716479Y-130364619D02*
X213811717Y-130317000D01*
X213811717Y-130317000D02*
X213859336Y-130221761D01*
X213859336Y-130221761D02*
X213859336Y-130126523D01*
X213859336Y-130126523D02*
X213811717Y-130031285D01*
X213811717Y-130031285D02*
X213716479Y-129983666D01*
X213716479Y-129983666D02*
X213478384Y-129983666D01*
X213478384Y-129983666D02*
X213383146Y-129936047D01*
X212906955Y-130364619D02*
X212906955Y-129697952D01*
X212906955Y-129888428D02*
X212859336Y-129793190D01*
X212859336Y-129793190D02*
X212811717Y-129745571D01*
X212811717Y-129745571D02*
X212716479Y-129697952D01*
X212716479Y-129697952D02*
X212621241Y-129697952D01*
X212287907Y-129983666D02*
X211526003Y-129983666D01*
X211097431Y-129459857D02*
X211049812Y-129412238D01*
X211049812Y-129412238D02*
X210954574Y-129364619D01*
X210954574Y-129364619D02*
X210716479Y-129364619D01*
X210716479Y-129364619D02*
X210621241Y-129412238D01*
X210621241Y-129412238D02*
X210573622Y-129459857D01*
X210573622Y-129459857D02*
X210526003Y-129555095D01*
X210526003Y-129555095D02*
X210526003Y-129650333D01*
X210526003Y-129650333D02*
X210573622Y-129793190D01*
X210573622Y-129793190D02*
X211145050Y-130364619D01*
X211145050Y-130364619D02*
X210526003Y-130364619D01*
X209668860Y-129364619D02*
X209859336Y-129364619D01*
X209859336Y-129364619D02*
X209954574Y-129412238D01*
X209954574Y-129412238D02*
X210002193Y-129459857D01*
X210002193Y-129459857D02*
X210097431Y-129602714D01*
X210097431Y-129602714D02*
X210145050Y-129793190D01*
X210145050Y-129793190D02*
X210145050Y-130174142D01*
X210145050Y-130174142D02*
X210097431Y-130269380D01*
X210097431Y-130269380D02*
X210049812Y-130317000D01*
X210049812Y-130317000D02*
X209954574Y-130364619D01*
X209954574Y-130364619D02*
X209764098Y-130364619D01*
X209764098Y-130364619D02*
X209668860Y-130317000D01*
X209668860Y-130317000D02*
X209621241Y-130269380D01*
X209621241Y-130269380D02*
X209573622Y-130174142D01*
X209573622Y-130174142D02*
X209573622Y-129936047D01*
X209573622Y-129936047D02*
X209621241Y-129840809D01*
X209621241Y-129840809D02*
X209668860Y-129793190D01*
X209668860Y-129793190D02*
X209764098Y-129745571D01*
X209764098Y-129745571D02*
X209954574Y-129745571D01*
X209954574Y-129745571D02*
X210049812Y-129793190D01*
X210049812Y-129793190D02*
X210097431Y-129840809D01*
X210097431Y-129840809D02*
X210145050Y-129936047D01*
X124933810Y-110039436D02*
X124981429Y-110087056D01*
X124981429Y-110087056D02*
X125124286Y-110134675D01*
X125124286Y-110134675D02*
X125219524Y-110134675D01*
X125219524Y-110134675D02*
X125362381Y-110087056D01*
X125362381Y-110087056D02*
X125457619Y-109991817D01*
X125457619Y-109991817D02*
X125505238Y-109896579D01*
X125505238Y-109896579D02*
X125552857Y-109706103D01*
X125552857Y-109706103D02*
X125552857Y-109563246D01*
X125552857Y-109563246D02*
X125505238Y-109372770D01*
X125505238Y-109372770D02*
X125457619Y-109277532D01*
X125457619Y-109277532D02*
X125362381Y-109182294D01*
X125362381Y-109182294D02*
X125219524Y-109134675D01*
X125219524Y-109134675D02*
X125124286Y-109134675D01*
X125124286Y-109134675D02*
X124981429Y-109182294D01*
X124981429Y-109182294D02*
X124933810Y-109229913D01*
X124124286Y-110087056D02*
X124219524Y-110134675D01*
X124219524Y-110134675D02*
X124410000Y-110134675D01*
X124410000Y-110134675D02*
X124505238Y-110087056D01*
X124505238Y-110087056D02*
X124552857Y-109991817D01*
X124552857Y-109991817D02*
X124552857Y-109610865D01*
X124552857Y-109610865D02*
X124505238Y-109515627D01*
X124505238Y-109515627D02*
X124410000Y-109468008D01*
X124410000Y-109468008D02*
X124219524Y-109468008D01*
X124219524Y-109468008D02*
X124124286Y-109515627D01*
X124124286Y-109515627D02*
X124076667Y-109610865D01*
X124076667Y-109610865D02*
X124076667Y-109706103D01*
X124076667Y-109706103D02*
X124552857Y-109801341D01*
X123505238Y-110134675D02*
X123600476Y-110087056D01*
X123600476Y-110087056D02*
X123648095Y-109991817D01*
X123648095Y-109991817D02*
X123648095Y-109134675D01*
X122981428Y-110134675D02*
X123076666Y-110087056D01*
X123076666Y-110087056D02*
X123124285Y-109991817D01*
X123124285Y-109991817D02*
X123124285Y-109134675D01*
X127790952Y-111220809D02*
X128124285Y-111220809D01*
X128124285Y-111744619D02*
X128124285Y-110744619D01*
X128124285Y-110744619D02*
X127648095Y-110744619D01*
X127362380Y-110744619D02*
X127124285Y-111744619D01*
X127124285Y-111744619D02*
X126933809Y-111030333D01*
X126933809Y-111030333D02*
X126743333Y-111744619D01*
X126743333Y-111744619D02*
X126505238Y-110744619D01*
X125362380Y-110744619D02*
X125362380Y-111554142D01*
X125362380Y-111554142D02*
X125314761Y-111649380D01*
X125314761Y-111649380D02*
X125267142Y-111697000D01*
X125267142Y-111697000D02*
X125171904Y-111744619D01*
X125171904Y-111744619D02*
X124981428Y-111744619D01*
X124981428Y-111744619D02*
X124886190Y-111697000D01*
X124886190Y-111697000D02*
X124838571Y-111649380D01*
X124838571Y-111649380D02*
X124790952Y-111554142D01*
X124790952Y-111554142D02*
X124790952Y-110744619D01*
X124314761Y-111077952D02*
X124314761Y-112077952D01*
X124314761Y-111125571D02*
X124219523Y-111077952D01*
X124219523Y-111077952D02*
X124029047Y-111077952D01*
X124029047Y-111077952D02*
X123933809Y-111125571D01*
X123933809Y-111125571D02*
X123886190Y-111173190D01*
X123886190Y-111173190D02*
X123838571Y-111268428D01*
X123838571Y-111268428D02*
X123838571Y-111554142D01*
X123838571Y-111554142D02*
X123886190Y-111649380D01*
X123886190Y-111649380D02*
X123933809Y-111697000D01*
X123933809Y-111697000D02*
X124029047Y-111744619D01*
X124029047Y-111744619D02*
X124219523Y-111744619D01*
X124219523Y-111744619D02*
X124314761Y-111697000D01*
X122981428Y-111077952D02*
X122981428Y-111887476D01*
X122981428Y-111887476D02*
X123029047Y-111982714D01*
X123029047Y-111982714D02*
X123076666Y-112030333D01*
X123076666Y-112030333D02*
X123171904Y-112077952D01*
X123171904Y-112077952D02*
X123314761Y-112077952D01*
X123314761Y-112077952D02*
X123409999Y-112030333D01*
X122981428Y-111697000D02*
X123076666Y-111744619D01*
X123076666Y-111744619D02*
X123267142Y-111744619D01*
X123267142Y-111744619D02*
X123362380Y-111697000D01*
X123362380Y-111697000D02*
X123409999Y-111649380D01*
X123409999Y-111649380D02*
X123457618Y-111554142D01*
X123457618Y-111554142D02*
X123457618Y-111268428D01*
X123457618Y-111268428D02*
X123409999Y-111173190D01*
X123409999Y-111173190D02*
X123362380Y-111125571D01*
X123362380Y-111125571D02*
X123267142Y-111077952D01*
X123267142Y-111077952D02*
X123076666Y-111077952D01*
X123076666Y-111077952D02*
X122981428Y-111125571D01*
X122505237Y-111744619D02*
X122505237Y-111077952D01*
X122505237Y-111268428D02*
X122457618Y-111173190D01*
X122457618Y-111173190D02*
X122409999Y-111125571D01*
X122409999Y-111125571D02*
X122314761Y-111077952D01*
X122314761Y-111077952D02*
X122219523Y-111077952D01*
X121457618Y-111744619D02*
X121457618Y-111220809D01*
X121457618Y-111220809D02*
X121505237Y-111125571D01*
X121505237Y-111125571D02*
X121600475Y-111077952D01*
X121600475Y-111077952D02*
X121790951Y-111077952D01*
X121790951Y-111077952D02*
X121886189Y-111125571D01*
X121457618Y-111697000D02*
X121552856Y-111744619D01*
X121552856Y-111744619D02*
X121790951Y-111744619D01*
X121790951Y-111744619D02*
X121886189Y-111697000D01*
X121886189Y-111697000D02*
X121933808Y-111601761D01*
X121933808Y-111601761D02*
X121933808Y-111506523D01*
X121933808Y-111506523D02*
X121886189Y-111411285D01*
X121886189Y-111411285D02*
X121790951Y-111363666D01*
X121790951Y-111363666D02*
X121552856Y-111363666D01*
X121552856Y-111363666D02*
X121457618Y-111316047D01*
X120552856Y-111744619D02*
X120552856Y-110744619D01*
X120552856Y-111697000D02*
X120648094Y-111744619D01*
X120648094Y-111744619D02*
X120838570Y-111744619D01*
X120838570Y-111744619D02*
X120933808Y-111697000D01*
X120933808Y-111697000D02*
X120981427Y-111649380D01*
X120981427Y-111649380D02*
X121029046Y-111554142D01*
X121029046Y-111554142D02*
X121029046Y-111268428D01*
X121029046Y-111268428D02*
X120981427Y-111173190D01*
X120981427Y-111173190D02*
X120933808Y-111125571D01*
X120933808Y-111125571D02*
X120838570Y-111077952D01*
X120838570Y-111077952D02*
X120648094Y-111077952D01*
X120648094Y-111077952D02*
X120552856Y-111125571D01*
X119695713Y-111697000D02*
X119790951Y-111744619D01*
X119790951Y-111744619D02*
X119981427Y-111744619D01*
X119981427Y-111744619D02*
X120076665Y-111697000D01*
X120076665Y-111697000D02*
X120124284Y-111601761D01*
X120124284Y-111601761D02*
X120124284Y-111220809D01*
X120124284Y-111220809D02*
X120076665Y-111125571D01*
X120076665Y-111125571D02*
X119981427Y-111077952D01*
X119981427Y-111077952D02*
X119790951Y-111077952D01*
X119790951Y-111077952D02*
X119695713Y-111125571D01*
X119695713Y-111125571D02*
X119648094Y-111220809D01*
X119648094Y-111220809D02*
X119648094Y-111316047D01*
X119648094Y-111316047D02*
X120124284Y-111411285D01*
X142798570Y-80676276D02*
X142569998Y-80676276D01*
X142569998Y-80676276D02*
X142455713Y-80733419D01*
X142455713Y-80733419D02*
X142341427Y-80847705D01*
X142341427Y-80847705D02*
X142284284Y-81076276D01*
X142284284Y-81076276D02*
X142284284Y-81476276D01*
X142284284Y-81476276D02*
X142341427Y-81704848D01*
X142341427Y-81704848D02*
X142455713Y-81819134D01*
X142455713Y-81819134D02*
X142569998Y-81876276D01*
X142569998Y-81876276D02*
X142798570Y-81876276D01*
X142798570Y-81876276D02*
X142912856Y-81819134D01*
X142912856Y-81819134D02*
X143027141Y-81704848D01*
X143027141Y-81704848D02*
X143084284Y-81476276D01*
X143084284Y-81476276D02*
X143084284Y-81076276D01*
X143084284Y-81076276D02*
X143027141Y-80847705D01*
X143027141Y-80847705D02*
X142912856Y-80733419D01*
X142912856Y-80733419D02*
X142798570Y-80676276D01*
X141769998Y-81076276D02*
X141769998Y-82276276D01*
X141769998Y-81133419D02*
X141655713Y-81076276D01*
X141655713Y-81076276D02*
X141427141Y-81076276D01*
X141427141Y-81076276D02*
X141312855Y-81133419D01*
X141312855Y-81133419D02*
X141255713Y-81190562D01*
X141255713Y-81190562D02*
X141198570Y-81304848D01*
X141198570Y-81304848D02*
X141198570Y-81647705D01*
X141198570Y-81647705D02*
X141255713Y-81761991D01*
X141255713Y-81761991D02*
X141312855Y-81819134D01*
X141312855Y-81819134D02*
X141427141Y-81876276D01*
X141427141Y-81876276D02*
X141655713Y-81876276D01*
X141655713Y-81876276D02*
X141769998Y-81819134D01*
X140855713Y-81076276D02*
X140398570Y-81076276D01*
X140684284Y-80676276D02*
X140684284Y-81704848D01*
X140684284Y-81704848D02*
X140627141Y-81819134D01*
X140627141Y-81819134D02*
X140512856Y-81876276D01*
X140512856Y-81876276D02*
X140398570Y-81876276D01*
X139998570Y-81876276D02*
X139998570Y-81076276D01*
X139998570Y-80676276D02*
X140055713Y-80733419D01*
X140055713Y-80733419D02*
X139998570Y-80790562D01*
X139998570Y-80790562D02*
X139941427Y-80733419D01*
X139941427Y-80733419D02*
X139998570Y-80676276D01*
X139998570Y-80676276D02*
X139998570Y-80790562D01*
X139255713Y-81876276D02*
X139369998Y-81819134D01*
X139369998Y-81819134D02*
X139427141Y-81761991D01*
X139427141Y-81761991D02*
X139484284Y-81647705D01*
X139484284Y-81647705D02*
X139484284Y-81304848D01*
X139484284Y-81304848D02*
X139427141Y-81190562D01*
X139427141Y-81190562D02*
X139369998Y-81133419D01*
X139369998Y-81133419D02*
X139255713Y-81076276D01*
X139255713Y-81076276D02*
X139084284Y-81076276D01*
X139084284Y-81076276D02*
X138969998Y-81133419D01*
X138969998Y-81133419D02*
X138912856Y-81190562D01*
X138912856Y-81190562D02*
X138855713Y-81304848D01*
X138855713Y-81304848D02*
X138855713Y-81647705D01*
X138855713Y-81647705D02*
X138912856Y-81761991D01*
X138912856Y-81761991D02*
X138969998Y-81819134D01*
X138969998Y-81819134D02*
X139084284Y-81876276D01*
X139084284Y-81876276D02*
X139255713Y-81876276D01*
X138341427Y-81076276D02*
X138341427Y-81876276D01*
X138341427Y-81190562D02*
X138284284Y-81133419D01*
X138284284Y-81133419D02*
X138169999Y-81076276D01*
X138169999Y-81076276D02*
X137998570Y-81076276D01*
X137998570Y-81076276D02*
X137884284Y-81133419D01*
X137884284Y-81133419D02*
X137827142Y-81247705D01*
X137827142Y-81247705D02*
X137827142Y-81876276D01*
X136741428Y-81876276D02*
X136741428Y-81247705D01*
X136741428Y-81247705D02*
X136798570Y-81133419D01*
X136798570Y-81133419D02*
X136912856Y-81076276D01*
X136912856Y-81076276D02*
X137141428Y-81076276D01*
X137141428Y-81076276D02*
X137255713Y-81133419D01*
X136741428Y-81819134D02*
X136855713Y-81876276D01*
X136855713Y-81876276D02*
X137141428Y-81876276D01*
X137141428Y-81876276D02*
X137255713Y-81819134D01*
X137255713Y-81819134D02*
X137312856Y-81704848D01*
X137312856Y-81704848D02*
X137312856Y-81590562D01*
X137312856Y-81590562D02*
X137255713Y-81476276D01*
X137255713Y-81476276D02*
X137141428Y-81419134D01*
X137141428Y-81419134D02*
X136855713Y-81419134D01*
X136855713Y-81419134D02*
X136741428Y-81361991D01*
X135998571Y-81876276D02*
X136112856Y-81819134D01*
X136112856Y-81819134D02*
X136169999Y-81704848D01*
X136169999Y-81704848D02*
X136169999Y-80676276D01*
X140627143Y-83808209D02*
X141198571Y-83808209D01*
X141198571Y-83808209D02*
X141198571Y-82608209D01*
X140227142Y-83808209D02*
X140227142Y-83008209D01*
X140227142Y-82608209D02*
X140284285Y-82665352D01*
X140284285Y-82665352D02*
X140227142Y-82722495D01*
X140227142Y-82722495D02*
X140169999Y-82665352D01*
X140169999Y-82665352D02*
X140227142Y-82608209D01*
X140227142Y-82608209D02*
X140227142Y-82722495D01*
X139655713Y-83808209D02*
X139655713Y-82608209D01*
X139655713Y-82608209D02*
X139198570Y-82608209D01*
X139198570Y-82608209D02*
X139084285Y-82665352D01*
X139084285Y-82665352D02*
X139027142Y-82722495D01*
X139027142Y-82722495D02*
X138969999Y-82836781D01*
X138969999Y-82836781D02*
X138969999Y-83008209D01*
X138969999Y-83008209D02*
X139027142Y-83122495D01*
X139027142Y-83122495D02*
X139084285Y-83179638D01*
X139084285Y-83179638D02*
X139198570Y-83236781D01*
X139198570Y-83236781D02*
X139655713Y-83236781D01*
X138284285Y-83808209D02*
X138398570Y-83751067D01*
X138398570Y-83751067D02*
X138455713Y-83693924D01*
X138455713Y-83693924D02*
X138512856Y-83579638D01*
X138512856Y-83579638D02*
X138512856Y-83236781D01*
X138512856Y-83236781D02*
X138455713Y-83122495D01*
X138455713Y-83122495D02*
X138398570Y-83065352D01*
X138398570Y-83065352D02*
X138284285Y-83008209D01*
X138284285Y-83008209D02*
X138112856Y-83008209D01*
X138112856Y-83008209D02*
X137998570Y-83065352D01*
X137998570Y-83065352D02*
X137941428Y-83122495D01*
X137941428Y-83122495D02*
X137884285Y-83236781D01*
X137884285Y-83236781D02*
X137884285Y-83579638D01*
X137884285Y-83579638D02*
X137941428Y-83693924D01*
X137941428Y-83693924D02*
X137998570Y-83751067D01*
X137998570Y-83751067D02*
X138112856Y-83808209D01*
X138112856Y-83808209D02*
X138284285Y-83808209D01*
X142055713Y-85111571D02*
X141884285Y-85168714D01*
X141884285Y-85168714D02*
X141827142Y-85225857D01*
X141827142Y-85225857D02*
X141769999Y-85340142D01*
X141769999Y-85340142D02*
X141769999Y-85511571D01*
X141769999Y-85511571D02*
X141827142Y-85625857D01*
X141827142Y-85625857D02*
X141884285Y-85683000D01*
X141884285Y-85683000D02*
X141998570Y-85740142D01*
X141998570Y-85740142D02*
X142455713Y-85740142D01*
X142455713Y-85740142D02*
X142455713Y-84540142D01*
X142455713Y-84540142D02*
X142055713Y-84540142D01*
X142055713Y-84540142D02*
X141941428Y-84597285D01*
X141941428Y-84597285D02*
X141884285Y-84654428D01*
X141884285Y-84654428D02*
X141827142Y-84768714D01*
X141827142Y-84768714D02*
X141827142Y-84883000D01*
X141827142Y-84883000D02*
X141884285Y-84997285D01*
X141884285Y-84997285D02*
X141941428Y-85054428D01*
X141941428Y-85054428D02*
X142055713Y-85111571D01*
X142055713Y-85111571D02*
X142455713Y-85111571D01*
X140741428Y-85740142D02*
X140741428Y-85111571D01*
X140741428Y-85111571D02*
X140798570Y-84997285D01*
X140798570Y-84997285D02*
X140912856Y-84940142D01*
X140912856Y-84940142D02*
X141141428Y-84940142D01*
X141141428Y-84940142D02*
X141255713Y-84997285D01*
X140741428Y-85683000D02*
X140855713Y-85740142D01*
X140855713Y-85740142D02*
X141141428Y-85740142D01*
X141141428Y-85740142D02*
X141255713Y-85683000D01*
X141255713Y-85683000D02*
X141312856Y-85568714D01*
X141312856Y-85568714D02*
X141312856Y-85454428D01*
X141312856Y-85454428D02*
X141255713Y-85340142D01*
X141255713Y-85340142D02*
X141141428Y-85283000D01*
X141141428Y-85283000D02*
X140855713Y-85283000D01*
X140855713Y-85283000D02*
X140741428Y-85225857D01*
X140341428Y-84940142D02*
X139884285Y-84940142D01*
X140169999Y-84540142D02*
X140169999Y-85568714D01*
X140169999Y-85568714D02*
X140112856Y-85683000D01*
X140112856Y-85683000D02*
X139998571Y-85740142D01*
X139998571Y-85740142D02*
X139884285Y-85740142D01*
X139655714Y-84940142D02*
X139198571Y-84940142D01*
X139484285Y-84540142D02*
X139484285Y-85568714D01*
X139484285Y-85568714D02*
X139427142Y-85683000D01*
X139427142Y-85683000D02*
X139312857Y-85740142D01*
X139312857Y-85740142D02*
X139198571Y-85740142D01*
X138341428Y-85683000D02*
X138455714Y-85740142D01*
X138455714Y-85740142D02*
X138684286Y-85740142D01*
X138684286Y-85740142D02*
X138798571Y-85683000D01*
X138798571Y-85683000D02*
X138855714Y-85568714D01*
X138855714Y-85568714D02*
X138855714Y-85111571D01*
X138855714Y-85111571D02*
X138798571Y-84997285D01*
X138798571Y-84997285D02*
X138684286Y-84940142D01*
X138684286Y-84940142D02*
X138455714Y-84940142D01*
X138455714Y-84940142D02*
X138341428Y-84997285D01*
X138341428Y-84997285D02*
X138284286Y-85111571D01*
X138284286Y-85111571D02*
X138284286Y-85225857D01*
X138284286Y-85225857D02*
X138855714Y-85340142D01*
X137770000Y-85740142D02*
X137770000Y-84940142D01*
X137770000Y-85168714D02*
X137712857Y-85054428D01*
X137712857Y-85054428D02*
X137655715Y-84997285D01*
X137655715Y-84997285D02*
X137541429Y-84940142D01*
X137541429Y-84940142D02*
X137427143Y-84940142D01*
X137141429Y-84940142D02*
X136855715Y-85740142D01*
X136570000Y-84940142D02*
X136855715Y-85740142D01*
X136855715Y-85740142D02*
X136970000Y-86025857D01*
X136970000Y-86025857D02*
X137027143Y-86083000D01*
X137027143Y-86083000D02*
X137141429Y-86140142D01*
D12*
X113035489Y-100230828D02*
X113035489Y-101445114D01*
X113035489Y-101445114D02*
X112964060Y-101587971D01*
X112964060Y-101587971D02*
X112892632Y-101659400D01*
X112892632Y-101659400D02*
X112749774Y-101730828D01*
X112749774Y-101730828D02*
X112464060Y-101730828D01*
X112464060Y-101730828D02*
X112321203Y-101659400D01*
X112321203Y-101659400D02*
X112249774Y-101587971D01*
X112249774Y-101587971D02*
X112178346Y-101445114D01*
X112178346Y-101445114D02*
X112178346Y-100230828D01*
X111535488Y-101659400D02*
X111321203Y-101730828D01*
X111321203Y-101730828D02*
X110964060Y-101730828D01*
X110964060Y-101730828D02*
X110821203Y-101659400D01*
X110821203Y-101659400D02*
X110749774Y-101587971D01*
X110749774Y-101587971D02*
X110678345Y-101445114D01*
X110678345Y-101445114D02*
X110678345Y-101302257D01*
X110678345Y-101302257D02*
X110749774Y-101159400D01*
X110749774Y-101159400D02*
X110821203Y-101087971D01*
X110821203Y-101087971D02*
X110964060Y-101016542D01*
X110964060Y-101016542D02*
X111249774Y-100945114D01*
X111249774Y-100945114D02*
X111392631Y-100873685D01*
X111392631Y-100873685D02*
X111464060Y-100802257D01*
X111464060Y-100802257D02*
X111535488Y-100659400D01*
X111535488Y-100659400D02*
X111535488Y-100516542D01*
X111535488Y-100516542D02*
X111464060Y-100373685D01*
X111464060Y-100373685D02*
X111392631Y-100302257D01*
X111392631Y-100302257D02*
X111249774Y-100230828D01*
X111249774Y-100230828D02*
X110892631Y-100230828D01*
X110892631Y-100230828D02*
X110678345Y-100302257D01*
X109535489Y-100945114D02*
X109321203Y-101016542D01*
X109321203Y-101016542D02*
X109249774Y-101087971D01*
X109249774Y-101087971D02*
X109178346Y-101230828D01*
X109178346Y-101230828D02*
X109178346Y-101445114D01*
X109178346Y-101445114D02*
X109249774Y-101587971D01*
X109249774Y-101587971D02*
X109321203Y-101659400D01*
X109321203Y-101659400D02*
X109464060Y-101730828D01*
X109464060Y-101730828D02*
X110035489Y-101730828D01*
X110035489Y-101730828D02*
X110035489Y-100230828D01*
X110035489Y-100230828D02*
X109535489Y-100230828D01*
X109535489Y-100230828D02*
X109392632Y-100302257D01*
X109392632Y-100302257D02*
X109321203Y-100373685D01*
X109321203Y-100373685D02*
X109249774Y-100516542D01*
X109249774Y-100516542D02*
X109249774Y-100659400D01*
X109249774Y-100659400D02*
X109321203Y-100802257D01*
X109321203Y-100802257D02*
X109392632Y-100873685D01*
X109392632Y-100873685D02*
X109535489Y-100945114D01*
X109535489Y-100945114D02*
X110035489Y-100945114D01*
X112458346Y-110380828D02*
X112958346Y-109666542D01*
X113315489Y-110380828D02*
X113315489Y-108880828D01*
X113315489Y-108880828D02*
X112744060Y-108880828D01*
X112744060Y-108880828D02*
X112601203Y-108952257D01*
X112601203Y-108952257D02*
X112529774Y-109023685D01*
X112529774Y-109023685D02*
X112458346Y-109166542D01*
X112458346Y-109166542D02*
X112458346Y-109380828D01*
X112458346Y-109380828D02*
X112529774Y-109523685D01*
X112529774Y-109523685D02*
X112601203Y-109595114D01*
X112601203Y-109595114D02*
X112744060Y-109666542D01*
X112744060Y-109666542D02*
X113315489Y-109666542D01*
X111244060Y-110309400D02*
X111386917Y-110380828D01*
X111386917Y-110380828D02*
X111672632Y-110380828D01*
X111672632Y-110380828D02*
X111815489Y-110309400D01*
X111815489Y-110309400D02*
X111886917Y-110166542D01*
X111886917Y-110166542D02*
X111886917Y-109595114D01*
X111886917Y-109595114D02*
X111815489Y-109452257D01*
X111815489Y-109452257D02*
X111672632Y-109380828D01*
X111672632Y-109380828D02*
X111386917Y-109380828D01*
X111386917Y-109380828D02*
X111244060Y-109452257D01*
X111244060Y-109452257D02*
X111172632Y-109595114D01*
X111172632Y-109595114D02*
X111172632Y-109737971D01*
X111172632Y-109737971D02*
X111886917Y-109880828D01*
X110601203Y-110309400D02*
X110458346Y-110380828D01*
X110458346Y-110380828D02*
X110172632Y-110380828D01*
X110172632Y-110380828D02*
X110029775Y-110309400D01*
X110029775Y-110309400D02*
X109958346Y-110166542D01*
X109958346Y-110166542D02*
X109958346Y-110095114D01*
X109958346Y-110095114D02*
X110029775Y-109952257D01*
X110029775Y-109952257D02*
X110172632Y-109880828D01*
X110172632Y-109880828D02*
X110386918Y-109880828D01*
X110386918Y-109880828D02*
X110529775Y-109809400D01*
X110529775Y-109809400D02*
X110601203Y-109666542D01*
X110601203Y-109666542D02*
X110601203Y-109595114D01*
X110601203Y-109595114D02*
X110529775Y-109452257D01*
X110529775Y-109452257D02*
X110386918Y-109380828D01*
X110386918Y-109380828D02*
X110172632Y-109380828D01*
X110172632Y-109380828D02*
X110029775Y-109452257D01*
X108744060Y-110309400D02*
X108886917Y-110380828D01*
X108886917Y-110380828D02*
X109172632Y-110380828D01*
X109172632Y-110380828D02*
X109315489Y-110309400D01*
X109315489Y-110309400D02*
X109386917Y-110166542D01*
X109386917Y-110166542D02*
X109386917Y-109595114D01*
X109386917Y-109595114D02*
X109315489Y-109452257D01*
X109315489Y-109452257D02*
X109172632Y-109380828D01*
X109172632Y-109380828D02*
X108886917Y-109380828D01*
X108886917Y-109380828D02*
X108744060Y-109452257D01*
X108744060Y-109452257D02*
X108672632Y-109595114D01*
X108672632Y-109595114D02*
X108672632Y-109737971D01*
X108672632Y-109737971D02*
X109386917Y-109880828D01*
X108244060Y-109380828D02*
X107672632Y-109380828D01*
X108029775Y-108880828D02*
X108029775Y-110166542D01*
X108029775Y-110166542D02*
X107958346Y-110309400D01*
X107958346Y-110309400D02*
X107815489Y-110380828D01*
X107815489Y-110380828D02*
X107672632Y-110380828D01*
X149975489Y-85545114D02*
X149761203Y-85616542D01*
X149761203Y-85616542D02*
X149689774Y-85687971D01*
X149689774Y-85687971D02*
X149618346Y-85830828D01*
X149618346Y-85830828D02*
X149618346Y-86045114D01*
X149618346Y-86045114D02*
X149689774Y-86187971D01*
X149689774Y-86187971D02*
X149761203Y-86259400D01*
X149761203Y-86259400D02*
X149904060Y-86330828D01*
X149904060Y-86330828D02*
X150475489Y-86330828D01*
X150475489Y-86330828D02*
X150475489Y-84830828D01*
X150475489Y-84830828D02*
X149975489Y-84830828D01*
X149975489Y-84830828D02*
X149832632Y-84902257D01*
X149832632Y-84902257D02*
X149761203Y-84973685D01*
X149761203Y-84973685D02*
X149689774Y-85116542D01*
X149689774Y-85116542D02*
X149689774Y-85259400D01*
X149689774Y-85259400D02*
X149761203Y-85402257D01*
X149761203Y-85402257D02*
X149832632Y-85473685D01*
X149832632Y-85473685D02*
X149975489Y-85545114D01*
X149975489Y-85545114D02*
X150475489Y-85545114D01*
X148761203Y-86330828D02*
X148904060Y-86259400D01*
X148904060Y-86259400D02*
X148975489Y-86187971D01*
X148975489Y-86187971D02*
X149046917Y-86045114D01*
X149046917Y-86045114D02*
X149046917Y-85616542D01*
X149046917Y-85616542D02*
X148975489Y-85473685D01*
X148975489Y-85473685D02*
X148904060Y-85402257D01*
X148904060Y-85402257D02*
X148761203Y-85330828D01*
X148761203Y-85330828D02*
X148546917Y-85330828D01*
X148546917Y-85330828D02*
X148404060Y-85402257D01*
X148404060Y-85402257D02*
X148332632Y-85473685D01*
X148332632Y-85473685D02*
X148261203Y-85616542D01*
X148261203Y-85616542D02*
X148261203Y-86045114D01*
X148261203Y-86045114D02*
X148332632Y-86187971D01*
X148332632Y-86187971D02*
X148404060Y-86259400D01*
X148404060Y-86259400D02*
X148546917Y-86330828D01*
X148546917Y-86330828D02*
X148761203Y-86330828D01*
X147404060Y-86330828D02*
X147546917Y-86259400D01*
X147546917Y-86259400D02*
X147618346Y-86187971D01*
X147618346Y-86187971D02*
X147689774Y-86045114D01*
X147689774Y-86045114D02*
X147689774Y-85616542D01*
X147689774Y-85616542D02*
X147618346Y-85473685D01*
X147618346Y-85473685D02*
X147546917Y-85402257D01*
X147546917Y-85402257D02*
X147404060Y-85330828D01*
X147404060Y-85330828D02*
X147189774Y-85330828D01*
X147189774Y-85330828D02*
X147046917Y-85402257D01*
X147046917Y-85402257D02*
X146975489Y-85473685D01*
X146975489Y-85473685D02*
X146904060Y-85616542D01*
X146904060Y-85616542D02*
X146904060Y-86045114D01*
X146904060Y-86045114D02*
X146975489Y-86187971D01*
X146975489Y-86187971D02*
X147046917Y-86259400D01*
X147046917Y-86259400D02*
X147189774Y-86330828D01*
X147189774Y-86330828D02*
X147404060Y-86330828D01*
X146475488Y-85330828D02*
X145904060Y-85330828D01*
X146261203Y-84830828D02*
X146261203Y-86116542D01*
X146261203Y-86116542D02*
X146189774Y-86259400D01*
X146189774Y-86259400D02*
X146046917Y-86330828D01*
X146046917Y-86330828D02*
X145904060Y-86330828D01*
X158461203Y-123600828D02*
X159175489Y-123600828D01*
X159175489Y-123600828D02*
X159175489Y-122100828D01*
X157746917Y-123600828D02*
X157889774Y-123529400D01*
X157889774Y-123529400D02*
X157961203Y-123457971D01*
X157961203Y-123457971D02*
X158032631Y-123315114D01*
X158032631Y-123315114D02*
X158032631Y-122886542D01*
X158032631Y-122886542D02*
X157961203Y-122743685D01*
X157961203Y-122743685D02*
X157889774Y-122672257D01*
X157889774Y-122672257D02*
X157746917Y-122600828D01*
X157746917Y-122600828D02*
X157532631Y-122600828D01*
X157532631Y-122600828D02*
X157389774Y-122672257D01*
X157389774Y-122672257D02*
X157318346Y-122743685D01*
X157318346Y-122743685D02*
X157246917Y-122886542D01*
X157246917Y-122886542D02*
X157246917Y-123315114D01*
X157246917Y-123315114D02*
X157318346Y-123457971D01*
X157318346Y-123457971D02*
X157389774Y-123529400D01*
X157389774Y-123529400D02*
X157532631Y-123600828D01*
X157532631Y-123600828D02*
X157746917Y-123600828D01*
X155746917Y-123600828D02*
X156246917Y-122886542D01*
X156604060Y-123600828D02*
X156604060Y-122100828D01*
X156604060Y-122100828D02*
X156032631Y-122100828D01*
X156032631Y-122100828D02*
X155889774Y-122172257D01*
X155889774Y-122172257D02*
X155818345Y-122243685D01*
X155818345Y-122243685D02*
X155746917Y-122386542D01*
X155746917Y-122386542D02*
X155746917Y-122600828D01*
X155746917Y-122600828D02*
X155818345Y-122743685D01*
X155818345Y-122743685D02*
X155889774Y-122815114D01*
X155889774Y-122815114D02*
X156032631Y-122886542D01*
X156032631Y-122886542D02*
X156604060Y-122886542D01*
X155175488Y-123172257D02*
X154461203Y-123172257D01*
X155318345Y-123600828D02*
X154818345Y-122100828D01*
X154818345Y-122100828D02*
X154318345Y-123600828D01*
X152675489Y-123600828D02*
X152675489Y-122100828D01*
X152675489Y-122100828D02*
X152175489Y-123172257D01*
X152175489Y-123172257D02*
X151675489Y-122100828D01*
X151675489Y-122100828D02*
X151675489Y-123600828D01*
X150746917Y-123600828D02*
X150889774Y-123529400D01*
X150889774Y-123529400D02*
X150961203Y-123457971D01*
X150961203Y-123457971D02*
X151032631Y-123315114D01*
X151032631Y-123315114D02*
X151032631Y-122886542D01*
X151032631Y-122886542D02*
X150961203Y-122743685D01*
X150961203Y-122743685D02*
X150889774Y-122672257D01*
X150889774Y-122672257D02*
X150746917Y-122600828D01*
X150746917Y-122600828D02*
X150532631Y-122600828D01*
X150532631Y-122600828D02*
X150389774Y-122672257D01*
X150389774Y-122672257D02*
X150318346Y-122743685D01*
X150318346Y-122743685D02*
X150246917Y-122886542D01*
X150246917Y-122886542D02*
X150246917Y-123315114D01*
X150246917Y-123315114D02*
X150318346Y-123457971D01*
X150318346Y-123457971D02*
X150389774Y-123529400D01*
X150389774Y-123529400D02*
X150532631Y-123600828D01*
X150532631Y-123600828D02*
X150746917Y-123600828D01*
X148961203Y-123600828D02*
X148961203Y-122100828D01*
X148961203Y-123529400D02*
X149104060Y-123600828D01*
X149104060Y-123600828D02*
X149389774Y-123600828D01*
X149389774Y-123600828D02*
X149532631Y-123529400D01*
X149532631Y-123529400D02*
X149604060Y-123457971D01*
X149604060Y-123457971D02*
X149675488Y-123315114D01*
X149675488Y-123315114D02*
X149675488Y-122886542D01*
X149675488Y-122886542D02*
X149604060Y-122743685D01*
X149604060Y-122743685D02*
X149532631Y-122672257D01*
X149532631Y-122672257D02*
X149389774Y-122600828D01*
X149389774Y-122600828D02*
X149104060Y-122600828D01*
X149104060Y-122600828D02*
X148961203Y-122672257D01*
X147604060Y-122600828D02*
X147604060Y-123600828D01*
X148246917Y-122600828D02*
X148246917Y-123386542D01*
X148246917Y-123386542D02*
X148175488Y-123529400D01*
X148175488Y-123529400D02*
X148032631Y-123600828D01*
X148032631Y-123600828D02*
X147818345Y-123600828D01*
X147818345Y-123600828D02*
X147675488Y-123529400D01*
X147675488Y-123529400D02*
X147604060Y-123457971D01*
X146675488Y-123600828D02*
X146818345Y-123529400D01*
X146818345Y-123529400D02*
X146889774Y-123386542D01*
X146889774Y-123386542D02*
X146889774Y-122100828D01*
X145532631Y-123529400D02*
X145675488Y-123600828D01*
X145675488Y-123600828D02*
X145961203Y-123600828D01*
X145961203Y-123600828D02*
X146104060Y-123529400D01*
X146104060Y-123529400D02*
X146175488Y-123386542D01*
X146175488Y-123386542D02*
X146175488Y-122815114D01*
X146175488Y-122815114D02*
X146104060Y-122672257D01*
X146104060Y-122672257D02*
X145961203Y-122600828D01*
X145961203Y-122600828D02*
X145675488Y-122600828D01*
X145675488Y-122600828D02*
X145532631Y-122672257D01*
X145532631Y-122672257D02*
X145461203Y-122815114D01*
X145461203Y-122815114D02*
X145461203Y-122957971D01*
X145461203Y-122957971D02*
X146175488Y-123100828D01*
X196449774Y-148710828D02*
X197306917Y-148710828D01*
X196878346Y-148710828D02*
X196878346Y-147210828D01*
X196878346Y-147210828D02*
X197021203Y-147425114D01*
X197021203Y-147425114D02*
X197164060Y-147567971D01*
X197164060Y-147567971D02*
X197306917Y-147639400D01*
X195592632Y-147853685D02*
X195735489Y-147782257D01*
X195735489Y-147782257D02*
X195806918Y-147710828D01*
X195806918Y-147710828D02*
X195878346Y-147567971D01*
X195878346Y-147567971D02*
X195878346Y-147496542D01*
X195878346Y-147496542D02*
X195806918Y-147353685D01*
X195806918Y-147353685D02*
X195735489Y-147282257D01*
X195735489Y-147282257D02*
X195592632Y-147210828D01*
X195592632Y-147210828D02*
X195306918Y-147210828D01*
X195306918Y-147210828D02*
X195164061Y-147282257D01*
X195164061Y-147282257D02*
X195092632Y-147353685D01*
X195092632Y-147353685D02*
X195021203Y-147496542D01*
X195021203Y-147496542D02*
X195021203Y-147567971D01*
X195021203Y-147567971D02*
X195092632Y-147710828D01*
X195092632Y-147710828D02*
X195164061Y-147782257D01*
X195164061Y-147782257D02*
X195306918Y-147853685D01*
X195306918Y-147853685D02*
X195592632Y-147853685D01*
X195592632Y-147853685D02*
X195735489Y-147925114D01*
X195735489Y-147925114D02*
X195806918Y-147996542D01*
X195806918Y-147996542D02*
X195878346Y-148139400D01*
X195878346Y-148139400D02*
X195878346Y-148425114D01*
X195878346Y-148425114D02*
X195806918Y-148567971D01*
X195806918Y-148567971D02*
X195735489Y-148639400D01*
X195735489Y-148639400D02*
X195592632Y-148710828D01*
X195592632Y-148710828D02*
X195306918Y-148710828D01*
X195306918Y-148710828D02*
X195164061Y-148639400D01*
X195164061Y-148639400D02*
X195092632Y-148567971D01*
X195092632Y-148567971D02*
X195021203Y-148425114D01*
X195021203Y-148425114D02*
X195021203Y-148139400D01*
X195021203Y-148139400D02*
X195092632Y-147996542D01*
X195092632Y-147996542D02*
X195164061Y-147925114D01*
X195164061Y-147925114D02*
X195306918Y-147853685D01*
X193735490Y-147210828D02*
X194021204Y-147210828D01*
X194021204Y-147210828D02*
X194164061Y-147282257D01*
X194164061Y-147282257D02*
X194235490Y-147353685D01*
X194235490Y-147353685D02*
X194378347Y-147567971D01*
X194378347Y-147567971D02*
X194449775Y-147853685D01*
X194449775Y-147853685D02*
X194449775Y-148425114D01*
X194449775Y-148425114D02*
X194378347Y-148567971D01*
X194378347Y-148567971D02*
X194306918Y-148639400D01*
X194306918Y-148639400D02*
X194164061Y-148710828D01*
X194164061Y-148710828D02*
X193878347Y-148710828D01*
X193878347Y-148710828D02*
X193735490Y-148639400D01*
X193735490Y-148639400D02*
X193664061Y-148567971D01*
X193664061Y-148567971D02*
X193592632Y-148425114D01*
X193592632Y-148425114D02*
X193592632Y-148067971D01*
X193592632Y-148067971D02*
X193664061Y-147925114D01*
X193664061Y-147925114D02*
X193735490Y-147853685D01*
X193735490Y-147853685D02*
X193878347Y-147782257D01*
X193878347Y-147782257D02*
X194164061Y-147782257D01*
X194164061Y-147782257D02*
X194306918Y-147853685D01*
X194306918Y-147853685D02*
X194378347Y-147925114D01*
X194378347Y-147925114D02*
X194449775Y-148067971D01*
X192235490Y-147210828D02*
X192949776Y-147210828D01*
X192949776Y-147210828D02*
X193021204Y-147925114D01*
X193021204Y-147925114D02*
X192949776Y-147853685D01*
X192949776Y-147853685D02*
X192806919Y-147782257D01*
X192806919Y-147782257D02*
X192449776Y-147782257D01*
X192449776Y-147782257D02*
X192306919Y-147853685D01*
X192306919Y-147853685D02*
X192235490Y-147925114D01*
X192235490Y-147925114D02*
X192164061Y-148067971D01*
X192164061Y-148067971D02*
X192164061Y-148425114D01*
X192164061Y-148425114D02*
X192235490Y-148567971D01*
X192235490Y-148567971D02*
X192306919Y-148639400D01*
X192306919Y-148639400D02*
X192449776Y-148710828D01*
X192449776Y-148710828D02*
X192806919Y-148710828D01*
X192806919Y-148710828D02*
X192949776Y-148639400D01*
X192949776Y-148639400D02*
X193021204Y-148567971D01*
X191235490Y-147210828D02*
X191092633Y-147210828D01*
X191092633Y-147210828D02*
X190949776Y-147282257D01*
X190949776Y-147282257D02*
X190878348Y-147353685D01*
X190878348Y-147353685D02*
X190806919Y-147496542D01*
X190806919Y-147496542D02*
X190735490Y-147782257D01*
X190735490Y-147782257D02*
X190735490Y-148139400D01*
X190735490Y-148139400D02*
X190806919Y-148425114D01*
X190806919Y-148425114D02*
X190878348Y-148567971D01*
X190878348Y-148567971D02*
X190949776Y-148639400D01*
X190949776Y-148639400D02*
X191092633Y-148710828D01*
X191092633Y-148710828D02*
X191235490Y-148710828D01*
X191235490Y-148710828D02*
X191378348Y-148639400D01*
X191378348Y-148639400D02*
X191449776Y-148567971D01*
X191449776Y-148567971D02*
X191521205Y-148425114D01*
X191521205Y-148425114D02*
X191592633Y-148139400D01*
X191592633Y-148139400D02*
X191592633Y-147782257D01*
X191592633Y-147782257D02*
X191521205Y-147496542D01*
X191521205Y-147496542D02*
X191449776Y-147353685D01*
X191449776Y-147353685D02*
X191378348Y-147282257D01*
X191378348Y-147282257D02*
X191235490Y-147210828D01*
X188449777Y-147925114D02*
X188235491Y-147996542D01*
X188235491Y-147996542D02*
X188164062Y-148067971D01*
X188164062Y-148067971D02*
X188092634Y-148210828D01*
X188092634Y-148210828D02*
X188092634Y-148425114D01*
X188092634Y-148425114D02*
X188164062Y-148567971D01*
X188164062Y-148567971D02*
X188235491Y-148639400D01*
X188235491Y-148639400D02*
X188378348Y-148710828D01*
X188378348Y-148710828D02*
X188949777Y-148710828D01*
X188949777Y-148710828D02*
X188949777Y-147210828D01*
X188949777Y-147210828D02*
X188449777Y-147210828D01*
X188449777Y-147210828D02*
X188306920Y-147282257D01*
X188306920Y-147282257D02*
X188235491Y-147353685D01*
X188235491Y-147353685D02*
X188164062Y-147496542D01*
X188164062Y-147496542D02*
X188164062Y-147639400D01*
X188164062Y-147639400D02*
X188235491Y-147782257D01*
X188235491Y-147782257D02*
X188306920Y-147853685D01*
X188306920Y-147853685D02*
X188449777Y-147925114D01*
X188449777Y-147925114D02*
X188949777Y-147925114D01*
X186806920Y-148710828D02*
X186806920Y-147925114D01*
X186806920Y-147925114D02*
X186878348Y-147782257D01*
X186878348Y-147782257D02*
X187021205Y-147710828D01*
X187021205Y-147710828D02*
X187306920Y-147710828D01*
X187306920Y-147710828D02*
X187449777Y-147782257D01*
X186806920Y-148639400D02*
X186949777Y-148710828D01*
X186949777Y-148710828D02*
X187306920Y-148710828D01*
X187306920Y-148710828D02*
X187449777Y-148639400D01*
X187449777Y-148639400D02*
X187521205Y-148496542D01*
X187521205Y-148496542D02*
X187521205Y-148353685D01*
X187521205Y-148353685D02*
X187449777Y-148210828D01*
X187449777Y-148210828D02*
X187306920Y-148139400D01*
X187306920Y-148139400D02*
X186949777Y-148139400D01*
X186949777Y-148139400D02*
X186806920Y-148067971D01*
X186306919Y-147710828D02*
X185735491Y-147710828D01*
X186092634Y-147210828D02*
X186092634Y-148496542D01*
X186092634Y-148496542D02*
X186021205Y-148639400D01*
X186021205Y-148639400D02*
X185878348Y-148710828D01*
X185878348Y-148710828D02*
X185735491Y-148710828D01*
X185449776Y-147710828D02*
X184878348Y-147710828D01*
X185235491Y-147210828D02*
X185235491Y-148496542D01*
X185235491Y-148496542D02*
X185164062Y-148639400D01*
X185164062Y-148639400D02*
X185021205Y-148710828D01*
X185021205Y-148710828D02*
X184878348Y-148710828D01*
X183806919Y-148639400D02*
X183949776Y-148710828D01*
X183949776Y-148710828D02*
X184235491Y-148710828D01*
X184235491Y-148710828D02*
X184378348Y-148639400D01*
X184378348Y-148639400D02*
X184449776Y-148496542D01*
X184449776Y-148496542D02*
X184449776Y-147925114D01*
X184449776Y-147925114D02*
X184378348Y-147782257D01*
X184378348Y-147782257D02*
X184235491Y-147710828D01*
X184235491Y-147710828D02*
X183949776Y-147710828D01*
X183949776Y-147710828D02*
X183806919Y-147782257D01*
X183806919Y-147782257D02*
X183735491Y-147925114D01*
X183735491Y-147925114D02*
X183735491Y-148067971D01*
X183735491Y-148067971D02*
X184449776Y-148210828D01*
X183092634Y-148710828D02*
X183092634Y-147710828D01*
X183092634Y-147996542D02*
X183021205Y-147853685D01*
X183021205Y-147853685D02*
X182949777Y-147782257D01*
X182949777Y-147782257D02*
X182806919Y-147710828D01*
X182806919Y-147710828D02*
X182664062Y-147710828D01*
X182306920Y-147710828D02*
X181949777Y-148710828D01*
X181592634Y-147710828D02*
X181949777Y-148710828D01*
X181949777Y-148710828D02*
X182092634Y-149067971D01*
X182092634Y-149067971D02*
X182164063Y-149139400D01*
X182164063Y-149139400D02*
X182306920Y-149210828D01*
X197925489Y-94229400D02*
X196782632Y-94229400D01*
X199215489Y-98540828D02*
X199215489Y-97040828D01*
X199215489Y-97040828D02*
X198715489Y-98112257D01*
X198715489Y-98112257D02*
X198215489Y-97040828D01*
X198215489Y-97040828D02*
X198215489Y-98540828D01*
X197501203Y-98540828D02*
X197501203Y-97540828D01*
X197501203Y-97040828D02*
X197572631Y-97112257D01*
X197572631Y-97112257D02*
X197501203Y-97183685D01*
X197501203Y-97183685D02*
X197429774Y-97112257D01*
X197429774Y-97112257D02*
X197501203Y-97040828D01*
X197501203Y-97040828D02*
X197501203Y-97183685D01*
X196144060Y-98469400D02*
X196286917Y-98540828D01*
X196286917Y-98540828D02*
X196572631Y-98540828D01*
X196572631Y-98540828D02*
X196715488Y-98469400D01*
X196715488Y-98469400D02*
X196786917Y-98397971D01*
X196786917Y-98397971D02*
X196858345Y-98255114D01*
X196858345Y-98255114D02*
X196858345Y-97826542D01*
X196858345Y-97826542D02*
X196786917Y-97683685D01*
X196786917Y-97683685D02*
X196715488Y-97612257D01*
X196715488Y-97612257D02*
X196572631Y-97540828D01*
X196572631Y-97540828D02*
X196286917Y-97540828D01*
X196286917Y-97540828D02*
X196144060Y-97612257D01*
X195501203Y-98540828D02*
X195501203Y-97540828D01*
X195501203Y-97826542D02*
X195429774Y-97683685D01*
X195429774Y-97683685D02*
X195358346Y-97612257D01*
X195358346Y-97612257D02*
X195215488Y-97540828D01*
X195215488Y-97540828D02*
X195072631Y-97540828D01*
X194358346Y-98540828D02*
X194501203Y-98469400D01*
X194501203Y-98469400D02*
X194572632Y-98397971D01*
X194572632Y-98397971D02*
X194644060Y-98255114D01*
X194644060Y-98255114D02*
X194644060Y-97826542D01*
X194644060Y-97826542D02*
X194572632Y-97683685D01*
X194572632Y-97683685D02*
X194501203Y-97612257D01*
X194501203Y-97612257D02*
X194358346Y-97540828D01*
X194358346Y-97540828D02*
X194144060Y-97540828D01*
X194144060Y-97540828D02*
X194001203Y-97612257D01*
X194001203Y-97612257D02*
X193929775Y-97683685D01*
X193929775Y-97683685D02*
X193858346Y-97826542D01*
X193858346Y-97826542D02*
X193858346Y-98255114D01*
X193858346Y-98255114D02*
X193929775Y-98397971D01*
X193929775Y-98397971D02*
X194001203Y-98469400D01*
X194001203Y-98469400D02*
X194144060Y-98540828D01*
X194144060Y-98540828D02*
X194358346Y-98540828D01*
X192144060Y-98469400D02*
X191929775Y-98540828D01*
X191929775Y-98540828D02*
X191572632Y-98540828D01*
X191572632Y-98540828D02*
X191429775Y-98469400D01*
X191429775Y-98469400D02*
X191358346Y-98397971D01*
X191358346Y-98397971D02*
X191286917Y-98255114D01*
X191286917Y-98255114D02*
X191286917Y-98112257D01*
X191286917Y-98112257D02*
X191358346Y-97969400D01*
X191358346Y-97969400D02*
X191429775Y-97897971D01*
X191429775Y-97897971D02*
X191572632Y-97826542D01*
X191572632Y-97826542D02*
X191858346Y-97755114D01*
X191858346Y-97755114D02*
X192001203Y-97683685D01*
X192001203Y-97683685D02*
X192072632Y-97612257D01*
X192072632Y-97612257D02*
X192144060Y-97469400D01*
X192144060Y-97469400D02*
X192144060Y-97326542D01*
X192144060Y-97326542D02*
X192072632Y-97183685D01*
X192072632Y-97183685D02*
X192001203Y-97112257D01*
X192001203Y-97112257D02*
X191858346Y-97040828D01*
X191858346Y-97040828D02*
X191501203Y-97040828D01*
X191501203Y-97040828D02*
X191286917Y-97112257D01*
X190644061Y-98540828D02*
X190644061Y-97040828D01*
X190644061Y-97040828D02*
X190286918Y-97040828D01*
X190286918Y-97040828D02*
X190072632Y-97112257D01*
X190072632Y-97112257D02*
X189929775Y-97255114D01*
X189929775Y-97255114D02*
X189858346Y-97397971D01*
X189858346Y-97397971D02*
X189786918Y-97683685D01*
X189786918Y-97683685D02*
X189786918Y-97897971D01*
X189786918Y-97897971D02*
X189858346Y-98183685D01*
X189858346Y-98183685D02*
X189929775Y-98326542D01*
X189929775Y-98326542D02*
X190072632Y-98469400D01*
X190072632Y-98469400D02*
X190286918Y-98540828D01*
X190286918Y-98540828D02*
X190644061Y-98540828D01*
X200835489Y-94259400D02*
X199692632Y-94259400D01*
X200264060Y-94830828D02*
X200264060Y-93687971D01*
X139824285Y-105163055D02*
X139895713Y-105234484D01*
X139895713Y-105234484D02*
X140109999Y-105305912D01*
X140109999Y-105305912D02*
X140252856Y-105305912D01*
X140252856Y-105305912D02*
X140467142Y-105234484D01*
X140467142Y-105234484D02*
X140609999Y-105091626D01*
X140609999Y-105091626D02*
X140681428Y-104948769D01*
X140681428Y-104948769D02*
X140752856Y-104663055D01*
X140752856Y-104663055D02*
X140752856Y-104448769D01*
X140752856Y-104448769D02*
X140681428Y-104163055D01*
X140681428Y-104163055D02*
X140609999Y-104020198D01*
X140609999Y-104020198D02*
X140467142Y-103877341D01*
X140467142Y-103877341D02*
X140252856Y-103805912D01*
X140252856Y-103805912D02*
X140109999Y-103805912D01*
X140109999Y-103805912D02*
X139895713Y-103877341D01*
X139895713Y-103877341D02*
X139824285Y-103948769D01*
X138609999Y-105234484D02*
X138752856Y-105305912D01*
X138752856Y-105305912D02*
X139038571Y-105305912D01*
X139038571Y-105305912D02*
X139181428Y-105234484D01*
X139181428Y-105234484D02*
X139252856Y-105091626D01*
X139252856Y-105091626D02*
X139252856Y-104520198D01*
X139252856Y-104520198D02*
X139181428Y-104377341D01*
X139181428Y-104377341D02*
X139038571Y-104305912D01*
X139038571Y-104305912D02*
X138752856Y-104305912D01*
X138752856Y-104305912D02*
X138609999Y-104377341D01*
X138609999Y-104377341D02*
X138538571Y-104520198D01*
X138538571Y-104520198D02*
X138538571Y-104663055D01*
X138538571Y-104663055D02*
X139252856Y-104805912D01*
X137681428Y-105305912D02*
X137824285Y-105234484D01*
X137824285Y-105234484D02*
X137895714Y-105091626D01*
X137895714Y-105091626D02*
X137895714Y-103805912D01*
X136895714Y-105305912D02*
X137038571Y-105234484D01*
X137038571Y-105234484D02*
X137110000Y-105091626D01*
X137110000Y-105091626D02*
X137110000Y-103805912D01*
X142074285Y-107649400D02*
X141860000Y-107720828D01*
X141860000Y-107720828D02*
X141502857Y-107720828D01*
X141502857Y-107720828D02*
X141360000Y-107649400D01*
X141360000Y-107649400D02*
X141288571Y-107577971D01*
X141288571Y-107577971D02*
X141217142Y-107435114D01*
X141217142Y-107435114D02*
X141217142Y-107292257D01*
X141217142Y-107292257D02*
X141288571Y-107149400D01*
X141288571Y-107149400D02*
X141360000Y-107077971D01*
X141360000Y-107077971D02*
X141502857Y-107006542D01*
X141502857Y-107006542D02*
X141788571Y-106935114D01*
X141788571Y-106935114D02*
X141931428Y-106863685D01*
X141931428Y-106863685D02*
X142002857Y-106792257D01*
X142002857Y-106792257D02*
X142074285Y-106649400D01*
X142074285Y-106649400D02*
X142074285Y-106506542D01*
X142074285Y-106506542D02*
X142002857Y-106363685D01*
X142002857Y-106363685D02*
X141931428Y-106292257D01*
X141931428Y-106292257D02*
X141788571Y-106220828D01*
X141788571Y-106220828D02*
X141431428Y-106220828D01*
X141431428Y-106220828D02*
X141217142Y-106292257D01*
X140574286Y-107720828D02*
X140574286Y-106720828D01*
X140574286Y-106220828D02*
X140645714Y-106292257D01*
X140645714Y-106292257D02*
X140574286Y-106363685D01*
X140574286Y-106363685D02*
X140502857Y-106292257D01*
X140502857Y-106292257D02*
X140574286Y-106220828D01*
X140574286Y-106220828D02*
X140574286Y-106363685D01*
X139217143Y-106720828D02*
X139217143Y-107935114D01*
X139217143Y-107935114D02*
X139288571Y-108077971D01*
X139288571Y-108077971D02*
X139360000Y-108149400D01*
X139360000Y-108149400D02*
X139502857Y-108220828D01*
X139502857Y-108220828D02*
X139717143Y-108220828D01*
X139717143Y-108220828D02*
X139860000Y-108149400D01*
X139217143Y-107649400D02*
X139360000Y-107720828D01*
X139360000Y-107720828D02*
X139645714Y-107720828D01*
X139645714Y-107720828D02*
X139788571Y-107649400D01*
X139788571Y-107649400D02*
X139860000Y-107577971D01*
X139860000Y-107577971D02*
X139931428Y-107435114D01*
X139931428Y-107435114D02*
X139931428Y-107006542D01*
X139931428Y-107006542D02*
X139860000Y-106863685D01*
X139860000Y-106863685D02*
X139788571Y-106792257D01*
X139788571Y-106792257D02*
X139645714Y-106720828D01*
X139645714Y-106720828D02*
X139360000Y-106720828D01*
X139360000Y-106720828D02*
X139217143Y-106792257D01*
X138502857Y-106720828D02*
X138502857Y-107720828D01*
X138502857Y-106863685D02*
X138431428Y-106792257D01*
X138431428Y-106792257D02*
X138288571Y-106720828D01*
X138288571Y-106720828D02*
X138074285Y-106720828D01*
X138074285Y-106720828D02*
X137931428Y-106792257D01*
X137931428Y-106792257D02*
X137860000Y-106935114D01*
X137860000Y-106935114D02*
X137860000Y-107720828D01*
X136502857Y-107720828D02*
X136502857Y-106935114D01*
X136502857Y-106935114D02*
X136574285Y-106792257D01*
X136574285Y-106792257D02*
X136717142Y-106720828D01*
X136717142Y-106720828D02*
X137002857Y-106720828D01*
X137002857Y-106720828D02*
X137145714Y-106792257D01*
X136502857Y-107649400D02*
X136645714Y-107720828D01*
X136645714Y-107720828D02*
X137002857Y-107720828D01*
X137002857Y-107720828D02*
X137145714Y-107649400D01*
X137145714Y-107649400D02*
X137217142Y-107506542D01*
X137217142Y-107506542D02*
X137217142Y-107363685D01*
X137217142Y-107363685D02*
X137145714Y-107220828D01*
X137145714Y-107220828D02*
X137002857Y-107149400D01*
X137002857Y-107149400D02*
X136645714Y-107149400D01*
X136645714Y-107149400D02*
X136502857Y-107077971D01*
X135574285Y-107720828D02*
X135717142Y-107649400D01*
X135717142Y-107649400D02*
X135788571Y-107506542D01*
X135788571Y-107506542D02*
X135788571Y-106220828D01*
X142609999Y-115943055D02*
X142681427Y-116014484D01*
X142681427Y-116014484D02*
X142895713Y-116085912D01*
X142895713Y-116085912D02*
X143038570Y-116085912D01*
X143038570Y-116085912D02*
X143252856Y-116014484D01*
X143252856Y-116014484D02*
X143395713Y-115871626D01*
X143395713Y-115871626D02*
X143467142Y-115728769D01*
X143467142Y-115728769D02*
X143538570Y-115443055D01*
X143538570Y-115443055D02*
X143538570Y-115228769D01*
X143538570Y-115228769D02*
X143467142Y-114943055D01*
X143467142Y-114943055D02*
X143395713Y-114800198D01*
X143395713Y-114800198D02*
X143252856Y-114657341D01*
X143252856Y-114657341D02*
X143038570Y-114585912D01*
X143038570Y-114585912D02*
X142895713Y-114585912D01*
X142895713Y-114585912D02*
X142681427Y-114657341D01*
X142681427Y-114657341D02*
X142609999Y-114728769D01*
X141395713Y-116014484D02*
X141538570Y-116085912D01*
X141538570Y-116085912D02*
X141824285Y-116085912D01*
X141824285Y-116085912D02*
X141967142Y-116014484D01*
X141967142Y-116014484D02*
X142038570Y-115871626D01*
X142038570Y-115871626D02*
X142038570Y-115300198D01*
X142038570Y-115300198D02*
X141967142Y-115157341D01*
X141967142Y-115157341D02*
X141824285Y-115085912D01*
X141824285Y-115085912D02*
X141538570Y-115085912D01*
X141538570Y-115085912D02*
X141395713Y-115157341D01*
X141395713Y-115157341D02*
X141324285Y-115300198D01*
X141324285Y-115300198D02*
X141324285Y-115443055D01*
X141324285Y-115443055D02*
X142038570Y-115585912D01*
X140467142Y-116085912D02*
X140609999Y-116014484D01*
X140609999Y-116014484D02*
X140681428Y-115871626D01*
X140681428Y-115871626D02*
X140681428Y-114585912D01*
X139681428Y-116085912D02*
X139824285Y-116014484D01*
X139824285Y-116014484D02*
X139895714Y-115871626D01*
X139895714Y-115871626D02*
X139895714Y-114585912D01*
X138467143Y-115085912D02*
X138467143Y-116085912D01*
X139110000Y-115085912D02*
X139110000Y-115871626D01*
X139110000Y-115871626D02*
X139038571Y-116014484D01*
X139038571Y-116014484D02*
X138895714Y-116085912D01*
X138895714Y-116085912D02*
X138681428Y-116085912D01*
X138681428Y-116085912D02*
X138538571Y-116014484D01*
X138538571Y-116014484D02*
X138467143Y-115943055D01*
X137538571Y-116085912D02*
X137681428Y-116014484D01*
X137681428Y-116014484D02*
X137752857Y-115871626D01*
X137752857Y-115871626D02*
X137752857Y-114585912D01*
X136324286Y-116085912D02*
X136324286Y-115300198D01*
X136324286Y-115300198D02*
X136395714Y-115157341D01*
X136395714Y-115157341D02*
X136538571Y-115085912D01*
X136538571Y-115085912D02*
X136824286Y-115085912D01*
X136824286Y-115085912D02*
X136967143Y-115157341D01*
X136324286Y-116014484D02*
X136467143Y-116085912D01*
X136467143Y-116085912D02*
X136824286Y-116085912D01*
X136824286Y-116085912D02*
X136967143Y-116014484D01*
X136967143Y-116014484D02*
X137038571Y-115871626D01*
X137038571Y-115871626D02*
X137038571Y-115728769D01*
X137038571Y-115728769D02*
X136967143Y-115585912D01*
X136967143Y-115585912D02*
X136824286Y-115514484D01*
X136824286Y-115514484D02*
X136467143Y-115514484D01*
X136467143Y-115514484D02*
X136324286Y-115443055D01*
X135610000Y-116085912D02*
X135610000Y-115085912D01*
X135610000Y-115371626D02*
X135538571Y-115228769D01*
X135538571Y-115228769D02*
X135467143Y-115157341D01*
X135467143Y-115157341D02*
X135324285Y-115085912D01*
X135324285Y-115085912D02*
X135181428Y-115085912D01*
X143002856Y-118072257D02*
X142288571Y-118072257D01*
X143145713Y-118500828D02*
X142645713Y-117000828D01*
X142645713Y-117000828D02*
X142145713Y-118500828D01*
X141645714Y-117500828D02*
X141645714Y-118500828D01*
X141645714Y-117643685D02*
X141574285Y-117572257D01*
X141574285Y-117572257D02*
X141431428Y-117500828D01*
X141431428Y-117500828D02*
X141217142Y-117500828D01*
X141217142Y-117500828D02*
X141074285Y-117572257D01*
X141074285Y-117572257D02*
X141002857Y-117715114D01*
X141002857Y-117715114D02*
X141002857Y-118500828D01*
X140502856Y-117500828D02*
X139931428Y-117500828D01*
X140288571Y-117000828D02*
X140288571Y-118286542D01*
X140288571Y-118286542D02*
X140217142Y-118429400D01*
X140217142Y-118429400D02*
X140074285Y-118500828D01*
X140074285Y-118500828D02*
X139931428Y-118500828D01*
X138859999Y-118429400D02*
X139002856Y-118500828D01*
X139002856Y-118500828D02*
X139288571Y-118500828D01*
X139288571Y-118500828D02*
X139431428Y-118429400D01*
X139431428Y-118429400D02*
X139502856Y-118286542D01*
X139502856Y-118286542D02*
X139502856Y-117715114D01*
X139502856Y-117715114D02*
X139431428Y-117572257D01*
X139431428Y-117572257D02*
X139288571Y-117500828D01*
X139288571Y-117500828D02*
X139002856Y-117500828D01*
X139002856Y-117500828D02*
X138859999Y-117572257D01*
X138859999Y-117572257D02*
X138788571Y-117715114D01*
X138788571Y-117715114D02*
X138788571Y-117857971D01*
X138788571Y-117857971D02*
X139502856Y-118000828D01*
X138145714Y-117500828D02*
X138145714Y-118500828D01*
X138145714Y-117643685D02*
X138074285Y-117572257D01*
X138074285Y-117572257D02*
X137931428Y-117500828D01*
X137931428Y-117500828D02*
X137717142Y-117500828D01*
X137717142Y-117500828D02*
X137574285Y-117572257D01*
X137574285Y-117572257D02*
X137502857Y-117715114D01*
X137502857Y-117715114D02*
X137502857Y-118500828D01*
X136788571Y-117500828D02*
X136788571Y-118500828D01*
X136788571Y-117643685D02*
X136717142Y-117572257D01*
X136717142Y-117572257D02*
X136574285Y-117500828D01*
X136574285Y-117500828D02*
X136359999Y-117500828D01*
X136359999Y-117500828D02*
X136217142Y-117572257D01*
X136217142Y-117572257D02*
X136145714Y-117715114D01*
X136145714Y-117715114D02*
X136145714Y-118500828D01*
X134788571Y-118500828D02*
X134788571Y-117715114D01*
X134788571Y-117715114D02*
X134859999Y-117572257D01*
X134859999Y-117572257D02*
X135002856Y-117500828D01*
X135002856Y-117500828D02*
X135288571Y-117500828D01*
X135288571Y-117500828D02*
X135431428Y-117572257D01*
X134788571Y-118429400D02*
X134931428Y-118500828D01*
X134931428Y-118500828D02*
X135288571Y-118500828D01*
X135288571Y-118500828D02*
X135431428Y-118429400D01*
X135431428Y-118429400D02*
X135502856Y-118286542D01*
X135502856Y-118286542D02*
X135502856Y-118143685D01*
X135502856Y-118143685D02*
X135431428Y-118000828D01*
X135431428Y-118000828D02*
X135288571Y-117929400D01*
X135288571Y-117929400D02*
X134931428Y-117929400D01*
X134931428Y-117929400D02*
X134788571Y-117857971D01*
X205312857Y-117715912D02*
X205312857Y-116215912D01*
X205312857Y-116215912D02*
X204812857Y-117287341D01*
X204812857Y-117287341D02*
X204312857Y-116215912D01*
X204312857Y-116215912D02*
X204312857Y-117715912D01*
X203598571Y-117715912D02*
X203598571Y-116715912D01*
X203598571Y-116215912D02*
X203669999Y-116287341D01*
X203669999Y-116287341D02*
X203598571Y-116358769D01*
X203598571Y-116358769D02*
X203527142Y-116287341D01*
X203527142Y-116287341D02*
X203598571Y-116215912D01*
X203598571Y-116215912D02*
X203598571Y-116358769D01*
X202241428Y-117644484D02*
X202384285Y-117715912D01*
X202384285Y-117715912D02*
X202669999Y-117715912D01*
X202669999Y-117715912D02*
X202812856Y-117644484D01*
X202812856Y-117644484D02*
X202884285Y-117573055D01*
X202884285Y-117573055D02*
X202955713Y-117430198D01*
X202955713Y-117430198D02*
X202955713Y-117001626D01*
X202955713Y-117001626D02*
X202884285Y-116858769D01*
X202884285Y-116858769D02*
X202812856Y-116787341D01*
X202812856Y-116787341D02*
X202669999Y-116715912D01*
X202669999Y-116715912D02*
X202384285Y-116715912D01*
X202384285Y-116715912D02*
X202241428Y-116787341D01*
X201598571Y-117715912D02*
X201598571Y-116715912D01*
X201598571Y-117001626D02*
X201527142Y-116858769D01*
X201527142Y-116858769D02*
X201455714Y-116787341D01*
X201455714Y-116787341D02*
X201312856Y-116715912D01*
X201312856Y-116715912D02*
X201169999Y-116715912D01*
X200455714Y-117715912D02*
X200598571Y-117644484D01*
X200598571Y-117644484D02*
X200670000Y-117573055D01*
X200670000Y-117573055D02*
X200741428Y-117430198D01*
X200741428Y-117430198D02*
X200741428Y-117001626D01*
X200741428Y-117001626D02*
X200670000Y-116858769D01*
X200670000Y-116858769D02*
X200598571Y-116787341D01*
X200598571Y-116787341D02*
X200455714Y-116715912D01*
X200455714Y-116715912D02*
X200241428Y-116715912D01*
X200241428Y-116715912D02*
X200098571Y-116787341D01*
X200098571Y-116787341D02*
X200027143Y-116858769D01*
X200027143Y-116858769D02*
X199955714Y-117001626D01*
X199955714Y-117001626D02*
X199955714Y-117430198D01*
X199955714Y-117430198D02*
X200027143Y-117573055D01*
X200027143Y-117573055D02*
X200098571Y-117644484D01*
X200098571Y-117644484D02*
X200241428Y-117715912D01*
X200241428Y-117715912D02*
X200455714Y-117715912D01*
X204312856Y-120059400D02*
X204098571Y-120130828D01*
X204098571Y-120130828D02*
X203741428Y-120130828D01*
X203741428Y-120130828D02*
X203598571Y-120059400D01*
X203598571Y-120059400D02*
X203527142Y-119987971D01*
X203527142Y-119987971D02*
X203455713Y-119845114D01*
X203455713Y-119845114D02*
X203455713Y-119702257D01*
X203455713Y-119702257D02*
X203527142Y-119559400D01*
X203527142Y-119559400D02*
X203598571Y-119487971D01*
X203598571Y-119487971D02*
X203741428Y-119416542D01*
X203741428Y-119416542D02*
X204027142Y-119345114D01*
X204027142Y-119345114D02*
X204169999Y-119273685D01*
X204169999Y-119273685D02*
X204241428Y-119202257D01*
X204241428Y-119202257D02*
X204312856Y-119059400D01*
X204312856Y-119059400D02*
X204312856Y-118916542D01*
X204312856Y-118916542D02*
X204241428Y-118773685D01*
X204241428Y-118773685D02*
X204169999Y-118702257D01*
X204169999Y-118702257D02*
X204027142Y-118630828D01*
X204027142Y-118630828D02*
X203669999Y-118630828D01*
X203669999Y-118630828D02*
X203455713Y-118702257D01*
X202812857Y-120130828D02*
X202812857Y-118630828D01*
X202098571Y-120130828D02*
X202098571Y-118630828D01*
X202098571Y-118630828D02*
X201598571Y-119702257D01*
X201598571Y-119702257D02*
X201098571Y-118630828D01*
X201098571Y-118630828D02*
X201098571Y-120130828D01*
D13*
X197162857Y-105314819D02*
X197496190Y-104838628D01*
X197734285Y-105314819D02*
X197734285Y-104314819D01*
X197734285Y-104314819D02*
X197353333Y-104314819D01*
X197353333Y-104314819D02*
X197258095Y-104362438D01*
X197258095Y-104362438D02*
X197210476Y-104410057D01*
X197210476Y-104410057D02*
X197162857Y-104505295D01*
X197162857Y-104505295D02*
X197162857Y-104648152D01*
X197162857Y-104648152D02*
X197210476Y-104743390D01*
X197210476Y-104743390D02*
X197258095Y-104791009D01*
X197258095Y-104791009D02*
X197353333Y-104838628D01*
X197353333Y-104838628D02*
X197734285Y-104838628D01*
X196829523Y-104314819D02*
X196210476Y-104314819D01*
X196210476Y-104314819D02*
X196543809Y-104695771D01*
X196543809Y-104695771D02*
X196400952Y-104695771D01*
X196400952Y-104695771D02*
X196305714Y-104743390D01*
X196305714Y-104743390D02*
X196258095Y-104791009D01*
X196258095Y-104791009D02*
X196210476Y-104886247D01*
X196210476Y-104886247D02*
X196210476Y-105124342D01*
X196210476Y-105124342D02*
X196258095Y-105219580D01*
X196258095Y-105219580D02*
X196305714Y-105267200D01*
X196305714Y-105267200D02*
X196400952Y-105314819D01*
X196400952Y-105314819D02*
X196686666Y-105314819D01*
X196686666Y-105314819D02*
X196781904Y-105267200D01*
X196781904Y-105267200D02*
X196829523Y-105219580D01*
X195591428Y-104314819D02*
X195496190Y-104314819D01*
X195496190Y-104314819D02*
X195400952Y-104362438D01*
X195400952Y-104362438D02*
X195353333Y-104410057D01*
X195353333Y-104410057D02*
X195305714Y-104505295D01*
X195305714Y-104505295D02*
X195258095Y-104695771D01*
X195258095Y-104695771D02*
X195258095Y-104933866D01*
X195258095Y-104933866D02*
X195305714Y-105124342D01*
X195305714Y-105124342D02*
X195353333Y-105219580D01*
X195353333Y-105219580D02*
X195400952Y-105267200D01*
X195400952Y-105267200D02*
X195496190Y-105314819D01*
X195496190Y-105314819D02*
X195591428Y-105314819D01*
X195591428Y-105314819D02*
X195686666Y-105267200D01*
X195686666Y-105267200D02*
X195734285Y-105219580D01*
X195734285Y-105219580D02*
X195781904Y-105124342D01*
X195781904Y-105124342D02*
X195829523Y-104933866D01*
X195829523Y-104933866D02*
X195829523Y-104695771D01*
X195829523Y-104695771D02*
X195781904Y-104505295D01*
X195781904Y-104505295D02*
X195734285Y-104410057D01*
X195734285Y-104410057D02*
X195686666Y-104362438D01*
X195686666Y-104362438D02*
X195591428Y-104314819D01*
X109833333Y-104384819D02*
X109833333Y-105099104D01*
X109833333Y-105099104D02*
X109880952Y-105241961D01*
X109880952Y-105241961D02*
X109976190Y-105337200D01*
X109976190Y-105337200D02*
X110119047Y-105384819D01*
X110119047Y-105384819D02*
X110214285Y-105384819D01*
X108880952Y-104384819D02*
X109357142Y-104384819D01*
X109357142Y-104384819D02*
X109404761Y-104861009D01*
X109404761Y-104861009D02*
X109357142Y-104813390D01*
X109357142Y-104813390D02*
X109261904Y-104765771D01*
X109261904Y-104765771D02*
X109023809Y-104765771D01*
X109023809Y-104765771D02*
X108928571Y-104813390D01*
X108928571Y-104813390D02*
X108880952Y-104861009D01*
X108880952Y-104861009D02*
X108833333Y-104956247D01*
X108833333Y-104956247D02*
X108833333Y-105194342D01*
X108833333Y-105194342D02*
X108880952Y-105289580D01*
X108880952Y-105289580D02*
X108928571Y-105337200D01*
X108928571Y-105337200D02*
X109023809Y-105384819D01*
X109023809Y-105384819D02*
X109261904Y-105384819D01*
X109261904Y-105384819D02*
X109357142Y-105337200D01*
X109357142Y-105337200D02*
X109404761Y-105289580D01*
D14*
X184040332Y-93383318D02*
X184040332Y-94290461D01*
X184040332Y-94290461D02*
X184100809Y-94471889D01*
X184100809Y-94471889D02*
X184221761Y-94592842D01*
X184221761Y-94592842D02*
X184403190Y-94653318D01*
X184403190Y-94653318D02*
X184524142Y-94653318D01*
X183375094Y-94653318D02*
X183133190Y-94653318D01*
X183133190Y-94653318D02*
X183012237Y-94592842D01*
X183012237Y-94592842D02*
X182951761Y-94532365D01*
X182951761Y-94532365D02*
X182830809Y-94350937D01*
X182830809Y-94350937D02*
X182770332Y-94109032D01*
X182770332Y-94109032D02*
X182770332Y-93625222D01*
X182770332Y-93625222D02*
X182830809Y-93504270D01*
X182830809Y-93504270D02*
X182891285Y-93443794D01*
X182891285Y-93443794D02*
X183012237Y-93383318D01*
X183012237Y-93383318D02*
X183254142Y-93383318D01*
X183254142Y-93383318D02*
X183375094Y-93443794D01*
X183375094Y-93443794D02*
X183435571Y-93504270D01*
X183435571Y-93504270D02*
X183496047Y-93625222D01*
X183496047Y-93625222D02*
X183496047Y-93927603D01*
X183496047Y-93927603D02*
X183435571Y-94048556D01*
X183435571Y-94048556D02*
X183375094Y-94109032D01*
X183375094Y-94109032D02*
X183254142Y-94169508D01*
X183254142Y-94169508D02*
X183012237Y-94169508D01*
X183012237Y-94169508D02*
X182891285Y-94109032D01*
X182891285Y-94109032D02*
X182830809Y-94048556D01*
X182830809Y-94048556D02*
X182770332Y-93927603D01*
D15*
X115384285Y-114611775D02*
X115650952Y-114230822D01*
X115841428Y-114611775D02*
X115841428Y-113811775D01*
X115841428Y-113811775D02*
X115536666Y-113811775D01*
X115536666Y-113811775D02*
X115460476Y-113849870D01*
X115460476Y-113849870D02*
X115422381Y-113887965D01*
X115422381Y-113887965D02*
X115384285Y-113964156D01*
X115384285Y-113964156D02*
X115384285Y-114078441D01*
X115384285Y-114078441D02*
X115422381Y-114154632D01*
X115422381Y-114154632D02*
X115460476Y-114192727D01*
X115460476Y-114192727D02*
X115536666Y-114230822D01*
X115536666Y-114230822D02*
X115841428Y-114230822D01*
X115079524Y-113887965D02*
X115041428Y-113849870D01*
X115041428Y-113849870D02*
X114965238Y-113811775D01*
X114965238Y-113811775D02*
X114774762Y-113811775D01*
X114774762Y-113811775D02*
X114698571Y-113849870D01*
X114698571Y-113849870D02*
X114660476Y-113887965D01*
X114660476Y-113887965D02*
X114622381Y-113964156D01*
X114622381Y-113964156D02*
X114622381Y-114040346D01*
X114622381Y-114040346D02*
X114660476Y-114154632D01*
X114660476Y-114154632D02*
X115117619Y-114611775D01*
X115117619Y-114611775D02*
X114622381Y-114611775D01*
X114355714Y-113811775D02*
X113822380Y-113811775D01*
X113822380Y-113811775D02*
X114165238Y-114611775D01*
X113790475Y-98101775D02*
X113790475Y-97301775D01*
X113790475Y-97301775D02*
X113599999Y-97301775D01*
X113599999Y-97301775D02*
X113485713Y-97339870D01*
X113485713Y-97339870D02*
X113409523Y-97416060D01*
X113409523Y-97416060D02*
X113371428Y-97492251D01*
X113371428Y-97492251D02*
X113333332Y-97644632D01*
X113333332Y-97644632D02*
X113333332Y-97758918D01*
X113333332Y-97758918D02*
X113371428Y-97911299D01*
X113371428Y-97911299D02*
X113409523Y-97987489D01*
X113409523Y-97987489D02*
X113485713Y-98063680D01*
X113485713Y-98063680D02*
X113599999Y-98101775D01*
X113599999Y-98101775D02*
X113790475Y-98101775D01*
X112571428Y-98101775D02*
X113028571Y-98101775D01*
X112799999Y-98101775D02*
X112799999Y-97301775D01*
X112799999Y-97301775D02*
X112876190Y-97416060D01*
X112876190Y-97416060D02*
X112952380Y-97492251D01*
X112952380Y-97492251D02*
X113028571Y-97530346D01*
D14*
X124912142Y-147749080D02*
X124730714Y-147809556D01*
X124730714Y-147809556D02*
X124670237Y-147870032D01*
X124670237Y-147870032D02*
X124609761Y-147990984D01*
X124609761Y-147990984D02*
X124609761Y-148172413D01*
X124609761Y-148172413D02*
X124670237Y-148293365D01*
X124670237Y-148293365D02*
X124730714Y-148353842D01*
X124730714Y-148353842D02*
X124851666Y-148414318D01*
X124851666Y-148414318D02*
X125335476Y-148414318D01*
X125335476Y-148414318D02*
X125335476Y-147144318D01*
X125335476Y-147144318D02*
X124912142Y-147144318D01*
X124912142Y-147144318D02*
X124791190Y-147204794D01*
X124791190Y-147204794D02*
X124730714Y-147265270D01*
X124730714Y-147265270D02*
X124670237Y-147386222D01*
X124670237Y-147386222D02*
X124670237Y-147507175D01*
X124670237Y-147507175D02*
X124730714Y-147628127D01*
X124730714Y-147628127D02*
X124791190Y-147688603D01*
X124791190Y-147688603D02*
X124912142Y-147749080D01*
X124912142Y-147749080D02*
X125335476Y-147749080D01*
X124125952Y-148051461D02*
X123521190Y-148051461D01*
X124246904Y-148414318D02*
X123823571Y-147144318D01*
X123823571Y-147144318D02*
X123400237Y-148414318D01*
X123158333Y-147144318D02*
X122432619Y-147144318D01*
X122795476Y-148414318D02*
X122795476Y-147144318D01*
X121344047Y-148414318D02*
X122069762Y-148414318D01*
X121706905Y-148414318D02*
X121706905Y-147144318D01*
X121706905Y-147144318D02*
X121827857Y-147325746D01*
X121827857Y-147325746D02*
X121948809Y-147446699D01*
X121948809Y-147446699D02*
X122069762Y-147507175D01*
D15*
X142677619Y-122191775D02*
X142677619Y-122763203D01*
X142677619Y-122763203D02*
X142715714Y-122877489D01*
X142715714Y-122877489D02*
X142791905Y-122953680D01*
X142791905Y-122953680D02*
X142906190Y-122991775D01*
X142906190Y-122991775D02*
X142982381Y-122991775D01*
X141877619Y-122991775D02*
X142334762Y-122991775D01*
X142106190Y-122991775D02*
X142106190Y-122191775D01*
X142106190Y-122191775D02*
X142182381Y-122306060D01*
X142182381Y-122306060D02*
X142258571Y-122382251D01*
X142258571Y-122382251D02*
X142334762Y-122420346D01*
X141382380Y-122191775D02*
X141306190Y-122191775D01*
X141306190Y-122191775D02*
X141229999Y-122229870D01*
X141229999Y-122229870D02*
X141191904Y-122267965D01*
X141191904Y-122267965D02*
X141153809Y-122344156D01*
X141153809Y-122344156D02*
X141115714Y-122496537D01*
X141115714Y-122496537D02*
X141115714Y-122687013D01*
X141115714Y-122687013D02*
X141153809Y-122839394D01*
X141153809Y-122839394D02*
X141191904Y-122915584D01*
X141191904Y-122915584D02*
X141229999Y-122953680D01*
X141229999Y-122953680D02*
X141306190Y-122991775D01*
X141306190Y-122991775D02*
X141382380Y-122991775D01*
X141382380Y-122991775D02*
X141458571Y-122953680D01*
X141458571Y-122953680D02*
X141496666Y-122915584D01*
X141496666Y-122915584D02*
X141534761Y-122839394D01*
X141534761Y-122839394D02*
X141572857Y-122687013D01*
X141572857Y-122687013D02*
X141572857Y-122496537D01*
X141572857Y-122496537D02*
X141534761Y-122344156D01*
X141534761Y-122344156D02*
X141496666Y-122267965D01*
X141496666Y-122267965D02*
X141458571Y-122229870D01*
X141458571Y-122229870D02*
X141382380Y-122191775D01*
X118084285Y-131481775D02*
X118350952Y-131100822D01*
X118541428Y-131481775D02*
X118541428Y-130681775D01*
X118541428Y-130681775D02*
X118236666Y-130681775D01*
X118236666Y-130681775D02*
X118160476Y-130719870D01*
X118160476Y-130719870D02*
X118122381Y-130757965D01*
X118122381Y-130757965D02*
X118084285Y-130834156D01*
X118084285Y-130834156D02*
X118084285Y-130948441D01*
X118084285Y-130948441D02*
X118122381Y-131024632D01*
X118122381Y-131024632D02*
X118160476Y-131062727D01*
X118160476Y-131062727D02*
X118236666Y-131100822D01*
X118236666Y-131100822D02*
X118541428Y-131100822D01*
X117322381Y-131481775D02*
X117779524Y-131481775D01*
X117550952Y-131481775D02*
X117550952Y-130681775D01*
X117550952Y-130681775D02*
X117627143Y-130796060D01*
X117627143Y-130796060D02*
X117703333Y-130872251D01*
X117703333Y-130872251D02*
X117779524Y-130910346D01*
X116598571Y-130681775D02*
X116979523Y-130681775D01*
X116979523Y-130681775D02*
X117017619Y-131062727D01*
X117017619Y-131062727D02*
X116979523Y-131024632D01*
X116979523Y-131024632D02*
X116903333Y-130986537D01*
X116903333Y-130986537D02*
X116712857Y-130986537D01*
X116712857Y-130986537D02*
X116636666Y-131024632D01*
X116636666Y-131024632D02*
X116598571Y-131062727D01*
X116598571Y-131062727D02*
X116560476Y-131138918D01*
X116560476Y-131138918D02*
X116560476Y-131329394D01*
X116560476Y-131329394D02*
X116598571Y-131405584D01*
X116598571Y-131405584D02*
X116636666Y-131443680D01*
X116636666Y-131443680D02*
X116712857Y-131481775D01*
X116712857Y-131481775D02*
X116903333Y-131481775D01*
X116903333Y-131481775D02*
X116979523Y-131443680D01*
X116979523Y-131443680D02*
X117017619Y-131405584D01*
X136271428Y-123031775D02*
X136271428Y-122231775D01*
X136271428Y-122231775D02*
X136080952Y-122231775D01*
X136080952Y-122231775D02*
X135966666Y-122269870D01*
X135966666Y-122269870D02*
X135890476Y-122346060D01*
X135890476Y-122346060D02*
X135852381Y-122422251D01*
X135852381Y-122422251D02*
X135814285Y-122574632D01*
X135814285Y-122574632D02*
X135814285Y-122688918D01*
X135814285Y-122688918D02*
X135852381Y-122841299D01*
X135852381Y-122841299D02*
X135890476Y-122917489D01*
X135890476Y-122917489D02*
X135966666Y-122993680D01*
X135966666Y-122993680D02*
X136080952Y-123031775D01*
X136080952Y-123031775D02*
X136271428Y-123031775D01*
X135052381Y-123031775D02*
X135509524Y-123031775D01*
X135280952Y-123031775D02*
X135280952Y-122231775D01*
X135280952Y-122231775D02*
X135357143Y-122346060D01*
X135357143Y-122346060D02*
X135433333Y-122422251D01*
X135433333Y-122422251D02*
X135509524Y-122460346D01*
X134557142Y-122231775D02*
X134480952Y-122231775D01*
X134480952Y-122231775D02*
X134404761Y-122269870D01*
X134404761Y-122269870D02*
X134366666Y-122307965D01*
X134366666Y-122307965D02*
X134328571Y-122384156D01*
X134328571Y-122384156D02*
X134290476Y-122536537D01*
X134290476Y-122536537D02*
X134290476Y-122727013D01*
X134290476Y-122727013D02*
X134328571Y-122879394D01*
X134328571Y-122879394D02*
X134366666Y-122955584D01*
X134366666Y-122955584D02*
X134404761Y-122993680D01*
X134404761Y-122993680D02*
X134480952Y-123031775D01*
X134480952Y-123031775D02*
X134557142Y-123031775D01*
X134557142Y-123031775D02*
X134633333Y-122993680D01*
X134633333Y-122993680D02*
X134671428Y-122955584D01*
X134671428Y-122955584D02*
X134709523Y-122879394D01*
X134709523Y-122879394D02*
X134747619Y-122727013D01*
X134747619Y-122727013D02*
X134747619Y-122536537D01*
X134747619Y-122536537D02*
X134709523Y-122384156D01*
X134709523Y-122384156D02*
X134671428Y-122307965D01*
X134671428Y-122307965D02*
X134633333Y-122269870D01*
X134633333Y-122269870D02*
X134557142Y-122231775D01*
X202174285Y-129326775D02*
X202440952Y-128945822D01*
X202631428Y-129326775D02*
X202631428Y-128526775D01*
X202631428Y-128526775D02*
X202326666Y-128526775D01*
X202326666Y-128526775D02*
X202250476Y-128564870D01*
X202250476Y-128564870D02*
X202212381Y-128602965D01*
X202212381Y-128602965D02*
X202174285Y-128679156D01*
X202174285Y-128679156D02*
X202174285Y-128793441D01*
X202174285Y-128793441D02*
X202212381Y-128869632D01*
X202212381Y-128869632D02*
X202250476Y-128907727D01*
X202250476Y-128907727D02*
X202326666Y-128945822D01*
X202326666Y-128945822D02*
X202631428Y-128945822D01*
X201869524Y-128602965D02*
X201831428Y-128564870D01*
X201831428Y-128564870D02*
X201755238Y-128526775D01*
X201755238Y-128526775D02*
X201564762Y-128526775D01*
X201564762Y-128526775D02*
X201488571Y-128564870D01*
X201488571Y-128564870D02*
X201450476Y-128602965D01*
X201450476Y-128602965D02*
X201412381Y-128679156D01*
X201412381Y-128679156D02*
X201412381Y-128755346D01*
X201412381Y-128755346D02*
X201450476Y-128869632D01*
X201450476Y-128869632D02*
X201907619Y-129326775D01*
X201907619Y-129326775D02*
X201412381Y-129326775D01*
X200917142Y-128526775D02*
X200840952Y-128526775D01*
X200840952Y-128526775D02*
X200764761Y-128564870D01*
X200764761Y-128564870D02*
X200726666Y-128602965D01*
X200726666Y-128602965D02*
X200688571Y-128679156D01*
X200688571Y-128679156D02*
X200650476Y-128831537D01*
X200650476Y-128831537D02*
X200650476Y-129022013D01*
X200650476Y-129022013D02*
X200688571Y-129174394D01*
X200688571Y-129174394D02*
X200726666Y-129250584D01*
X200726666Y-129250584D02*
X200764761Y-129288680D01*
X200764761Y-129288680D02*
X200840952Y-129326775D01*
X200840952Y-129326775D02*
X200917142Y-129326775D01*
X200917142Y-129326775D02*
X200993333Y-129288680D01*
X200993333Y-129288680D02*
X201031428Y-129250584D01*
X201031428Y-129250584D02*
X201069523Y-129174394D01*
X201069523Y-129174394D02*
X201107619Y-129022013D01*
X201107619Y-129022013D02*
X201107619Y-128831537D01*
X201107619Y-128831537D02*
X201069523Y-128679156D01*
X201069523Y-128679156D02*
X201031428Y-128602965D01*
X201031428Y-128602965D02*
X200993333Y-128564870D01*
X200993333Y-128564870D02*
X200917142Y-128526775D01*
D10*
X201053333Y-95452219D02*
X201053333Y-96166504D01*
X201053333Y-96166504D02*
X201100952Y-96309361D01*
X201100952Y-96309361D02*
X201196190Y-96404600D01*
X201196190Y-96404600D02*
X201339047Y-96452219D01*
X201339047Y-96452219D02*
X201434285Y-96452219D01*
X200148571Y-95452219D02*
X200339047Y-95452219D01*
X200339047Y-95452219D02*
X200434285Y-95499838D01*
X200434285Y-95499838D02*
X200481904Y-95547457D01*
X200481904Y-95547457D02*
X200577142Y-95690314D01*
X200577142Y-95690314D02*
X200624761Y-95880790D01*
X200624761Y-95880790D02*
X200624761Y-96261742D01*
X200624761Y-96261742D02*
X200577142Y-96356980D01*
X200577142Y-96356980D02*
X200529523Y-96404600D01*
X200529523Y-96404600D02*
X200434285Y-96452219D01*
X200434285Y-96452219D02*
X200243809Y-96452219D01*
X200243809Y-96452219D02*
X200148571Y-96404600D01*
X200148571Y-96404600D02*
X200100952Y-96356980D01*
X200100952Y-96356980D02*
X200053333Y-96261742D01*
X200053333Y-96261742D02*
X200053333Y-96023647D01*
X200053333Y-96023647D02*
X200100952Y-95928409D01*
X200100952Y-95928409D02*
X200148571Y-95880790D01*
X200148571Y-95880790D02*
X200243809Y-95833171D01*
X200243809Y-95833171D02*
X200434285Y-95833171D01*
X200434285Y-95833171D02*
X200529523Y-95880790D01*
X200529523Y-95880790D02*
X200577142Y-95928409D01*
X200577142Y-95928409D02*
X200624761Y-96023647D01*
D15*
X204076666Y-80771775D02*
X204076666Y-81343203D01*
X204076666Y-81343203D02*
X204114761Y-81457489D01*
X204114761Y-81457489D02*
X204190952Y-81533680D01*
X204190952Y-81533680D02*
X204305237Y-81571775D01*
X204305237Y-81571775D02*
X204381428Y-81571775D01*
X203733809Y-80847965D02*
X203695713Y-80809870D01*
X203695713Y-80809870D02*
X203619523Y-80771775D01*
X203619523Y-80771775D02*
X203429047Y-80771775D01*
X203429047Y-80771775D02*
X203352856Y-80809870D01*
X203352856Y-80809870D02*
X203314761Y-80847965D01*
X203314761Y-80847965D02*
X203276666Y-80924156D01*
X203276666Y-80924156D02*
X203276666Y-81000346D01*
X203276666Y-81000346D02*
X203314761Y-81114632D01*
X203314761Y-81114632D02*
X203771904Y-81571775D01*
X203771904Y-81571775D02*
X203276666Y-81571775D01*
D14*
X193110952Y-95305270D02*
X193231904Y-95244794D01*
X193231904Y-95244794D02*
X193352857Y-95123842D01*
X193352857Y-95123842D02*
X193534285Y-94942413D01*
X193534285Y-94942413D02*
X193655238Y-94881937D01*
X193655238Y-94881937D02*
X193776190Y-94881937D01*
X193715714Y-95184318D02*
X193836666Y-95123842D01*
X193836666Y-95123842D02*
X193957619Y-95002889D01*
X193957619Y-95002889D02*
X194018095Y-94760984D01*
X194018095Y-94760984D02*
X194018095Y-94337651D01*
X194018095Y-94337651D02*
X193957619Y-94095746D01*
X193957619Y-94095746D02*
X193836666Y-93974794D01*
X193836666Y-93974794D02*
X193715714Y-93914318D01*
X193715714Y-93914318D02*
X193473809Y-93914318D01*
X193473809Y-93914318D02*
X193352857Y-93974794D01*
X193352857Y-93974794D02*
X193231904Y-94095746D01*
X193231904Y-94095746D02*
X193171428Y-94337651D01*
X193171428Y-94337651D02*
X193171428Y-94760984D01*
X193171428Y-94760984D02*
X193231904Y-95002889D01*
X193231904Y-95002889D02*
X193352857Y-95123842D01*
X193352857Y-95123842D02*
X193473809Y-95184318D01*
X193473809Y-95184318D02*
X193715714Y-95184318D01*
X191961904Y-95184318D02*
X192687619Y-95184318D01*
X192324762Y-95184318D02*
X192324762Y-93914318D01*
X192324762Y-93914318D02*
X192445714Y-94095746D01*
X192445714Y-94095746D02*
X192566666Y-94216699D01*
X192566666Y-94216699D02*
X192687619Y-94277175D01*
D10*
X136831904Y-87672219D02*
X136831904Y-88481742D01*
X136831904Y-88481742D02*
X136784285Y-88576980D01*
X136784285Y-88576980D02*
X136736666Y-88624600D01*
X136736666Y-88624600D02*
X136641428Y-88672219D01*
X136641428Y-88672219D02*
X136450952Y-88672219D01*
X136450952Y-88672219D02*
X136355714Y-88624600D01*
X136355714Y-88624600D02*
X136308095Y-88576980D01*
X136308095Y-88576980D02*
X136260476Y-88481742D01*
X136260476Y-88481742D02*
X136260476Y-87672219D01*
X135260476Y-88672219D02*
X135831904Y-88672219D01*
X135546190Y-88672219D02*
X135546190Y-87672219D01*
X135546190Y-87672219D02*
X135641428Y-87815076D01*
X135641428Y-87815076D02*
X135736666Y-87910314D01*
X135736666Y-87910314D02*
X135831904Y-87957933D01*
D15*
X145196666Y-93839775D02*
X145196666Y-94411203D01*
X145196666Y-94411203D02*
X145234761Y-94525489D01*
X145234761Y-94525489D02*
X145310952Y-94601680D01*
X145310952Y-94601680D02*
X145425237Y-94639775D01*
X145425237Y-94639775D02*
X145501428Y-94639775D01*
X144891904Y-93839775D02*
X144396666Y-93839775D01*
X144396666Y-93839775D02*
X144663332Y-94144537D01*
X144663332Y-94144537D02*
X144549047Y-94144537D01*
X144549047Y-94144537D02*
X144472856Y-94182632D01*
X144472856Y-94182632D02*
X144434761Y-94220727D01*
X144434761Y-94220727D02*
X144396666Y-94296918D01*
X144396666Y-94296918D02*
X144396666Y-94487394D01*
X144396666Y-94487394D02*
X144434761Y-94563584D01*
X144434761Y-94563584D02*
X144472856Y-94601680D01*
X144472856Y-94601680D02*
X144549047Y-94639775D01*
X144549047Y-94639775D02*
X144777618Y-94639775D01*
X144777618Y-94639775D02*
X144853809Y-94601680D01*
X144853809Y-94601680D02*
X144891904Y-94563584D01*
D14*
X190356666Y-82464318D02*
X190961428Y-82464318D01*
X190961428Y-82464318D02*
X190961428Y-81194318D01*
X189268094Y-82464318D02*
X189993809Y-82464318D01*
X189630952Y-82464318D02*
X189630952Y-81194318D01*
X189630952Y-81194318D02*
X189751904Y-81375746D01*
X189751904Y-81375746D02*
X189872856Y-81496699D01*
X189872856Y-81496699D02*
X189993809Y-81557175D01*
D15*
X104906667Y-117663680D02*
X104792381Y-117701775D01*
X104792381Y-117701775D02*
X104601905Y-117701775D01*
X104601905Y-117701775D02*
X104525714Y-117663680D01*
X104525714Y-117663680D02*
X104487619Y-117625584D01*
X104487619Y-117625584D02*
X104449524Y-117549394D01*
X104449524Y-117549394D02*
X104449524Y-117473203D01*
X104449524Y-117473203D02*
X104487619Y-117397013D01*
X104487619Y-117397013D02*
X104525714Y-117358918D01*
X104525714Y-117358918D02*
X104601905Y-117320822D01*
X104601905Y-117320822D02*
X104754286Y-117282727D01*
X104754286Y-117282727D02*
X104830476Y-117244632D01*
X104830476Y-117244632D02*
X104868571Y-117206537D01*
X104868571Y-117206537D02*
X104906667Y-117130346D01*
X104906667Y-117130346D02*
X104906667Y-117054156D01*
X104906667Y-117054156D02*
X104868571Y-116977965D01*
X104868571Y-116977965D02*
X104830476Y-116939870D01*
X104830476Y-116939870D02*
X104754286Y-116901775D01*
X104754286Y-116901775D02*
X104563809Y-116901775D01*
X104563809Y-116901775D02*
X104449524Y-116939870D01*
X104182857Y-116901775D02*
X103992381Y-117701775D01*
X103992381Y-117701775D02*
X103840000Y-117130346D01*
X103840000Y-117130346D02*
X103687619Y-117701775D01*
X103687619Y-117701775D02*
X103497143Y-116901775D01*
X103230476Y-116977965D02*
X103192380Y-116939870D01*
X103192380Y-116939870D02*
X103116190Y-116901775D01*
X103116190Y-116901775D02*
X102925714Y-116901775D01*
X102925714Y-116901775D02*
X102849523Y-116939870D01*
X102849523Y-116939870D02*
X102811428Y-116977965D01*
X102811428Y-116977965D02*
X102773333Y-117054156D01*
X102773333Y-117054156D02*
X102773333Y-117130346D01*
X102773333Y-117130346D02*
X102811428Y-117244632D01*
X102811428Y-117244632D02*
X103268571Y-117701775D01*
X103268571Y-117701775D02*
X102773333Y-117701775D01*
D10*
X128116666Y-115069695D02*
X128116666Y-115641123D01*
X128116666Y-115641123D02*
X128154761Y-115755409D01*
X128154761Y-115755409D02*
X128230952Y-115831600D01*
X128230952Y-115831600D02*
X128345237Y-115869695D01*
X128345237Y-115869695D02*
X128421428Y-115869695D01*
X127811904Y-115069695D02*
X127278570Y-115069695D01*
X127278570Y-115069695D02*
X127621428Y-115869695D01*
D15*
X123955238Y-119801775D02*
X124336190Y-119801775D01*
X124336190Y-119801775D02*
X124336190Y-119001775D01*
X123688571Y-119382727D02*
X123421905Y-119382727D01*
X123307619Y-119801775D02*
X123688571Y-119801775D01*
X123688571Y-119801775D02*
X123688571Y-119001775D01*
X123688571Y-119001775D02*
X123307619Y-119001775D01*
X122964761Y-119801775D02*
X122964761Y-119001775D01*
X122964761Y-119001775D02*
X122774285Y-119001775D01*
X122774285Y-119001775D02*
X122659999Y-119039870D01*
X122659999Y-119039870D02*
X122583809Y-119116060D01*
X122583809Y-119116060D02*
X122545714Y-119192251D01*
X122545714Y-119192251D02*
X122507618Y-119344632D01*
X122507618Y-119344632D02*
X122507618Y-119458918D01*
X122507618Y-119458918D02*
X122545714Y-119611299D01*
X122545714Y-119611299D02*
X122583809Y-119687489D01*
X122583809Y-119687489D02*
X122659999Y-119763680D01*
X122659999Y-119763680D02*
X122774285Y-119801775D01*
X122774285Y-119801775D02*
X122964761Y-119801775D01*
X121745714Y-119801775D02*
X122202857Y-119801775D01*
X121974285Y-119801775D02*
X121974285Y-119001775D01*
X121974285Y-119001775D02*
X122050476Y-119116060D01*
X122050476Y-119116060D02*
X122126666Y-119192251D01*
X122126666Y-119192251D02*
X122202857Y-119230346D01*
X120354285Y-127411775D02*
X120620952Y-127030822D01*
X120811428Y-127411775D02*
X120811428Y-126611775D01*
X120811428Y-126611775D02*
X120506666Y-126611775D01*
X120506666Y-126611775D02*
X120430476Y-126649870D01*
X120430476Y-126649870D02*
X120392381Y-126687965D01*
X120392381Y-126687965D02*
X120354285Y-126764156D01*
X120354285Y-126764156D02*
X120354285Y-126878441D01*
X120354285Y-126878441D02*
X120392381Y-126954632D01*
X120392381Y-126954632D02*
X120430476Y-126992727D01*
X120430476Y-126992727D02*
X120506666Y-127030822D01*
X120506666Y-127030822D02*
X120811428Y-127030822D01*
X119592381Y-127411775D02*
X120049524Y-127411775D01*
X119820952Y-127411775D02*
X119820952Y-126611775D01*
X119820952Y-126611775D02*
X119897143Y-126726060D01*
X119897143Y-126726060D02*
X119973333Y-126802251D01*
X119973333Y-126802251D02*
X120049524Y-126840346D01*
X118906666Y-126611775D02*
X119059047Y-126611775D01*
X119059047Y-126611775D02*
X119135238Y-126649870D01*
X119135238Y-126649870D02*
X119173333Y-126687965D01*
X119173333Y-126687965D02*
X119249523Y-126802251D01*
X119249523Y-126802251D02*
X119287619Y-126954632D01*
X119287619Y-126954632D02*
X119287619Y-127259394D01*
X119287619Y-127259394D02*
X119249523Y-127335584D01*
X119249523Y-127335584D02*
X119211428Y-127373680D01*
X119211428Y-127373680D02*
X119135238Y-127411775D01*
X119135238Y-127411775D02*
X118982857Y-127411775D01*
X118982857Y-127411775D02*
X118906666Y-127373680D01*
X118906666Y-127373680D02*
X118868571Y-127335584D01*
X118868571Y-127335584D02*
X118830476Y-127259394D01*
X118830476Y-127259394D02*
X118830476Y-127068918D01*
X118830476Y-127068918D02*
X118868571Y-126992727D01*
X118868571Y-126992727D02*
X118906666Y-126954632D01*
X118906666Y-126954632D02*
X118982857Y-126916537D01*
X118982857Y-126916537D02*
X119135238Y-126916537D01*
X119135238Y-126916537D02*
X119211428Y-126954632D01*
X119211428Y-126954632D02*
X119249523Y-126992727D01*
X119249523Y-126992727D02*
X119287619Y-127068918D01*
D10*
X101413333Y-132342219D02*
X101413333Y-133056504D01*
X101413333Y-133056504D02*
X101460952Y-133199361D01*
X101460952Y-133199361D02*
X101556190Y-133294600D01*
X101556190Y-133294600D02*
X101699047Y-133342219D01*
X101699047Y-133342219D02*
X101794285Y-133342219D01*
X100413333Y-133342219D02*
X100984761Y-133342219D01*
X100699047Y-133342219D02*
X100699047Y-132342219D01*
X100699047Y-132342219D02*
X100794285Y-132485076D01*
X100794285Y-132485076D02*
X100889523Y-132580314D01*
X100889523Y-132580314D02*
X100984761Y-132627933D01*
D15*
X161966667Y-81553680D02*
X161852381Y-81591775D01*
X161852381Y-81591775D02*
X161661905Y-81591775D01*
X161661905Y-81591775D02*
X161585714Y-81553680D01*
X161585714Y-81553680D02*
X161547619Y-81515584D01*
X161547619Y-81515584D02*
X161509524Y-81439394D01*
X161509524Y-81439394D02*
X161509524Y-81363203D01*
X161509524Y-81363203D02*
X161547619Y-81287013D01*
X161547619Y-81287013D02*
X161585714Y-81248918D01*
X161585714Y-81248918D02*
X161661905Y-81210822D01*
X161661905Y-81210822D02*
X161814286Y-81172727D01*
X161814286Y-81172727D02*
X161890476Y-81134632D01*
X161890476Y-81134632D02*
X161928571Y-81096537D01*
X161928571Y-81096537D02*
X161966667Y-81020346D01*
X161966667Y-81020346D02*
X161966667Y-80944156D01*
X161966667Y-80944156D02*
X161928571Y-80867965D01*
X161928571Y-80867965D02*
X161890476Y-80829870D01*
X161890476Y-80829870D02*
X161814286Y-80791775D01*
X161814286Y-80791775D02*
X161623809Y-80791775D01*
X161623809Y-80791775D02*
X161509524Y-80829870D01*
X161242857Y-80791775D02*
X161052381Y-81591775D01*
X161052381Y-81591775D02*
X160900000Y-81020346D01*
X160900000Y-81020346D02*
X160747619Y-81591775D01*
X160747619Y-81591775D02*
X160557143Y-80791775D01*
X159833333Y-81591775D02*
X160290476Y-81591775D01*
X160061904Y-81591775D02*
X160061904Y-80791775D01*
X160061904Y-80791775D02*
X160138095Y-80906060D01*
X160138095Y-80906060D02*
X160214285Y-80982251D01*
X160214285Y-80982251D02*
X160290476Y-81020346D01*
X118404285Y-122021775D02*
X118670952Y-121640822D01*
X118861428Y-122021775D02*
X118861428Y-121221775D01*
X118861428Y-121221775D02*
X118556666Y-121221775D01*
X118556666Y-121221775D02*
X118480476Y-121259870D01*
X118480476Y-121259870D02*
X118442381Y-121297965D01*
X118442381Y-121297965D02*
X118404285Y-121374156D01*
X118404285Y-121374156D02*
X118404285Y-121488441D01*
X118404285Y-121488441D02*
X118442381Y-121564632D01*
X118442381Y-121564632D02*
X118480476Y-121602727D01*
X118480476Y-121602727D02*
X118556666Y-121640822D01*
X118556666Y-121640822D02*
X118861428Y-121640822D01*
X117642381Y-122021775D02*
X118099524Y-122021775D01*
X117870952Y-122021775D02*
X117870952Y-121221775D01*
X117870952Y-121221775D02*
X117947143Y-121336060D01*
X117947143Y-121336060D02*
X118023333Y-121412251D01*
X118023333Y-121412251D02*
X118099524Y-121450346D01*
X117375714Y-121221775D02*
X116842380Y-121221775D01*
X116842380Y-121221775D02*
X117185238Y-122021775D01*
X116174285Y-127361775D02*
X116440952Y-126980822D01*
X116631428Y-127361775D02*
X116631428Y-126561775D01*
X116631428Y-126561775D02*
X116326666Y-126561775D01*
X116326666Y-126561775D02*
X116250476Y-126599870D01*
X116250476Y-126599870D02*
X116212381Y-126637965D01*
X116212381Y-126637965D02*
X116174285Y-126714156D01*
X116174285Y-126714156D02*
X116174285Y-126828441D01*
X116174285Y-126828441D02*
X116212381Y-126904632D01*
X116212381Y-126904632D02*
X116250476Y-126942727D01*
X116250476Y-126942727D02*
X116326666Y-126980822D01*
X116326666Y-126980822D02*
X116631428Y-126980822D01*
X115412381Y-127361775D02*
X115869524Y-127361775D01*
X115640952Y-127361775D02*
X115640952Y-126561775D01*
X115640952Y-126561775D02*
X115717143Y-126676060D01*
X115717143Y-126676060D02*
X115793333Y-126752251D01*
X115793333Y-126752251D02*
X115869524Y-126790346D01*
X114726666Y-126828441D02*
X114726666Y-127361775D01*
X114917142Y-126523680D02*
X115107619Y-127095108D01*
X115107619Y-127095108D02*
X114612380Y-127095108D01*
X113374285Y-127471775D02*
X113640952Y-127090822D01*
X113831428Y-127471775D02*
X113831428Y-126671775D01*
X113831428Y-126671775D02*
X113526666Y-126671775D01*
X113526666Y-126671775D02*
X113450476Y-126709870D01*
X113450476Y-126709870D02*
X113412381Y-126747965D01*
X113412381Y-126747965D02*
X113374285Y-126824156D01*
X113374285Y-126824156D02*
X113374285Y-126938441D01*
X113374285Y-126938441D02*
X113412381Y-127014632D01*
X113412381Y-127014632D02*
X113450476Y-127052727D01*
X113450476Y-127052727D02*
X113526666Y-127090822D01*
X113526666Y-127090822D02*
X113831428Y-127090822D01*
X112612381Y-127471775D02*
X113069524Y-127471775D01*
X112840952Y-127471775D02*
X112840952Y-126671775D01*
X112840952Y-126671775D02*
X112917143Y-126786060D01*
X112917143Y-126786060D02*
X112993333Y-126862251D01*
X112993333Y-126862251D02*
X113069524Y-126900346D01*
X112345714Y-126671775D02*
X111850476Y-126671775D01*
X111850476Y-126671775D02*
X112117142Y-126976537D01*
X112117142Y-126976537D02*
X112002857Y-126976537D01*
X112002857Y-126976537D02*
X111926666Y-127014632D01*
X111926666Y-127014632D02*
X111888571Y-127052727D01*
X111888571Y-127052727D02*
X111850476Y-127128918D01*
X111850476Y-127128918D02*
X111850476Y-127319394D01*
X111850476Y-127319394D02*
X111888571Y-127395584D01*
X111888571Y-127395584D02*
X111926666Y-127433680D01*
X111926666Y-127433680D02*
X112002857Y-127471775D01*
X112002857Y-127471775D02*
X112231428Y-127471775D01*
X112231428Y-127471775D02*
X112307619Y-127433680D01*
X112307619Y-127433680D02*
X112345714Y-127395584D01*
D10*
X113635238Y-105009695D02*
X114016190Y-105009695D01*
X114016190Y-105009695D02*
X114016190Y-104209695D01*
X113368571Y-104590647D02*
X113101905Y-104590647D01*
X112987619Y-105009695D02*
X113368571Y-105009695D01*
X113368571Y-105009695D02*
X113368571Y-104209695D01*
X113368571Y-104209695D02*
X112987619Y-104209695D01*
X112644761Y-105009695D02*
X112644761Y-104209695D01*
X112644761Y-104209695D02*
X112454285Y-104209695D01*
X112454285Y-104209695D02*
X112339999Y-104247790D01*
X112339999Y-104247790D02*
X112263809Y-104323980D01*
X112263809Y-104323980D02*
X112225714Y-104400171D01*
X112225714Y-104400171D02*
X112187618Y-104552552D01*
X112187618Y-104552552D02*
X112187618Y-104666838D01*
X112187618Y-104666838D02*
X112225714Y-104819219D01*
X112225714Y-104819219D02*
X112263809Y-104895409D01*
X112263809Y-104895409D02*
X112339999Y-104971600D01*
X112339999Y-104971600D02*
X112454285Y-105009695D01*
X112454285Y-105009695D02*
X112644761Y-105009695D01*
X111882857Y-104285885D02*
X111844761Y-104247790D01*
X111844761Y-104247790D02*
X111768571Y-104209695D01*
X111768571Y-104209695D02*
X111578095Y-104209695D01*
X111578095Y-104209695D02*
X111501904Y-104247790D01*
X111501904Y-104247790D02*
X111463809Y-104285885D01*
X111463809Y-104285885D02*
X111425714Y-104362076D01*
X111425714Y-104362076D02*
X111425714Y-104438266D01*
X111425714Y-104438266D02*
X111463809Y-104552552D01*
X111463809Y-104552552D02*
X111920952Y-105009695D01*
X111920952Y-105009695D02*
X111425714Y-105009695D01*
D12*
X186682857Y-102568328D02*
X186682857Y-103782614D01*
X186682857Y-103782614D02*
X186611428Y-103925471D01*
X186611428Y-103925471D02*
X186540000Y-103996900D01*
X186540000Y-103996900D02*
X186397142Y-104068328D01*
X186397142Y-104068328D02*
X186111428Y-104068328D01*
X186111428Y-104068328D02*
X185968571Y-103996900D01*
X185968571Y-103996900D02*
X185897142Y-103925471D01*
X185897142Y-103925471D02*
X185825714Y-103782614D01*
X185825714Y-103782614D02*
X185825714Y-102568328D01*
X185254285Y-102568328D02*
X184325713Y-102568328D01*
X184325713Y-102568328D02*
X184825713Y-103139757D01*
X184825713Y-103139757D02*
X184611428Y-103139757D01*
X184611428Y-103139757D02*
X184468571Y-103211185D01*
X184468571Y-103211185D02*
X184397142Y-103282614D01*
X184397142Y-103282614D02*
X184325713Y-103425471D01*
X184325713Y-103425471D02*
X184325713Y-103782614D01*
X184325713Y-103782614D02*
X184397142Y-103925471D01*
X184397142Y-103925471D02*
X184468571Y-103996900D01*
X184468571Y-103996900D02*
X184611428Y-104068328D01*
X184611428Y-104068328D02*
X185039999Y-104068328D01*
X185039999Y-104068328D02*
X185182856Y-103996900D01*
X185182856Y-103996900D02*
X185254285Y-103925471D01*
D10*
X138395238Y-111589695D02*
X138776190Y-111589695D01*
X138776190Y-111589695D02*
X138776190Y-110789695D01*
X138128571Y-111170647D02*
X137861905Y-111170647D01*
X137747619Y-111589695D02*
X138128571Y-111589695D01*
X138128571Y-111589695D02*
X138128571Y-110789695D01*
X138128571Y-110789695D02*
X137747619Y-110789695D01*
X137404761Y-111589695D02*
X137404761Y-110789695D01*
X137404761Y-110789695D02*
X137214285Y-110789695D01*
X137214285Y-110789695D02*
X137099999Y-110827790D01*
X137099999Y-110827790D02*
X137023809Y-110903980D01*
X137023809Y-110903980D02*
X136985714Y-110980171D01*
X136985714Y-110980171D02*
X136947618Y-111132552D01*
X136947618Y-111132552D02*
X136947618Y-111246838D01*
X136947618Y-111246838D02*
X136985714Y-111399219D01*
X136985714Y-111399219D02*
X137023809Y-111475409D01*
X137023809Y-111475409D02*
X137099999Y-111551600D01*
X137099999Y-111551600D02*
X137214285Y-111589695D01*
X137214285Y-111589695D02*
X137404761Y-111589695D01*
X136680952Y-110789695D02*
X136185714Y-110789695D01*
X136185714Y-110789695D02*
X136452380Y-111094457D01*
X136452380Y-111094457D02*
X136338095Y-111094457D01*
X136338095Y-111094457D02*
X136261904Y-111132552D01*
X136261904Y-111132552D02*
X136223809Y-111170647D01*
X136223809Y-111170647D02*
X136185714Y-111246838D01*
X136185714Y-111246838D02*
X136185714Y-111437314D01*
X136185714Y-111437314D02*
X136223809Y-111513504D01*
X136223809Y-111513504D02*
X136261904Y-111551600D01*
X136261904Y-111551600D02*
X136338095Y-111589695D01*
X136338095Y-111589695D02*
X136566666Y-111589695D01*
X136566666Y-111589695D02*
X136642857Y-111551600D01*
X136642857Y-111551600D02*
X136680952Y-111513504D01*
D14*
X194038094Y-106134318D02*
X194038094Y-107041461D01*
X194038094Y-107041461D02*
X194098571Y-107222889D01*
X194098571Y-107222889D02*
X194219523Y-107343842D01*
X194219523Y-107343842D02*
X194400952Y-107404318D01*
X194400952Y-107404318D02*
X194521904Y-107404318D01*
X192768094Y-107404318D02*
X193493809Y-107404318D01*
X193130952Y-107404318D02*
X193130952Y-106134318D01*
X193130952Y-106134318D02*
X193251904Y-106315746D01*
X193251904Y-106315746D02*
X193372856Y-106436699D01*
X193372856Y-106436699D02*
X193493809Y-106497175D01*
X191558570Y-107404318D02*
X192284285Y-107404318D01*
X191921428Y-107404318D02*
X191921428Y-106134318D01*
X191921428Y-106134318D02*
X192042380Y-106315746D01*
X192042380Y-106315746D02*
X192163332Y-106436699D01*
X192163332Y-106436699D02*
X192284285Y-106497175D01*
%TO.C,R30*%
D16*
X196607500Y-102737258D02*
X196607500Y-102262742D01*
X197652500Y-102737258D02*
X197652500Y-102262742D01*
%TO.C,J5*%
D17*
X100990000Y-95890000D02*
X101590000Y-95890000D01*
X100990000Y-104830000D02*
X101590000Y-104830000D01*
X105890000Y-95890000D02*
X104590000Y-95890000D01*
X105890000Y-104830000D02*
X104590000Y-104830000D01*
D10*
X108890000Y-103560000D02*
G75*
G02*
X108690000Y-103560000I-100000J0D01*
G01*
X108690000Y-103560000D02*
G75*
G02*
X108890000Y-103560000I100000J0D01*
G01*
%TO.C,J9*%
D18*
D19*
X164511000Y-82538000D02*
X164510999Y-82538000D01*
X164510999Y-82538000D01*
X164510999Y-82538000D01*
X164510999Y-82538000D01*
X164510999Y-82538000D01*
X164510999Y-82538000D01*
X164510999Y-82538000D01*
X164510999Y-82537999D01*
X164510999Y-82537999D01*
X164510999Y-82537999D01*
X164510999Y-82537999D01*
X164510999Y-82537999D01*
X164511000Y-82537999D01*
X164511000Y-82537999D01*
X164511000Y-82537999D01*
X164511000Y-82537999D01*
X164511000Y-82537999D01*
X164511000Y-82537999D01*
X164511000Y-82537999D01*
X164511000Y-82537999D01*
X164511000Y-82537999D01*
X164511000Y-82537999D01*
X164511000Y-82537999D01*
X164511000Y-82537999D01*
X164511001Y-82537999D01*
X164511001Y-82537999D01*
X164511001Y-82537999D01*
X164511001Y-82537999D01*
X164511001Y-82537999D01*
X164511001Y-82537999D01*
X164511001Y-82538000D01*
X164511001Y-82538000D01*
X164511001Y-82538000D01*
X164511001Y-82538000D01*
X164511001Y-82538000D01*
X164511001Y-82538000D01*
X164511001Y-82538000D01*
X164511000Y-82538000D01*
X164511000Y-82538000D02*
X164511001Y-82538000D01*
X164511001Y-82538000D01*
X164511001Y-82538000D01*
X164511001Y-82538000D01*
X164511001Y-82538000D01*
X164511001Y-82538000D01*
X164511001Y-82538001D01*
X164511001Y-82538001D01*
X164511001Y-82538001D01*
X164511001Y-82538001D01*
X164511001Y-82538001D01*
X164511001Y-82538001D01*
X164511001Y-82538001D01*
X164511000Y-82538001D01*
X164511000Y-82538001D01*
X164511000Y-82538001D01*
X164511000Y-82538001D01*
X164511000Y-82538001D01*
X164511000Y-82538001D01*
X164511000Y-82538001D01*
X164511000Y-82538001D01*
X164511000Y-82538001D01*
X164511000Y-82538001D01*
X164511000Y-82538001D01*
X164511000Y-82538001D01*
X164510999Y-82538001D01*
X164510999Y-82538001D01*
X164510999Y-82538001D01*
X164510999Y-82538001D01*
X164510999Y-82538001D01*
X164510999Y-82538001D01*
X164510999Y-82538000D01*
X164510999Y-82538000D01*
X164510999Y-82538000D01*
X164510999Y-82538000D01*
X164510999Y-82538000D01*
X164510999Y-82538000D01*
X164511000Y-82538000D01*
D10*
X166830000Y-80125000D02*
X166830000Y-82645000D01*
X166830000Y-80125000D02*
X181910000Y-80125000D01*
X166830000Y-95365000D02*
X166830000Y-92845000D01*
X181910000Y-80125000D02*
X181910000Y-82991000D01*
X181910000Y-95365000D02*
X166830000Y-95365000D01*
X181910000Y-95365000D02*
X181910000Y-92499000D01*
%TO.C,R27*%
D16*
X114347500Y-112197258D02*
X114347500Y-111722742D01*
X115392500Y-112197258D02*
X115392500Y-111722742D01*
%TO.C,D1*%
X111050000Y-96712500D02*
X112250000Y-96712500D01*
X111050000Y-98672500D02*
X111050000Y-96712500D01*
X112250000Y-98672500D02*
X112250000Y-96712500D01*
%TO.C,BAT1*%
D20*
X121645000Y-124535000D02*
X121645000Y-145185000D01*
X121645000Y-145185000D02*
X198695000Y-145185000D01*
X198695000Y-124535000D02*
X121645000Y-124535000D01*
X198695000Y-145185000D02*
X198695000Y-124535000D01*
%TO.C,J10*%
D10*
D19*
X139550000Y-122695000D02*
X139549999Y-122695000D01*
X139549999Y-122695000D01*
X139549999Y-122695000D01*
X139549999Y-122695000D01*
X139549999Y-122695000D01*
X139549999Y-122695000D01*
X139549999Y-122695000D01*
X139549999Y-122694999D01*
X139549999Y-122694999D01*
X139549999Y-122694999D01*
X139549999Y-122694999D01*
X139549999Y-122694999D01*
X139550000Y-122694999D01*
X139550000Y-122694999D01*
X139550000Y-122694999D01*
X139550000Y-122694999D01*
X139550000Y-122694999D01*
X139550000Y-122694999D01*
X139550000Y-122694999D01*
X139550000Y-122694999D01*
X139550000Y-122694999D01*
X139550000Y-122694999D01*
X139550000Y-122694999D01*
X139550000Y-122694999D01*
X139550001Y-122694999D01*
X139550001Y-122694999D01*
X139550001Y-122694999D01*
X139550001Y-122694999D01*
X139550001Y-122694999D01*
X139550001Y-122694999D01*
X139550001Y-122695000D01*
X139550001Y-122695000D01*
X139550001Y-122695000D01*
X139550001Y-122695000D01*
X139550001Y-122695000D01*
X139550001Y-122695000D01*
X139550001Y-122695000D01*
X139550000Y-122695000D01*
X139550000Y-122695000D02*
X139550001Y-122695000D01*
X139550001Y-122695000D01*
X139550001Y-122695000D01*
X139550001Y-122695000D01*
X139550001Y-122695000D01*
X139550001Y-122695000D01*
X139550001Y-122695001D01*
X139550001Y-122695001D01*
X139550001Y-122695001D01*
X139550001Y-122695001D01*
X139550001Y-122695001D01*
X139550001Y-122695001D01*
X139550001Y-122695001D01*
X139550000Y-122695001D01*
X139550000Y-122695001D01*
X139550000Y-122695001D01*
X139550000Y-122695001D01*
X139550000Y-122695001D01*
X139550000Y-122695001D01*
X139550000Y-122695001D01*
X139550000Y-122695001D01*
X139550000Y-122695001D01*
X139550000Y-122695001D01*
X139550000Y-122695001D01*
X139550000Y-122695001D01*
X139549999Y-122695001D01*
X139549999Y-122695001D01*
X139549999Y-122695001D01*
X139549999Y-122695001D01*
X139549999Y-122695001D01*
X139549999Y-122695001D01*
X139549999Y-122695000D01*
X139549999Y-122695000D01*
X139549999Y-122695000D01*
X139549999Y-122695000D01*
X139549999Y-122695000D01*
X139549999Y-122695000D01*
X139550000Y-122695000D01*
D10*
D19*
X139750000Y-122695000D02*
X139749999Y-122695000D01*
X139749999Y-122695000D01*
X139749999Y-122695000D01*
X139749999Y-122695000D01*
X139749999Y-122695000D01*
X139749999Y-122695000D01*
X139749999Y-122695000D01*
X139749999Y-122694999D01*
X139749999Y-122694999D01*
X139749999Y-122694999D01*
X139749999Y-122694999D01*
X139749999Y-122694999D01*
X139750000Y-122694999D01*
X139750000Y-122694999D01*
X139750000Y-122694999D01*
X139750000Y-122694999D01*
X139750000Y-122694999D01*
X139750000Y-122694999D01*
X139750000Y-122694999D01*
X139750000Y-122694999D01*
X139750000Y-122694999D01*
X139750000Y-122694999D01*
X139750000Y-122694999D01*
X139750000Y-122694999D01*
X139750001Y-122694999D01*
X139750001Y-122694999D01*
X139750001Y-122694999D01*
X139750001Y-122694999D01*
X139750001Y-122694999D01*
X139750001Y-122694999D01*
X139750001Y-122695000D01*
X139750001Y-122695000D01*
X139750001Y-122695000D01*
X139750001Y-122695000D01*
X139750001Y-122695000D01*
X139750001Y-122695000D01*
X139750001Y-122695000D01*
X139750000Y-122695000D01*
X139750000Y-122695000D02*
X139750001Y-122695000D01*
X139750001Y-122695000D01*
X139750001Y-122695000D01*
X139750001Y-122695000D01*
X139750001Y-122695000D01*
X139750001Y-122695000D01*
X139750001Y-122695001D01*
X139750001Y-122695001D01*
X139750001Y-122695001D01*
X139750001Y-122695001D01*
X139750001Y-122695001D01*
X139750001Y-122695001D01*
X139750001Y-122695001D01*
X139750000Y-122695001D01*
X139750000Y-122695001D01*
X139750000Y-122695001D01*
X139750000Y-122695001D01*
X139750000Y-122695001D01*
X139750000Y-122695001D01*
X139750000Y-122695001D01*
X139750000Y-122695001D01*
X139750000Y-122695001D01*
X139750000Y-122695001D01*
X139750000Y-122695001D01*
X139750000Y-122695001D01*
X139749999Y-122695001D01*
X139749999Y-122695001D01*
X139749999Y-122695001D01*
X139749999Y-122695001D01*
X139749999Y-122695001D01*
X139749999Y-122695001D01*
X139749999Y-122695000D01*
X139749999Y-122695000D01*
X139749999Y-122695000D01*
X139749999Y-122695000D01*
X139749999Y-122695000D01*
X139749999Y-122695000D01*
X139750000Y-122695000D01*
D20*
X140950000Y-118895000D02*
X138350000Y-118895000D01*
D10*
X139550000Y-122695000D02*
G75*
G02*
X139750000Y-122695000I100000J0D01*
G01*
X139750000Y-122695000D02*
G75*
G02*
X139550000Y-122695000I-100000J0D01*
G01*
%TO.C,R15*%
D16*
X117107500Y-128892742D02*
X117107500Y-129367258D01*
X118152500Y-128892742D02*
X118152500Y-129367258D01*
%TO.C,D10*%
D20*
D19*
X135600000Y-120035000D02*
X135599999Y-120035000D01*
X135599999Y-120035000D01*
X135599999Y-120035000D01*
X135599999Y-120035000D01*
X135599999Y-120035000D01*
X135599999Y-120035000D01*
X135599999Y-120035000D01*
X135599999Y-120034999D01*
X135599999Y-120034999D01*
X135599999Y-120034999D01*
X135599999Y-120034999D01*
X135599999Y-120034999D01*
X135600000Y-120034999D01*
X135600000Y-120034999D01*
X135600000Y-120034999D01*
X135600000Y-120034999D01*
X135600000Y-120034999D01*
X135600000Y-120034999D01*
X135600000Y-120034999D01*
X135600000Y-120034999D01*
X135600000Y-120034999D01*
X135600000Y-120034999D01*
X135600000Y-120034999D01*
X135600000Y-120034999D01*
X135600001Y-120034999D01*
X135600001Y-120034999D01*
X135600001Y-120034999D01*
X135600001Y-120034999D01*
X135600001Y-120034999D01*
X135600001Y-120034999D01*
X135600001Y-120035000D01*
X135600001Y-120035000D01*
X135600001Y-120035000D01*
X135600001Y-120035000D01*
X135600001Y-120035000D01*
X135600001Y-120035000D01*
X135600001Y-120035000D01*
X135600000Y-120035000D01*
X135600000Y-120035000D02*
X135600001Y-120035000D01*
X135600001Y-120035000D01*
X135600001Y-120035000D01*
X135600001Y-120035000D01*
X135600001Y-120035000D01*
X135600001Y-120035000D01*
X135600001Y-120035001D01*
X135600001Y-120035001D01*
X135600001Y-120035001D01*
X135600001Y-120035001D01*
X135600001Y-120035001D01*
X135600001Y-120035001D01*
X135600001Y-120035001D01*
X135600000Y-120035001D01*
X135600000Y-120035001D01*
X135600000Y-120035001D01*
X135600000Y-120035001D01*
X135600000Y-120035001D01*
X135600000Y-120035001D01*
X135600000Y-120035001D01*
X135600000Y-120035001D01*
X135600000Y-120035001D01*
X135600000Y-120035001D01*
X135600000Y-120035001D01*
X135600000Y-120035001D01*
X135599999Y-120035001D01*
X135599999Y-120035001D01*
X135599999Y-120035001D01*
X135599999Y-120035001D01*
X135599999Y-120035001D01*
X135599999Y-120035001D01*
X135599999Y-120035000D01*
X135599999Y-120035000D01*
X135599999Y-120035000D01*
X135599999Y-120035000D01*
X135599999Y-120035000D01*
X135599999Y-120035000D01*
X135600000Y-120035000D01*
D20*
D19*
X135600000Y-120135000D02*
X135599999Y-120135000D01*
X135599999Y-120135000D01*
X135599999Y-120135000D01*
X135599999Y-120135000D01*
X135599999Y-120135000D01*
X135599999Y-120135000D01*
X135599999Y-120135000D01*
X135599999Y-120134999D01*
X135599999Y-120134999D01*
X135599999Y-120134999D01*
X135599999Y-120134999D01*
X135599999Y-120134999D01*
X135600000Y-120134999D01*
X135600000Y-120134999D01*
X135600000Y-120134999D01*
X135600000Y-120134999D01*
X135600000Y-120134999D01*
X135600000Y-120134999D01*
X135600000Y-120134999D01*
X135600000Y-120134999D01*
X135600000Y-120134999D01*
X135600000Y-120134999D01*
X135600000Y-120134999D01*
X135600000Y-120134999D01*
X135600001Y-120134999D01*
X135600001Y-120134999D01*
X135600001Y-120134999D01*
X135600001Y-120134999D01*
X135600001Y-120134999D01*
X135600001Y-120134999D01*
X135600001Y-120135000D01*
X135600001Y-120135000D01*
X135600001Y-120135000D01*
X135600001Y-120135000D01*
X135600001Y-120135000D01*
X135600001Y-120135000D01*
X135600001Y-120135000D01*
X135600000Y-120135000D01*
X135600000Y-120135000D02*
X135600001Y-120135000D01*
X135600001Y-120135000D01*
X135600001Y-120135000D01*
X135600001Y-120135000D01*
X135600001Y-120135000D01*
X135600001Y-120135000D01*
X135600001Y-120135001D01*
X135600001Y-120135001D01*
X135600001Y-120135001D01*
X135600001Y-120135001D01*
X135600001Y-120135001D01*
X135600001Y-120135001D01*
X135600001Y-120135001D01*
X135600000Y-120135001D01*
X135600000Y-120135001D01*
X135600000Y-120135001D01*
X135600000Y-120135001D01*
X135600000Y-120135001D01*
X135600000Y-120135001D01*
X135600000Y-120135001D01*
X135600000Y-120135001D01*
X135600000Y-120135001D01*
X135600000Y-120135001D01*
X135600000Y-120135001D01*
X135600000Y-120135001D01*
X135599999Y-120135001D01*
X135599999Y-120135001D01*
X135599999Y-120135001D01*
X135599999Y-120135001D01*
X135599999Y-120135001D01*
X135599999Y-120135001D01*
X135599999Y-120135000D01*
X135599999Y-120135000D01*
X135599999Y-120135000D01*
X135599999Y-120135000D01*
X135599999Y-120135000D01*
X135599999Y-120135000D01*
X135600000Y-120135000D01*
D20*
X135600000Y-120035000D02*
G75*
G02*
X135600000Y-120135000I0J-50000D01*
G01*
X135600000Y-120135000D02*
G75*
G02*
X135600000Y-120035000I0J50000D01*
G01*
%TO.C,R20*%
D16*
X200597500Y-127072258D02*
X200597500Y-126597742D01*
X201642500Y-127072258D02*
X201642500Y-126597742D01*
%TO.C,J6*%
D20*
D19*
X200360000Y-106140000D02*
X200359999Y-106140000D01*
X200359999Y-106140000D01*
X200359999Y-106140000D01*
X200359999Y-106140000D01*
X200359999Y-106140000D01*
X200359999Y-106140000D01*
X200359999Y-106140000D01*
X200359999Y-106139999D01*
X200359999Y-106139999D01*
X200359999Y-106139999D01*
X200359999Y-106139999D01*
X200359999Y-106139999D01*
X200360000Y-106139999D01*
X200360000Y-106139999D01*
X200360000Y-106139999D01*
X200360000Y-106139999D01*
X200360000Y-106139999D01*
X200360000Y-106139999D01*
X200360000Y-106139999D01*
X200360000Y-106139999D01*
X200360000Y-106139999D01*
X200360000Y-106139999D01*
X200360000Y-106139999D01*
X200360000Y-106139999D01*
X200360001Y-106139999D01*
X200360001Y-106139999D01*
X200360001Y-106139999D01*
X200360001Y-106139999D01*
X200360001Y-106139999D01*
X200360001Y-106139999D01*
X200360001Y-106140000D01*
X200360001Y-106140000D01*
X200360001Y-106140000D01*
X200360001Y-106140000D01*
X200360001Y-106140000D01*
X200360001Y-106140000D01*
X200360001Y-106140000D01*
X200360000Y-106140000D01*
X200360000Y-106140000D02*
X200360001Y-106140000D01*
X200360001Y-106140000D01*
X200360001Y-106140000D01*
X200360001Y-106140000D01*
X200360001Y-106140000D01*
X200360001Y-106140000D01*
X200360001Y-106140001D01*
X200360001Y-106140001D01*
X200360001Y-106140001D01*
X200360001Y-106140001D01*
X200360001Y-106140001D01*
X200360001Y-106140001D01*
X200360001Y-106140001D01*
X200360000Y-106140001D01*
X200360000Y-106140001D01*
X200360000Y-106140001D01*
X200360000Y-106140001D01*
X200360000Y-106140001D01*
X200360000Y-106140001D01*
X200360000Y-106140001D01*
X200360000Y-106140001D01*
X200360000Y-106140001D01*
X200360000Y-106140001D01*
X200360000Y-106140001D01*
X200360000Y-106140001D01*
X200359999Y-106140001D01*
X200359999Y-106140001D01*
X200359999Y-106140001D01*
X200359999Y-106140001D01*
X200359999Y-106140001D01*
X200359999Y-106140001D01*
X200359999Y-106140000D01*
X200359999Y-106140000D01*
X200359999Y-106140000D01*
X200359999Y-106140000D01*
X200359999Y-106140000D01*
X200359999Y-106140000D01*
X200360000Y-106140000D01*
D20*
D19*
X200460000Y-106140000D02*
X200459999Y-106140000D01*
X200459999Y-106140000D01*
X200459999Y-106140000D01*
X200459999Y-106140000D01*
X200459999Y-106140000D01*
X200459999Y-106140000D01*
X200459999Y-106140000D01*
X200459999Y-106139999D01*
X200459999Y-106139999D01*
X200459999Y-106139999D01*
X200459999Y-106139999D01*
X200459999Y-106139999D01*
X200460000Y-106139999D01*
X200460000Y-106139999D01*
X200460000Y-106139999D01*
X200460000Y-106139999D01*
X200460000Y-106139999D01*
X200460000Y-106139999D01*
X200460000Y-106139999D01*
X200460000Y-106139999D01*
X200460000Y-106139999D01*
X200460000Y-106139999D01*
X200460000Y-106139999D01*
X200460000Y-106139999D01*
X200460001Y-106139999D01*
X200460001Y-106139999D01*
X200460001Y-106139999D01*
X200460001Y-106139999D01*
X200460001Y-106139999D01*
X200460001Y-106139999D01*
X200460001Y-106140000D01*
X200460001Y-106140000D01*
X200460001Y-106140000D01*
X200460001Y-106140000D01*
X200460001Y-106140000D01*
X200460001Y-106140000D01*
X200460001Y-106140000D01*
X200460000Y-106140000D01*
X200460000Y-106140000D02*
X200460001Y-106140000D01*
X200460001Y-106140000D01*
X200460001Y-106140000D01*
X200460001Y-106140000D01*
X200460001Y-106140000D01*
X200460001Y-106140000D01*
X200460001Y-106140001D01*
X200460001Y-106140001D01*
X200460001Y-106140001D01*
X200460001Y-106140001D01*
X200460001Y-106140001D01*
X200460001Y-106140001D01*
X200460001Y-106140001D01*
X200460000Y-106140001D01*
X200460000Y-106140001D01*
X200460000Y-106140001D01*
X200460000Y-106140001D01*
X200460000Y-106140001D01*
X200460000Y-106140001D01*
X200460000Y-106140001D01*
X200460000Y-106140001D01*
X200460000Y-106140001D01*
X200460000Y-106140001D01*
X200460000Y-106140001D01*
X200460000Y-106140001D01*
X200459999Y-106140001D01*
X200459999Y-106140001D01*
X200459999Y-106140001D01*
X200459999Y-106140001D01*
X200459999Y-106140001D01*
X200459999Y-106140001D01*
X200459999Y-106140000D01*
X200459999Y-106140000D01*
X200459999Y-106140000D01*
X200459999Y-106140000D01*
X200459999Y-106140000D01*
X200459999Y-106140000D01*
X200460000Y-106140000D01*
D10*
X203860000Y-111265000D02*
X210860000Y-111265000D01*
X210860000Y-96515000D02*
X204260000Y-96515000D01*
X213860000Y-111265000D02*
X216360000Y-111265000D01*
X214860000Y-96515000D02*
X213860000Y-96515000D01*
X214860000Y-106940000D02*
X214860000Y-96515000D01*
X216360000Y-107940000D02*
X214860000Y-106940000D01*
X216360000Y-111265000D02*
X216360000Y-107940000D01*
D20*
X200360000Y-106140000D02*
G75*
G02*
X200460000Y-106140000I50000J0D01*
G01*
X200460000Y-106140000D02*
G75*
G02*
X200360000Y-106140000I-50000J0D01*
G01*
%TO.C,J2*%
X196280000Y-81380000D02*
X196280000Y-93380000D01*
X196280000Y-93380000D02*
X202780000Y-93380000D01*
X202780000Y-81380000D02*
X196280000Y-81380000D01*
X202780000Y-93380000D02*
X202780000Y-81380000D01*
D10*
D19*
X203430000Y-88680000D02*
X203429999Y-88680000D01*
X203429999Y-88680000D01*
X203429999Y-88680000D01*
X203429999Y-88680000D01*
X203429999Y-88680000D01*
X203429999Y-88680000D01*
X203429999Y-88680000D01*
X203429999Y-88679999D01*
X203429999Y-88679999D01*
X203429999Y-88679999D01*
X203429999Y-88679999D01*
X203429999Y-88679999D01*
X203430000Y-88679999D01*
X203430000Y-88679999D01*
X203430000Y-88679999D01*
X203430000Y-88679999D01*
X203430000Y-88679999D01*
X203430000Y-88679999D01*
X203430000Y-88679999D01*
X203430000Y-88679999D01*
X203430000Y-88679999D01*
X203430000Y-88679999D01*
X203430000Y-88679999D01*
X203430000Y-88679999D01*
X203430001Y-88679999D01*
X203430001Y-88679999D01*
X203430001Y-88679999D01*
X203430001Y-88679999D01*
X203430001Y-88679999D01*
X203430001Y-88679999D01*
X203430001Y-88680000D01*
X203430001Y-88680000D01*
X203430001Y-88680000D01*
X203430001Y-88680000D01*
X203430001Y-88680000D01*
X203430001Y-88680000D01*
X203430001Y-88680000D01*
X203430000Y-88680000D01*
X203430000Y-88680000D02*
X203430001Y-88680000D01*
X203430001Y-88680000D01*
X203430001Y-88680000D01*
X203430001Y-88680000D01*
X203430001Y-88680000D01*
X203430001Y-88680000D01*
X203430001Y-88680001D01*
X203430001Y-88680001D01*
X203430001Y-88680001D01*
X203430001Y-88680001D01*
X203430001Y-88680001D01*
X203430001Y-88680001D01*
X203430001Y-88680001D01*
X203430000Y-88680001D01*
X203430000Y-88680001D01*
X203430000Y-88680001D01*
X203430000Y-88680001D01*
X203430000Y-88680001D01*
X203430000Y-88680001D01*
X203430000Y-88680001D01*
X203430000Y-88680001D01*
X203430000Y-88680001D01*
X203430000Y-88680001D01*
X203430000Y-88680001D01*
X203430000Y-88680001D01*
X203429999Y-88680001D01*
X203429999Y-88680001D01*
X203429999Y-88680001D01*
X203429999Y-88680001D01*
X203429999Y-88680001D01*
X203429999Y-88680001D01*
X203429999Y-88680000D01*
X203429999Y-88680000D01*
X203429999Y-88680000D01*
X203429999Y-88680000D01*
X203429999Y-88680000D01*
X203429999Y-88680000D01*
X203430000Y-88680000D01*
D10*
D19*
X203630000Y-88680000D02*
X203629999Y-88680000D01*
X203629999Y-88680000D01*
X203629999Y-88680000D01*
X203629999Y-88680000D01*
X203629999Y-88680000D01*
X203629999Y-88680000D01*
X203629999Y-88680000D01*
X203629999Y-88679999D01*
X203629999Y-88679999D01*
X203629999Y-88679999D01*
X203629999Y-88679999D01*
X203629999Y-88679999D01*
X203630000Y-88679999D01*
X203630000Y-88679999D01*
X203630000Y-88679999D01*
X203630000Y-88679999D01*
X203630000Y-88679999D01*
X203630000Y-88679999D01*
X203630000Y-88679999D01*
X203630000Y-88679999D01*
X203630000Y-88679999D01*
X203630000Y-88679999D01*
X203630000Y-88679999D01*
X203630000Y-88679999D01*
X203630001Y-88679999D01*
X203630001Y-88679999D01*
X203630001Y-88679999D01*
X203630001Y-88679999D01*
X203630001Y-88679999D01*
X203630001Y-88679999D01*
X203630001Y-88680000D01*
X203630001Y-88680000D01*
X203630001Y-88680000D01*
X203630001Y-88680000D01*
X203630001Y-88680000D01*
X203630001Y-88680000D01*
X203630001Y-88680000D01*
X203630000Y-88680000D01*
X203630000Y-88680000D02*
X203630001Y-88680000D01*
X203630001Y-88680000D01*
X203630001Y-88680000D01*
X203630001Y-88680000D01*
X203630001Y-88680000D01*
X203630001Y-88680000D01*
X203630001Y-88680001D01*
X203630001Y-88680001D01*
X203630001Y-88680001D01*
X203630001Y-88680001D01*
X203630001Y-88680001D01*
X203630001Y-88680001D01*
X203630001Y-88680001D01*
X203630000Y-88680001D01*
X203630000Y-88680001D01*
X203630000Y-88680001D01*
X203630000Y-88680001D01*
X203630000Y-88680001D01*
X203630000Y-88680001D01*
X203630000Y-88680001D01*
X203630000Y-88680001D01*
X203630000Y-88680001D01*
X203630000Y-88680001D01*
X203630000Y-88680001D01*
X203630000Y-88680001D01*
X203629999Y-88680001D01*
X203629999Y-88680001D01*
X203629999Y-88680001D01*
X203629999Y-88680001D01*
X203629999Y-88680001D01*
X203629999Y-88680001D01*
X203629999Y-88680000D01*
X203629999Y-88680000D01*
X203629999Y-88680000D01*
X203629999Y-88680000D01*
X203629999Y-88680000D01*
X203629999Y-88680000D01*
X203630000Y-88680000D01*
D10*
X203430000Y-88680000D02*
G75*
G02*
X203630000Y-88680000I100000J0D01*
G01*
X203630000Y-88680000D02*
G75*
G02*
X203430000Y-88680000I-100000J0D01*
G01*
%TO.C,Q1*%
X190625000Y-90680000D02*
X190625000Y-93580000D01*
X190625000Y-93580000D02*
X190975000Y-93580000D01*
X190975000Y-90680000D02*
X190625000Y-90680000D01*
X190975000Y-93580000D02*
X190975000Y-90680000D01*
X192475000Y-90620000D02*
X191325000Y-90620000D01*
%TO.C,U1*%
D16*
X116080000Y-80550000D02*
X116080000Y-86750000D01*
X116080000Y-106400000D02*
X116080000Y-105400000D01*
X116080000Y-106400000D02*
X117580000Y-106400000D01*
X134480000Y-80550000D02*
X116080000Y-80550000D01*
X134480000Y-80550000D02*
X134480000Y-86750000D01*
X134480000Y-105400000D02*
X134480000Y-106400000D01*
X134480000Y-106400000D02*
X132980000Y-106400000D01*
X134980000Y-87425000D02*
X134480000Y-87425000D01*
X134480000Y-86925000D01*
X134980000Y-87425000D01*
G36*
X134980000Y-87425000D02*
G01*
X134480000Y-87425000D01*
X134480000Y-86925000D01*
X134980000Y-87425000D01*
G37*
%TO.C,J3*%
D21*
X135610000Y-90120000D02*
X136610000Y-90120000D01*
X135610000Y-93720000D02*
X135610000Y-90120000D01*
X136610000Y-90120000D02*
X136610000Y-92720000D01*
X136610000Y-92720000D02*
X137610000Y-92720000D01*
X141610000Y-92720000D02*
X142610000Y-92720000D01*
X141610000Y-97720000D02*
X137610000Y-97720000D01*
X142610000Y-90120000D02*
X143610000Y-90120000D01*
X142610000Y-92720000D02*
X142610000Y-90120000D01*
X143610000Y-90120000D02*
X143610000Y-93720000D01*
%TO.C,L1*%
D10*
X194230000Y-85820000D02*
G75*
G02*
X194130000Y-85820000I-50000J0D01*
G01*
X194130000Y-85820000D02*
G75*
G02*
X194230000Y-85820000I50000J0D01*
G01*
%TO.C,SW2*%
X100860000Y-110200000D02*
X100860000Y-116200000D01*
X100860000Y-116200000D02*
X106860000Y-116200000D01*
D20*
D19*
X106160000Y-119200000D02*
X106159999Y-119200000D01*
X106159999Y-119200000D01*
X106159999Y-119200000D01*
X106159999Y-119200000D01*
X106159999Y-119200000D01*
X106159999Y-119200000D01*
X106159999Y-119200000D01*
X106159999Y-119199999D01*
X106159999Y-119199999D01*
X106159999Y-119199999D01*
X106159999Y-119199999D01*
X106159999Y-119199999D01*
X106160000Y-119199999D01*
X106160000Y-119199999D01*
X106160000Y-119199999D01*
X106160000Y-119199999D01*
X106160000Y-119199999D01*
X106160000Y-119199999D01*
X106160000Y-119199999D01*
X106160000Y-119199999D01*
X106160000Y-119199999D01*
X106160000Y-119199999D01*
X106160000Y-119199999D01*
X106160000Y-119199999D01*
X106160001Y-119199999D01*
X106160001Y-119199999D01*
X106160001Y-119199999D01*
X106160001Y-119199999D01*
X106160001Y-119199999D01*
X106160001Y-119199999D01*
X106160001Y-119200000D01*
X106160001Y-119200000D01*
X106160001Y-119200000D01*
X106160001Y-119200000D01*
X106160001Y-119200000D01*
X106160001Y-119200000D01*
X106160001Y-119200000D01*
X106160000Y-119200000D01*
X106160000Y-119200000D02*
X106160001Y-119200000D01*
X106160001Y-119200000D01*
X106160001Y-119200000D01*
X106160001Y-119200000D01*
X106160001Y-119200000D01*
X106160001Y-119200000D01*
X106160001Y-119200001D01*
X106160001Y-119200001D01*
X106160001Y-119200001D01*
X106160001Y-119200001D01*
X106160001Y-119200001D01*
X106160001Y-119200001D01*
X106160001Y-119200001D01*
X106160000Y-119200001D01*
X106160000Y-119200001D01*
X106160000Y-119200001D01*
X106160000Y-119200001D01*
X106160000Y-119200001D01*
X106160000Y-119200001D01*
X106160000Y-119200001D01*
X106160000Y-119200001D01*
X106160000Y-119200001D01*
X106160000Y-119200001D01*
X106160000Y-119200001D01*
X106160000Y-119200001D01*
X106159999Y-119200001D01*
X106159999Y-119200001D01*
X106159999Y-119200001D01*
X106159999Y-119200001D01*
X106159999Y-119200001D01*
X106159999Y-119200001D01*
X106159999Y-119200000D01*
X106159999Y-119200000D01*
X106159999Y-119200000D01*
X106159999Y-119200000D01*
X106159999Y-119200000D01*
X106159999Y-119200000D01*
X106160000Y-119200000D01*
D20*
D19*
X106160000Y-119300000D02*
X106159999Y-119300000D01*
X106159999Y-119300000D01*
X106159999Y-119300000D01*
X106159999Y-119300000D01*
X106159999Y-119300000D01*
X106159999Y-119300000D01*
X106159999Y-119300000D01*
X106159999Y-119299999D01*
X106159999Y-119299999D01*
X106159999Y-119299999D01*
X106159999Y-119299999D01*
X106159999Y-119299999D01*
X106160000Y-119299999D01*
X106160000Y-119299999D01*
X106160000Y-119299999D01*
X106160000Y-119299999D01*
X106160000Y-119299999D01*
X106160000Y-119299999D01*
X106160000Y-119299999D01*
X106160000Y-119299999D01*
X106160000Y-119299999D01*
X106160000Y-119299999D01*
X106160000Y-119299999D01*
X106160000Y-119299999D01*
X106160001Y-119299999D01*
X106160001Y-119299999D01*
X106160001Y-119299999D01*
X106160001Y-119299999D01*
X106160001Y-119299999D01*
X106160001Y-119299999D01*
X106160001Y-119300000D01*
X106160001Y-119300000D01*
X106160001Y-119300000D01*
X106160001Y-119300000D01*
X106160001Y-119300000D01*
X106160001Y-119300000D01*
X106160001Y-119300000D01*
X106160000Y-119300000D01*
X106160000Y-119300000D02*
X106160001Y-119300000D01*
X106160001Y-119300000D01*
X106160001Y-119300000D01*
X106160001Y-119300000D01*
X106160001Y-119300000D01*
X106160001Y-119300000D01*
X106160001Y-119300001D01*
X106160001Y-119300001D01*
X106160001Y-119300001D01*
X106160001Y-119300001D01*
X106160001Y-119300001D01*
X106160001Y-119300001D01*
X106160001Y-119300001D01*
X106160000Y-119300001D01*
X106160000Y-119300001D01*
X106160000Y-119300001D01*
X106160000Y-119300001D01*
X106160000Y-119300001D01*
X106160000Y-119300001D01*
X106160000Y-119300001D01*
X106160000Y-119300001D01*
X106160000Y-119300001D01*
X106160000Y-119300001D01*
X106160000Y-119300001D01*
X106160000Y-119300001D01*
X106159999Y-119300001D01*
X106159999Y-119300001D01*
X106159999Y-119300001D01*
X106159999Y-119300001D01*
X106159999Y-119300001D01*
X106159999Y-119300001D01*
X106159999Y-119300000D01*
X106159999Y-119300000D01*
X106159999Y-119300000D01*
X106159999Y-119300000D01*
X106159999Y-119300000D01*
X106159999Y-119300000D01*
X106160000Y-119300000D01*
D10*
X106860000Y-110200000D02*
X100860000Y-110200000D01*
X106860000Y-116200000D02*
X106860000Y-110200000D01*
D20*
X106160000Y-119200000D02*
G75*
G02*
X106160000Y-119300000I0J-50000D01*
G01*
X106160000Y-119300000D02*
G75*
G02*
X106160000Y-119200000I0J50000D01*
G01*
%TO.C,J7*%
D10*
X128870000Y-109140000D02*
X131370000Y-109140000D01*
X128870000Y-111990000D02*
X128870000Y-109140000D01*
X128870000Y-116990000D02*
X128870000Y-113990000D01*
X128870000Y-121840000D02*
X128870000Y-118990000D01*
X131370000Y-114490000D02*
X131370000Y-111490000D01*
X131370000Y-119490000D02*
X131370000Y-116490000D01*
X131370000Y-121840000D02*
X128870000Y-121840000D01*
D20*
D19*
X133420000Y-120570000D02*
X133419999Y-120570000D01*
X133419999Y-120570000D01*
X133419999Y-120570000D01*
X133419999Y-120570000D01*
X133419999Y-120570000D01*
X133419999Y-120570000D01*
X133419999Y-120570000D01*
X133419999Y-120569999D01*
X133419999Y-120569999D01*
X133419999Y-120569999D01*
X133419999Y-120569999D01*
X133419999Y-120569999D01*
X133420000Y-120569999D01*
X133420000Y-120569999D01*
X133420000Y-120569999D01*
X133420000Y-120569999D01*
X133420000Y-120569999D01*
X133420000Y-120569999D01*
X133420000Y-120569999D01*
X133420000Y-120569999D01*
X133420000Y-120569999D01*
X133420000Y-120569999D01*
X133420000Y-120569999D01*
X133420000Y-120569999D01*
X133420001Y-120569999D01*
X133420001Y-120569999D01*
X133420001Y-120569999D01*
X133420001Y-120569999D01*
X133420001Y-120569999D01*
X133420001Y-120569999D01*
X133420001Y-120570000D01*
X133420001Y-120570000D01*
X133420001Y-120570000D01*
X133420001Y-120570000D01*
X133420001Y-120570000D01*
X133420001Y-120570000D01*
X133420001Y-120570000D01*
X133420000Y-120570000D01*
X133420000Y-120570000D02*
X133420001Y-120570000D01*
X133420001Y-120570000D01*
X133420001Y-120570000D01*
X133420001Y-120570000D01*
X133420001Y-120570000D01*
X133420001Y-120570000D01*
X133420001Y-120570001D01*
X133420001Y-120570001D01*
X133420001Y-120570001D01*
X133420001Y-120570001D01*
X133420001Y-120570001D01*
X133420001Y-120570001D01*
X133420001Y-120570001D01*
X133420000Y-120570001D01*
X133420000Y-120570001D01*
X133420000Y-120570001D01*
X133420000Y-120570001D01*
X133420000Y-120570001D01*
X133420000Y-120570001D01*
X133420000Y-120570001D01*
X133420000Y-120570001D01*
X133420000Y-120570001D01*
X133420000Y-120570001D01*
X133420000Y-120570001D01*
X133420000Y-120570001D01*
X133419999Y-120570001D01*
X133419999Y-120570001D01*
X133419999Y-120570001D01*
X133419999Y-120570001D01*
X133419999Y-120570001D01*
X133419999Y-120570001D01*
X133419999Y-120570000D01*
X133419999Y-120570000D01*
X133419999Y-120570000D01*
X133419999Y-120570000D01*
X133419999Y-120570000D01*
X133419999Y-120570000D01*
X133420000Y-120570000D01*
D20*
D19*
X133520000Y-120570000D02*
X133519999Y-120570000D01*
X133519999Y-120570000D01*
X133519999Y-120570000D01*
X133519999Y-120570000D01*
X133519999Y-120570000D01*
X133519999Y-120570000D01*
X133519999Y-120570000D01*
X133519999Y-120569999D01*
X133519999Y-120569999D01*
X133519999Y-120569999D01*
X133519999Y-120569999D01*
X133519999Y-120569999D01*
X133520000Y-120569999D01*
X133520000Y-120569999D01*
X133520000Y-120569999D01*
X133520000Y-120569999D01*
X133520000Y-120569999D01*
X133520000Y-120569999D01*
X133520000Y-120569999D01*
X133520000Y-120569999D01*
X133520000Y-120569999D01*
X133520000Y-120569999D01*
X133520000Y-120569999D01*
X133520000Y-120569999D01*
X133520001Y-120569999D01*
X133520001Y-120569999D01*
X133520001Y-120569999D01*
X133520001Y-120569999D01*
X133520001Y-120569999D01*
X133520001Y-120569999D01*
X133520001Y-120570000D01*
X133520001Y-120570000D01*
X133520001Y-120570000D01*
X133520001Y-120570000D01*
X133520001Y-120570000D01*
X133520001Y-120570000D01*
X133520001Y-120570000D01*
X133520000Y-120570000D01*
X133520000Y-120570000D02*
X133520001Y-120570000D01*
X133520001Y-120570000D01*
X133520001Y-120570000D01*
X133520001Y-120570000D01*
X133520001Y-120570000D01*
X133520001Y-120570000D01*
X133520001Y-120570001D01*
X133520001Y-120570001D01*
X133520001Y-120570001D01*
X133520001Y-120570001D01*
X133520001Y-120570001D01*
X133520001Y-120570001D01*
X133520001Y-120570001D01*
X133520000Y-120570001D01*
X133520000Y-120570001D01*
X133520000Y-120570001D01*
X133520000Y-120570001D01*
X133520000Y-120570001D01*
X133520000Y-120570001D01*
X133520000Y-120570001D01*
X133520000Y-120570001D01*
X133520000Y-120570001D01*
X133520000Y-120570001D01*
X133520000Y-120570001D01*
X133520000Y-120570001D01*
X133519999Y-120570001D01*
X133519999Y-120570001D01*
X133519999Y-120570001D01*
X133519999Y-120570001D01*
X133519999Y-120570001D01*
X133519999Y-120570001D01*
X133519999Y-120570000D01*
X133519999Y-120570000D01*
X133519999Y-120570000D01*
X133519999Y-120570000D01*
X133519999Y-120570000D01*
X133519999Y-120570000D01*
X133520000Y-120570000D01*
D20*
X133420000Y-120570000D02*
G75*
G02*
X133520000Y-120570000I50000J0D01*
G01*
X133520000Y-120570000D02*
G75*
G02*
X133420000Y-120570000I-50000J0D01*
G01*
%TO.C,LED1*%
D19*
X124770000Y-121350000D02*
X124769999Y-121350000D01*
X124769999Y-121350000D01*
X124769999Y-121350000D01*
X124769999Y-121350000D01*
X124769999Y-121350000D01*
X124769999Y-121350000D01*
X124769999Y-121350000D01*
X124769999Y-121349999D01*
X124769999Y-121349999D01*
X124769999Y-121349999D01*
X124769999Y-121349999D01*
X124769999Y-121349999D01*
X124770000Y-121349999D01*
X124770000Y-121349999D01*
X124770000Y-121349999D01*
X124770000Y-121349999D01*
X124770000Y-121349999D01*
X124770000Y-121349999D01*
X124770000Y-121349999D01*
X124770000Y-121349999D01*
X124770000Y-121349999D01*
X124770000Y-121349999D01*
X124770000Y-121349999D01*
X124770000Y-121349999D01*
X124770001Y-121349999D01*
X124770001Y-121349999D01*
X124770001Y-121349999D01*
X124770001Y-121349999D01*
X124770001Y-121349999D01*
X124770001Y-121349999D01*
X124770001Y-121350000D01*
X124770001Y-121350000D01*
X124770001Y-121350000D01*
X124770001Y-121350000D01*
X124770001Y-121350000D01*
X124770001Y-121350000D01*
X124770001Y-121350000D01*
X124770000Y-121350000D01*
X124770000Y-121350000D02*
X124770001Y-121350000D01*
X124770001Y-121350000D01*
X124770001Y-121350000D01*
X124770001Y-121350000D01*
X124770001Y-121350000D01*
X124770001Y-121350000D01*
X124770001Y-121350001D01*
X124770001Y-121350001D01*
X124770001Y-121350001D01*
X124770001Y-121350001D01*
X124770001Y-121350001D01*
X124770001Y-121350001D01*
X124770001Y-121350001D01*
X124770000Y-121350001D01*
X124770000Y-121350001D01*
X124770000Y-121350001D01*
X124770000Y-121350001D01*
X124770000Y-121350001D01*
X124770000Y-121350001D01*
X124770000Y-121350001D01*
X124770000Y-121350001D01*
X124770000Y-121350001D01*
X124770000Y-121350001D01*
X124770000Y-121350001D01*
X124770000Y-121350001D01*
X124769999Y-121350001D01*
X124769999Y-121350001D01*
X124769999Y-121350001D01*
X124769999Y-121350001D01*
X124769999Y-121350001D01*
X124769999Y-121350001D01*
X124769999Y-121350000D01*
X124769999Y-121350000D01*
X124769999Y-121350000D01*
X124769999Y-121350000D01*
X124769999Y-121350000D01*
X124769999Y-121350000D01*
X124770000Y-121350000D01*
D20*
D19*
X124870000Y-121350000D02*
X124869999Y-121350000D01*
X124869999Y-121350000D01*
X124869999Y-121350000D01*
X124869999Y-121350000D01*
X124869999Y-121350000D01*
X124869999Y-121350000D01*
X124869999Y-121350000D01*
X124869999Y-121349999D01*
X124869999Y-121349999D01*
X124869999Y-121349999D01*
X124869999Y-121349999D01*
X124869999Y-121349999D01*
X124870000Y-121349999D01*
X124870000Y-121349999D01*
X124870000Y-121349999D01*
X124870000Y-121349999D01*
X124870000Y-121349999D01*
X124870000Y-121349999D01*
X124870000Y-121349999D01*
X124870000Y-121349999D01*
X124870000Y-121349999D01*
X124870000Y-121349999D01*
X124870000Y-121349999D01*
X124870000Y-121349999D01*
X124870001Y-121349999D01*
X124870001Y-121349999D01*
X124870001Y-121349999D01*
X124870001Y-121349999D01*
X124870001Y-121349999D01*
X124870001Y-121349999D01*
X124870001Y-121350000D01*
X124870001Y-121350000D01*
X124870001Y-121350000D01*
X124870001Y-121350000D01*
X124870001Y-121350000D01*
X124870001Y-121350000D01*
X124870001Y-121350000D01*
X124870000Y-121350000D01*
X124870000Y-121350000D02*
X124870001Y-121350000D01*
X124870001Y-121350000D01*
X124870001Y-121350000D01*
X124870001Y-121350000D01*
X124870001Y-121350000D01*
X124870001Y-121350000D01*
X124870001Y-121350001D01*
X124870001Y-121350001D01*
X124870001Y-121350001D01*
X124870001Y-121350001D01*
X124870001Y-121350001D01*
X124870001Y-121350001D01*
X124870001Y-121350001D01*
X124870000Y-121350001D01*
X124870000Y-121350001D01*
X124870000Y-121350001D01*
X124870000Y-121350001D01*
X124870000Y-121350001D01*
X124870000Y-121350001D01*
X124870000Y-121350001D01*
X124870000Y-121350001D01*
X124870000Y-121350001D01*
X124870000Y-121350001D01*
X124870000Y-121350001D01*
X124870000Y-121350001D01*
X124869999Y-121350001D01*
X124869999Y-121350001D01*
X124869999Y-121350001D01*
X124869999Y-121350001D01*
X124869999Y-121350001D01*
X124869999Y-121350001D01*
X124869999Y-121350000D01*
X124869999Y-121350000D01*
X124869999Y-121350000D01*
X124869999Y-121350000D01*
X124869999Y-121350000D01*
X124869999Y-121350000D01*
X124870000Y-121350000D01*
D20*
X124770000Y-121350000D02*
G75*
G02*
X124870000Y-121350000I50000J0D01*
G01*
X124870000Y-121350000D02*
G75*
G02*
X124770000Y-121350000I-50000J0D01*
G01*
%TO.C,R16*%
D16*
X118967500Y-128872742D02*
X118967500Y-129347258D01*
X120012500Y-128872742D02*
X120012500Y-129347258D01*
%TO.C,J1*%
D10*
D19*
X101740000Y-126320000D02*
X101739999Y-126320000D01*
X101739999Y-126320000D01*
X101739999Y-126320000D01*
X101739999Y-126320000D01*
X101739999Y-126320000D01*
X101739999Y-126320000D01*
X101739999Y-126320000D01*
X101739999Y-126319999D01*
X101739999Y-126319999D01*
X101739999Y-126319999D01*
X101739999Y-126319999D01*
X101739999Y-126319999D01*
X101740000Y-126319999D01*
X101740000Y-126319999D01*
X101740000Y-126319999D01*
X101740000Y-126319999D01*
X101740000Y-126319999D01*
X101740000Y-126319999D01*
X101740000Y-126319999D01*
X101740000Y-126319999D01*
X101740000Y-126319999D01*
X101740000Y-126319999D01*
X101740000Y-126319999D01*
X101740000Y-126319999D01*
X101740001Y-126319999D01*
X101740001Y-126319999D01*
X101740001Y-126319999D01*
X101740001Y-126319999D01*
X101740001Y-126319999D01*
X101740001Y-126319999D01*
X101740001Y-126320000D01*
X101740001Y-126320000D01*
X101740001Y-126320000D01*
X101740001Y-126320000D01*
X101740001Y-126320000D01*
X101740001Y-126320000D01*
X101740001Y-126320000D01*
X101740000Y-126320000D01*
X101740000Y-126320000D02*
X101740001Y-126320000D01*
X101740001Y-126320000D01*
X101740001Y-126320000D01*
X101740001Y-126320000D01*
X101740001Y-126320000D01*
X101740001Y-126320000D01*
X101740001Y-126320001D01*
X101740001Y-126320001D01*
X101740001Y-126320001D01*
X101740001Y-126320001D01*
X101740001Y-126320001D01*
X101740001Y-126320001D01*
X101740001Y-126320001D01*
X101740000Y-126320001D01*
X101740000Y-126320001D01*
X101740000Y-126320001D01*
X101740000Y-126320001D01*
X101740000Y-126320001D01*
X101740000Y-126320001D01*
X101740000Y-126320001D01*
X101740000Y-126320001D01*
X101740000Y-126320001D01*
X101740000Y-126320001D01*
X101740000Y-126320001D01*
X101740000Y-126320001D01*
X101739999Y-126320001D01*
X101739999Y-126320001D01*
X101739999Y-126320001D01*
X101739999Y-126320001D01*
X101739999Y-126320001D01*
X101739999Y-126320001D01*
X101739999Y-126320000D01*
X101739999Y-126320000D01*
X101739999Y-126320000D01*
X101739999Y-126320000D01*
X101739999Y-126320000D01*
X101739999Y-126320000D01*
X101740000Y-126320000D01*
D10*
D19*
X101740000Y-126520000D02*
X101739999Y-126520000D01*
X101739999Y-126520000D01*
X101739999Y-126520000D01*
X101739999Y-126520000D01*
X101739999Y-126520000D01*
X101739999Y-126520000D01*
X101739999Y-126520000D01*
X101739999Y-126519999D01*
X101739999Y-126519999D01*
X101739999Y-126519999D01*
X101739999Y-126519999D01*
X101739999Y-126519999D01*
X101740000Y-126519999D01*
X101740000Y-126519999D01*
X101740000Y-126519999D01*
X101740000Y-126519999D01*
X101740000Y-126519999D01*
X101740000Y-126519999D01*
X101740000Y-126519999D01*
X101740000Y-126519999D01*
X101740000Y-126519999D01*
X101740000Y-126519999D01*
X101740000Y-126519999D01*
X101740000Y-126519999D01*
X101740001Y-126519999D01*
X101740001Y-126519999D01*
X101740001Y-126519999D01*
X101740001Y-126519999D01*
X101740001Y-126519999D01*
X101740001Y-126519999D01*
X101740001Y-126520000D01*
X101740001Y-126520000D01*
X101740001Y-126520000D01*
X101740001Y-126520000D01*
X101740001Y-126520000D01*
X101740001Y-126520000D01*
X101740001Y-126520000D01*
X101740000Y-126520000D01*
X101740000Y-126520000D02*
X101740001Y-126520000D01*
X101740001Y-126520000D01*
X101740001Y-126520000D01*
X101740001Y-126520000D01*
X101740001Y-126520000D01*
X101740001Y-126520000D01*
X101740001Y-126520001D01*
X101740001Y-126520001D01*
X101740001Y-126520001D01*
X101740001Y-126520001D01*
X101740001Y-126520001D01*
X101740001Y-126520001D01*
X101740001Y-126520001D01*
X101740000Y-126520001D01*
X101740000Y-126520001D01*
X101740000Y-126520001D01*
X101740000Y-126520001D01*
X101740000Y-126520001D01*
X101740000Y-126520001D01*
X101740000Y-126520001D01*
X101740000Y-126520001D01*
X101740000Y-126520001D01*
X101740000Y-126520001D01*
X101740000Y-126520001D01*
X101740000Y-126520001D01*
X101739999Y-126520001D01*
X101739999Y-126520001D01*
X101739999Y-126520001D01*
X101739999Y-126520001D01*
X101739999Y-126520001D01*
X101739999Y-126520001D01*
X101739999Y-126520000D01*
X101739999Y-126520000D01*
X101739999Y-126520000D01*
X101739999Y-126520000D01*
X101739999Y-126520000D01*
X101739999Y-126520000D01*
X101740000Y-126520000D01*
D20*
X102290000Y-121720000D02*
X102290000Y-133720000D01*
X102290000Y-133720000D02*
X111290000Y-133720000D01*
X111290000Y-121720000D02*
X102290000Y-121720000D01*
X111290000Y-133720000D02*
X111290000Y-121720000D01*
D10*
X101740000Y-126320000D02*
G75*
G02*
X101740000Y-126520000I0J-100000D01*
G01*
X101740000Y-126520000D02*
G75*
G02*
X101740000Y-126320000I0J100000D01*
G01*
%TO.C,SW1*%
X152620000Y-84160000D02*
X152620000Y-90160000D01*
X152620000Y-90160000D02*
X158620000Y-90160000D01*
D20*
D19*
X153320000Y-81060000D02*
X153319999Y-81060000D01*
X153319999Y-81060000D01*
X153319999Y-81060000D01*
X153319999Y-81060000D01*
X153319999Y-81060000D01*
X153319999Y-81060000D01*
X153319999Y-81060000D01*
X153319999Y-81059999D01*
X153319999Y-81059999D01*
X153319999Y-81059999D01*
X153319999Y-81059999D01*
X153319999Y-81059999D01*
X153320000Y-81059999D01*
X153320000Y-81059999D01*
X153320000Y-81059999D01*
X153320000Y-81059999D01*
X153320000Y-81059999D01*
X153320000Y-81059999D01*
X153320000Y-81059999D01*
X153320000Y-81059999D01*
X153320000Y-81059999D01*
X153320000Y-81059999D01*
X153320000Y-81059999D01*
X153320000Y-81059999D01*
X153320001Y-81059999D01*
X153320001Y-81059999D01*
X153320001Y-81059999D01*
X153320001Y-81059999D01*
X153320001Y-81059999D01*
X153320001Y-81059999D01*
X153320001Y-81060000D01*
X153320001Y-81060000D01*
X153320001Y-81060000D01*
X153320001Y-81060000D01*
X153320001Y-81060000D01*
X153320001Y-81060000D01*
X153320001Y-81060000D01*
X153320000Y-81060000D01*
X153320000Y-81060000D02*
X153320001Y-81060000D01*
X153320001Y-81060000D01*
X153320001Y-81060000D01*
X153320001Y-81060000D01*
X153320001Y-81060000D01*
X153320001Y-81060000D01*
X153320001Y-81060001D01*
X153320001Y-81060001D01*
X153320001Y-81060001D01*
X153320001Y-81060001D01*
X153320001Y-81060001D01*
X153320001Y-81060001D01*
X153320001Y-81060001D01*
X153320000Y-81060001D01*
X153320000Y-81060001D01*
X153320000Y-81060001D01*
X153320000Y-81060001D01*
X153320000Y-81060001D01*
X153320000Y-81060001D01*
X153320000Y-81060001D01*
X153320000Y-81060001D01*
X153320000Y-81060001D01*
X153320000Y-81060001D01*
X153320000Y-81060001D01*
X153320000Y-81060001D01*
X153319999Y-81060001D01*
X153319999Y-81060001D01*
X153319999Y-81060001D01*
X153319999Y-81060001D01*
X153319999Y-81060001D01*
X153319999Y-81060001D01*
X153319999Y-81060000D01*
X153319999Y-81060000D01*
X153319999Y-81060000D01*
X153319999Y-81060000D01*
X153319999Y-81060000D01*
X153319999Y-81060000D01*
X153320000Y-81060000D01*
D20*
D19*
X153320000Y-81160000D02*
X153319999Y-81160000D01*
X153319999Y-81160000D01*
X153319999Y-81160000D01*
X153319999Y-81160000D01*
X153319999Y-81160000D01*
X153319999Y-81160000D01*
X153319999Y-81160000D01*
X153319999Y-81159999D01*
X153319999Y-81159999D01*
X153319999Y-81159999D01*
X153319999Y-81159999D01*
X153319999Y-81159999D01*
X153320000Y-81159999D01*
X153320000Y-81159999D01*
X153320000Y-81159999D01*
X153320000Y-81159999D01*
X153320000Y-81159999D01*
X153320000Y-81159999D01*
X153320000Y-81159999D01*
X153320000Y-81159999D01*
X153320000Y-81159999D01*
X153320000Y-81159999D01*
X153320000Y-81159999D01*
X153320000Y-81159999D01*
X153320001Y-81159999D01*
X153320001Y-81159999D01*
X153320001Y-81159999D01*
X153320001Y-81159999D01*
X153320001Y-81159999D01*
X153320001Y-81159999D01*
X153320001Y-81160000D01*
X153320001Y-81160000D01*
X153320001Y-81160000D01*
X153320001Y-81160000D01*
X153320001Y-81160000D01*
X153320001Y-81160000D01*
X153320001Y-81160000D01*
X153320000Y-81160000D01*
X153320000Y-81160000D02*
X153320001Y-81160000D01*
X153320001Y-81160000D01*
X153320001Y-81160000D01*
X153320001Y-81160000D01*
X153320001Y-81160000D01*
X153320001Y-81160000D01*
X153320001Y-81160001D01*
X153320001Y-81160001D01*
X153320001Y-81160001D01*
X153320001Y-81160001D01*
X153320001Y-81160001D01*
X153320001Y-81160001D01*
X153320001Y-81160001D01*
X153320000Y-81160001D01*
X153320000Y-81160001D01*
X153320000Y-81160001D01*
X153320000Y-81160001D01*
X153320000Y-81160001D01*
X153320000Y-81160001D01*
X153320000Y-81160001D01*
X153320000Y-81160001D01*
X153320000Y-81160001D01*
X153320000Y-81160001D01*
X153320000Y-81160001D01*
X153320000Y-81160001D01*
X153319999Y-81160001D01*
X153319999Y-81160001D01*
X153319999Y-81160001D01*
X153319999Y-81160001D01*
X153319999Y-81160001D01*
X153319999Y-81160001D01*
X153319999Y-81160000D01*
X153319999Y-81160000D01*
X153319999Y-81160000D01*
X153319999Y-81160000D01*
X153319999Y-81160000D01*
X153319999Y-81160000D01*
X153320000Y-81160000D01*
D10*
X158620000Y-84160000D02*
X152620000Y-84160000D01*
X158620000Y-90160000D02*
X158620000Y-84160000D01*
D20*
X153320000Y-81060000D02*
G75*
G02*
X153320000Y-81160000I0J-50000D01*
G01*
X153320000Y-81160000D02*
G75*
G02*
X153320000Y-81060000I0J50000D01*
G01*
%TO.C,R17*%
D16*
X118127258Y-122567500D02*
X117652742Y-122567500D01*
X118127258Y-123612500D02*
X117652742Y-123612500D01*
%TO.C,R14*%
X115197500Y-128952742D02*
X115197500Y-129427258D01*
X116242500Y-128952742D02*
X116242500Y-129427258D01*
%TO.C,R13*%
X113317500Y-128952742D02*
X113317500Y-129427258D01*
X114362500Y-128952742D02*
X114362500Y-129427258D01*
%TO.C,LED2*%
D20*
D19*
X114430000Y-106010000D02*
X114429999Y-106010000D01*
X114429999Y-106010000D01*
X114429999Y-106010000D01*
X114429999Y-106010000D01*
X114429999Y-106010000D01*
X114429999Y-106010000D01*
X114429999Y-106010000D01*
X114429999Y-106009999D01*
X114429999Y-106009999D01*
X114429999Y-106009999D01*
X114429999Y-106009999D01*
X114429999Y-106009999D01*
X114430000Y-106009999D01*
X114430000Y-106009999D01*
X114430000Y-106009999D01*
X114430000Y-106009999D01*
X114430000Y-106009999D01*
X114430000Y-106009999D01*
X114430000Y-106009999D01*
X114430000Y-106009999D01*
X114430000Y-106009999D01*
X114430000Y-106009999D01*
X114430000Y-106009999D01*
X114430000Y-106009999D01*
X114430001Y-106009999D01*
X114430001Y-106009999D01*
X114430001Y-106009999D01*
X114430001Y-106009999D01*
X114430001Y-106009999D01*
X114430001Y-106009999D01*
X114430001Y-106010000D01*
X114430001Y-106010000D01*
X114430001Y-106010000D01*
X114430001Y-106010000D01*
X114430001Y-106010000D01*
X114430001Y-106010000D01*
X114430001Y-106010000D01*
X114430000Y-106010000D01*
X114430000Y-106010000D02*
X114430001Y-106010000D01*
X114430001Y-106010000D01*
X114430001Y-106010000D01*
X114430001Y-106010000D01*
X114430001Y-106010000D01*
X114430001Y-106010000D01*
X114430001Y-106010001D01*
X114430001Y-106010001D01*
X114430001Y-106010001D01*
X114430001Y-106010001D01*
X114430001Y-106010001D01*
X114430001Y-106010001D01*
X114430001Y-106010001D01*
X114430000Y-106010001D01*
X114430000Y-106010001D01*
X114430000Y-106010001D01*
X114430000Y-106010001D01*
X114430000Y-106010001D01*
X114430000Y-106010001D01*
X114430000Y-106010001D01*
X114430000Y-106010001D01*
X114430000Y-106010001D01*
X114430000Y-106010001D01*
X114430000Y-106010001D01*
X114430000Y-106010001D01*
X114429999Y-106010001D01*
X114429999Y-106010001D01*
X114429999Y-106010001D01*
X114429999Y-106010001D01*
X114429999Y-106010001D01*
X114429999Y-106010001D01*
X114429999Y-106010000D01*
X114429999Y-106010000D01*
X114429999Y-106010000D01*
X114429999Y-106010000D01*
X114429999Y-106010000D01*
X114429999Y-106010000D01*
X114430000Y-106010000D01*
D20*
D19*
X114530000Y-106010000D02*
X114529999Y-106010000D01*
X114529999Y-106010000D01*
X114529999Y-106010000D01*
X114529999Y-106010000D01*
X114529999Y-106010000D01*
X114529999Y-106010000D01*
X114529999Y-106010000D01*
X114529999Y-106009999D01*
X114529999Y-106009999D01*
X114529999Y-106009999D01*
X114529999Y-106009999D01*
X114529999Y-106009999D01*
X114530000Y-106009999D01*
X114530000Y-106009999D01*
X114530000Y-106009999D01*
X114530000Y-106009999D01*
X114530000Y-106009999D01*
X114530000Y-106009999D01*
X114530000Y-106009999D01*
X114530000Y-106009999D01*
X114530000Y-106009999D01*
X114530000Y-106009999D01*
X114530000Y-106009999D01*
X114530000Y-106009999D01*
X114530001Y-106009999D01*
X114530001Y-106009999D01*
X114530001Y-106009999D01*
X114530001Y-106009999D01*
X114530001Y-106009999D01*
X114530001Y-106009999D01*
X114530001Y-106010000D01*
X114530001Y-106010000D01*
X114530001Y-106010000D01*
X114530001Y-106010000D01*
X114530001Y-106010000D01*
X114530001Y-106010000D01*
X114530001Y-106010000D01*
X114530000Y-106010000D01*
X114530000Y-106010000D02*
X114530001Y-106010000D01*
X114530001Y-106010000D01*
X114530001Y-106010000D01*
X114530001Y-106010000D01*
X114530001Y-106010000D01*
X114530001Y-106010000D01*
X114530001Y-106010001D01*
X114530001Y-106010001D01*
X114530001Y-106010001D01*
X114530001Y-106010001D01*
X114530001Y-106010001D01*
X114530001Y-106010001D01*
X114530001Y-106010001D01*
X114530000Y-106010001D01*
X114530000Y-106010001D01*
X114530000Y-106010001D01*
X114530000Y-106010001D01*
X114530000Y-106010001D01*
X114530000Y-106010001D01*
X114530000Y-106010001D01*
X114530000Y-106010001D01*
X114530000Y-106010001D01*
X114530000Y-106010001D01*
X114530000Y-106010001D01*
X114530000Y-106010001D01*
X114529999Y-106010001D01*
X114529999Y-106010001D01*
X114529999Y-106010001D01*
X114529999Y-106010001D01*
X114529999Y-106010001D01*
X114529999Y-106010001D01*
X114529999Y-106010000D01*
X114529999Y-106010000D01*
X114529999Y-106010000D01*
X114529999Y-106010000D01*
X114529999Y-106010000D01*
X114529999Y-106010000D01*
X114530000Y-106010000D01*
D20*
X114430000Y-106010000D02*
G75*
G02*
X114530000Y-106010000I50000J0D01*
G01*
X114530000Y-106010000D02*
G75*
G02*
X114430000Y-106010000I-50000J0D01*
G01*
%TO.C,U3*%
D17*
X144240000Y-96995000D02*
X144240000Y-120995000D01*
X144240000Y-96995000D02*
X148595000Y-96995000D01*
X144240000Y-120995000D02*
X148595000Y-120995000D01*
X181205000Y-120995000D02*
X182740000Y-120995000D01*
X182740000Y-96995000D02*
X181205000Y-96995000D01*
X182740000Y-120995000D02*
X182740000Y-96995000D01*
D10*
X149770000Y-95380000D02*
G75*
G02*
X149570000Y-95380000I-100000J0D01*
G01*
X149570000Y-95380000D02*
G75*
G02*
X149770000Y-95380000I100000J0D01*
G01*
%TO.C,LED3*%
D20*
D19*
X139190000Y-109120000D02*
X139189999Y-109120000D01*
X139189999Y-109120000D01*
X139189999Y-109120000D01*
X139189999Y-109120000D01*
X139189999Y-109120000D01*
X139189999Y-109120000D01*
X139189999Y-109120000D01*
X139189999Y-109119999D01*
X139189999Y-109119999D01*
X139189999Y-109119999D01*
X139189999Y-109119999D01*
X139189999Y-109119999D01*
X139190000Y-109119999D01*
X139190000Y-109119999D01*
X139190000Y-109119999D01*
X139190000Y-109119999D01*
X139190000Y-109119999D01*
X139190000Y-109119999D01*
X139190000Y-109119999D01*
X139190000Y-109119999D01*
X139190000Y-109119999D01*
X139190000Y-109119999D01*
X139190000Y-109119999D01*
X139190000Y-109119999D01*
X139190001Y-109119999D01*
X139190001Y-109119999D01*
X139190001Y-109119999D01*
X139190001Y-109119999D01*
X139190001Y-109119999D01*
X139190001Y-109119999D01*
X139190001Y-109120000D01*
X139190001Y-109120000D01*
X139190001Y-109120000D01*
X139190001Y-109120000D01*
X139190001Y-109120000D01*
X139190001Y-109120000D01*
X139190001Y-109120000D01*
X139190000Y-109120000D01*
X139190000Y-109120000D02*
X139190001Y-109120000D01*
X139190001Y-109120000D01*
X139190001Y-109120000D01*
X139190001Y-109120000D01*
X139190001Y-109120000D01*
X139190001Y-109120000D01*
X139190001Y-109120001D01*
X139190001Y-109120001D01*
X139190001Y-109120001D01*
X139190001Y-109120001D01*
X139190001Y-109120001D01*
X139190001Y-109120001D01*
X139190001Y-109120001D01*
X139190000Y-109120001D01*
X139190000Y-109120001D01*
X139190000Y-109120001D01*
X139190000Y-109120001D01*
X139190000Y-109120001D01*
X139190000Y-109120001D01*
X139190000Y-109120001D01*
X139190000Y-109120001D01*
X139190000Y-109120001D01*
X139190000Y-109120001D01*
X139190000Y-109120001D01*
X139190000Y-109120001D01*
X139189999Y-109120001D01*
X139189999Y-109120001D01*
X139189999Y-109120001D01*
X139189999Y-109120001D01*
X139189999Y-109120001D01*
X139189999Y-109120001D01*
X139189999Y-109120000D01*
X139189999Y-109120000D01*
X139189999Y-109120000D01*
X139189999Y-109120000D01*
X139189999Y-109120000D01*
X139189999Y-109120000D01*
X139190000Y-109120000D01*
D20*
D19*
X139290000Y-109120000D02*
X139289999Y-109120000D01*
X139289999Y-109120000D01*
X139289999Y-109120000D01*
X139289999Y-109120000D01*
X139289999Y-109120000D01*
X139289999Y-109120000D01*
X139289999Y-109120000D01*
X139289999Y-109119999D01*
X139289999Y-109119999D01*
X139289999Y-109119999D01*
X139289999Y-109119999D01*
X139289999Y-109119999D01*
X139290000Y-109119999D01*
X139290000Y-109119999D01*
X139290000Y-109119999D01*
X139290000Y-109119999D01*
X139290000Y-109119999D01*
X139290000Y-109119999D01*
X139290000Y-109119999D01*
X139290000Y-109119999D01*
X139290000Y-109119999D01*
X139290000Y-109119999D01*
X139290000Y-109119999D01*
X139290000Y-109119999D01*
X139290001Y-109119999D01*
X139290001Y-109119999D01*
X139290001Y-109119999D01*
X139290001Y-109119999D01*
X139290001Y-109119999D01*
X139290001Y-109119999D01*
X139290001Y-109120000D01*
X139290001Y-109120000D01*
X139290001Y-109120000D01*
X139290001Y-109120000D01*
X139290001Y-109120000D01*
X139290001Y-109120000D01*
X139290001Y-109120000D01*
X139290000Y-109120000D01*
X139290000Y-109120000D02*
X139290001Y-109120000D01*
X139290001Y-109120000D01*
X139290001Y-109120000D01*
X139290001Y-109120000D01*
X139290001Y-109120000D01*
X139290001Y-109120000D01*
X139290001Y-109120001D01*
X139290001Y-109120001D01*
X139290001Y-109120001D01*
X139290001Y-109120001D01*
X139290001Y-109120001D01*
X139290001Y-109120001D01*
X139290001Y-109120001D01*
X139290000Y-109120001D01*
X139290000Y-109120001D01*
X139290000Y-109120001D01*
X139290000Y-109120001D01*
X139290000Y-109120001D01*
X139290000Y-109120001D01*
X139290000Y-109120001D01*
X139290000Y-109120001D01*
X139290000Y-109120001D01*
X139290000Y-109120001D01*
X139290000Y-109120001D01*
X139290000Y-109120001D01*
X139289999Y-109120001D01*
X139289999Y-109120001D01*
X139289999Y-109120001D01*
X139289999Y-109120001D01*
X139289999Y-109120001D01*
X139289999Y-109120001D01*
X139289999Y-109120000D01*
X139289999Y-109120000D01*
X139289999Y-109120000D01*
X139289999Y-109120000D01*
X139289999Y-109120000D01*
X139289999Y-109120000D01*
X139290000Y-109120000D01*
D20*
X139190000Y-109120000D02*
G75*
G02*
X139290000Y-109120000I50000J0D01*
G01*
X139290000Y-109120000D02*
G75*
G02*
X139190000Y-109120000I-50000J0D01*
G01*
%TO.C,J11*%
D19*
X183790000Y-111080000D02*
X183789999Y-111080000D01*
X183789999Y-111080000D01*
X183789999Y-111080000D01*
X183789999Y-111080000D01*
X183789999Y-111080000D01*
X183789999Y-111080000D01*
X183789999Y-111080000D01*
X183789999Y-111079999D01*
X183789999Y-111079999D01*
X183789999Y-111079999D01*
X183789999Y-111079999D01*
X183789999Y-111079999D01*
X183790000Y-111079999D01*
X183790000Y-111079999D01*
X183790000Y-111079999D01*
X183790000Y-111079999D01*
X183790000Y-111079999D01*
X183790000Y-111079999D01*
X183790000Y-111079999D01*
X183790000Y-111079999D01*
X183790000Y-111079999D01*
X183790000Y-111079999D01*
X183790000Y-111079999D01*
X183790000Y-111079999D01*
X183790001Y-111079999D01*
X183790001Y-111079999D01*
X183790001Y-111079999D01*
X183790001Y-111079999D01*
X183790001Y-111079999D01*
X183790001Y-111079999D01*
X183790001Y-111080000D01*
X183790001Y-111080000D01*
X183790001Y-111080000D01*
X183790001Y-111080000D01*
X183790001Y-111080000D01*
X183790001Y-111080000D01*
X183790001Y-111080000D01*
X183790000Y-111080000D01*
X183790000Y-111080000D02*
X183790001Y-111080000D01*
X183790001Y-111080000D01*
X183790001Y-111080000D01*
X183790001Y-111080000D01*
X183790001Y-111080000D01*
X183790001Y-111080000D01*
X183790001Y-111080001D01*
X183790001Y-111080001D01*
X183790001Y-111080001D01*
X183790001Y-111080001D01*
X183790001Y-111080001D01*
X183790001Y-111080001D01*
X183790001Y-111080001D01*
X183790000Y-111080001D01*
X183790000Y-111080001D01*
X183790000Y-111080001D01*
X183790000Y-111080001D01*
X183790000Y-111080001D01*
X183790000Y-111080001D01*
X183790000Y-111080001D01*
X183790000Y-111080001D01*
X183790000Y-111080001D01*
X183790000Y-111080001D01*
X183790000Y-111080001D01*
X183790000Y-111080001D01*
X183789999Y-111080001D01*
X183789999Y-111080001D01*
X183789999Y-111080001D01*
X183789999Y-111080001D01*
X183789999Y-111080001D01*
X183789999Y-111080001D01*
X183789999Y-111080000D01*
X183789999Y-111080000D01*
X183789999Y-111080000D01*
X183789999Y-111080000D01*
X183789999Y-111080000D01*
X183789999Y-111080000D01*
X183790000Y-111080000D01*
D20*
D19*
X183890000Y-111080000D02*
X183889999Y-111080000D01*
X183889999Y-111080000D01*
X183889999Y-111080000D01*
X183889999Y-111080000D01*
X183889999Y-111080000D01*
X183889999Y-111080000D01*
X183889999Y-111080000D01*
X183889999Y-111079999D01*
X183889999Y-111079999D01*
X183889999Y-111079999D01*
X183889999Y-111079999D01*
X183889999Y-111079999D01*
X183890000Y-111079999D01*
X183890000Y-111079999D01*
X183890000Y-111079999D01*
X183890000Y-111079999D01*
X183890000Y-111079999D01*
X183890000Y-111079999D01*
X183890000Y-111079999D01*
X183890000Y-111079999D01*
X183890000Y-111079999D01*
X183890000Y-111079999D01*
X183890000Y-111079999D01*
X183890000Y-111079999D01*
X183890001Y-111079999D01*
X183890001Y-111079999D01*
X183890001Y-111079999D01*
X183890001Y-111079999D01*
X183890001Y-111079999D01*
X183890001Y-111079999D01*
X183890001Y-111080000D01*
X183890001Y-111080000D01*
X183890001Y-111080000D01*
X183890001Y-111080000D01*
X183890001Y-111080000D01*
X183890001Y-111080000D01*
X183890001Y-111080000D01*
X183890000Y-111080000D01*
X183890000Y-111080000D02*
X183890001Y-111080000D01*
X183890001Y-111080000D01*
X183890001Y-111080000D01*
X183890001Y-111080000D01*
X183890001Y-111080000D01*
X183890001Y-111080000D01*
X183890001Y-111080001D01*
X183890001Y-111080001D01*
X183890001Y-111080001D01*
X183890001Y-111080001D01*
X183890001Y-111080001D01*
X183890001Y-111080001D01*
X183890001Y-111080001D01*
X183890000Y-111080001D01*
X183890000Y-111080001D01*
X183890000Y-111080001D01*
X183890000Y-111080001D01*
X183890000Y-111080001D01*
X183890000Y-111080001D01*
X183890000Y-111080001D01*
X183890000Y-111080001D01*
X183890000Y-111080001D01*
X183890000Y-111080001D01*
X183890000Y-111080001D01*
X183890000Y-111080001D01*
X183889999Y-111080001D01*
X183889999Y-111080001D01*
X183889999Y-111080001D01*
X183889999Y-111080001D01*
X183889999Y-111080001D01*
X183889999Y-111080001D01*
X183889999Y-111080000D01*
X183889999Y-111080000D01*
X183889999Y-111080000D01*
X183889999Y-111080000D01*
X183889999Y-111080000D01*
X183889999Y-111080000D01*
X183890000Y-111080000D01*
D10*
X184690000Y-108660000D02*
X187690000Y-108660000D01*
X184690000Y-110260000D02*
X184690000Y-108660000D01*
X184690000Y-118260000D02*
X184690000Y-119860000D01*
X184690000Y-119860000D02*
X187690000Y-119860000D01*
X185690000Y-110260000D02*
X184690000Y-110260000D01*
X185690000Y-118260000D02*
X184690000Y-118260000D01*
X190290000Y-108660000D02*
X196490000Y-108660000D01*
X196490000Y-119860000D02*
X190290000Y-119860000D01*
X198690000Y-109460000D02*
X198690000Y-119060000D01*
D20*
X183790000Y-111080000D02*
G75*
G02*
X183890000Y-111080000I50000J0D01*
G01*
X183890000Y-111080000D02*
G75*
G02*
X183790000Y-111080000I-50000J0D01*
G01*
%TD*%
D22*
X99810000Y-94239998D02*
X99810000Y-135746100D01*
X99810000Y-135746100D02*
G75*
G02*
X114056880Y-149993050I4000000J-10246900D01*
G01*
X111310000Y-114993050D02*
G75*
G02*
X108310000Y-114993050I-1500000J0D01*
G01*
X108310000Y-114993050D02*
G75*
G02*
X111310000Y-114993050I1500000J0D01*
G01*
X114056880Y-149993050D02*
X205563052Y-149993050D01*
X114056948Y-79993050D02*
G75*
G02*
X99810000Y-94239998I-10246948J-4000000D01*
G01*
X205563052Y-149993050D02*
G75*
G02*
X219810000Y-135746102I10246948J4000000D01*
G01*
X205563123Y-79993050D02*
X114056948Y-79993050D01*
X211310000Y-114993050D02*
G75*
G02*
X208310000Y-114993050I-1500000J0D01*
G01*
X208310000Y-114993050D02*
G75*
G02*
X211310000Y-114993050I1500000J0D01*
G01*
X219810000Y-94239998D02*
G75*
G02*
X205563122Y-79993049I-4000000J10246898D01*
G01*
X219810000Y-135746103D02*
X219810000Y-94239998D01*
M02*
